ISO-10303-21;
HEADER;
/* Generated by software containing ST-Developer
 * from STEP Tools, Inc. (www.steptools.com) 
 */

FILE_DESCRIPTION(
/* description */ (''),
/* implementation_level */ '2;1');

FILE_NAME(
/* name */ 'Adapter_BeckhoffSPS.stp',
/* time_stamp */ '2026-03-07T10:59:22+01:00',
/* author */ ('neume'),
/* organization */ (''),
/* preprocessor_version */ 'ST-DEVELOPER v20.1',
/* originating_system */ 'Autodesk Inventor 2026',
/* authorisation */ '');

FILE_SCHEMA (('AUTOMOTIVE_DESIGN { 1 0 10303 214 3 1 1 }'));
ENDSEC;

DATA;
#10=MECHANICAL_DESIGN_GEOMETRIC_PRESENTATION_REPRESENTATION('',(#13),#641);
#11=SHAPE_REPRESENTATION_RELATIONSHIP('SRR','None',#648,#12);
#12=ADVANCED_BREP_SHAPE_REPRESENTATION('',(#14),#640);
#13=STYLED_ITEM('',(#658),#14);
#14=MANIFOLD_SOLID_BREP('Volumenk\X\F6rper1',#363);
#15=FACE_BOUND('',#65,.T.);
#16=FACE_BOUND('',#66,.T.);
#17=FACE_BOUND('',#67,.T.);
#18=FACE_BOUND('',#68,.T.);
#19=FACE_BOUND('',#69,.T.);
#20=FACE_BOUND('',#70,.T.);
#21=FACE_BOUND('',#87,.T.);
#22=FACE_BOUND('',#88,.T.);
#23=FACE_BOUND('',#89,.T.);
#24=FACE_BOUND('',#90,.T.);
#25=FACE_BOUND('',#91,.T.);
#26=FACE_BOUND('',#92,.T.);
#27=PLANE('',#391);
#28=PLANE('',#401);
#29=PLANE('',#402);
#30=PLANE('',#403);
#31=PLANE('',#404);
#32=PLANE('',#427);
#33=CYLINDRICAL_SURFACE('',#389,2.1);
#34=CYLINDRICAL_SURFACE('',#405,2.1);
#35=CYLINDRICAL_SURFACE('',#408,2.1);
#36=CYLINDRICAL_SURFACE('',#413,2.75);
#37=CYLINDRICAL_SURFACE('',#415,2.75);
#38=CYLINDRICAL_SURFACE('',#417,2.75);
#39=CYLINDRICAL_SURFACE('',#419,4.);
#40=CYLINDRICAL_SURFACE('',#421,4.);
#41=CYLINDRICAL_SURFACE('',#423,4.);
#42=CYLINDRICAL_SURFACE('',#425,4.);
#43=FACE_OUTER_BOUND('',#62,.T.);
#44=FACE_OUTER_BOUND('',#63,.T.);
#45=FACE_OUTER_BOUND('',#64,.T.);
#46=FACE_OUTER_BOUND('',#71,.T.);
#47=FACE_OUTER_BOUND('',#72,.T.);
#48=FACE_OUTER_BOUND('',#73,.T.);
#49=FACE_OUTER_BOUND('',#74,.T.);
#50=FACE_OUTER_BOUND('',#75,.T.);
#51=FACE_OUTER_BOUND('',#76,.T.);
#52=FACE_OUTER_BOUND('',#77,.T.);
#53=FACE_OUTER_BOUND('',#78,.T.);
#54=FACE_OUTER_BOUND('',#79,.T.);
#55=FACE_OUTER_BOUND('',#80,.T.);
#56=FACE_OUTER_BOUND('',#81,.T.);
#57=FACE_OUTER_BOUND('',#82,.T.);
#58=FACE_OUTER_BOUND('',#83,.T.);
#59=FACE_OUTER_BOUND('',#84,.T.);
#60=FACE_OUTER_BOUND('',#85,.T.);
#61=FACE_OUTER_BOUND('',#86,.T.);
#62=EDGE_LOOP('',(#245,#246,#247,#248));
#63=EDGE_LOOP('',(#249,#250,#251,#252));
#64=EDGE_LOOP('',(#253,#254,#255,#256,#257,#258,#259,#260));
#65=EDGE_LOOP('',(#261));
#66=EDGE_LOOP('',(#262));
#67=EDGE_LOOP('',(#263));
#68=EDGE_LOOP('',(#264));
#69=EDGE_LOOP('',(#265));
#70=EDGE_LOOP('',(#266));
#71=EDGE_LOOP('',(#267,#268,#269,#270));
#72=EDGE_LOOP('',(#271,#272,#273,#274));
#73=EDGE_LOOP('',(#275,#276,#277,#278));
#74=EDGE_LOOP('',(#279,#280,#281,#282));
#75=EDGE_LOOP('',(#283,#284,#285,#286));
#76=EDGE_LOOP('',(#287,#288,#289,#290));
#77=EDGE_LOOP('',(#291,#292,#293,#294));
#78=EDGE_LOOP('',(#295,#296,#297,#298));
#79=EDGE_LOOP('',(#299,#300,#301,#302));
#80=EDGE_LOOP('',(#303,#304,#305,#306));
#81=EDGE_LOOP('',(#307,#308,#309,#310));
#82=EDGE_LOOP('',(#311,#312,#313,#314));
#83=EDGE_LOOP('',(#315,#316,#317,#318));
#84=EDGE_LOOP('',(#319,#320,#321,#322));
#85=EDGE_LOOP('',(#323,#324,#325,#326));
#86=EDGE_LOOP('',(#327,#328,#329,#330,#331,#332,#333,#334));
#87=EDGE_LOOP('',(#335));
#88=EDGE_LOOP('',(#336));
#89=EDGE_LOOP('',(#337));
#90=EDGE_LOOP('',(#338));
#91=EDGE_LOOP('',(#339));
#92=EDGE_LOOP('',(#340));
#93=LINE('',#544,#118);
#94=LINE('',#548,#119);
#95=LINE('',#553,#120);
#96=LINE('',#557,#121);
#97=LINE('',#561,#122);
#98=LINE('',#565,#123);
#99=LINE('',#580,#124);
#100=LINE('',#581,#125);
#101=LINE('',#582,#126);
#102=LINE('',#586,#127);
#103=LINE('',#587,#128);
#104=LINE('',#588,#129);
#105=LINE('',#591,#130);
#106=LINE('',#593,#131);
#107=LINE('',#594,#132);
#108=LINE('',#597,#133);
#109=LINE('',#599,#134);
#110=LINE('',#600,#135);
#111=LINE('',#605,#136);
#112=LINE('',#611,#137);
#113=LINE('',#614,#138);
#114=LINE('',#616,#139);
#115=LINE('',#619,#140);
#116=LINE('',#623,#141);
#117=LINE('',#627,#142);
#118=VECTOR('',#434,2.1);
#119=VECTOR('',#439,2.1);
#120=VECTOR('',#444,1.);
#121=VECTOR('',#447,1.);
#122=VECTOR('',#450,1.);
#123=VECTOR('',#453,1.);
#124=VECTOR('',#468,1.);
#125=VECTOR('',#469,1.);
#126=VECTOR('',#470,1.);
#127=VECTOR('',#473,1.);
#128=VECTOR('',#474,1.);
#129=VECTOR('',#475,1.);
#130=VECTOR('',#478,1.);
#131=VECTOR('',#479,1.);
#132=VECTOR('',#480,1.);
#133=VECTOR('',#483,1.);
#134=VECTOR('',#484,1.);
#135=VECTOR('',#485,1.);
#136=VECTOR('',#490,2.1);
#137=VECTOR('',#497,2.1);
#138=VECTOR('',#502,2.1);
#139=VECTOR('',#505,2.1);
#140=VECTOR('',#508,2.75);
#141=VECTOR('',#513,2.75);
#142=VECTOR('',#518,2.75);
#143=CIRCLE('',#387,2.1);
#144=CIRCLE('',#388,5.1);
#145=CIRCLE('',#390,2.1);
#146=CIRCLE('',#392,4.);
#147=CIRCLE('',#393,4.);
#148=CIRCLE('',#394,4.);
#149=CIRCLE('',#395,4.);
#150=CIRCLE('',#396,2.75);
#151=CIRCLE('',#397,2.75);
#152=CIRCLE('',#398,2.75);
#153=CIRCLE('',#399,5.1);
#154=CIRCLE('',#400,5.1);
#155=CIRCLE('',#406,2.1);
#156=CIRCLE('',#407,2.1);
#157=CIRCLE('',#409,2.1);
#158=CIRCLE('',#410,2.1);
#159=CIRCLE('',#414,2.75);
#160=CIRCLE('',#416,2.75);
#161=CIRCLE('',#418,2.75);
#162=CIRCLE('',#420,4.);
#163=CIRCLE('',#422,4.);
#164=CIRCLE('',#424,4.);
#165=CIRCLE('',#426,4.);
#166=VERTEX_POINT('',#541);
#167=VERTEX_POINT('',#543);
#168=VERTEX_POINT('',#547);
#169=VERTEX_POINT('',#551);
#170=VERTEX_POINT('',#552);
#171=VERTEX_POINT('',#554);
#172=VERTEX_POINT('',#556);
#173=VERTEX_POINT('',#558);
#174=VERTEX_POINT('',#560);
#175=VERTEX_POINT('',#562);
#176=VERTEX_POINT('',#564);
#177=VERTEX_POINT('',#567);
#178=VERTEX_POINT('',#569);
#179=VERTEX_POINT('',#571);
#180=VERTEX_POINT('',#573);
#181=VERTEX_POINT('',#575);
#182=VERTEX_POINT('',#578);
#183=VERTEX_POINT('',#579);
#184=VERTEX_POINT('',#584);
#185=VERTEX_POINT('',#585);
#186=VERTEX_POINT('',#590);
#187=VERTEX_POINT('',#592);
#188=VERTEX_POINT('',#596);
#189=VERTEX_POINT('',#598);
#190=VERTEX_POINT('',#602);
#191=VERTEX_POINT('',#604);
#192=VERTEX_POINT('',#608);
#193=VERTEX_POINT('',#610);
#194=VERTEX_POINT('',#618);
#195=VERTEX_POINT('',#622);
#196=VERTEX_POINT('',#626);
#197=EDGE_CURVE('',#166,#166,#143,.T.);
#198=EDGE_CURVE('',#166,#167,#93,.T.);
#199=EDGE_CURVE('',#167,#167,#144,.T.);
#200=EDGE_CURVE('',#166,#168,#94,.T.);
#201=EDGE_CURVE('',#168,#168,#145,.T.);
#202=EDGE_CURVE('',#169,#170,#95,.T.);
#203=EDGE_CURVE('',#170,#171,#146,.T.);
#204=EDGE_CURVE('',#171,#172,#96,.T.);
#205=EDGE_CURVE('',#172,#173,#147,.T.);
#206=EDGE_CURVE('',#173,#174,#97,.T.);
#207=EDGE_CURVE('',#174,#175,#148,.T.);
#208=EDGE_CURVE('',#175,#176,#98,.T.);
#209=EDGE_CURVE('',#176,#169,#149,.T.);
#210=EDGE_CURVE('',#177,#177,#150,.T.);
#211=EDGE_CURVE('',#178,#178,#151,.T.);
#212=EDGE_CURVE('',#179,#179,#152,.T.);
#213=EDGE_CURVE('',#180,#180,#153,.T.);
#214=EDGE_CURVE('',#181,#181,#154,.T.);
#215=EDGE_CURVE('',#182,#183,#99,.T.);
#216=EDGE_CURVE('',#183,#170,#100,.T.);
#217=EDGE_CURVE('',#182,#169,#101,.T.);
#218=EDGE_CURVE('',#184,#185,#102,.T.);
#219=EDGE_CURVE('',#185,#172,#103,.T.);
#220=EDGE_CURVE('',#184,#171,#104,.T.);
#221=EDGE_CURVE('',#186,#173,#105,.T.);
#222=EDGE_CURVE('',#186,#187,#106,.T.);
#223=EDGE_CURVE('',#187,#174,#107,.T.);
#224=EDGE_CURVE('',#188,#175,#108,.T.);
#225=EDGE_CURVE('',#188,#189,#109,.T.);
#226=EDGE_CURVE('',#189,#176,#110,.T.);
#227=EDGE_CURVE('',#190,#190,#155,.T.);
#228=EDGE_CURVE('',#190,#191,#111,.T.);
#229=EDGE_CURVE('',#191,#191,#156,.T.);
#230=EDGE_CURVE('',#192,#192,#157,.T.);
#231=EDGE_CURVE('',#192,#193,#112,.T.);
#232=EDGE_CURVE('',#193,#193,#158,.T.);
#233=EDGE_CURVE('',#192,#181,#113,.T.);
#234=EDGE_CURVE('',#190,#180,#114,.T.);
#235=EDGE_CURVE('',#179,#194,#115,.T.);
#236=EDGE_CURVE('',#194,#194,#159,.T.);
#237=EDGE_CURVE('',#178,#195,#116,.T.);
#238=EDGE_CURVE('',#195,#195,#160,.T.);
#239=EDGE_CURVE('',#177,#196,#117,.T.);
#240=EDGE_CURVE('',#196,#196,#161,.T.);
#241=EDGE_CURVE('',#189,#182,#162,.T.);
#242=EDGE_CURVE('',#187,#188,#163,.T.);
#243=EDGE_CURVE('',#185,#186,#164,.T.);
#244=EDGE_CURVE('',#183,#184,#165,.T.);
#245=ORIENTED_EDGE('',*,*,#197,.T.);
#246=ORIENTED_EDGE('',*,*,#198,.T.);
#247=ORIENTED_EDGE('',*,*,#199,.T.);
#248=ORIENTED_EDGE('',*,*,#198,.F.);
#249=ORIENTED_EDGE('',*,*,#197,.F.);
#250=ORIENTED_EDGE('',*,*,#200,.T.);
#251=ORIENTED_EDGE('',*,*,#201,.F.);
#252=ORIENTED_EDGE('',*,*,#200,.F.);
#253=ORIENTED_EDGE('',*,*,#202,.T.);
#254=ORIENTED_EDGE('',*,*,#203,.T.);
#255=ORIENTED_EDGE('',*,*,#204,.T.);
#256=ORIENTED_EDGE('',*,*,#205,.T.);
#257=ORIENTED_EDGE('',*,*,#206,.T.);
#258=ORIENTED_EDGE('',*,*,#207,.T.);
#259=ORIENTED_EDGE('',*,*,#208,.T.);
#260=ORIENTED_EDGE('',*,*,#209,.T.);
#261=ORIENTED_EDGE('',*,*,#199,.F.);
#262=ORIENTED_EDGE('',*,*,#210,.F.);
#263=ORIENTED_EDGE('',*,*,#211,.F.);
#264=ORIENTED_EDGE('',*,*,#212,.F.);
#265=ORIENTED_EDGE('',*,*,#213,.F.);
#266=ORIENTED_EDGE('',*,*,#214,.F.);
#267=ORIENTED_EDGE('',*,*,#215,.T.);
#268=ORIENTED_EDGE('',*,*,#216,.T.);
#269=ORIENTED_EDGE('',*,*,#202,.F.);
#270=ORIENTED_EDGE('',*,*,#217,.F.);
#271=ORIENTED_EDGE('',*,*,#218,.T.);
#272=ORIENTED_EDGE('',*,*,#219,.T.);
#273=ORIENTED_EDGE('',*,*,#204,.F.);
#274=ORIENTED_EDGE('',*,*,#220,.F.);
#275=ORIENTED_EDGE('',*,*,#206,.F.);
#276=ORIENTED_EDGE('',*,*,#221,.F.);
#277=ORIENTED_EDGE('',*,*,#222,.T.);
#278=ORIENTED_EDGE('',*,*,#223,.T.);
#279=ORIENTED_EDGE('',*,*,#208,.F.);
#280=ORIENTED_EDGE('',*,*,#224,.F.);
#281=ORIENTED_EDGE('',*,*,#225,.T.);
#282=ORIENTED_EDGE('',*,*,#226,.T.);
#283=ORIENTED_EDGE('',*,*,#227,.F.);
#284=ORIENTED_EDGE('',*,*,#228,.T.);
#285=ORIENTED_EDGE('',*,*,#229,.F.);
#286=ORIENTED_EDGE('',*,*,#228,.F.);
#287=ORIENTED_EDGE('',*,*,#230,.F.);
#288=ORIENTED_EDGE('',*,*,#231,.T.);
#289=ORIENTED_EDGE('',*,*,#232,.F.);
#290=ORIENTED_EDGE('',*,*,#231,.F.);
#291=ORIENTED_EDGE('',*,*,#230,.T.);
#292=ORIENTED_EDGE('',*,*,#233,.T.);
#293=ORIENTED_EDGE('',*,*,#214,.T.);
#294=ORIENTED_EDGE('',*,*,#233,.F.);
#295=ORIENTED_EDGE('',*,*,#227,.T.);
#296=ORIENTED_EDGE('',*,*,#234,.T.);
#297=ORIENTED_EDGE('',*,*,#213,.T.);
#298=ORIENTED_EDGE('',*,*,#234,.F.);
#299=ORIENTED_EDGE('',*,*,#212,.T.);
#300=ORIENTED_EDGE('',*,*,#235,.T.);
#301=ORIENTED_EDGE('',*,*,#236,.F.);
#302=ORIENTED_EDGE('',*,*,#235,.F.);
#303=ORIENTED_EDGE('',*,*,#211,.T.);
#304=ORIENTED_EDGE('',*,*,#237,.T.);
#305=ORIENTED_EDGE('',*,*,#238,.F.);
#306=ORIENTED_EDGE('',*,*,#237,.F.);
#307=ORIENTED_EDGE('',*,*,#210,.T.);
#308=ORIENTED_EDGE('',*,*,#239,.T.);
#309=ORIENTED_EDGE('',*,*,#240,.F.);
#310=ORIENTED_EDGE('',*,*,#239,.F.);
#311=ORIENTED_EDGE('',*,*,#209,.F.);
#312=ORIENTED_EDGE('',*,*,#226,.F.);
#313=ORIENTED_EDGE('',*,*,#241,.T.);
#314=ORIENTED_EDGE('',*,*,#217,.T.);
#315=ORIENTED_EDGE('',*,*,#207,.F.);
#316=ORIENTED_EDGE('',*,*,#223,.F.);
#317=ORIENTED_EDGE('',*,*,#242,.T.);
#318=ORIENTED_EDGE('',*,*,#224,.T.);
#319=ORIENTED_EDGE('',*,*,#205,.F.);
#320=ORIENTED_EDGE('',*,*,#219,.F.);
#321=ORIENTED_EDGE('',*,*,#243,.T.);
#322=ORIENTED_EDGE('',*,*,#221,.T.);
#323=ORIENTED_EDGE('',*,*,#203,.F.);
#324=ORIENTED_EDGE('',*,*,#216,.F.);
#325=ORIENTED_EDGE('',*,*,#244,.T.);
#326=ORIENTED_EDGE('',*,*,#220,.T.);
#327=ORIENTED_EDGE('',*,*,#215,.F.);
#328=ORIENTED_EDGE('',*,*,#241,.F.);
#329=ORIENTED_EDGE('',*,*,#225,.F.);
#330=ORIENTED_EDGE('',*,*,#242,.F.);
#331=ORIENTED_EDGE('',*,*,#222,.F.);
#332=ORIENTED_EDGE('',*,*,#243,.F.);
#333=ORIENTED_EDGE('',*,*,#218,.F.);
#334=ORIENTED_EDGE('',*,*,#244,.F.);
#335=ORIENTED_EDGE('',*,*,#201,.T.);
#336=ORIENTED_EDGE('',*,*,#240,.T.);
#337=ORIENTED_EDGE('',*,*,#238,.T.);
#338=ORIENTED_EDGE('',*,*,#236,.T.);
#339=ORIENTED_EDGE('',*,*,#229,.T.);
#340=ORIENTED_EDGE('',*,*,#232,.T.);
#341=CONICAL_SURFACE('',#386,2.1,0.785398163397448);
#342=CONICAL_SURFACE('',#411,2.1,0.785398163397448);
#343=CONICAL_SURFACE('',#412,2.1,0.785398163397448);
#344=ADVANCED_FACE('',(#43),#341,.F.);
#345=ADVANCED_FACE('',(#44),#33,.F.);
#346=ADVANCED_FACE('',(#45,#15,#16,#17,#18,#19,#20),#27,.T.);
#347=ADVANCED_FACE('',(#46),#28,.T.);
#348=ADVANCED_FACE('',(#47),#29,.T.);
#349=ADVANCED_FACE('',(#48),#30,.T.);
#350=ADVANCED_FACE('',(#49),#31,.T.);
#351=ADVANCED_FACE('',(#50),#34,.F.);
#352=ADVANCED_FACE('',(#51),#35,.F.);
#353=ADVANCED_FACE('',(#52),#342,.F.);
#354=ADVANCED_FACE('',(#53),#343,.F.);
#355=ADVANCED_FACE('',(#54),#36,.F.);
#356=ADVANCED_FACE('',(#55),#37,.F.);
#357=ADVANCED_FACE('',(#56),#38,.F.);
#358=ADVANCED_FACE('',(#57),#39,.T.);
#359=ADVANCED_FACE('',(#58),#40,.T.);
#360=ADVANCED_FACE('',(#59),#41,.T.);
#361=ADVANCED_FACE('',(#60),#42,.T.);
#362=ADVANCED_FACE('',(#61,#21,#22,#23,#24,#25,#26),#32,.F.);
#363=CLOSED_SHELL('',(#344,#345,#346,#347,#348,#349,#350,#351,#352,#353,
#354,#355,#356,#357,#358,#359,#360,#361,#362));
#364=DERIVED_UNIT_ELEMENT(#367,1.);
#365=DERIVED_UNIT_ELEMENT(#643,-3.);
#366=DIMENSIONAL_EXPONENTS(0.,1.,0.,0.,0.,0.,0.);
#367=(
CONVERSION_BASED_UNIT('gram',#369)
MASS_UNIT()
NAMED_UNIT(#366)
);
#368=(
MASS_UNIT()
NAMED_UNIT(*)
SI_UNIT(.KILO.,.GRAM.)
);
#369=MASS_MEASURE_WITH_UNIT(MASS_MEASURE(0.001),#368);
#370=DERIVED_UNIT((#364,#365));
#371=MEASURE_REPRESENTATION_ITEM('density measure',
POSITIVE_RATIO_MEASURE(1.),#370);
#372=PROPERTY_DEFINITION_REPRESENTATION(#377,#374);
#373=PROPERTY_DEFINITION_REPRESENTATION(#378,#375);
#374=REPRESENTATION('material name',(#376),#640);
#375=REPRESENTATION('density',(#371),#640);
#376=DESCRIPTIVE_REPRESENTATION_ITEM('Generisch','Generisch');
#377=PROPERTY_DEFINITION('material property','material name',#650);
#378=PROPERTY_DEFINITION('material property','density of part',#650);
#379=DATE_TIME_ROLE('creation_date');
#380=APPLIED_DATE_AND_TIME_ASSIGNMENT(#381,#379,(#650));
#381=DATE_AND_TIME(#382,#383);
#382=CALENDAR_DATE(2026,7,3);
#383=LOCAL_TIME(0,0,0.,#384);
#384=COORDINATED_UNIVERSAL_TIME_OFFSET(0,0,.BEHIND.);
#385=AXIS2_PLACEMENT_3D('',#539,#428,#429);
#386=AXIS2_PLACEMENT_3D('',#540,#430,#431);
#387=AXIS2_PLACEMENT_3D('',#542,#432,#433);
#388=AXIS2_PLACEMENT_3D('',#545,#435,#436);
#389=AXIS2_PLACEMENT_3D('',#546,#437,#438);
#390=AXIS2_PLACEMENT_3D('',#549,#440,#441);
#391=AXIS2_PLACEMENT_3D('',#550,#442,#443);
#392=AXIS2_PLACEMENT_3D('',#555,#445,#446);
#393=AXIS2_PLACEMENT_3D('',#559,#448,#449);
#394=AXIS2_PLACEMENT_3D('',#563,#451,#452);
#395=AXIS2_PLACEMENT_3D('',#566,#454,#455);
#396=AXIS2_PLACEMENT_3D('',#568,#456,#457);
#397=AXIS2_PLACEMENT_3D('',#570,#458,#459);
#398=AXIS2_PLACEMENT_3D('',#572,#460,#461);
#399=AXIS2_PLACEMENT_3D('',#574,#462,#463);
#400=AXIS2_PLACEMENT_3D('',#576,#464,#465);
#401=AXIS2_PLACEMENT_3D('',#577,#466,#467);
#402=AXIS2_PLACEMENT_3D('',#583,#471,#472);
#403=AXIS2_PLACEMENT_3D('',#589,#476,#477);
#404=AXIS2_PLACEMENT_3D('',#595,#481,#482);
#405=AXIS2_PLACEMENT_3D('',#601,#486,#487);
#406=AXIS2_PLACEMENT_3D('',#603,#488,#489);
#407=AXIS2_PLACEMENT_3D('',#606,#491,#492);
#408=AXIS2_PLACEMENT_3D('',#607,#493,#494);
#409=AXIS2_PLACEMENT_3D('',#609,#495,#496);
#410=AXIS2_PLACEMENT_3D('',#612,#498,#499);
#411=AXIS2_PLACEMENT_3D('',#613,#500,#501);
#412=AXIS2_PLACEMENT_3D('',#615,#503,#504);
#413=AXIS2_PLACEMENT_3D('',#617,#506,#507);
#414=AXIS2_PLACEMENT_3D('',#620,#509,#510);
#415=AXIS2_PLACEMENT_3D('',#621,#511,#512);
#416=AXIS2_PLACEMENT_3D('',#624,#514,#515);
#417=AXIS2_PLACEMENT_3D('',#625,#516,#517);
#418=AXIS2_PLACEMENT_3D('',#628,#519,#520);
#419=AXIS2_PLACEMENT_3D('',#629,#521,#522);
#420=AXIS2_PLACEMENT_3D('',#630,#523,#524);
#421=AXIS2_PLACEMENT_3D('',#631,#525,#526);
#422=AXIS2_PLACEMENT_3D('',#632,#527,#528);
#423=AXIS2_PLACEMENT_3D('',#633,#529,#530);
#424=AXIS2_PLACEMENT_3D('',#634,#531,#532);
#425=AXIS2_PLACEMENT_3D('',#635,#533,#534);
#426=AXIS2_PLACEMENT_3D('',#636,#535,#536);
#427=AXIS2_PLACEMENT_3D('',#637,#537,#538);
#428=DIRECTION('axis',(0.,0.,1.));
#429=DIRECTION('refdir',(1.,0.,0.));
#430=DIRECTION('center_axis',(0.,0.,1.));
#431=DIRECTION('ref_axis',(1.,0.,0.));
#432=DIRECTION('center_axis',(0.,0.,-1.));
#433=DIRECTION('ref_axis',(1.,0.,0.));
#434=DIRECTION('',(-0.707106781186547,-8.65956056235493E-17,0.707106781186547));
#435=DIRECTION('center_axis',(0.,0.,1.));
#436=DIRECTION('ref_axis',(1.,0.,0.));
#437=DIRECTION('center_axis',(0.,0.,-1.));
#438=DIRECTION('ref_axis',(1.,0.,0.));
#439=DIRECTION('',(0.,0.,-1.));
#440=DIRECTION('center_axis',(0.,0.,1.));
#441=DIRECTION('ref_axis',(1.,0.,0.));
#442=DIRECTION('center_axis',(0.,0.,1.));
#443=DIRECTION('ref_axis',(1.,0.,0.));
#444=DIRECTION('',(0.,-1.,0.));
#445=DIRECTION('center_axis',(0.,0.,1.));
#446=DIRECTION('ref_axis',(1.,0.,0.));
#447=DIRECTION('',(1.,0.,0.));
#448=DIRECTION('center_axis',(0.,0.,1.));
#449=DIRECTION('ref_axis',(1.,0.,0.));
#450=DIRECTION('',(0.,1.,0.));
#451=DIRECTION('center_axis',(0.,0.,1.));
#452=DIRECTION('ref_axis',(1.,0.,0.));
#453=DIRECTION('',(-1.,0.,0.));
#454=DIRECTION('center_axis',(0.,0.,1.));
#455=DIRECTION('ref_axis',(1.,0.,0.));
#456=DIRECTION('center_axis',(0.,0.,1.));
#457=DIRECTION('ref_axis',(1.,0.,0.));
#458=DIRECTION('center_axis',(0.,0.,1.));
#459=DIRECTION('ref_axis',(1.,0.,0.));
#460=DIRECTION('center_axis',(0.,0.,1.));
#461=DIRECTION('ref_axis',(1.,0.,0.));
#462=DIRECTION('center_axis',(0.,0.,1.));
#463=DIRECTION('ref_axis',(1.,0.,0.));
#464=DIRECTION('center_axis',(0.,0.,1.));
#465=DIRECTION('ref_axis',(1.,0.,0.));
#466=DIRECTION('center_axis',(-1.,0.,0.));
#467=DIRECTION('ref_axis',(0.,-1.,0.));
#468=DIRECTION('',(0.,-1.,0.));
#469=DIRECTION('',(0.,0.,1.));
#470=DIRECTION('',(0.,0.,1.));
#471=DIRECTION('center_axis',(0.,-1.,0.));
#472=DIRECTION('ref_axis',(1.,0.,0.));
#473=DIRECTION('',(1.,0.,0.));
#474=DIRECTION('',(0.,0.,1.));
#475=DIRECTION('',(0.,0.,1.));
#476=DIRECTION('center_axis',(1.,0.,0.));
#477=DIRECTION('ref_axis',(0.,1.,0.));
#478=DIRECTION('',(0.,0.,1.));
#479=DIRECTION('',(0.,1.,0.));
#480=DIRECTION('',(0.,0.,1.));
#481=DIRECTION('center_axis',(0.,1.,0.));
#482=DIRECTION('ref_axis',(-1.,0.,0.));
#483=DIRECTION('',(0.,0.,1.));
#484=DIRECTION('',(-1.,0.,0.));
#485=DIRECTION('',(0.,0.,1.));
#486=DIRECTION('center_axis',(0.,0.,-1.));
#487=DIRECTION('ref_axis',(1.,0.,0.));
#488=DIRECTION('center_axis',(0.,0.,-1.));
#489=DIRECTION('ref_axis',(1.,0.,0.));
#490=DIRECTION('',(0.,0.,-1.));
#491=DIRECTION('center_axis',(0.,0.,1.));
#492=DIRECTION('ref_axis',(1.,0.,0.));
#493=DIRECTION('center_axis',(0.,0.,-1.));
#494=DIRECTION('ref_axis',(1.,0.,0.));
#495=DIRECTION('center_axis',(0.,0.,-1.));
#496=DIRECTION('ref_axis',(1.,0.,0.));
#497=DIRECTION('',(0.,0.,-1.));
#498=DIRECTION('center_axis',(0.,0.,1.));
#499=DIRECTION('ref_axis',(1.,0.,0.));
#500=DIRECTION('center_axis',(0.,0.,1.));
#501=DIRECTION('ref_axis',(1.,0.,0.));
#502=DIRECTION('',(-0.707106781186547,-8.65956056235493E-17,0.707106781186547));
#503=DIRECTION('center_axis',(0.,0.,1.));
#504=DIRECTION('ref_axis',(1.,0.,0.));
#505=DIRECTION('',(-0.707106781186547,-8.65956056235493E-17,0.707106781186547));
#506=DIRECTION('center_axis',(0.,0.,-1.));
#507=DIRECTION('ref_axis',(1.,0.,0.));
#508=DIRECTION('',(0.,0.,-1.));
#509=DIRECTION('center_axis',(0.,0.,1.));
#510=DIRECTION('ref_axis',(1.,0.,0.));
#511=DIRECTION('center_axis',(0.,0.,-1.));
#512=DIRECTION('ref_axis',(1.,0.,0.));
#513=DIRECTION('',(0.,0.,-1.));
#514=DIRECTION('center_axis',(0.,0.,1.));
#515=DIRECTION('ref_axis',(1.,0.,0.));
#516=DIRECTION('center_axis',(0.,0.,-1.));
#517=DIRECTION('ref_axis',(1.,0.,0.));
#518=DIRECTION('',(0.,0.,-1.));
#519=DIRECTION('center_axis',(0.,0.,1.));
#520=DIRECTION('ref_axis',(1.,0.,0.));
#521=DIRECTION('center_axis',(0.,0.,1.));
#522=DIRECTION('ref_axis',(-1.,0.,0.));
#523=DIRECTION('center_axis',(0.,0.,1.));
#524=DIRECTION('ref_axis',(-1.,0.,0.));
#525=DIRECTION('center_axis',(0.,0.,1.));
#526=DIRECTION('ref_axis',(0.,1.,0.));
#527=DIRECTION('center_axis',(0.,0.,1.));
#528=DIRECTION('ref_axis',(0.,1.,0.));
#529=DIRECTION('center_axis',(0.,0.,1.));
#530=DIRECTION('ref_axis',(1.,0.,0.));
#531=DIRECTION('center_axis',(0.,0.,1.));
#532=DIRECTION('ref_axis',(1.,0.,0.));
#533=DIRECTION('center_axis',(0.,0.,1.));
#534=DIRECTION('ref_axis',(0.,-1.,0.));
#535=DIRECTION('center_axis',(0.,0.,1.));
#536=DIRECTION('ref_axis',(0.,-1.,0.));
#537=DIRECTION('center_axis',(0.,0.,1.));
#538=DIRECTION('ref_axis',(1.,0.,0.));
#539=CARTESIAN_POINT('',(0.,0.,0.));
#540=CARTESIAN_POINT('Origin',(0.,64.5,1.));
#541=CARTESIAN_POINT('',(-2.1,64.5,1.));
#542=CARTESIAN_POINT('Origin',(0.,64.5,1.));
#543=CARTESIAN_POINT('',(-5.1,64.5,4.));
#544=CARTESIAN_POINT('',(-2.1,64.5,1.));
#545=CARTESIAN_POINT('Origin',(0.,64.5,4.));
#546=CARTESIAN_POINT('Origin',(0.,64.5,4.));
#547=CARTESIAN_POINT('',(-2.1,64.5,0.));
#548=CARTESIAN_POINT('',(-2.1,64.5,4.));
#549=CARTESIAN_POINT('Origin',(0.,64.5,0.));
#550=CARTESIAN_POINT('Origin',(0.,0.,4.));
#551=CARTESIAN_POINT('',(-17.,85.5,4.));
#552=CARTESIAN_POINT('',(-17.,4.,4.));
#553=CARTESIAN_POINT('',(-17.,44.75,4.));
#554=CARTESIAN_POINT('',(-13.,0.,4.));
#555=CARTESIAN_POINT('Origin',(-13.,4.,4.));
#556=CARTESIAN_POINT('',(13.,0.,4.));
#557=CARTESIAN_POINT('',(0.,0.,4.));
#558=CARTESIAN_POINT('',(17.,4.,4.));
#559=CARTESIAN_POINT('Origin',(13.,4.,4.));
#560=CARTESIAN_POINT('',(17.,85.5,4.));
#561=CARTESIAN_POINT('',(17.,0.,4.));
#562=CARTESIAN_POINT('',(13.,89.5,4.));
#563=CARTESIAN_POINT('Origin',(13.,85.5,4.));
#564=CARTESIAN_POINT('',(-13.,89.5,4.));
#565=CARTESIAN_POINT('',(1.77635683940025E-15,89.5,4.));
#566=CARTESIAN_POINT('Origin',(-13.,85.5,4.));
#567=CARTESIAN_POINT('',(-2.75,79.5,4.));
#568=CARTESIAN_POINT('Origin',(0.,79.5,4.));
#569=CARTESIAN_POINT('',(-11.75,25.,4.));
#570=CARTESIAN_POINT('Origin',(-9.,25.,4.));
#571=CARTESIAN_POINT('',(6.25,25.,4.));
#572=CARTESIAN_POINT('Origin',(9.,25.,4.));
#573=CARTESIAN_POINT('',(3.9,10.,4.));
#574=CARTESIAN_POINT('Origin',(9.,10.,4.));
#575=CARTESIAN_POINT('',(-14.1,10.,4.));
#576=CARTESIAN_POINT('Origin',(-9.,10.,4.));
#577=CARTESIAN_POINT('Origin',(-17.,89.5,0.));
#578=CARTESIAN_POINT('',(-17.,85.5,0.));
#579=CARTESIAN_POINT('',(-17.,4.,0.));
#580=CARTESIAN_POINT('',(-17.,89.5,0.));
#581=CARTESIAN_POINT('',(-17.,4.,0.));
#582=CARTESIAN_POINT('',(-17.,85.5,0.));
#583=CARTESIAN_POINT('Origin',(-17.,0.,0.));
#584=CARTESIAN_POINT('',(-13.,0.,0.));
#585=CARTESIAN_POINT('',(13.,0.,0.));
#586=CARTESIAN_POINT('',(-17.,0.,0.));
#587=CARTESIAN_POINT('',(13.,0.,0.));
#588=CARTESIAN_POINT('',(-13.,0.,0.));
#589=CARTESIAN_POINT('Origin',(17.,0.,0.));
#590=CARTESIAN_POINT('',(17.,4.,0.));
#591=CARTESIAN_POINT('',(17.,4.,0.));
#592=CARTESIAN_POINT('',(17.,85.5,0.));
#593=CARTESIAN_POINT('',(17.,0.,0.));
#594=CARTESIAN_POINT('',(17.,85.5,0.));
#595=CARTESIAN_POINT('Origin',(17.,89.5,0.));
#596=CARTESIAN_POINT('',(13.,89.5,0.));
#597=CARTESIAN_POINT('',(13.,89.5,0.));
#598=CARTESIAN_POINT('',(-13.,89.5,0.));
#599=CARTESIAN_POINT('',(17.,89.5,0.));
#600=CARTESIAN_POINT('',(-13.,89.5,0.));
#601=CARTESIAN_POINT('Origin',(9.,10.,4.));
#602=CARTESIAN_POINT('',(6.9,10.,1.));
#603=CARTESIAN_POINT('Origin',(9.,10.,1.));
#604=CARTESIAN_POINT('',(6.9,10.,0.));
#605=CARTESIAN_POINT('',(6.9,10.,4.));
#606=CARTESIAN_POINT('Origin',(9.,10.,0.));
#607=CARTESIAN_POINT('Origin',(-9.,10.,4.));
#608=CARTESIAN_POINT('',(-11.1,10.,1.));
#609=CARTESIAN_POINT('Origin',(-9.,10.,1.));
#610=CARTESIAN_POINT('',(-11.1,10.,0.));
#611=CARTESIAN_POINT('',(-11.1,10.,4.));
#612=CARTESIAN_POINT('Origin',(-9.,10.,0.));
#613=CARTESIAN_POINT('Origin',(-9.,10.,1.));
#614=CARTESIAN_POINT('',(-11.1,10.,1.));
#615=CARTESIAN_POINT('Origin',(9.,10.,1.));
#616=CARTESIAN_POINT('',(6.9,10.,1.));
#617=CARTESIAN_POINT('Origin',(9.,25.,4.));
#618=CARTESIAN_POINT('',(6.25,25.,0.));
#619=CARTESIAN_POINT('',(6.25,25.,4.));
#620=CARTESIAN_POINT('Origin',(9.,25.,0.));
#621=CARTESIAN_POINT('Origin',(-9.,25.,4.));
#622=CARTESIAN_POINT('',(-11.75,25.,0.));
#623=CARTESIAN_POINT('',(-11.75,25.,4.));
#624=CARTESIAN_POINT('Origin',(-9.,25.,0.));
#625=CARTESIAN_POINT('Origin',(0.,79.5,4.));
#626=CARTESIAN_POINT('',(-2.75,79.5,0.));
#627=CARTESIAN_POINT('',(-2.75,79.5,4.));
#628=CARTESIAN_POINT('Origin',(0.,79.5,0.));
#629=CARTESIAN_POINT('Origin',(-13.,85.5,2.));
#630=CARTESIAN_POINT('Origin',(-13.,85.5,0.));
#631=CARTESIAN_POINT('Origin',(13.,85.5,2.));
#632=CARTESIAN_POINT('Origin',(13.,85.5,0.));
#633=CARTESIAN_POINT('Origin',(13.,4.,2.));
#634=CARTESIAN_POINT('Origin',(13.,4.,0.));
#635=CARTESIAN_POINT('Origin',(-13.,4.,2.));
#636=CARTESIAN_POINT('Origin',(-13.,4.,0.));
#637=CARTESIAN_POINT('Origin',(0.,0.,0.));
#638=UNCERTAINTY_MEASURE_WITH_UNIT(LENGTH_MEASURE(0.01),#642,
'DISTANCE_ACCURACY_VALUE',
'Maximum model space distance between geometric entities at asserted c
onnectivities');
#639=UNCERTAINTY_MEASURE_WITH_UNIT(LENGTH_MEASURE(0.01),#642,
'DISTANCE_ACCURACY_VALUE',
'Maximum model space distance between geometric entities at asserted c
onnectivities');
#640=(
GEOMETRIC_REPRESENTATION_CONTEXT(3)
GLOBAL_UNCERTAINTY_ASSIGNED_CONTEXT((#638))
GLOBAL_UNIT_ASSIGNED_CONTEXT((#642,#644,#645))
REPRESENTATION_CONTEXT('','3D')
);
#641=(
GEOMETRIC_REPRESENTATION_CONTEXT(3)
GLOBAL_UNCERTAINTY_ASSIGNED_CONTEXT((#639))
GLOBAL_UNIT_ASSIGNED_CONTEXT((#642,#644,#645))
REPRESENTATION_CONTEXT('','3D')
);
#642=(
LENGTH_UNIT()
NAMED_UNIT(*)
SI_UNIT(.MILLI.,.METRE.)
);
#643=(
LENGTH_UNIT()
NAMED_UNIT(*)
SI_UNIT(.CENTI.,.METRE.)
);
#644=(
NAMED_UNIT(*)
PLANE_ANGLE_UNIT()
SI_UNIT($,.RADIAN.)
);
#645=(
NAMED_UNIT(*)
SI_UNIT($,.STERADIAN.)
SOLID_ANGLE_UNIT()
);
#646=SHAPE_DEFINITION_REPRESENTATION(#647,#648);
#647=PRODUCT_DEFINITION_SHAPE('',$,#650);
#648=SHAPE_REPRESENTATION('',(#385),#640);
#649=PRODUCT_DEFINITION_CONTEXT('part definition',#654,'design');
#650=PRODUCT_DEFINITION('Adapter_BeckhoffSPS','Adapter_BeckhoffSPS',#651,
#649);
#651=PRODUCT_DEFINITION_FORMATION('',$,#656);
#652=PRODUCT_RELATED_PRODUCT_CATEGORY('Adapter_BeckhoffSPS',
'Adapter_BeckhoffSPS',(#656));
#653=APPLICATION_PROTOCOL_DEFINITION('international standard',
'automotive_design',2009,#654);
#654=APPLICATION_CONTEXT(
'Core Data for Automotive Mechanical Design Process');
#655=PRODUCT_CONTEXT('part definition',#654,'mechanical');
#656=PRODUCT('Adapter_BeckhoffSPS','Adapter_BeckhoffSPS',$,(#655));
#657=PRESENTATION_STYLE_ASSIGNMENT((#659));
#658=PRESENTATION_STYLE_ASSIGNMENT((#660));
#659=SURFACE_STYLE_USAGE(.BOTH.,#665);
#660=SURFACE_STYLE_USAGE(.BOTH.,#666);
#661=SURFACE_STYLE_RENDERING_WITH_PROPERTIES($,#673,(#663));
#662=SURFACE_STYLE_RENDERING_WITH_PROPERTIES($,#674,(#664));
#663=SURFACE_STYLE_TRANSPARENT(0.);
#664=SURFACE_STYLE_TRANSPARENT(0.);
#665=SURFACE_SIDE_STYLE('',(#667,#661));
#666=SURFACE_SIDE_STYLE('',(#668,#662));
#667=SURFACE_STYLE_FILL_AREA(#669);
#668=SURFACE_STYLE_FILL_AREA(#670);
#669=FILL_AREA_STYLE('',(#671));
#670=FILL_AREA_STYLE('',(#672));
#671=FILL_AREA_STYLE_COLOUR('',#673);
#672=FILL_AREA_STYLE_COLOUR('',#674);
#673=COLOUR_RGB('',0.749019607843137,0.749019607843137,0.749019607843137);
#674=COLOUR_RGB('',0.823529411764706,0.823529411764706,1.);
ENDSEC;
END-ISO-10303-21;
