ISO-10303-21;
HEADER;
/* Generated by software containing ST-Developer
 * from STEP Tools, Inc. (www.steptools.com) 
 */

FILE_DESCRIPTION(
/* description */ (''),
/* implementation_level */ '2;1');

FILE_NAME(
/* name */ 'Plexiglasabdeckung.stp',
/* time_stamp */ '2026-03-07T11:11:31+01:00',
/* author */ ('neume'),
/* organization */ (''),
/* preprocessor_version */ 'ST-DEVELOPER v20.1',
/* originating_system */ 'Autodesk Inventor 2026',
/* authorisation */ '');

FILE_SCHEMA (('AUTOMOTIVE_DESIGN { 1 0 10303 214 3 1 1 }'));
ENDSEC;

DATA;
#10=MECHANICAL_DESIGN_GEOMETRIC_PRESENTATION_REPRESENTATION('',(#13),#518);
#11=SHAPE_REPRESENTATION_RELATIONSHIP('SRR','None',#525,#12);
#12=ADVANCED_BREP_SHAPE_REPRESENTATION('',(#14),#517);
#13=STYLED_ITEM('',(#535),#14);
#14=MANIFOLD_SOLID_BREP('Volumenk\X\F6rper1',#293);
#15=FACE_BOUND('',#54,.T.);
#16=FACE_BOUND('',#55,.T.);
#17=FACE_BOUND('',#56,.T.);
#18=FACE_BOUND('',#57,.T.);
#19=FACE_BOUND('',#71,.T.);
#20=FACE_BOUND('',#72,.T.);
#21=FACE_BOUND('',#73,.T.);
#22=FACE_BOUND('',#74,.T.);
#23=PLANE('',#321);
#24=PLANE('',#327);
#25=PLANE('',#330);
#26=PLANE('',#333);
#27=PLANE('',#334);
#28=PLANE('',#347);
#29=CYLINDRICAL_SURFACE('',#319,2.);
#30=CYLINDRICAL_SURFACE('',#328,10.);
#31=CYLINDRICAL_SURFACE('',#331,10.);
#32=CYLINDRICAL_SURFACE('',#335,2.);
#33=CYLINDRICAL_SURFACE('',#338,2.);
#34=CYLINDRICAL_SURFACE('',#341,2.);
#35=FACE_OUTER_BOUND('',#51,.T.);
#36=FACE_OUTER_BOUND('',#52,.T.);
#37=FACE_OUTER_BOUND('',#53,.T.);
#38=FACE_OUTER_BOUND('',#58,.T.);
#39=FACE_OUTER_BOUND('',#59,.T.);
#40=FACE_OUTER_BOUND('',#60,.T.);
#41=FACE_OUTER_BOUND('',#61,.T.);
#42=FACE_OUTER_BOUND('',#62,.T.);
#43=FACE_OUTER_BOUND('',#63,.T.);
#44=FACE_OUTER_BOUND('',#64,.T.);
#45=FACE_OUTER_BOUND('',#65,.T.);
#46=FACE_OUTER_BOUND('',#66,.T.);
#47=FACE_OUTER_BOUND('',#67,.T.);
#48=FACE_OUTER_BOUND('',#68,.T.);
#49=FACE_OUTER_BOUND('',#69,.T.);
#50=FACE_OUTER_BOUND('',#70,.T.);
#51=EDGE_LOOP('',(#197,#198,#199,#200));
#52=EDGE_LOOP('',(#201,#202,#203,#204));
#53=EDGE_LOOP('',(#205,#206,#207,#208,#209,#210));
#54=EDGE_LOOP('',(#211));
#55=EDGE_LOOP('',(#212));
#56=EDGE_LOOP('',(#213));
#57=EDGE_LOOP('',(#214));
#58=EDGE_LOOP('',(#215,#216,#217,#218));
#59=EDGE_LOOP('',(#219,#220,#221,#222));
#60=EDGE_LOOP('',(#223,#224,#225,#226));
#61=EDGE_LOOP('',(#227,#228,#229,#230));
#62=EDGE_LOOP('',(#231,#232,#233,#234));
#63=EDGE_LOOP('',(#235,#236,#237,#238));
#64=EDGE_LOOP('',(#239,#240,#241,#242));
#65=EDGE_LOOP('',(#243,#244,#245,#246));
#66=EDGE_LOOP('',(#247,#248,#249,#250));
#67=EDGE_LOOP('',(#251,#252,#253,#254));
#68=EDGE_LOOP('',(#255,#256,#257,#258));
#69=EDGE_LOOP('',(#259,#260,#261,#262));
#70=EDGE_LOOP('',(#263,#264,#265,#266,#267,#268));
#71=EDGE_LOOP('',(#269));
#72=EDGE_LOOP('',(#270));
#73=EDGE_LOOP('',(#271));
#74=EDGE_LOOP('',(#272));
#75=LINE('',#441,#97);
#76=LINE('',#445,#98);
#77=LINE('',#450,#99);
#78=LINE('',#454,#100);
#79=LINE('',#458,#101);
#80=LINE('',#459,#102);
#81=LINE('',#468,#103);
#82=LINE('',#470,#104);
#83=LINE('',#471,#105);
#84=LINE('',#475,#106);
#85=LINE('',#478,#107);
#86=LINE('',#479,#108);
#87=LINE('',#483,#109);
#88=LINE('',#486,#110);
#89=LINE('',#487,#111);
#90=LINE('',#489,#112);
#91=LINE('',#494,#113);
#92=LINE('',#500,#114);
#93=LINE('',#506,#115);
#94=LINE('',#509,#116);
#95=LINE('',#511,#117);
#96=LINE('',#513,#118);
#97=VECTOR('',#354,2.);
#98=VECTOR('',#359,2.);
#99=VECTOR('',#364,1.);
#100=VECTOR('',#367,1.);
#101=VECTOR('',#370,1.);
#102=VECTOR('',#371,1.);
#103=VECTOR('',#380,1.);
#104=VECTOR('',#381,1.);
#105=VECTOR('',#382,1.);
#106=VECTOR('',#387,1.);
#107=VECTOR('',#390,1.);
#108=VECTOR('',#391,1.);
#109=VECTOR('',#396,1.);
#110=VECTOR('',#399,1.);
#111=VECTOR('',#400,1.);
#112=VECTOR('',#403,1.);
#113=VECTOR('',#408,2.);
#114=VECTOR('',#415,2.);
#115=VECTOR('',#422,2.);
#116=VECTOR('',#427,2.);
#117=VECTOR('',#430,2.);
#118=VECTOR('',#433,2.);
#119=CIRCLE('',#317,2.);
#120=CIRCLE('',#318,4.29999999999999);
#121=CIRCLE('',#320,2.);
#122=CIRCLE('',#322,10.);
#123=CIRCLE('',#323,10.);
#124=CIRCLE('',#324,4.3);
#125=CIRCLE('',#325,4.29999999999999);
#126=CIRCLE('',#326,4.3);
#127=CIRCLE('',#329,10.);
#128=CIRCLE('',#332,10.);
#129=CIRCLE('',#336,2.);
#130=CIRCLE('',#337,2.);
#131=CIRCLE('',#339,2.);
#132=CIRCLE('',#340,2.);
#133=CIRCLE('',#342,2.);
#134=CIRCLE('',#343,2.);
#135=VERTEX_POINT('',#438);
#136=VERTEX_POINT('',#440);
#137=VERTEX_POINT('',#444);
#138=VERTEX_POINT('',#448);
#139=VERTEX_POINT('',#449);
#140=VERTEX_POINT('',#451);
#141=VERTEX_POINT('',#453);
#142=VERTEX_POINT('',#455);
#143=VERTEX_POINT('',#457);
#144=VERTEX_POINT('',#460);
#145=VERTEX_POINT('',#462);
#146=VERTEX_POINT('',#464);
#147=VERTEX_POINT('',#467);
#148=VERTEX_POINT('',#469);
#149=VERTEX_POINT('',#473);
#150=VERTEX_POINT('',#477);
#151=VERTEX_POINT('',#481);
#152=VERTEX_POINT('',#485);
#153=VERTEX_POINT('',#491);
#154=VERTEX_POINT('',#493);
#155=VERTEX_POINT('',#497);
#156=VERTEX_POINT('',#499);
#157=VERTEX_POINT('',#503);
#158=VERTEX_POINT('',#505);
#159=EDGE_CURVE('',#135,#135,#119,.T.);
#160=EDGE_CURVE('',#135,#136,#75,.T.);
#161=EDGE_CURVE('',#136,#136,#120,.T.);
#162=EDGE_CURVE('',#135,#137,#76,.T.);
#163=EDGE_CURVE('',#137,#137,#121,.T.);
#164=EDGE_CURVE('',#138,#139,#77,.T.);
#165=EDGE_CURVE('',#138,#140,#122,.T.);
#166=EDGE_CURVE('',#140,#141,#78,.T.);
#167=EDGE_CURVE('',#141,#142,#123,.T.);
#168=EDGE_CURVE('',#143,#142,#79,.T.);
#169=EDGE_CURVE('',#143,#139,#80,.T.);
#170=EDGE_CURVE('',#144,#144,#124,.T.);
#171=EDGE_CURVE('',#145,#145,#125,.T.);
#172=EDGE_CURVE('',#146,#146,#126,.T.);
#173=EDGE_CURVE('',#147,#139,#81,.T.);
#174=EDGE_CURVE('',#148,#147,#82,.T.);
#175=EDGE_CURVE('',#148,#138,#83,.T.);
#176=EDGE_CURVE('',#148,#149,#127,.T.);
#177=EDGE_CURVE('',#149,#140,#84,.T.);
#178=EDGE_CURVE('',#149,#150,#85,.T.);
#179=EDGE_CURVE('',#150,#141,#86,.T.);
#180=EDGE_CURVE('',#150,#151,#128,.T.);
#181=EDGE_CURVE('',#151,#142,#87,.T.);
#182=EDGE_CURVE('',#152,#151,#88,.T.);
#183=EDGE_CURVE('',#152,#143,#89,.T.);
#184=EDGE_CURVE('',#152,#147,#90,.T.);
#185=EDGE_CURVE('',#153,#153,#129,.T.);
#186=EDGE_CURVE('',#153,#154,#91,.T.);
#187=EDGE_CURVE('',#154,#154,#130,.T.);
#188=EDGE_CURVE('',#155,#155,#131,.T.);
#189=EDGE_CURVE('',#155,#156,#92,.T.);
#190=EDGE_CURVE('',#156,#156,#132,.T.);
#191=EDGE_CURVE('',#157,#157,#133,.T.);
#192=EDGE_CURVE('',#157,#158,#93,.T.);
#193=EDGE_CURVE('',#158,#158,#134,.T.);
#194=EDGE_CURVE('',#157,#146,#94,.T.);
#195=EDGE_CURVE('',#155,#145,#95,.T.);
#196=EDGE_CURVE('',#153,#144,#96,.T.);
#197=ORIENTED_EDGE('',*,*,#159,.T.);
#198=ORIENTED_EDGE('',*,*,#160,.T.);
#199=ORIENTED_EDGE('',*,*,#161,.T.);
#200=ORIENTED_EDGE('',*,*,#160,.F.);
#201=ORIENTED_EDGE('',*,*,#159,.F.);
#202=ORIENTED_EDGE('',*,*,#162,.T.);
#203=ORIENTED_EDGE('',*,*,#163,.F.);
#204=ORIENTED_EDGE('',*,*,#162,.F.);
#205=ORIENTED_EDGE('',*,*,#164,.F.);
#206=ORIENTED_EDGE('',*,*,#165,.T.);
#207=ORIENTED_EDGE('',*,*,#166,.T.);
#208=ORIENTED_EDGE('',*,*,#167,.T.);
#209=ORIENTED_EDGE('',*,*,#168,.F.);
#210=ORIENTED_EDGE('',*,*,#169,.T.);
#211=ORIENTED_EDGE('',*,*,#161,.F.);
#212=ORIENTED_EDGE('',*,*,#170,.F.);
#213=ORIENTED_EDGE('',*,*,#171,.F.);
#214=ORIENTED_EDGE('',*,*,#172,.F.);
#215=ORIENTED_EDGE('',*,*,#164,.T.);
#216=ORIENTED_EDGE('',*,*,#173,.F.);
#217=ORIENTED_EDGE('',*,*,#174,.F.);
#218=ORIENTED_EDGE('',*,*,#175,.T.);
#219=ORIENTED_EDGE('',*,*,#175,.F.);
#220=ORIENTED_EDGE('',*,*,#176,.T.);
#221=ORIENTED_EDGE('',*,*,#177,.T.);
#222=ORIENTED_EDGE('',*,*,#165,.F.);
#223=ORIENTED_EDGE('',*,*,#177,.F.);
#224=ORIENTED_EDGE('',*,*,#178,.T.);
#225=ORIENTED_EDGE('',*,*,#179,.T.);
#226=ORIENTED_EDGE('',*,*,#166,.F.);
#227=ORIENTED_EDGE('',*,*,#179,.F.);
#228=ORIENTED_EDGE('',*,*,#180,.T.);
#229=ORIENTED_EDGE('',*,*,#181,.T.);
#230=ORIENTED_EDGE('',*,*,#167,.F.);
#231=ORIENTED_EDGE('',*,*,#168,.T.);
#232=ORIENTED_EDGE('',*,*,#181,.F.);
#233=ORIENTED_EDGE('',*,*,#182,.F.);
#234=ORIENTED_EDGE('',*,*,#183,.T.);
#235=ORIENTED_EDGE('',*,*,#183,.F.);
#236=ORIENTED_EDGE('',*,*,#184,.T.);
#237=ORIENTED_EDGE('',*,*,#173,.T.);
#238=ORIENTED_EDGE('',*,*,#169,.F.);
#239=ORIENTED_EDGE('',*,*,#185,.F.);
#240=ORIENTED_EDGE('',*,*,#186,.T.);
#241=ORIENTED_EDGE('',*,*,#187,.F.);
#242=ORIENTED_EDGE('',*,*,#186,.F.);
#243=ORIENTED_EDGE('',*,*,#188,.F.);
#244=ORIENTED_EDGE('',*,*,#189,.T.);
#245=ORIENTED_EDGE('',*,*,#190,.F.);
#246=ORIENTED_EDGE('',*,*,#189,.F.);
#247=ORIENTED_EDGE('',*,*,#191,.F.);
#248=ORIENTED_EDGE('',*,*,#192,.T.);
#249=ORIENTED_EDGE('',*,*,#193,.F.);
#250=ORIENTED_EDGE('',*,*,#192,.F.);
#251=ORIENTED_EDGE('',*,*,#191,.T.);
#252=ORIENTED_EDGE('',*,*,#194,.T.);
#253=ORIENTED_EDGE('',*,*,#172,.T.);
#254=ORIENTED_EDGE('',*,*,#194,.F.);
#255=ORIENTED_EDGE('',*,*,#188,.T.);
#256=ORIENTED_EDGE('',*,*,#195,.T.);
#257=ORIENTED_EDGE('',*,*,#171,.T.);
#258=ORIENTED_EDGE('',*,*,#195,.F.);
#259=ORIENTED_EDGE('',*,*,#185,.T.);
#260=ORIENTED_EDGE('',*,*,#196,.T.);
#261=ORIENTED_EDGE('',*,*,#170,.T.);
#262=ORIENTED_EDGE('',*,*,#196,.F.);
#263=ORIENTED_EDGE('',*,*,#174,.T.);
#264=ORIENTED_EDGE('',*,*,#184,.F.);
#265=ORIENTED_EDGE('',*,*,#182,.T.);
#266=ORIENTED_EDGE('',*,*,#180,.F.);
#267=ORIENTED_EDGE('',*,*,#178,.F.);
#268=ORIENTED_EDGE('',*,*,#176,.F.);
#269=ORIENTED_EDGE('',*,*,#163,.T.);
#270=ORIENTED_EDGE('',*,*,#187,.T.);
#271=ORIENTED_EDGE('',*,*,#190,.T.);
#272=ORIENTED_EDGE('',*,*,#193,.T.);
#273=CONICAL_SURFACE('',#316,2.,0.785398163397447);
#274=CONICAL_SURFACE('',#344,2.,0.785398163397448);
#275=CONICAL_SURFACE('',#345,2.,0.785398163397447);
#276=CONICAL_SURFACE('',#346,2.,0.785398163397448);
#277=ADVANCED_FACE('',(#35),#273,.F.);
#278=ADVANCED_FACE('',(#36),#29,.F.);
#279=ADVANCED_FACE('',(#37,#15,#16,#17,#18),#23,.T.);
#280=ADVANCED_FACE('',(#38),#24,.F.);
#281=ADVANCED_FACE('',(#39),#30,.T.);
#282=ADVANCED_FACE('',(#40),#25,.T.);
#283=ADVANCED_FACE('',(#41),#31,.T.);
#284=ADVANCED_FACE('',(#42),#26,.F.);
#285=ADVANCED_FACE('',(#43),#27,.T.);
#286=ADVANCED_FACE('',(#44),#32,.F.);
#287=ADVANCED_FACE('',(#45),#33,.F.);
#288=ADVANCED_FACE('',(#46),#34,.F.);
#289=ADVANCED_FACE('',(#47),#274,.F.);
#290=ADVANCED_FACE('',(#48),#275,.F.);
#291=ADVANCED_FACE('',(#49),#276,.F.);
#292=ADVANCED_FACE('',(#50,#19,#20,#21,#22),#28,.F.);
#293=CLOSED_SHELL('',(#277,#278,#279,#280,#281,#282,#283,#284,#285,#286,
#287,#288,#289,#290,#291,#292));
#294=DERIVED_UNIT_ELEMENT(#297,1.);
#295=DERIVED_UNIT_ELEMENT(#520,-3.);
#296=DIMENSIONAL_EXPONENTS(0.,1.,0.,0.,0.,0.,0.);
#297=(
CONVERSION_BASED_UNIT('gram',#299)
MASS_UNIT()
NAMED_UNIT(#296)
);
#298=(
MASS_UNIT()
NAMED_UNIT(*)
SI_UNIT(.KILO.,.GRAM.)
);
#299=MASS_MEASURE_WITH_UNIT(MASS_MEASURE(0.001),#298);
#300=DERIVED_UNIT((#294,#295));
#301=MEASURE_REPRESENTATION_ITEM('density measure',
POSITIVE_RATIO_MEASURE(1.),#300);
#302=PROPERTY_DEFINITION_REPRESENTATION(#307,#304);
#303=PROPERTY_DEFINITION_REPRESENTATION(#308,#305);
#304=REPRESENTATION('material name',(#306),#517);
#305=REPRESENTATION('density',(#301),#517);
#306=DESCRIPTIVE_REPRESENTATION_ITEM('Generisch','Generisch');
#307=PROPERTY_DEFINITION('material property','material name',#527);
#308=PROPERTY_DEFINITION('material property','density of part',#527);
#309=DATE_TIME_ROLE('creation_date');
#310=APPLIED_DATE_AND_TIME_ASSIGNMENT(#311,#309,(#527));
#311=DATE_AND_TIME(#312,#313);
#312=CALENDAR_DATE(2026,7,3);
#313=LOCAL_TIME(0,0,0.,#314);
#314=COORDINATED_UNIVERSAL_TIME_OFFSET(0,0,.BEHIND.);
#315=AXIS2_PLACEMENT_3D('',#436,#348,#349);
#316=AXIS2_PLACEMENT_3D('',#437,#350,#351);
#317=AXIS2_PLACEMENT_3D('',#439,#352,#353);
#318=AXIS2_PLACEMENT_3D('',#442,#355,#356);
#319=AXIS2_PLACEMENT_3D('',#443,#357,#358);
#320=AXIS2_PLACEMENT_3D('',#446,#360,#361);
#321=AXIS2_PLACEMENT_3D('',#447,#362,#363);
#322=AXIS2_PLACEMENT_3D('',#452,#365,#366);
#323=AXIS2_PLACEMENT_3D('',#456,#368,#369);
#324=AXIS2_PLACEMENT_3D('',#461,#372,#373);
#325=AXIS2_PLACEMENT_3D('',#463,#374,#375);
#326=AXIS2_PLACEMENT_3D('',#465,#376,#377);
#327=AXIS2_PLACEMENT_3D('',#466,#378,#379);
#328=AXIS2_PLACEMENT_3D('',#472,#383,#384);
#329=AXIS2_PLACEMENT_3D('',#474,#385,#386);
#330=AXIS2_PLACEMENT_3D('',#476,#388,#389);
#331=AXIS2_PLACEMENT_3D('',#480,#392,#393);
#332=AXIS2_PLACEMENT_3D('',#482,#394,#395);
#333=AXIS2_PLACEMENT_3D('',#484,#397,#398);
#334=AXIS2_PLACEMENT_3D('',#488,#401,#402);
#335=AXIS2_PLACEMENT_3D('',#490,#404,#405);
#336=AXIS2_PLACEMENT_3D('',#492,#406,#407);
#337=AXIS2_PLACEMENT_3D('',#495,#409,#410);
#338=AXIS2_PLACEMENT_3D('',#496,#411,#412);
#339=AXIS2_PLACEMENT_3D('',#498,#413,#414);
#340=AXIS2_PLACEMENT_3D('',#501,#416,#417);
#341=AXIS2_PLACEMENT_3D('',#502,#418,#419);
#342=AXIS2_PLACEMENT_3D('',#504,#420,#421);
#343=AXIS2_PLACEMENT_3D('',#507,#423,#424);
#344=AXIS2_PLACEMENT_3D('',#508,#425,#426);
#345=AXIS2_PLACEMENT_3D('',#510,#428,#429);
#346=AXIS2_PLACEMENT_3D('',#512,#431,#432);
#347=AXIS2_PLACEMENT_3D('',#514,#434,#435);
#348=DIRECTION('axis',(0.,0.,1.));
#349=DIRECTION('refdir',(1.,0.,0.));
#350=DIRECTION('center_axis',(1.,0.,0.));
#351=DIRECTION('ref_axis',(0.,1.,0.));
#352=DIRECTION('center_axis',(-1.,0.,0.));
#353=DIRECTION('ref_axis',(0.,1.,0.));
#354=DIRECTION('',(0.707106781186549,-0.707106781186546,-8.65956056235492E-17));
#355=DIRECTION('center_axis',(1.,0.,0.));
#356=DIRECTION('ref_axis',(0.,1.,0.));
#357=DIRECTION('center_axis',(-1.,0.,0.));
#358=DIRECTION('ref_axis',(0.,1.,0.));
#359=DIRECTION('',(-1.,0.,0.));
#360=DIRECTION('center_axis',(1.,0.,0.));
#361=DIRECTION('ref_axis',(0.,1.,0.));
#362=DIRECTION('center_axis',(1.,0.,0.));
#363=DIRECTION('ref_axis',(0.,0.,-1.));
#364=DIRECTION('',(0.,-1.,0.));
#365=DIRECTION('center_axis',(1.,0.,0.));
#366=DIRECTION('ref_axis',(0.,0.,-1.));
#367=DIRECTION('',(0.,0.,1.));
#368=DIRECTION('center_axis',(1.,0.,0.));
#369=DIRECTION('ref_axis',(0.,0.,-1.));
#370=DIRECTION('',(0.,1.,0.));
#371=DIRECTION('',(0.,0.,-1.));
#372=DIRECTION('center_axis',(1.,0.,0.));
#373=DIRECTION('ref_axis',(0.,0.,-1.));
#374=DIRECTION('center_axis',(1.,0.,0.));
#375=DIRECTION('ref_axis',(0.,0.,-1.));
#376=DIRECTION('center_axis',(1.,0.,0.));
#377=DIRECTION('ref_axis',(0.,0.,-1.));
#378=DIRECTION('center_axis',(0.,0.,1.));
#379=DIRECTION('ref_axis',(0.,-1.,0.));
#380=DIRECTION('',(1.,0.,0.));
#381=DIRECTION('',(0.,-1.,0.));
#382=DIRECTION('',(1.,0.,0.));
#383=DIRECTION('center_axis',(1.,0.,0.));
#384=DIRECTION('ref_axis',(0.,0.,-1.));
#385=DIRECTION('center_axis',(1.,0.,0.));
#386=DIRECTION('ref_axis',(0.,0.,-1.));
#387=DIRECTION('',(1.,0.,0.));
#388=DIRECTION('center_axis',(0.,1.,0.));
#389=DIRECTION('ref_axis',(0.,0.,1.));
#390=DIRECTION('',(0.,0.,1.));
#391=DIRECTION('',(1.,0.,0.));
#392=DIRECTION('center_axis',(1.,0.,0.));
#393=DIRECTION('ref_axis',(0.,0.,-1.));
#394=DIRECTION('center_axis',(1.,0.,0.));
#395=DIRECTION('ref_axis',(0.,0.,-1.));
#396=DIRECTION('',(1.,0.,0.));
#397=DIRECTION('center_axis',(0.,0.,-1.));
#398=DIRECTION('ref_axis',(0.,1.,0.));
#399=DIRECTION('',(0.,1.,0.));
#400=DIRECTION('',(1.,0.,0.));
#401=DIRECTION('center_axis',(0.,-1.,0.));
#402=DIRECTION('ref_axis',(0.,0.,-1.));
#403=DIRECTION('',(0.,0.,-1.));
#404=DIRECTION('center_axis',(-1.,0.,0.));
#405=DIRECTION('ref_axis',(0.,1.,0.));
#406=DIRECTION('center_axis',(-1.,0.,0.));
#407=DIRECTION('ref_axis',(0.,1.,0.));
#408=DIRECTION('',(-1.,0.,0.));
#409=DIRECTION('center_axis',(1.,0.,0.));
#410=DIRECTION('ref_axis',(0.,1.,0.));
#411=DIRECTION('center_axis',(-1.,0.,0.));
#412=DIRECTION('ref_axis',(0.,1.,0.));
#413=DIRECTION('center_axis',(-1.,0.,0.));
#414=DIRECTION('ref_axis',(0.,1.,0.));
#415=DIRECTION('',(-1.,0.,0.));
#416=DIRECTION('center_axis',(1.,0.,0.));
#417=DIRECTION('ref_axis',(0.,1.,0.));
#418=DIRECTION('center_axis',(-1.,0.,0.));
#419=DIRECTION('ref_axis',(0.,1.,0.));
#420=DIRECTION('center_axis',(-1.,0.,0.));
#421=DIRECTION('ref_axis',(0.,1.,0.));
#422=DIRECTION('',(-1.,0.,0.));
#423=DIRECTION('center_axis',(1.,0.,0.));
#424=DIRECTION('ref_axis',(0.,1.,0.));
#425=DIRECTION('center_axis',(1.,0.,0.));
#426=DIRECTION('ref_axis',(0.,1.,0.));
#427=DIRECTION('',(0.707106781186548,-0.707106781186548,-8.65956056235493E-17));
#428=DIRECTION('center_axis',(1.,0.,0.));
#429=DIRECTION('ref_axis',(0.,1.,0.));
#430=DIRECTION('',(0.707106781186549,-0.707106781186546,-8.65956056235492E-17));
#431=DIRECTION('center_axis',(1.,0.,0.));
#432=DIRECTION('ref_axis',(0.,1.,0.));
#433=DIRECTION('',(0.707106781186548,-0.707106781186548,-8.65956056235493E-17));
#434=DIRECTION('center_axis',(1.,0.,0.));
#435=DIRECTION('ref_axis',(0.,0.,-1.));
#436=CARTESIAN_POINT('',(0.,0.,0.));
#437=CARTESIAN_POINT('Origin',(122.7,23.,-629.));
#438=CARTESIAN_POINT('',(122.7,21.,-629.));
#439=CARTESIAN_POINT('Origin',(122.7,23.,-629.));
#440=CARTESIAN_POINT('',(125.,18.7,-629.));
#441=CARTESIAN_POINT('',(122.7,21.,-629.));
#442=CARTESIAN_POINT('Origin',(125.,23.,-629.));
#443=CARTESIAN_POINT('Origin',(125.,23.,-629.));
#444=CARTESIAN_POINT('',(120.,21.,-629.));
#445=CARTESIAN_POINT('',(125.,21.,-629.));
#446=CARTESIAN_POINT('Origin',(120.,23.,-629.));
#447=CARTESIAN_POINT('Origin',(125.,140.,-70.));
#448=CARTESIAN_POINT('',(125.,149.,-639.));
#449=CARTESIAN_POINT('',(125.,-3.,-639.));
#450=CARTESIAN_POINT('',(125.,73.,-639.));
#451=CARTESIAN_POINT('',(125.,159.,-629.));
#452=CARTESIAN_POINT('Origin',(125.,149.,-629.));
#453=CARTESIAN_POINT('',(125.,159.,-61.));
#454=CARTESIAN_POINT('',(125.,159.,-345.));
#455=CARTESIAN_POINT('',(125.,149.,-51.));
#456=CARTESIAN_POINT('Origin',(125.,149.,-61.));
#457=CARTESIAN_POINT('',(125.,-3.,-51.));
#458=CARTESIAN_POINT('',(125.,140.,-51.));
#459=CARTESIAN_POINT('',(125.,-3.,-70.));
#460=CARTESIAN_POINT('',(125.,112.7,-629.));
#461=CARTESIAN_POINT('Origin',(125.,117.,-629.));
#462=CARTESIAN_POINT('',(125.,18.7,-61.));
#463=CARTESIAN_POINT('Origin',(125.,23.,-61.));
#464=CARTESIAN_POINT('',(125.,115.7,-61.));
#465=CARTESIAN_POINT('Origin',(125.,120.,-61.));
#466=CARTESIAN_POINT('Origin',(120.,149.,-639.));
#467=CARTESIAN_POINT('',(120.,-3.,-639.));
#468=CARTESIAN_POINT('',(120.,-3.,-639.));
#469=CARTESIAN_POINT('',(120.,149.,-639.));
#470=CARTESIAN_POINT('',(120.,149.,-639.));
#471=CARTESIAN_POINT('',(120.,149.,-639.));
#472=CARTESIAN_POINT('Origin',(122.5,149.,-629.));
#473=CARTESIAN_POINT('',(120.,159.,-629.));
#474=CARTESIAN_POINT('Origin',(120.,149.,-629.));
#475=CARTESIAN_POINT('',(120.,159.,-629.));
#476=CARTESIAN_POINT('Origin',(120.,159.,-629.));
#477=CARTESIAN_POINT('',(120.,159.,-61.));
#478=CARTESIAN_POINT('',(120.,159.,-629.));
#479=CARTESIAN_POINT('',(120.,159.,-61.));
#480=CARTESIAN_POINT('Origin',(122.5,149.,-61.));
#481=CARTESIAN_POINT('',(120.,149.,-51.));
#482=CARTESIAN_POINT('Origin',(120.,149.,-61.));
#483=CARTESIAN_POINT('',(120.,149.,-51.));
#484=CARTESIAN_POINT('Origin',(120.,-3.,-51.));
#485=CARTESIAN_POINT('',(120.,-3.,-51.));
#486=CARTESIAN_POINT('',(120.,-3.,-51.));
#487=CARTESIAN_POINT('',(120.,-3.,-51.));
#488=CARTESIAN_POINT('Origin',(120.,-3.,-51.));
#489=CARTESIAN_POINT('',(120.,-3.,-51.));
#490=CARTESIAN_POINT('Origin',(125.,117.,-629.));
#491=CARTESIAN_POINT('',(122.7,115.,-629.));
#492=CARTESIAN_POINT('Origin',(122.7,117.,-629.));
#493=CARTESIAN_POINT('',(120.,115.,-629.));
#494=CARTESIAN_POINT('',(125.,115.,-629.));
#495=CARTESIAN_POINT('Origin',(120.,117.,-629.));
#496=CARTESIAN_POINT('Origin',(125.,23.,-61.));
#497=CARTESIAN_POINT('',(122.7,21.,-61.));
#498=CARTESIAN_POINT('Origin',(122.7,23.,-61.));
#499=CARTESIAN_POINT('',(120.,21.,-61.));
#500=CARTESIAN_POINT('',(125.,21.,-61.));
#501=CARTESIAN_POINT('Origin',(120.,23.,-61.));
#502=CARTESIAN_POINT('Origin',(125.,120.,-61.));
#503=CARTESIAN_POINT('',(122.7,118.,-61.));
#504=CARTESIAN_POINT('Origin',(122.7,120.,-61.));
#505=CARTESIAN_POINT('',(120.,118.,-61.));
#506=CARTESIAN_POINT('',(125.,118.,-61.));
#507=CARTESIAN_POINT('Origin',(120.,120.,-61.));
#508=CARTESIAN_POINT('Origin',(122.7,120.,-61.));
#509=CARTESIAN_POINT('',(122.7,118.,-61.));
#510=CARTESIAN_POINT('Origin',(122.7,23.,-61.));
#511=CARTESIAN_POINT('',(122.7,21.,-61.));
#512=CARTESIAN_POINT('Origin',(122.7,117.,-629.));
#513=CARTESIAN_POINT('',(122.7,115.,-629.));
#514=CARTESIAN_POINT('Origin',(120.,140.,-70.));
#515=UNCERTAINTY_MEASURE_WITH_UNIT(LENGTH_MEASURE(0.01),#519,
'DISTANCE_ACCURACY_VALUE',
'Maximum model space distance between geometric entities at asserted c
onnectivities');
#516=UNCERTAINTY_MEASURE_WITH_UNIT(LENGTH_MEASURE(0.01),#519,
'DISTANCE_ACCURACY_VALUE',
'Maximum model space distance between geometric entities at asserted c
onnectivities');
#517=(
GEOMETRIC_REPRESENTATION_CONTEXT(3)
GLOBAL_UNCERTAINTY_ASSIGNED_CONTEXT((#515))
GLOBAL_UNIT_ASSIGNED_CONTEXT((#519,#521,#522))
REPRESENTATION_CONTEXT('','3D')
);
#518=(
GEOMETRIC_REPRESENTATION_CONTEXT(3)
GLOBAL_UNCERTAINTY_ASSIGNED_CONTEXT((#516))
GLOBAL_UNIT_ASSIGNED_CONTEXT((#519,#521,#522))
REPRESENTATION_CONTEXT('','3D')
);
#519=(
LENGTH_UNIT()
NAMED_UNIT(*)
SI_UNIT(.MILLI.,.METRE.)
);
#520=(
LENGTH_UNIT()
NAMED_UNIT(*)
SI_UNIT(.CENTI.,.METRE.)
);
#521=(
NAMED_UNIT(*)
PLANE_ANGLE_UNIT()
SI_UNIT($,.RADIAN.)
);
#522=(
NAMED_UNIT(*)
SI_UNIT($,.STERADIAN.)
SOLID_ANGLE_UNIT()
);
#523=SHAPE_DEFINITION_REPRESENTATION(#524,#525);
#524=PRODUCT_DEFINITION_SHAPE('',$,#527);
#525=SHAPE_REPRESENTATION('',(#315),#517);
#526=PRODUCT_DEFINITION_CONTEXT('part definition',#531,'design');
#527=PRODUCT_DEFINITION('Plexiglasabdeckung','Plexiglasabdeckung',#528,
#526);
#528=PRODUCT_DEFINITION_FORMATION('',$,#533);
#529=PRODUCT_RELATED_PRODUCT_CATEGORY('Plexiglasabdeckung',
'Plexiglasabdeckung',(#533));
#530=APPLICATION_PROTOCOL_DEFINITION('international standard',
'automotive_design',2009,#531);
#531=APPLICATION_CONTEXT(
'Core Data for Automotive Mechanical Design Process');
#532=PRODUCT_CONTEXT('part definition',#531,'mechanical');
#533=PRODUCT('Plexiglasabdeckung','Plexiglasabdeckung',$,(#532));
#534=PRESENTATION_STYLE_ASSIGNMENT((#536));
#535=PRESENTATION_STYLE_ASSIGNMENT((#537));
#536=SURFACE_STYLE_USAGE(.BOTH.,#542);
#537=SURFACE_STYLE_USAGE(.BOTH.,#543);
#538=SURFACE_STYLE_RENDERING_WITH_PROPERTIES($,#550,(#540));
#539=SURFACE_STYLE_RENDERING_WITH_PROPERTIES($,#551,(#541));
#540=SURFACE_STYLE_TRANSPARENT(0.);
#541=SURFACE_STYLE_TRANSPARENT(0.);
#542=SURFACE_SIDE_STYLE('',(#544,#538));
#543=SURFACE_SIDE_STYLE('',(#545,#539));
#544=SURFACE_STYLE_FILL_AREA(#546);
#545=SURFACE_STYLE_FILL_AREA(#547);
#546=FILL_AREA_STYLE('',(#548));
#547=FILL_AREA_STYLE('',(#549));
#548=FILL_AREA_STYLE_COLOUR('',#550);
#549=FILL_AREA_STYLE_COLOUR('',#551);
#550=COLOUR_RGB('',0.749019607843137,0.749019607843137,0.749019607843137);
#551=COLOUR_RGB('',0.823529411764706,0.823529411764706,1.);
ENDSEC;
END-ISO-10303-21;
