ISO-10303-21;
HEADER;
/* Generated by software containing ST-Developer
 * from STEP Tools, Inc. (www.steptools.com) 
 */

FILE_DESCRIPTION(
/* description */ (''),
/* implementation_level */ '2;1');

FILE_NAME(
/* name */ 'TeachSpitze_new.stp',
/* time_stamp */ '2026-03-09T09:51:37+01:00',
/* author */ ('neume'),
/* organization */ (''),
/* preprocessor_version */ 'ST-DEVELOPER v20.1',
/* originating_system */ 'Autodesk Inventor 2026',
/* authorisation */ '');

FILE_SCHEMA (('AUTOMOTIVE_DESIGN { 1 0 10303 214 3 1 1 }'));
ENDSEC;

DATA;
#10=MECHANICAL_DESIGN_GEOMETRIC_PRESENTATION_REPRESENTATION('',(#13),#1145);
#11=SHAPE_REPRESENTATION_RELATIONSHIP('SRR','None',#1152,#12);
#12=ADVANCED_BREP_SHAPE_REPRESENTATION('',(#14),#1144);
#13=STYLED_ITEM('',(#1162),#14);
#14=MANIFOLD_SOLID_BREP('Volumenk\X\F6rper1',#480);
#15=FACE_BOUND('',#140,.T.);
#16=FACE_BOUND('',#143,.T.);
#17=FACE_BOUND('',#159,.T.);
#18=FACE_BOUND('',#160,.T.);
#19=FACE_BOUND('',#161,.T.);
#20=FACE_BOUND('',#164,.T.);
#21=PLANE('',#529);
#22=PLANE('',#533);
#23=PLANE('',#542);
#24=PLANE('',#547);
#25=PLANE('',#556);
#26=PLANE('',#561);
#27=CYLINDRICAL_SURFACE('',#528,0.999999999999999);
#28=CYLINDRICAL_SURFACE('',#532,1.);
#29=CYLINDRICAL_SURFACE('',#536,2.35);
#30=CYLINDRICAL_SURFACE('',#538,2.75);
#31=CYLINDRICAL_SURFACE('',#540,1.);
#32=CYLINDRICAL_SURFACE('',#543,1.);
#33=CYLINDRICAL_SURFACE('',#545,0.999999999999999);
#34=CYLINDRICAL_SURFACE('',#548,1.);
#35=CYLINDRICAL_SURFACE('',#558,1.55);
#36=B_SPLINE_SURFACE_WITH_KNOTS('',5,5,((#760,#761,#762,#763,#764,#765),
(#766,#767,#768,#769,#770,#771),(#772,#773,#774,#775,#776,#777),(#778,#779,
#780,#781,#782,#783),(#784,#785,#786,#787,#788,#789),(#790,#791,#792,#793,
#794,#795),(#796,#797,#798,#799,#800,#801)),.UNSPECIFIED.,.F.,.F.,.F.,(6,
1,6),(6,6),(3.5442762080921,10.2713491112778,15.877243197266),(0.,1.),
 .UNSPECIFIED.);
#37=B_SPLINE_SURFACE_WITH_KNOTS('',5,5,((#830,#831,#832,#833,#834,#835),
(#836,#837,#838,#839,#840,#841),(#842,#843,#844,#845,#846,#847),(#848,#849,
#850,#851,#852,#853),(#854,#855,#856,#857,#858,#859),(#860,#861,#862,#863,
#864,#865),(#866,#867,#868,#869,#870,#871)),.UNSPECIFIED.,.F.,.F.,.F.,(6,
1,6),(6,6),(4.19869884166569,10.9271043153626,16.5341088767766),(0.,1.),
 .UNSPECIFIED.);
#38=B_SPLINE_SURFACE_WITH_KNOTS('',5,1,((#946,#947),(#948,#949),(#950,#951),
(#952,#953),(#954,#955),(#956,#957),(#958,#959),(#960,#961),(#962,#963),
(#964,#965)),.UNSPECIFIED.,.F.,.F.,.F.,(6,4,6),(2,2),(20.7705238303962,
21.6323223008914,22.0692298417808),(0.,0.480000000000021),.UNSPECIFIED.);
#39=B_SPLINE_SURFACE_WITH_KNOTS('',5,1,((#987,#988),(#989,#990),(#991,#992),
(#993,#994),(#995,#996),(#997,#998),(#999,#1000),(#1001,#1002),(#1003,#1004),
(#1005,#1006)),.UNSPECIFIED.,.F.,.F.,.F.,(6,4,6),(2,2),(28.3490812654417,
29.0779269095947,29.6479985255266),(0.,0.480000000000001),.UNSPECIFIED.);
#40=B_SPLINE_SURFACE_WITH_KNOTS('',5,5,((#1014,#1015,#1016,#1017,#1018,
#1019),(#1020,#1021,#1022,#1023,#1024,#1025),(#1026,#1027,#1028,#1029,#1030,
#1031),(#1032,#1033,#1034,#1035,#1036,#1037),(#1038,#1039,#1040,#1041,#1042,
#1043),(#1044,#1045,#1046,#1047,#1048,#1049),(#1050,#1051,#1052,#1053,#1054,
#1055),(#1056,#1057,#1058,#1059,#1060,#1061),(#1062,#1063,#1064,#1065,#1066,
#1067)),.UNSPECIFIED.,.F.,.F.,.F.,(6,1,1,1,6),(6,6),(4.70451501158566,5.87215736704199,
8.98587031492552,11.7103691443236,13.2672256182654),(0.,1.5),
 .UNSPECIFIED.);
#41=B_SPLINE_SURFACE_WITH_KNOTS('',5,5,((#1072,#1073,#1074,#1075,#1076,
#1077),(#1078,#1079,#1080,#1081,#1082,#1083),(#1084,#1085,#1086,#1087,#1088,
#1089),(#1090,#1091,#1092,#1093,#1094,#1095),(#1096,#1097,#1098,#1099,#1100,
#1101),(#1102,#1103,#1104,#1105,#1106,#1107),(#1108,#1109,#1110,#1111,#1112,
#1113),(#1114,#1115,#1116,#1117,#1118,#1119),(#1120,#1121,#1122,#1123,#1124,
#1125)),.UNSPECIFIED.,.F.,.F.,.F.,(6,1,1,1,6),(6,6),(5.5190329873556,6.66418345691619,
9.71791804241111,12.3899358047192,13.9168030974666),(0.,1.5),
 .UNSPECIFIED.);
#42=SPHERICAL_SURFACE('',#512,1.);
#43=SPHERICAL_SURFACE('',#516,1.);
#44=SPHERICAL_SURFACE('',#521,0.999999999999999);
#45=SPHERICAL_SURFACE('',#524,1.);
#46=LINE('',#745,#67);
#47=LINE('',#888,#68);
#48=LINE('',#889,#69);
#49=LINE('',#891,#70);
#50=LINE('',#904,#71);
#51=LINE('',#909,#72);
#52=LINE('',#910,#73);
#53=LINE('',#927,#74);
#54=LINE('',#931,#75);
#55=LINE('',#934,#76);
#56=LINE('',#937,#77);
#57=LINE('',#940,#78);
#58=LINE('',#941,#79);
#59=LINE('',#944,#80);
#60=LINE('',#967,#81);
#61=LINE('',#977,#82);
#62=LINE('',#981,#83);
#63=LINE('',#982,#84);
#64=LINE('',#985,#85);
#65=LINE('',#1136,#86);
#66=LINE('',#1141,#87);
#67=VECTOR('',#584,3.);
#68=VECTOR('',#619,1.);
#69=VECTOR('',#620,1.);
#70=VECTOR('',#621,1.);
#71=VECTOR('',#626,1.);
#72=VECTOR('',#631,1.);
#73=VECTOR('',#632,1.);
#74=VECTOR('',#643,2.35);
#75=VECTOR('',#648,2.75);
#76=VECTOR('',#651,1.);
#77=VECTOR('',#654,1.);
#78=VECTOR('',#657,1.);
#79=VECTOR('',#658,1.);
#80=VECTOR('',#661,1.);
#81=VECTOR('',#664,10.);
#82=VECTOR('',#667,1.);
#83=VECTOR('',#672,1.);
#84=VECTOR('',#673,1.);
#85=VECTOR('',#676,1.);
#86=VECTOR('',#701,1.55);
#87=VECTOR('',#708,1000.);
#88=B_SPLINE_CURVE_WITH_KNOTS('',5,(#723,#724,#725,#726,#727,#728,#729,
#730,#731),.UNSPECIFIED.,.F.,.F.,(6,1,1,1,6),(4.70451501158566,5.87215736704199,
8.98587031492552,11.7103691443236,13.2672256182654),.UNSPECIFIED.);
#89=B_SPLINE_CURVE_WITH_KNOTS('',5,(#735,#736,#737,#738,#739,#740,#741,
#742,#743),.UNSPECIFIED.,.F.,.F.,(6,1,1,1,6),(5.5190329873556,6.66418345691619,
9.71791804241111,12.3899358047192,13.9168030974666),.UNSPECIFIED.);
#90=B_SPLINE_CURVE_WITH_KNOTS('',5,(#805,#806,#807,#808,#809,#810,#811),
 .UNSPECIFIED.,.F.,.F.,(6,1,6),(3.5442762080921,10.2713491112778,15.877243197266),
 .UNSPECIFIED.);
#91=B_SPLINE_CURVE_WITH_KNOTS('',5,(#812,#813,#814,#815,#816,#817,#818),
 .UNSPECIFIED.,.F.,.F.,(6,1,6),(3.5442762080921,10.2713491112778,15.877243197266),
 .UNSPECIFIED.);
#92=B_SPLINE_CURVE_WITH_KNOTS('',3,(#872,#873,#874,#875,#876,#877,#878),
 .UNSPECIFIED.,.F.,.F.,(4,3,4),(4.19869884166569,11.1203174460285,16.5341088767766),
 .UNSPECIFIED.);
#93=B_SPLINE_CURVE_WITH_KNOTS('',5,(#879,#880,#881,#882,#883,#884,#885),
 .UNSPECIFIED.,.F.,.F.,(6,1,6),(4.19869884166569,10.9271043153626,16.5341088767766),
 .UNSPECIFIED.);
#94=B_SPLINE_CURVE_WITH_KNOTS('',5,(#892,#893,#894,#895,#896,#897,#898,
#899,#900),.UNSPECIFIED.,.F.,.F.,(6,1,1,1,6),(4.70451501158566,5.87215736704199,
8.98587031492552,11.7103691443236,13.2672256182654),.UNSPECIFIED.);
#95=B_SPLINE_CURVE_WITH_KNOTS('',5,(#911,#912,#913,#914,#915,#916,#917,
#918,#919),.UNSPECIFIED.,.F.,.F.,(6,1,1,1,6),(5.5190329873556,6.66418345691619,
9.71791804241111,12.3899358047192,13.9168030974666),.UNSPECIFIED.);
#96=B_SPLINE_CURVE_WITH_KNOTS('',3,(#968,#969,#970,#971,#972,#973,#974),
 .UNSPECIFIED.,.F.,.F.,(4,3,4),(1.11253241170951,9.77226278086008,14.1625020651989),
 .UNSPECIFIED.);
#97=B_SPLINE_CURVE_WITH_KNOTS('',3,(#1007,#1008,#1009,#1010,#1011,#1012,
#1013),.UNSPECIFIED.,.F.,.F.,(4,3,4),(1.1458685073755,8.46806801493003,
14.195176544608),.UNSPECIFIED.);
#98=CONICAL_SURFACE('',#508,3.,0.45706875654779);
#99=CONICAL_SURFACE('',#563,1000.,0.785398163397449);
#100=FACE_OUTER_BOUND('',#130,.T.);
#101=FACE_OUTER_BOUND('',#131,.T.);
#102=FACE_OUTER_BOUND('',#132,.T.);
#103=FACE_OUTER_BOUND('',#133,.T.);
#104=FACE_OUTER_BOUND('',#134,.T.);
#105=FACE_OUTER_BOUND('',#135,.T.);
#106=FACE_OUTER_BOUND('',#136,.T.);
#107=FACE_OUTER_BOUND('',#137,.T.);
#108=FACE_OUTER_BOUND('',#138,.T.);
#109=FACE_OUTER_BOUND('',#139,.T.);
#110=FACE_OUTER_BOUND('',#141,.T.);
#111=FACE_OUTER_BOUND('',#142,.T.);
#112=FACE_OUTER_BOUND('',#144,.T.);
#113=FACE_OUTER_BOUND('',#145,.T.);
#114=FACE_OUTER_BOUND('',#146,.T.);
#115=FACE_OUTER_BOUND('',#147,.T.);
#116=FACE_OUTER_BOUND('',#148,.T.);
#117=FACE_OUTER_BOUND('',#149,.T.);
#118=FACE_OUTER_BOUND('',#150,.T.);
#119=FACE_OUTER_BOUND('',#151,.T.);
#120=FACE_OUTER_BOUND('',#152,.T.);
#121=FACE_OUTER_BOUND('',#153,.T.);
#122=FACE_OUTER_BOUND('',#154,.T.);
#123=FACE_OUTER_BOUND('',#155,.T.);
#124=FACE_OUTER_BOUND('',#156,.T.);
#125=FACE_OUTER_BOUND('',#157,.T.);
#126=FACE_OUTER_BOUND('',#158,.T.);
#127=FACE_OUTER_BOUND('',#162,.T.);
#128=FACE_OUTER_BOUND('',#163,.T.);
#129=FACE_OUTER_BOUND('',#165,.T.);
#130=EDGE_LOOP('',(#311,#312,#313,#314,#315));
#131=EDGE_LOOP('',(#316,#317,#318,#319,#320,#321,#322,#323,#324));
#132=EDGE_LOOP('',(#325,#326,#327));
#133=EDGE_LOOP('',(#328,#329,#330));
#134=EDGE_LOOP('',(#331,#332,#333,#334));
#135=EDGE_LOOP('',(#335,#336,#337));
#136=EDGE_LOOP('',(#338,#339,#340));
#137=EDGE_LOOP('',(#341,#342,#343,#344));
#138=EDGE_LOOP('',(#345,#346,#347,#348,#349,#350));
#139=EDGE_LOOP('',(#351,#352,#353,#354));
#140=EDGE_LOOP('',(#355));
#141=EDGE_LOOP('',(#356,#357,#358,#359,#360,#361));
#142=EDGE_LOOP('',(#362,#363,#364,#365));
#143=EDGE_LOOP('',(#366));
#144=EDGE_LOOP('',(#367,#368,#369,#370));
#145=EDGE_LOOP('',(#371,#372,#373,#374));
#146=EDGE_LOOP('',(#375,#376,#377,#378));
#147=EDGE_LOOP('',(#379,#380,#381,#382));
#148=EDGE_LOOP('',(#383,#384,#385,#386));
#149=EDGE_LOOP('',(#387,#388,#389,#390));
#150=EDGE_LOOP('',(#391,#392,#393,#394));
#151=EDGE_LOOP('',(#395,#396,#397,#398));
#152=EDGE_LOOP('',(#399,#400,#401,#402));
#153=EDGE_LOOP('',(#403,#404,#405,#406));
#154=EDGE_LOOP('',(#407,#408,#409,#410));
#155=EDGE_LOOP('',(#411,#412,#413,#414,#415));
#156=EDGE_LOOP('',(#416,#417,#418,#419));
#157=EDGE_LOOP('',(#420,#421,#422,#423));
#158=EDGE_LOOP('',(#424,#425,#426,#427,#428,#429,#430,#431));
#159=EDGE_LOOP('',(#432));
#160=EDGE_LOOP('',(#433));
#161=EDGE_LOOP('',(#434));
#162=EDGE_LOOP('',(#435,#436,#437,#438,#439));
#163=EDGE_LOOP('',(#440));
#164=EDGE_LOOP('',(#441));
#165=EDGE_LOOP('',(#442,#443,#444,#445,#446));
#166=CIRCLE('',#504,2.50192868724682);
#167=CIRCLE('',#505,0.8);
#168=CIRCLE('',#506,3.21980866014329);
#169=CIRCLE('',#507,3.21980866014329);
#170=CIRCLE('',#509,5.58785876223133);
#171=CIRCLE('',#510,5.58785876223132);
#172=CIRCLE('',#511,5.58785876223133);
#173=CIRCLE('',#513,1.);
#174=CIRCLE('',#514,1.);
#175=CIRCLE('',#515,1.);
#176=CIRCLE('',#517,1.);
#177=CIRCLE('',#518,1.);
#178=CIRCLE('',#519,1.);
#179=CIRCLE('',#520,0.999999999999999);
#180=CIRCLE('',#522,1.);
#181=CIRCLE('',#523,0.999999999999998);
#182=CIRCLE('',#525,1.);
#183=CIRCLE('',#526,1.);
#184=CIRCLE('',#527,1.);
#185=CIRCLE('',#530,6.93388371141223);
#186=CIRCLE('',#531,2.75);
#187=CIRCLE('',#534,6.93388371141223);
#188=CIRCLE('',#535,2.35);
#189=CIRCLE('',#537,2.35);
#190=CIRCLE('',#539,2.75);
#191=CIRCLE('',#541,1.);
#192=CIRCLE('',#544,1.);
#193=CIRCLE('',#546,1.);
#194=CIRCLE('',#549,1.);
#195=CIRCLE('',#550,1.5);
#196=CIRCLE('',#551,1.50000000009497);
#197=CIRCLE('',#553,1.5);
#198=CIRCLE('',#554,1.49999967371399);
#199=CIRCLE('',#557,1.55);
#200=CIRCLE('',#559,1.55);
#201=CIRCLE('',#560,1.55);
#202=CIRCLE('',#562,2.05);
#203=VERTEX_POINT('',#711);
#204=VERTEX_POINT('',#713);
#205=VERTEX_POINT('',#715);
#206=VERTEX_POINT('',#719);
#207=VERTEX_POINT('',#720);
#208=VERTEX_POINT('',#722);
#209=VERTEX_POINT('',#732);
#210=VERTEX_POINT('',#734);
#211=VERTEX_POINT('',#747);
#212=VERTEX_POINT('',#748);
#213=VERTEX_POINT('',#750);
#214=VERTEX_POINT('',#754);
#215=VERTEX_POINT('',#755);
#216=VERTEX_POINT('',#757);
#217=VERTEX_POINT('',#802);
#218=VERTEX_POINT('',#803);
#219=VERTEX_POINT('',#820);
#220=VERTEX_POINT('',#824);
#221=VERTEX_POINT('',#825);
#222=VERTEX_POINT('',#827);
#223=VERTEX_POINT('',#887);
#224=VERTEX_POINT('',#890);
#225=VERTEX_POINT('',#902);
#226=VERTEX_POINT('',#905);
#227=VERTEX_POINT('',#908);
#228=VERTEX_POINT('',#922);
#229=VERTEX_POINT('',#925);
#230=VERTEX_POINT('',#929);
#231=VERTEX_POINT('',#933);
#232=VERTEX_POINT('',#935);
#233=VERTEX_POINT('',#939);
#234=VERTEX_POINT('',#943);
#235=VERTEX_POINT('',#966);
#236=VERTEX_POINT('',#976);
#237=VERTEX_POINT('',#980);
#238=VERTEX_POINT('',#984);
#239=VERTEX_POINT('',#1129);
#240=VERTEX_POINT('',#1132);
#241=VERTEX_POINT('',#1133);
#242=VERTEX_POINT('',#1138);
#243=EDGE_CURVE('',#203,#203,#166,.T.);
#244=EDGE_CURVE('',#203,#204,#167,.T.);
#245=EDGE_CURVE('',#204,#205,#168,.T.);
#246=EDGE_CURVE('',#205,#204,#169,.T.);
#247=EDGE_CURVE('',#206,#207,#170,.T.);
#248=EDGE_CURVE('',#206,#208,#88,.T.);
#249=EDGE_CURVE('',#209,#208,#171,.T.);
#250=EDGE_CURVE('',#209,#210,#89,.T.);
#251=EDGE_CURVE('',#207,#210,#172,.T.);
#252=EDGE_CURVE('',#207,#205,#46,.T.);
#253=EDGE_CURVE('',#211,#212,#173,.T.);
#254=EDGE_CURVE('',#213,#211,#174,.T.);
#255=EDGE_CURVE('',#213,#212,#175,.T.);
#256=EDGE_CURVE('',#214,#215,#176,.T.);
#257=EDGE_CURVE('',#216,#214,#177,.T.);
#258=EDGE_CURVE('',#216,#215,#178,.T.);
#259=EDGE_CURVE('',#217,#218,#179,.T.);
#260=EDGE_CURVE('',#217,#214,#90,.T.);
#261=EDGE_CURVE('',#218,#215,#91,.T.);
#262=EDGE_CURVE('',#219,#218,#180,.T.);
#263=EDGE_CURVE('',#217,#219,#181,.T.);
#264=EDGE_CURVE('',#220,#221,#182,.T.);
#265=EDGE_CURVE('',#222,#220,#183,.T.);
#266=EDGE_CURVE('',#222,#221,#184,.T.);
#267=EDGE_CURVE('',#213,#220,#92,.T.);
#268=EDGE_CURVE('',#212,#221,#93,.T.);
#269=EDGE_CURVE('',#215,#223,#47,.T.);
#270=EDGE_CURVE('',#216,#211,#48,.T.);
#271=EDGE_CURVE('',#224,#212,#49,.T.);
#272=EDGE_CURVE('',#223,#224,#94,.T.);
#273=EDGE_CURVE('',#223,#225,#185,.T.);
#274=EDGE_CURVE('',#225,#218,#50,.T.);
#275=EDGE_CURVE('',#226,#226,#186,.T.);
#276=EDGE_CURVE('',#221,#227,#51,.T.);
#277=EDGE_CURVE('',#222,#219,#52,.T.);
#278=EDGE_CURVE('',#227,#225,#95,.T.);
#279=EDGE_CURVE('',#227,#224,#187,.T.);
#280=EDGE_CURVE('',#228,#228,#188,.T.);
#281=EDGE_CURVE('',#229,#229,#189,.T.);
#282=EDGE_CURVE('',#229,#228,#53,.T.);
#283=EDGE_CURVE('',#230,#230,#190,.T.);
#284=EDGE_CURVE('',#230,#226,#54,.T.);
#285=EDGE_CURVE('',#211,#231,#55,.T.);
#286=EDGE_CURVE('',#231,#232,#191,.T.);
#287=EDGE_CURVE('',#213,#232,#56,.T.);
#288=EDGE_CURVE('',#216,#233,#57,.T.);
#289=EDGE_CURVE('',#233,#231,#58,.T.);
#290=EDGE_CURVE('',#214,#234,#59,.T.);
#291=EDGE_CURVE('',#234,#233,#192,.T.);
#292=EDGE_CURVE('',#217,#235,#60,.T.);
#293=EDGE_CURVE('',#235,#234,#96,.T.);
#294=EDGE_CURVE('',#219,#236,#61,.T.);
#295=EDGE_CURVE('',#236,#235,#193,.T.);
#296=EDGE_CURVE('',#222,#237,#62,.T.);
#297=EDGE_CURVE('',#237,#236,#63,.T.);
#298=EDGE_CURVE('',#220,#238,#64,.T.);
#299=EDGE_CURVE('',#238,#237,#194,.T.);
#300=EDGE_CURVE('',#232,#238,#97,.T.);
#301=EDGE_CURVE('',#224,#208,#195,.T.);
#302=EDGE_CURVE('',#223,#206,#196,.T.);
#303=EDGE_CURVE('',#225,#210,#197,.T.);
#304=EDGE_CURVE('',#227,#209,#198,.T.);
#305=EDGE_CURVE('',#239,#239,#199,.T.);
#306=EDGE_CURVE('',#240,#241,#200,.T.);
#307=EDGE_CURVE('',#241,#240,#201,.T.);
#308=EDGE_CURVE('',#240,#239,#65,.T.);
#309=EDGE_CURVE('',#242,#242,#202,.T.);
#310=EDGE_CURVE('',#241,#242,#66,.T.);
#311=ORIENTED_EDGE('',*,*,#243,.F.);
#312=ORIENTED_EDGE('',*,*,#244,.T.);
#313=ORIENTED_EDGE('',*,*,#245,.T.);
#314=ORIENTED_EDGE('',*,*,#246,.T.);
#315=ORIENTED_EDGE('',*,*,#244,.F.);
#316=ORIENTED_EDGE('',*,*,#247,.F.);
#317=ORIENTED_EDGE('',*,*,#248,.T.);
#318=ORIENTED_EDGE('',*,*,#249,.F.);
#319=ORIENTED_EDGE('',*,*,#250,.T.);
#320=ORIENTED_EDGE('',*,*,#251,.F.);
#321=ORIENTED_EDGE('',*,*,#252,.T.);
#322=ORIENTED_EDGE('',*,*,#245,.F.);
#323=ORIENTED_EDGE('',*,*,#246,.F.);
#324=ORIENTED_EDGE('',*,*,#252,.F.);
#325=ORIENTED_EDGE('',*,*,#253,.F.);
#326=ORIENTED_EDGE('',*,*,#254,.F.);
#327=ORIENTED_EDGE('',*,*,#255,.T.);
#328=ORIENTED_EDGE('',*,*,#256,.F.);
#329=ORIENTED_EDGE('',*,*,#257,.F.);
#330=ORIENTED_EDGE('',*,*,#258,.T.);
#331=ORIENTED_EDGE('',*,*,#259,.F.);
#332=ORIENTED_EDGE('',*,*,#260,.T.);
#333=ORIENTED_EDGE('',*,*,#256,.T.);
#334=ORIENTED_EDGE('',*,*,#261,.F.);
#335=ORIENTED_EDGE('',*,*,#262,.F.);
#336=ORIENTED_EDGE('',*,*,#263,.F.);
#337=ORIENTED_EDGE('',*,*,#259,.T.);
#338=ORIENTED_EDGE('',*,*,#264,.F.);
#339=ORIENTED_EDGE('',*,*,#265,.F.);
#340=ORIENTED_EDGE('',*,*,#266,.T.);
#341=ORIENTED_EDGE('',*,*,#255,.F.);
#342=ORIENTED_EDGE('',*,*,#267,.T.);
#343=ORIENTED_EDGE('',*,*,#264,.T.);
#344=ORIENTED_EDGE('',*,*,#268,.F.);
#345=ORIENTED_EDGE('',*,*,#269,.F.);
#346=ORIENTED_EDGE('',*,*,#258,.F.);
#347=ORIENTED_EDGE('',*,*,#270,.T.);
#348=ORIENTED_EDGE('',*,*,#253,.T.);
#349=ORIENTED_EDGE('',*,*,#271,.F.);
#350=ORIENTED_EDGE('',*,*,#272,.F.);
#351=ORIENTED_EDGE('',*,*,#269,.T.);
#352=ORIENTED_EDGE('',*,*,#273,.T.);
#353=ORIENTED_EDGE('',*,*,#274,.T.);
#354=ORIENTED_EDGE('',*,*,#261,.T.);
#355=ORIENTED_EDGE('',*,*,#275,.F.);
#356=ORIENTED_EDGE('',*,*,#276,.F.);
#357=ORIENTED_EDGE('',*,*,#266,.F.);
#358=ORIENTED_EDGE('',*,*,#277,.T.);
#359=ORIENTED_EDGE('',*,*,#262,.T.);
#360=ORIENTED_EDGE('',*,*,#274,.F.);
#361=ORIENTED_EDGE('',*,*,#278,.F.);
#362=ORIENTED_EDGE('',*,*,#276,.T.);
#363=ORIENTED_EDGE('',*,*,#279,.T.);
#364=ORIENTED_EDGE('',*,*,#271,.T.);
#365=ORIENTED_EDGE('',*,*,#268,.T.);
#366=ORIENTED_EDGE('',*,*,#280,.F.);
#367=ORIENTED_EDGE('',*,*,#281,.T.);
#368=ORIENTED_EDGE('',*,*,#282,.T.);
#369=ORIENTED_EDGE('',*,*,#280,.T.);
#370=ORIENTED_EDGE('',*,*,#282,.F.);
#371=ORIENTED_EDGE('',*,*,#283,.T.);
#372=ORIENTED_EDGE('',*,*,#284,.T.);
#373=ORIENTED_EDGE('',*,*,#275,.T.);
#374=ORIENTED_EDGE('',*,*,#284,.F.);
#375=ORIENTED_EDGE('',*,*,#285,.T.);
#376=ORIENTED_EDGE('',*,*,#286,.T.);
#377=ORIENTED_EDGE('',*,*,#287,.F.);
#378=ORIENTED_EDGE('',*,*,#254,.T.);
#379=ORIENTED_EDGE('',*,*,#288,.T.);
#380=ORIENTED_EDGE('',*,*,#289,.T.);
#381=ORIENTED_EDGE('',*,*,#285,.F.);
#382=ORIENTED_EDGE('',*,*,#270,.F.);
#383=ORIENTED_EDGE('',*,*,#290,.T.);
#384=ORIENTED_EDGE('',*,*,#291,.T.);
#385=ORIENTED_EDGE('',*,*,#288,.F.);
#386=ORIENTED_EDGE('',*,*,#257,.T.);
#387=ORIENTED_EDGE('',*,*,#292,.T.);
#388=ORIENTED_EDGE('',*,*,#293,.T.);
#389=ORIENTED_EDGE('',*,*,#290,.F.);
#390=ORIENTED_EDGE('',*,*,#260,.F.);
#391=ORIENTED_EDGE('',*,*,#294,.T.);
#392=ORIENTED_EDGE('',*,*,#295,.T.);
#393=ORIENTED_EDGE('',*,*,#292,.F.);
#394=ORIENTED_EDGE('',*,*,#263,.T.);
#395=ORIENTED_EDGE('',*,*,#296,.T.);
#396=ORIENTED_EDGE('',*,*,#297,.T.);
#397=ORIENTED_EDGE('',*,*,#294,.F.);
#398=ORIENTED_EDGE('',*,*,#277,.F.);
#399=ORIENTED_EDGE('',*,*,#298,.T.);
#400=ORIENTED_EDGE('',*,*,#299,.T.);
#401=ORIENTED_EDGE('',*,*,#296,.F.);
#402=ORIENTED_EDGE('',*,*,#265,.T.);
#403=ORIENTED_EDGE('',*,*,#287,.T.);
#404=ORIENTED_EDGE('',*,*,#300,.T.);
#405=ORIENTED_EDGE('',*,*,#298,.F.);
#406=ORIENTED_EDGE('',*,*,#267,.F.);
#407=ORIENTED_EDGE('',*,*,#301,.T.);
#408=ORIENTED_EDGE('',*,*,#248,.F.);
#409=ORIENTED_EDGE('',*,*,#302,.F.);
#410=ORIENTED_EDGE('',*,*,#272,.T.);
#411=ORIENTED_EDGE('',*,*,#302,.T.);
#412=ORIENTED_EDGE('',*,*,#247,.T.);
#413=ORIENTED_EDGE('',*,*,#251,.T.);
#414=ORIENTED_EDGE('',*,*,#303,.F.);
#415=ORIENTED_EDGE('',*,*,#273,.F.);
#416=ORIENTED_EDGE('',*,*,#303,.T.);
#417=ORIENTED_EDGE('',*,*,#250,.F.);
#418=ORIENTED_EDGE('',*,*,#304,.F.);
#419=ORIENTED_EDGE('',*,*,#278,.T.);
#420=ORIENTED_EDGE('',*,*,#279,.F.);
#421=ORIENTED_EDGE('',*,*,#304,.T.);
#422=ORIENTED_EDGE('',*,*,#249,.T.);
#423=ORIENTED_EDGE('',*,*,#301,.F.);
#424=ORIENTED_EDGE('',*,*,#300,.F.);
#425=ORIENTED_EDGE('',*,*,#286,.F.);
#426=ORIENTED_EDGE('',*,*,#289,.F.);
#427=ORIENTED_EDGE('',*,*,#291,.F.);
#428=ORIENTED_EDGE('',*,*,#293,.F.);
#429=ORIENTED_EDGE('',*,*,#295,.F.);
#430=ORIENTED_EDGE('',*,*,#297,.F.);
#431=ORIENTED_EDGE('',*,*,#299,.F.);
#432=ORIENTED_EDGE('',*,*,#305,.T.);
#433=ORIENTED_EDGE('',*,*,#283,.F.);
#434=ORIENTED_EDGE('',*,*,#281,.F.);
#435=ORIENTED_EDGE('',*,*,#306,.T.);
#436=ORIENTED_EDGE('',*,*,#307,.T.);
#437=ORIENTED_EDGE('',*,*,#308,.T.);
#438=ORIENTED_EDGE('',*,*,#305,.F.);
#439=ORIENTED_EDGE('',*,*,#308,.F.);
#440=ORIENTED_EDGE('',*,*,#243,.T.);
#441=ORIENTED_EDGE('',*,*,#309,.F.);
#442=ORIENTED_EDGE('',*,*,#306,.F.);
#443=ORIENTED_EDGE('',*,*,#307,.F.);
#444=ORIENTED_EDGE('',*,*,#310,.T.);
#445=ORIENTED_EDGE('',*,*,#309,.T.);
#446=ORIENTED_EDGE('',*,*,#310,.F.);
#447=TOROIDAL_SURFACE('',#503,2.50192868724682,0.8);
#448=TOROIDAL_SURFACE('',#552,6.93388371141145,1.5);
#449=TOROIDAL_SURFACE('',#555,6.93388371141246,1.5);
#450=ADVANCED_FACE('',(#100),#447,.T.);
#451=ADVANCED_FACE('',(#101),#98,.T.);
#452=ADVANCED_FACE('',(#102),#42,.T.);
#453=ADVANCED_FACE('',(#103),#43,.T.);
#454=ADVANCED_FACE('',(#104),#36,.T.);
#455=ADVANCED_FACE('',(#105),#44,.T.);
#456=ADVANCED_FACE('',(#106),#45,.T.);
#457=ADVANCED_FACE('',(#107),#37,.T.);
#458=ADVANCED_FACE('',(#108),#27,.T.);
#459=ADVANCED_FACE('',(#109,#15),#21,.F.);
#460=ADVANCED_FACE('',(#110),#28,.T.);
#461=ADVANCED_FACE('',(#111,#16),#22,.F.);
#462=ADVANCED_FACE('',(#112),#29,.F.);
#463=ADVANCED_FACE('',(#113),#30,.F.);
#464=ADVANCED_FACE('',(#114),#31,.T.);
#465=ADVANCED_FACE('',(#115),#23,.T.);
#466=ADVANCED_FACE('',(#116),#32,.T.);
#467=ADVANCED_FACE('',(#117),#38,.T.);
#468=ADVANCED_FACE('',(#118),#33,.T.);
#469=ADVANCED_FACE('',(#119),#24,.T.);
#470=ADVANCED_FACE('',(#120),#34,.T.);
#471=ADVANCED_FACE('',(#121),#39,.T.);
#472=ADVANCED_FACE('',(#122),#40,.T.);
#473=ADVANCED_FACE('',(#123),#448,.F.);
#474=ADVANCED_FACE('',(#124),#41,.T.);
#475=ADVANCED_FACE('',(#125),#449,.F.);
#476=ADVANCED_FACE('',(#126,#17,#18,#19),#25,.F.);
#477=ADVANCED_FACE('',(#127),#35,.F.);
#478=ADVANCED_FACE('',(#128,#20),#26,.T.);
#479=ADVANCED_FACE('',(#129),#99,.F.);
#480=CLOSED_SHELL('',(#450,#451,#452,#453,#454,#455,#456,#457,#458,#459,
#460,#461,#462,#463,#464,#465,#466,#467,#468,#469,#470,#471,#472,#473,#474,
#475,#476,#477,#478,#479));
#481=DERIVED_UNIT_ELEMENT(#484,1.);
#482=DERIVED_UNIT_ELEMENT(#1147,-3.);
#483=DIMENSIONAL_EXPONENTS(0.,1.,0.,0.,0.,0.,0.);
#484=(
CONVERSION_BASED_UNIT('gram',#486)
MASS_UNIT()
NAMED_UNIT(#483)
);
#485=(
MASS_UNIT()
NAMED_UNIT(*)
SI_UNIT(.KILO.,.GRAM.)
);
#486=MASS_MEASURE_WITH_UNIT(MASS_MEASURE(0.001),#485);
#487=DERIVED_UNIT((#481,#482));
#488=MEASURE_REPRESENTATION_ITEM('density measure',
POSITIVE_RATIO_MEASURE(1.),#487);
#489=PROPERTY_DEFINITION_REPRESENTATION(#494,#491);
#490=PROPERTY_DEFINITION_REPRESENTATION(#495,#492);
#491=REPRESENTATION('material name',(#493),#1144);
#492=REPRESENTATION('density',(#488),#1144);
#493=DESCRIPTIVE_REPRESENTATION_ITEM('Generisch','Generisch');
#494=PROPERTY_DEFINITION('material property','material name',#1154);
#495=PROPERTY_DEFINITION('material property','density of part',#1154);
#496=DATE_TIME_ROLE('creation_date');
#497=APPLIED_DATE_AND_TIME_ASSIGNMENT(#498,#496,(#1154));
#498=DATE_AND_TIME(#499,#500);
#499=CALENDAR_DATE(2026,9,3);
#500=LOCAL_TIME(0,0,0.,#501);
#501=COORDINATED_UNIVERSAL_TIME_OFFSET(0,0,.BEHIND.);
#502=AXIS2_PLACEMENT_3D('',#709,#564,#565);
#503=AXIS2_PLACEMENT_3D('',#710,#566,#567);
#504=AXIS2_PLACEMENT_3D('',#712,#568,#569);
#505=AXIS2_PLACEMENT_3D('',#714,#570,#571);
#506=AXIS2_PLACEMENT_3D('',#716,#572,#573);
#507=AXIS2_PLACEMENT_3D('',#717,#574,#575);
#508=AXIS2_PLACEMENT_3D('',#718,#576,#577);
#509=AXIS2_PLACEMENT_3D('',#721,#578,#579);
#510=AXIS2_PLACEMENT_3D('',#733,#580,#581);
#511=AXIS2_PLACEMENT_3D('',#744,#582,#583);
#512=AXIS2_PLACEMENT_3D('',#746,#585,#586);
#513=AXIS2_PLACEMENT_3D('',#749,#587,#588);
#514=AXIS2_PLACEMENT_3D('',#751,#589,#590);
#515=AXIS2_PLACEMENT_3D('',#752,#591,#592);
#516=AXIS2_PLACEMENT_3D('',#753,#593,#594);
#517=AXIS2_PLACEMENT_3D('',#756,#595,#596);
#518=AXIS2_PLACEMENT_3D('',#758,#597,#598);
#519=AXIS2_PLACEMENT_3D('',#759,#599,#600);
#520=AXIS2_PLACEMENT_3D('',#804,#601,#602);
#521=AXIS2_PLACEMENT_3D('',#819,#603,#604);
#522=AXIS2_PLACEMENT_3D('',#821,#605,#606);
#523=AXIS2_PLACEMENT_3D('',#822,#607,#608);
#524=AXIS2_PLACEMENT_3D('',#823,#609,#610);
#525=AXIS2_PLACEMENT_3D('',#826,#611,#612);
#526=AXIS2_PLACEMENT_3D('',#828,#613,#614);
#527=AXIS2_PLACEMENT_3D('',#829,#615,#616);
#528=AXIS2_PLACEMENT_3D('',#886,#617,#618);
#529=AXIS2_PLACEMENT_3D('',#901,#622,#623);
#530=AXIS2_PLACEMENT_3D('',#903,#624,#625);
#531=AXIS2_PLACEMENT_3D('',#906,#627,#628);
#532=AXIS2_PLACEMENT_3D('',#907,#629,#630);
#533=AXIS2_PLACEMENT_3D('',#920,#633,#634);
#534=AXIS2_PLACEMENT_3D('',#921,#635,#636);
#535=AXIS2_PLACEMENT_3D('',#923,#637,#638);
#536=AXIS2_PLACEMENT_3D('',#924,#639,#640);
#537=AXIS2_PLACEMENT_3D('',#926,#641,#642);
#538=AXIS2_PLACEMENT_3D('',#928,#644,#645);
#539=AXIS2_PLACEMENT_3D('',#930,#646,#647);
#540=AXIS2_PLACEMENT_3D('',#932,#649,#650);
#541=AXIS2_PLACEMENT_3D('',#936,#652,#653);
#542=AXIS2_PLACEMENT_3D('',#938,#655,#656);
#543=AXIS2_PLACEMENT_3D('',#942,#659,#660);
#544=AXIS2_PLACEMENT_3D('',#945,#662,#663);
#545=AXIS2_PLACEMENT_3D('',#975,#665,#666);
#546=AXIS2_PLACEMENT_3D('',#978,#668,#669);
#547=AXIS2_PLACEMENT_3D('',#979,#670,#671);
#548=AXIS2_PLACEMENT_3D('',#983,#674,#675);
#549=AXIS2_PLACEMENT_3D('',#986,#677,#678);
#550=AXIS2_PLACEMENT_3D('',#1068,#679,#680);
#551=AXIS2_PLACEMENT_3D('',#1069,#681,#682);
#552=AXIS2_PLACEMENT_3D('',#1070,#683,#684);
#553=AXIS2_PLACEMENT_3D('',#1071,#685,#686);
#554=AXIS2_PLACEMENT_3D('',#1126,#687,#688);
#555=AXIS2_PLACEMENT_3D('',#1127,#689,#690);
#556=AXIS2_PLACEMENT_3D('',#1128,#691,#692);
#557=AXIS2_PLACEMENT_3D('',#1130,#693,#694);
#558=AXIS2_PLACEMENT_3D('',#1131,#695,#696);
#559=AXIS2_PLACEMENT_3D('',#1134,#697,#698);
#560=AXIS2_PLACEMENT_3D('',#1135,#699,#700);
#561=AXIS2_PLACEMENT_3D('',#1137,#702,#703);
#562=AXIS2_PLACEMENT_3D('',#1139,#704,#705);
#563=AXIS2_PLACEMENT_3D('',#1140,#706,#707);
#564=DIRECTION('axis',(0.,0.,1.));
#565=DIRECTION('refdir',(1.,0.,0.));
#566=DIRECTION('center_axis',(2.77555756156289E-16,0.573576436351047,0.819152044288991));
#567=DIRECTION('ref_axis',(0.579284340149218,-0.667711756109989,0.467536804979459));
#568=DIRECTION('center_axis',(-1.22124532708767E-15,0.573576436351048,0.81915204428899));
#569=DIRECTION('ref_axis',(-0.942305056696347,0.274215573055139,-0.192007811347706));
#570=DIRECTION('center_axis',(-0.815125544476362,-0.474521951457831,0.332263847456756));
#571=DIRECTION('ref_axis',(-0.579284340149218,0.667711756109989,-0.467536804979459));
#572=DIRECTION('center_axis',(2.77555756156289E-16,0.573576436351047,0.819152044288991));
#573=DIRECTION('ref_axis',(0.579284340149218,-0.667711756109989,0.467536804979459));
#574=DIRECTION('center_axis',(2.77555756156289E-16,0.573576436351047,0.819152044288991));
#575=DIRECTION('ref_axis',(0.579284340149218,-0.667711756109989,0.467536804979459));
#576=DIRECTION('center_axis',(7.45622923860575E-16,-0.573576436351048,-0.81915204428899));
#577=DIRECTION('ref_axis',(1.,4.27671739529597E-16,6.10778542349124E-16));
#578=DIRECTION('center_axis',(7.45622923860575E-16,-0.573576436351048,-0.81915204428899));
#579=DIRECTION('ref_axis',(1.,4.27671739529597E-16,6.10778542349124E-16));
#580=DIRECTION('center_axis',(7.45622923860575E-16,-0.573576436351048,-0.81915204428899));
#581=DIRECTION('ref_axis',(1.,4.27671739529597E-16,6.10778542349124E-16));
#582=DIRECTION('center_axis',(7.45622923860575E-16,-0.573576436351048,-0.81915204428899));
#583=DIRECTION('ref_axis',(1.,4.27671739529597E-16,6.10778542349124E-16));
#584=DIRECTION('',(0.441319655469136,0.514698795727175,0.735066059190328));
#585=DIRECTION('center_axis',(1.,0.,0.));
#586=DIRECTION('ref_axis',(0.,-1.,0.));
#587=DIRECTION('center_axis',(-1.,-8.11850586757146E-15,5.68295410730002E-15));
#588=DIRECTION('ref_axis',(1.06581410364015E-14,-0.819152044288991,0.573576436351047));
#589=DIRECTION('center_axis',(0.,-0.573576436351048,-0.819152044288991));
#590=DIRECTION('ref_axis',(0.996587182701333,0.0676184448947814,-0.047346944837344));
#591=DIRECTION('center_axis',(-0.350698572722019,-0.767126381958054,0.537147675406572));
#592=DIRECTION('ref_axis',(0.936488393462908,-0.287275452774473,0.201152437575295));
#593=DIRECTION('center_axis',(1.,0.,0.));
#594=DIRECTION('ref_axis',(0.,-1.,0.));
#595=DIRECTION('center_axis',(-0.352346319418317,0.766619567358432,-0.536792800003443));
#596=DIRECTION('ref_axis',(-0.935869687078476,-0.288625207849217,0.202097546253366));
#597=DIRECTION('center_axis',(0.,-0.573576436351048,-0.819152044288991));
#598=DIRECTION('ref_axis',(0.42760158796911,-0.74048666289676,0.518494343304066));
#599=DIRECTION('center_axis',(-1.,-1.72084568816899E-15,1.19348975147204E-15));
#600=DIRECTION('ref_axis',(3.5527136788005E-15,-0.819152044288991,0.573576436351047));
#601=DIRECTION('center_axis',(0.351903622834566,0.766755998493053,-0.53688833011235));
#602=DIRECTION('ref_axis',(-0.936036238740738,0.288262572037638,-0.201843625924472));
#603=DIRECTION('center_axis',(0.,0.,1.));
#604=DIRECTION('ref_axis',(1.,0.,0.));
#605=DIRECTION('center_axis',(1.,1.96509475358653E-14,-1.3759826611448E-14));
#606=DIRECTION('ref_axis',(-2.48689957516035E-14,0.819152044288991,-0.573576436351047));
#607=DIRECTION('center_axis',(0.,-0.573576436351047,-0.819152044288991));
#608=DIRECTION('ref_axis',(-0.996640098789325,-0.0670930705397946,0.0469790737536001));
#609=DIRECTION('center_axis',(0.,0.,1.));
#610=DIRECTION('ref_axis',(1.,0.,0.));
#611=DIRECTION('center_axis',(0.351170616398011,-0.766981467569566,0.537046205259358));
#612=DIRECTION('ref_axis',(0.936311485659896,0.287662128316654,-0.201423190704773));
#613=DIRECTION('center_axis',(0.,-0.573576436351047,-0.819152044288991));
#614=DIRECTION('ref_axis',(-0.427033825219027,0.74070648184513,-0.518648262188755));
#615=DIRECTION('center_axis',(1.,-3.71924713249427E-15,2.63677968348475E-15));
#616=DIRECTION('ref_axis',(3.5527136788005E-15,0.819152044288991,-0.573576436351047));
#617=DIRECTION('center_axis',(1.,4.26882913688639E-16,6.09651982296694E-16));
#618=DIRECTION('ref_axis',(0.,-0.819152044288991,0.573576436351047));
#619=DIRECTION('',(1.,4.25205191446362E-16,5.10246229735635E-16));
#620=DIRECTION('',(1.,4.36927072286961E-16,5.82569429715947E-16));
#621=DIRECTION('',(1.,4.25256346249541E-16,5.1030761549945E-16));
#622=DIRECTION('center_axis',(7.45622923860575E-16,-0.573576436351048,-0.819152044288991));
#623=DIRECTION('ref_axis',(1.,1.4432899320127E-15,-1.0036497197047E-16));
#624=DIRECTION('center_axis',(7.45622923860575E-16,-0.573576436351048,-0.819152044288991));
#625=DIRECTION('ref_axis',(1.,1.4432899320127E-15,-1.0036497197047E-16));
#626=DIRECTION('',(-1.,-1.4335004077504E-15,9.35102732865178E-17));
#627=DIRECTION('center_axis',(-7.45622923860575E-16,0.573576436351048,0.819152044288991));
#628=DIRECTION('ref_axis',(-1.,-1.4432899320127E-15,1.0036497197047E-16));
#629=DIRECTION('center_axis',(-1.,-4.26882913688638E-16,-6.09651982296694E-16));
#630=DIRECTION('ref_axis',(0.,0.819152044288991,-0.573576436351047));
#631=DIRECTION('',(-1.,-5.08811035440742E-16,-5.08811035440742E-16));
#632=DIRECTION('',(-1.,-4.3692839321197E-16,-5.82571190949294E-16));
#633=DIRECTION('center_axis',(7.45622923860575E-16,-0.573576436351048,-0.819152044288991));
#634=DIRECTION('ref_axis',(1.,1.4432899320127E-15,-1.0036497197047E-16));
#635=DIRECTION('center_axis',(7.45622923860575E-16,-0.573576436351048,-0.819152044288991));
#636=DIRECTION('ref_axis',(1.,1.4432899320127E-15,-1.0036497197047E-16));
#637=DIRECTION('center_axis',(-7.45622923860575E-16,0.573576436351048,0.819152044288991));
#638=DIRECTION('ref_axis',(-1.,-1.4432899320127E-15,1.0036497197047E-16));
#639=DIRECTION('center_axis',(-7.45622923860575E-16,0.573576436351048,0.819152044288991));
#640=DIRECTION('ref_axis',(-1.,-1.4432899320127E-15,1.0036497197047E-16));
#641=DIRECTION('center_axis',(7.45622923860575E-16,-0.573576436351048,-0.819152044288991));
#642=DIRECTION('ref_axis',(-1.,-1.4432899320127E-15,1.0036497197047E-16));
#643=DIRECTION('',(-7.45622923860575E-16,0.573576436351048,0.819152044288991));
#644=DIRECTION('center_axis',(-7.45622923860575E-16,0.573576436351048,0.819152044288991));
#645=DIRECTION('ref_axis',(-1.,-1.4432899320127E-15,1.0036497197047E-16));
#646=DIRECTION('center_axis',(7.45622923860575E-16,-0.573576436351048,-0.819152044288991));
#647=DIRECTION('ref_axis',(-1.,-1.4432899320127E-15,1.0036497197047E-16));
#648=DIRECTION('',(-7.45622923860575E-16,0.573576436351048,0.819152044288991));
#649=DIRECTION('center_axis',(-5.19029264012261E-15,-0.573576436351046,
-0.819152044288992));
#650=DIRECTION('ref_axis',(0.936488393462909,-0.287275452774474,0.201152437575288));
#651=DIRECTION('',(-5.32907051820076E-15,-0.573576436351047,-0.819152044288991));
#652=DIRECTION('center_axis',(5.19029264012261E-15,0.573576436351046,0.819152044288992));
#653=DIRECTION('ref_axis',(0.936488393462909,-0.287275452774474,0.201152437575288));
#654=DIRECTION('',(-5.32907051820076E-15,-0.573576436351046,-0.819152044288992));
#655=DIRECTION('center_axis',(1.23984088126722E-15,-0.819152044288991,0.573576436351048));
#656=DIRECTION('ref_axis',(1.,1.4432899320127E-15,-1.0036497197047E-16));
#657=DIRECTION('',(7.77156117237609E-16,-0.573576436351048,-0.819152044288991));
#658=DIRECTION('',(1.,1.4432899320127E-15,-1.0036497197047E-16));
#659=DIRECTION('center_axis',(1.01506105108586E-15,-0.573576436351047,-0.819152044288991));
#660=DIRECTION('ref_axis',(0.,-0.819152044288991,0.573576436351047));
#661=DIRECTION('',(8.88178419700125E-16,-0.573576436351047,-0.819152044288991));
#662=DIRECTION('center_axis',(-1.01506105108586E-15,0.573576436351047,0.819152044288991));
#663=DIRECTION('ref_axis',(0.,-0.819152044288991,0.573576436351047));
#664=DIRECTION('',(0.,-0.573576436351048,-0.819152044288991));
#665=DIRECTION('center_axis',(1.15463194561016E-14,-0.573576436351051,-0.819152044288988));
#666=DIRECTION('ref_axis',(-0.936036238740738,0.288262572037628,-0.201843625924483));
#667=DIRECTION('',(1.15463194561017E-14,-0.573576436351052,-0.819152044288988));
#668=DIRECTION('center_axis',(-1.15463194561016E-14,0.573576436351051,0.819152044288988));
#669=DIRECTION('ref_axis',(-0.936036238740739,0.288262572037628,-0.201843625924483));
#670=DIRECTION('center_axis',(-1.23984088126722E-15,0.819152044288991,-0.573576436351048));
#671=DIRECTION('ref_axis',(-1.,-1.4432899320127E-15,1.0036497197047E-16));
#672=DIRECTION('',(7.77156117237609E-16,-0.573576436351048,-0.819152044288991));
#673=DIRECTION('',(-1.,-1.4432899320127E-15,1.0036497197047E-16));
#674=DIRECTION('center_axis',(1.01506105108586E-15,-0.573576436351047,-0.819152044288991));
#675=DIRECTION('ref_axis',(0.,0.819152044288991,-0.573576436351047));
#676=DIRECTION('',(8.88178419700127E-16,-0.573576436351047,-0.819152044288991));
#677=DIRECTION('center_axis',(-1.01506105108586E-15,0.573576436351047,0.819152044288991));
#678=DIRECTION('ref_axis',(0.,0.819152044288991,-0.573576436351047));
#679=DIRECTION('center_axis',(0.862711929072457,0.414241655458606,-0.290055129792586));
#680=DIRECTION('ref_axis',(8.88178419700125E-16,-0.573576436351047,-0.819152044288991));
#681=DIRECTION('center_axis',(0.862711929070491,-0.414241655455744,0.29005512980252));
#682=DIRECTION('ref_axis',(8.88178419643891E-16,-0.573576436366886,-0.819152044277901));
#683=DIRECTION('center_axis',(2.1094237467878E-15,-0.573576436351046,-0.819152044288992));
#684=DIRECTION('ref_axis',(-0.9999865035376,0.00425586679498856,-0.00297999001147021));
#685=DIRECTION('center_axis',(-0.867919921624676,-0.406876217421886,0.284897794557055));
#686=DIRECTION('ref_axis',(-0.496704147000018,0.710958378077995,-0.497818415683561));
#687=DIRECTION('center_axis',(-0.867919979452869,0.406876110721323,-0.284897770771941));
#688=DIRECTION('ref_axis',(1.48029768816716E-15,-0.573576505150186,-0.819151996115311));
#689=DIRECTION('center_axis',(-1.38777878078145E-17,-0.573576436351048,
-0.819152044288991));
#690=DIRECTION('ref_axis',(-0.265354071923067,0.789786290568411,-0.553014314230688));
#691=DIRECTION('center_axis',(-7.45622923860575E-16,0.573576436351048,0.819152044288991));
#692=DIRECTION('ref_axis',(-1.,-1.4432899320127E-15,1.0036497197047E-16));
#693=DIRECTION('center_axis',(-7.45622923860575E-16,0.573576436351048,0.819152044288991));
#694=DIRECTION('ref_axis',(-1.,-1.4432899320127E-15,1.0036497197047E-16));
#695=DIRECTION('center_axis',(7.45622923860575E-16,-0.573576436351048,-0.81915204428899));
#696=DIRECTION('ref_axis',(1.,4.27671739529597E-16,6.10778542349124E-16));
#697=DIRECTION('center_axis',(-7.45622923860575E-16,0.573576436351048,0.81915204428899));
#698=DIRECTION('ref_axis',(1.,4.27671739529597E-16,6.10778542349124E-16));
#699=DIRECTION('center_axis',(-7.45622923860575E-16,0.573576436351048,0.81915204428899));
#700=DIRECTION('ref_axis',(1.,4.27671739529597E-16,6.10778542349124E-16));
#701=DIRECTION('',(7.45622923860575E-16,-0.573576436351048,-0.81915204428899));
#702=DIRECTION('center_axis',(-7.45622923860575E-16,0.573576436351048,0.81915204428899));
#703=DIRECTION('ref_axis',(1.,4.27671739529597E-16,6.10778542349124E-16));
#704=DIRECTION('center_axis',(-7.45622923860575E-16,0.573576436351048,0.81915204428899));
#705=DIRECTION('ref_axis',(1.,4.27671739529597E-16,6.10778542349124E-16));
#706=DIRECTION('center_axis',(-6.66133814775095E-16,0.573576436351045,0.819152044288993));
#707=DIRECTION('ref_axis',(-0.5,0.709406479916222,-0.496731764892155));
#708=DIRECTION('',(0.353553390593273,-0.0960463448938017,0.930470364725573));
#709=CARTESIAN_POINT('',(0.,0.,0.));
#710=CARTESIAN_POINT('Origin',(-8.21565038222616E-15,14.7905653592452,26.1231164369786));
#711=CARTESIAN_POINT('',(-1.44932810869218,16.9199937057496,25.608694327688));
#712=CARTESIAN_POINT('Origin',(-9.41469124882133E-15,15.249426508326,26.7784380724098));
#713=CARTESIAN_POINT('',(-1.86518473509785,17.1429738982681,24.90694370174));
#714=CARTESIAN_POINT('Origin',(-1.44932810869218,16.4611325566687,24.9533726922568));
#715=CARTESIAN_POINT('',(-3.21980866014329,14.9930698034657,26.4123227553486));
#716=CARTESIAN_POINT('Origin',(-8.11765773368186E-15,14.9930698034657,26.4123227553486));
#717=CARTESIAN_POINT('Origin',(-8.11765773368186E-15,14.9930698034657,26.4123227553486));
#718=CARTESIAN_POINT('Origin',(-8.27641445333298E-15,15.249426508326,26.7784380724098));
#719=CARTESIAN_POINT('',(-2.82575607333644,8.28238264085653,25.2331238677705));
#720=CARTESIAN_POINT('',(-5.58785876223133,12.2312790681977,22.4680768217368));
#721=CARTESIAN_POINT('Origin',(-4.35296192577228E-15,12.2312790681977,22.4680768217368));
#722=CARTESIAN_POINT('',(2.82575607333646,8.28238264085654,25.2331238677705));
#723=CARTESIAN_POINT('Ctrl Pts',(-2.82575607326326,8.28238264097146,25.2331238677636));
#724=CARTESIAN_POINT('Ctrl Pts',(-2.67793567290235,8.21140507467524,25.2828227196372));
#725=CARTESIAN_POINT('Ctrl Pts',(-2.13162668660045,7.94930105303868,25.4391419438845));
#726=CARTESIAN_POINT('Ctrl Pts',(-1.22982149814943,7.54916086142577,25.560876547073));
#727=CARTESIAN_POINT('Ctrl Pts',(-0.056199549160452,7.20202262749327,25.5360517989221));
#728=CARTESIAN_POINT('Ctrl Pts',(1.12889987785418,7.50735391314905,25.5655253609822));
#729=CARTESIAN_POINT('Ctrl Pts',(2.08106356387918,7.92609601572016,25.4473986101058));
#730=CARTESIAN_POINT('Ctrl Pts',(2.62866188546072,8.18774629645833,25.2993882076883));
#731=CARTESIAN_POINT('Ctrl Pts',(2.82575607333646,8.28238264085654,25.2331238677705));
#732=CARTESIAN_POINT('',(2.77551155398583,16.2040142759721,19.6863373612468));
#733=CARTESIAN_POINT('Origin',(-4.35296192577228E-15,12.2312790681977,22.4680768217368));
#734=CARTESIAN_POINT('',(-2.77551262005064,16.2040140707226,19.6863378256593));
#735=CARTESIAN_POINT('Ctrl Pts',(2.7755115342589,16.2040141298243,19.6863372124323));
#736=CARTESIAN_POINT('Ctrl Pts',(2.63009192201026,16.2721851743551,19.6386022881604));
#737=CARTESIAN_POINT('Ctrl Pts',(2.09246532981869,16.499693618589,19.4544047827774));
#738=CARTESIAN_POINT('Ctrl Pts',(1.2062822877419,16.7423982594472,19.1374300755346));
#739=CARTESIAN_POINT('Ctrl Pts',(0.0534751419033351,16.8372911624231,18.8333779706667));
#740=CARTESIAN_POINT('Ctrl Pts',(-1.10564813412679,16.7605900767642,19.1024863560849));
#741=CARTESIAN_POINT('Ctrl Pts',(-2.04322475082635,16.5148089215604,19.4363800968751));
#742=CARTESIAN_POINT('Ctrl Pts',(-2.58165583127958,16.2948925888907,19.6227037536831));
#743=CARTESIAN_POINT('Ctrl Pts',(-2.77551262005064,16.2040140707226,19.6863378256593));
#744=CARTESIAN_POINT('Origin',(-4.35296192577228E-15,12.2312790681977,22.4680768217368));
#745=CARTESIAN_POINT('',(-3.,15.249426508326,26.7784380724098));
#746=CARTESIAN_POINT('Origin',(24.3921532523681,6.27691199601277,24.3935607904213));
#747=CARTESIAN_POINT('',(24.3921532523681,5.45775995172378,24.9671372267723));
#748=CARTESIAN_POINT('',(24.3921532766039,6.85048870356774,25.2127126973228));
#749=CARTESIAN_POINT('Origin',(24.3921532523681,6.27691199601277,24.3935607904213));
#750=CARTESIAN_POINT('',(25.3286416460286,5.9896365436704,24.594713227694));
#751=CARTESIAN_POINT('Origin',(24.3921532523681,6.27691199601277,24.3935607904213));
#752=CARTESIAN_POINT('Origin',(24.3921532523681,6.27691199601277,24.3935607904213));
#753=CARTESIAN_POINT('Origin',(-24.3946659328782,6.27691199601271,24.3935607904213));
#754=CARTESIAN_POINT('',(-25.3305356283878,5.98828681511818,24.5956583178008));
#755=CARTESIAN_POINT('',(-24.3946659403869,6.85048847134162,25.2127128138649));
#756=CARTESIAN_POINT('Origin',(-24.3946659328782,6.27691199601271,24.3935607904213));
#757=CARTESIAN_POINT('',(-24.3946659328782,5.45775995172371,24.9671372267723));
#758=CARTESIAN_POINT('Origin',(-24.3946659328782,6.2769119960127,24.3935607904213));
#759=CARTESIAN_POINT('Origin',(-24.3946659328782,6.27691199601271,24.3935607904213));
#760=CARTESIAN_POINT('Ctrl Pts',(-25.3314706250865,16.3949990995183,17.3087999282842));
#761=CARTESIAN_POINT('Ctrl Pts',(-25.331466265352,16.5751912421412,17.5661438351911));
#762=CARTESIAN_POINT('Ctrl Pts',(-25.2163567864499,16.7201196566952,17.8485716052787));
#763=CARTESIAN_POINT('Ctrl Pts',(-24.9838609905258,16.7909868637822,18.1021699075202));
#764=CARTESIAN_POINT('Ctrl Pts',(-24.6894974291944,16.7708702146341,18.2663810428986));
#765=CARTESIAN_POINT('Ctrl Pts',(-24.3954343863457,16.6803129638317,18.3297955984977));
#766=CARTESIAN_POINT('Ctrl Pts',(-25.8297041772525,15.3094076478114,18.0689392461855));
#767=CARTESIAN_POINT('Ctrl Pts',(-25.8296996845365,15.4895986296735,18.3262809707584));
#768=CARTESIAN_POINT('Ctrl Pts',(-25.7113766916133,15.6421259608733,18.6033879989639));
#769=CARTESIAN_POINT('Ctrl Pts',(-25.4718685094542,15.7274888091805,18.8468320461267));
#770=CARTESIAN_POINT('Ctrl Pts',(-25.169019967757,15.7263695959888,18.9977425342834));
#771=CARTESIAN_POINT('Ctrl Pts',(-24.8662619148068,15.6544332878088,19.0481185782848));
#772=CARTESIAN_POINT('Ctrl Pts',(-26.501814681466,13.2473161476419,19.5128312590822));
#773=CARTESIAN_POINT('Ctrl Pts',(-26.5018099594299,13.4275170945014,19.7701853789763));
#774=CARTESIAN_POINT('Ctrl Pts',(-26.3786646503794,13.592846081707,20.0383407777792));
#775=CARTESIAN_POINT('Ctrl Pts',(-26.1307644619072,13.7076628123785,20.2611808334643));
#776=CARTESIAN_POINT('Ctrl Pts',(-25.8162745183958,13.7411095976701,20.3878892718101));
#777=CARTESIAN_POINT('Ctrl Pts',(-25.5024519142254,13.7052120072672,20.4130307062947));
#778=CARTESIAN_POINT('Ctrl Pts',(-26.7493028258616,11.0990706813867,21.0170489284798));
#779=CARTESIAN_POINT('Ctrl Pts',(-26.7492981667497,11.2792620983628,21.2743890993978));
#780=CARTESIAN_POINT('Ctrl Pts',(-26.6245976883705,11.4606168889501,21.5313080422313));
#781=CARTESIAN_POINT('Ctrl Pts',(-26.3721774957235,11.6006999758831,21.7364365802731));
#782=CARTESIAN_POINT('Ctrl Pts',(-26.0530042400786,11.6715059990803,21.8369824997552));
#783=CARTESIAN_POINT('Ctrl Pts',(-25.7339252152341,11.6699522670005,21.8380760411985));
#784=CARTESIAN_POINT('Ctrl Pts',(-26.4707536746273,8.93441803539779,22.5327550288052));
#785=CARTESIAN_POINT('Ctrl Pts',(-26.4707489849451,9.11461172622629,22.7900970493414));
#786=CARTESIAN_POINT('Ctrl Pts',(-26.3480840423857,9.31011555544675,23.0371123941058));
#787=CARTESIAN_POINT('Ctrl Pts',(-26.1004029353254,9.48727085572777,23.2162853048592));
#788=CARTESIAN_POINT('Ctrl Pts',(-25.7867566487371,9.59860710454301,23.2884533053768));
#789=CARTESIAN_POINT('Ctrl Pts',(-25.4734620190517,9.64110254011883,23.2587034231827));
#790=CARTESIAN_POINT('Ctrl Pts',(-25.7455805598126,6.89132350952089,23.9633452171001));
#791=CARTESIAN_POINT('Ctrl Pts',(-25.745576124015,7.07151855613194,24.220687907662));
#792=CARTESIAN_POINT('Ctrl Pts',(-25.6277215094161,7.28210622006211,24.4571394091574));
#793=CARTESIAN_POINT('Ctrl Pts',(-25.3898061717411,7.48342127309567,24.6193990418226));
#794=CARTESIAN_POINT('Ctrl Pts',(-25.0884866207111,7.6301003103757,24.6668171791996));
#795=CARTESIAN_POINT('Ctrl Pts',(-24.7875270821107,7.70525905837346,24.6141961447385));
#796=CARTESIAN_POINT('Ctrl Pts',(-25.3305356317922,5.98828684835764,24.5956582945263));
#797=CARTESIAN_POINT('Ctrl Pts',(-25.3305312744199,6.16848168493145,24.8530003226738));
#798=CARTESIAN_POINT('Ctrl Pts',(-25.2154422768772,6.38435314248949,25.0857532468363));
#799=CARTESIAN_POINT('Ctrl Pts',(-24.9829878468464,6.59850966358734,25.2390192974763));
#800=CARTESIAN_POINT('Ctrl Pts',(-24.6886766578523,6.75981200165848,25.2761994940266));
#801=CARTESIAN_POINT('Ctrl Pts',(-24.3946659329983,6.85048852318946,25.2127127969022));
#802=CARTESIAN_POINT('',(-25.3314706250865,16.3949990995183,17.3087999282842));
#803=CARTESIAN_POINT('',(-24.3954343863457,16.6803129638317,18.3297955984977));
#804=CARTESIAN_POINT('Origin',(-24.3954343863457,16.1067365274806,17.5106435542087));
#805=CARTESIAN_POINT('Ctrl Pts',(-25.3314706250865,16.3949990995183,17.3087999282842));
#806=CARTESIAN_POINT('Ctrl Pts',(-25.8297041772525,15.3094076478114,18.0689392461855));
#807=CARTESIAN_POINT('Ctrl Pts',(-26.501814681466,13.2473161476419,19.5128312590822));
#808=CARTESIAN_POINT('Ctrl Pts',(-26.7493028258616,11.0990706813867,21.0170489284798));
#809=CARTESIAN_POINT('Ctrl Pts',(-26.4707536746273,8.93441803539779,22.5327550288052));
#810=CARTESIAN_POINT('Ctrl Pts',(-25.7455805598126,6.89132350952089,23.9633452171001));
#811=CARTESIAN_POINT('Ctrl Pts',(-25.3305356317922,5.98828684835764,24.5956582945263));
#812=CARTESIAN_POINT('Ctrl Pts',(-24.3954343863457,16.6803129638317,18.3297955984977));
#813=CARTESIAN_POINT('Ctrl Pts',(-24.8662619148068,15.6544332878088,19.0481185782848));
#814=CARTESIAN_POINT('Ctrl Pts',(-25.5024519142254,13.7052120072672,20.4130307062947));
#815=CARTESIAN_POINT('Ctrl Pts',(-25.7339252152341,11.6699522670005,21.8380760411985));
#816=CARTESIAN_POINT('Ctrl Pts',(-25.4734620190517,9.64110254011883,23.2587034231827));
#817=CARTESIAN_POINT('Ctrl Pts',(-24.7875270821107,7.70525905837346,24.6141961447385));
#818=CARTESIAN_POINT('Ctrl Pts',(-24.3946659329983,6.85048852318946,25.2127127969022));
#819=CARTESIAN_POINT('Origin',(-24.3954343863457,16.1067365274806,17.5106435542087));
#820=CARTESIAN_POINT('',(-24.3954343863458,16.9258885717696,16.9370671178576));
#821=CARTESIAN_POINT('Origin',(-24.3954343863457,16.1067365274806,17.5106435542087));
#822=CARTESIAN_POINT('Origin',(-24.3954343863457,16.1067365274806,17.5106435542087));
#823=CARTESIAN_POINT('Origin',(24.3912373062436,16.1067365274807,17.5106435542087));
#824=CARTESIAN_POINT('',(25.3275487920178,16.3943986555477,17.3092203636787));
#825=CARTESIAN_POINT('',(24.391237334561,16.6803128212099,18.3297957286196));
#826=CARTESIAN_POINT('Origin',(24.3912373062436,16.1067365274807,17.5106435542087));
#827=CARTESIAN_POINT('',(24.3912373062437,16.9258885717697,16.9370671178576));
#828=CARTESIAN_POINT('Origin',(24.3912373062436,16.1067365274807,17.5106435542087));
#829=CARTESIAN_POINT('Origin',(24.3912373062436,16.1067365274807,17.5106435542087));
#830=CARTESIAN_POINT('Ctrl Pts',(25.3286417075374,5.98963704723315,24.5947128750956));
#831=CARTESIAN_POINT('Ctrl Pts',(25.3286373425156,6.16983189471636,24.852054954358));
#832=CARTESIAN_POINT('Ctrl Pts',(25.2134722372502,6.38553738973818,25.0849241455054));
#833=CARTESIAN_POINT('Ctrl Pts',(24.9808640923192,6.59935868173963,25.2384249721609));
#834=CARTESIAN_POINT('Ctrl Pts',(24.6863582876835,6.76023657452772,25.2759023905226));
#835=CARTESIAN_POINT('Ctrl Pts',(24.3921531481091,6.85048907707384,25.2127125933257));
#836=CARTESIAN_POINT('Ctrl Pts',(25.8243803005569,7.07402953389774,23.8354130815551));
#837=CARTESIAN_POINT('Ctrl Pts',(25.8243757881711,7.25422442959834,24.0927558711459));
#838=CARTESIAN_POINT('Ctrl Pts',(25.7060898905798,7.46320817490141,24.3303298346125));
#839=CARTESIAN_POINT('Ctrl Pts',(25.4667576794646,7.66218484957623,24.4942271959123));
#840=CARTESIAN_POINT('Ctrl Pts',(25.164055778701,7.80522400107419,24.5441934741431));
#841=CARTESIAN_POINT('Ctrl Pts',(24.8614865723061,7.87712422073156,24.4938540849879));
#842=CARTESIAN_POINT('Ctrl Pts',(26.5011226061904,9.13087533861807,22.3951941441549));
#843=CARTESIAN_POINT('Ctrl Pts',(26.5011179436568,9.31107180179558,22.6525405701979));
#844=CARTESIAN_POINT('Ctrl Pts',(26.3780379699045,9.50619108287599,22.8998342350966));
#845=CARTESIAN_POINT('Ctrl Pts',(26.1302857558109,9.67887590579972,23.0821406821841));
#846=CARTESIAN_POINT('Ctrl Pts',(25.815971028897,9.78733231235337,23.1563299108302));
#847=CARTESIAN_POINT('Ctrl Pts',(25.5023301921956,9.8254033541143,23.1296778873437));
#848=CARTESIAN_POINT('Ctrl Pts',(26.7615057095043,11.2874860196265,20.8851190883292));
#849=CARTESIAN_POINT('Ctrl Pts',(26.7615009993298,11.4676770351812,21.1424581081815));
#850=CARTESIAN_POINT('Ctrl Pts',(26.6367782709884,11.6471098098986,21.4007166170813));
#851=CARTESIAN_POINT('Ctrl Pts',(26.3839902932324,11.7901292523409,21.6037910375583));
#852=CARTESIAN_POINT('Ctrl Pts',(26.0645948320747,11.8595135153829,21.7053278363838));
#853=CARTESIAN_POINT('Ctrl Pts',(25.7451584776507,11.8593965757767,21.7054154644934));
#854=CARTESIAN_POINT('Ctrl Pts',(26.4632139746067,13.4508978816199,19.3702817943091));
#855=CARTESIAN_POINT('Ctrl Pts',(26.463209309634,13.6310919235689,19.6276271057972));
#856=CARTESIAN_POINT('Ctrl Pts',(26.3405115084155,13.796126136992,19.8959804566708));
#857=CARTESIAN_POINT('Ctrl Pts',(26.0932384369222,13.9034637187381,20.1240433946851));
#858=CARTESIAN_POINT('Ctrl Pts',(25.7797510705916,13.9326409453103,20.2537405931619));
#859=CARTESIAN_POINT('Ctrl Pts',(25.4668140520419,13.889592839916,20.2838888572784));
#860=CARTESIAN_POINT('Ctrl Pts',(25.7408186174548,15.4917872368649,17.9412356831146));
#861=CARTESIAN_POINT('Ctrl Pts',(25.740814180198,15.6719795684937,18.1985794374181));
#862=CARTESIAN_POINT('Ctrl Pts',(25.6230642950445,15.8219547420568,18.4774736193153));
#863=CARTESIAN_POINT('Ctrl Pts',(25.3850570029295,15.9058013139468,18.7219835387142));
#864=CARTESIAN_POINT('Ctrl Pts',(25.083849842443,15.9000173142549,18.8761590335538));
#865=CARTESIAN_POINT('Ctrl Pts',(24.782875375692,15.8249457586928,18.9287304241142));
#866=CARTESIAN_POINT('Ctrl Pts',(25.3275488478861,16.394398369571,17.3092205639218));
#867=CARTESIAN_POINT('Ctrl Pts',(25.3275444898845,16.5745905255201,17.566564497924));
#868=CARTESIAN_POINT('Ctrl Pts',(25.2124011553297,16.719592786218,17.8489405967862));
#869=CARTESIAN_POINT('Ctrl Pts',(24.9798369748504,16.7906091337071,18.1024344992831));
#870=CARTESIAN_POINT('Ctrl Pts',(24.6853868293539,16.7706813055746,18.2665134369676));
#871=CARTESIAN_POINT('Ctrl Pts',(24.3912372887565,16.68031267892,18.3297959190233));
#872=CARTESIAN_POINT('Ctrl Pts',(25.328641645831,5.9896365432383,24.5947132279966));
#873=CARTESIAN_POINT('Ctrl Pts',(26.1810267336274,7.85416391602165,23.2891571063753));
#874=CARTESIAN_POINT('Ctrl Pts',(26.59152707091,9.85452061305462,21.8884922680046));
#875=CARTESIAN_POINT('Ctrl Pts',(26.4820781978177,11.8427813843965,20.4962970879843));
#876=CARTESIAN_POINT('Ctrl Pts',(26.3964720115887,13.3979131738307,19.4073820861129));
#877=CARTESIAN_POINT('Ctrl Pts',(25.9951460695331,14.9363189764843,18.3301787462693));
#878=CARTESIAN_POINT('Ctrl Pts',(25.3275487919035,16.3943986557974,17.3092203635039));
#879=CARTESIAN_POINT('Ctrl Pts',(24.3921531481091,6.85048907707384,25.2127125933257));
#880=CARTESIAN_POINT('Ctrl Pts',(24.8614865723061,7.87712422073156,24.4938540849879));
#881=CARTESIAN_POINT('Ctrl Pts',(25.5023301921956,9.8254033541143,23.1296778873437));
#882=CARTESIAN_POINT('Ctrl Pts',(25.7451584776507,11.8593965757767,21.7054154644934));
#883=CARTESIAN_POINT('Ctrl Pts',(25.4668140520419,13.889592839916,20.2838888572784));
#884=CARTESIAN_POINT('Ctrl Pts',(24.782875375692,15.8249457586928,18.9287304241142));
#885=CARTESIAN_POINT('Ctrl Pts',(24.3912372887565,16.68031267892,18.3297959190233));
#886=CARTESIAN_POINT('Origin',(-0.028115805356947,6.27691199601275,24.3935607904213));
#887=CARTESIAN_POINT('',(-3.50643508416891,6.85048843236379,25.2127128347103));
#888=CARTESIAN_POINT('',(-24.3946659328782,6.85048843236378,25.2127128347103));
#889=CARTESIAN_POINT('',(-24.3946659328782,5.45775995172374,24.9671372267723));
#890=CARTESIAN_POINT('',(3.50643508418021,6.85048843236379,25.2127128347103));
#891=CARTESIAN_POINT('',(3.50643508418021,6.85048843236379,25.2127128347103));
#892=CARTESIAN_POINT('Ctrl Pts',(-3.50643508416891,6.85048843233692,25.2127128346952));
#893=CARTESIAN_POINT('Ctrl Pts',(-3.32300731416543,6.81525839889722,25.2373811680611));
#894=CARTESIAN_POINT('Ctrl Pts',(-2.64406433790129,6.68714204288698,25.3162050302452));
#895=CARTESIAN_POINT('Ctrl Pts',(-1.51771857703555,6.50042407790696,25.3835701035148));
#896=CARTESIAN_POINT('Ctrl Pts',(-0.0690667685701921,6.34973334302195,25.3819235560296));
#897=CARTESIAN_POINT('Ctrl Pts',(1.39222903299133,6.48161712121159,25.3868902464646));
#898=CARTESIAN_POINT('Ctrl Pts',(2.58090636153637,6.67620688630486,25.3206638897813));
#899=CARTESIAN_POINT('Ctrl Pts',(3.2618648075422,6.80351507179862,25.2456039358731));
#900=CARTESIAN_POINT('Ctrl Pts',(3.50643508418021,6.85048843236379,25.2127128347103));
#901=CARTESIAN_POINT('Origin',(-0.0594945056452243,11.7654006980977,21.771254216604));
#902=CARTESIAN_POINT('',(-3.44408879427429,16.6803129638317,18.3297955984977));
#903=CARTESIAN_POINT('Origin',(1.97064586870965E-14,11.7506102465846,21.781610602247));
#904=CARTESIAN_POINT('',(-0.0281158053569598,16.6803129638317,18.3297955984977));
#905=CARTESIAN_POINT('',(-17.2500000000001,11.7506102468584,21.7816106020553));
#906=CARTESIAN_POINT('Origin',(-20.0000000000001,11.7506102468584,21.7816106020553));
#907=CARTESIAN_POINT('Origin',(-0.0281158053569612,16.1067365274806,17.5106435542087));
#908=CARTESIAN_POINT('',(3.44408754470135,16.6803130898603,18.3297953583641));
#909=CARTESIAN_POINT('',(24.3912373062437,16.6803129638317,18.3297955984977));
#910=CARTESIAN_POINT('',(24.3912373062437,16.9258885717696,16.9370671178577));
#911=CARTESIAN_POINT('Ctrl Pts',(3.44408739395998,16.6803128994781,18.3297953397838));
#912=CARTESIAN_POINT('Ctrl Pts',(3.26363849102346,16.7141497260442,18.3061020301202));
#913=CARTESIAN_POINT('Ctrl Pts',(2.59555045658543,16.8275144912434,18.2167652548501));
#914=CARTESIAN_POINT('Ctrl Pts',(1.48937343813719,16.9502402913625,18.0720197775334));
#915=CARTESIAN_POINT('Ctrl Pts',(0.0657689360723054,16.9996961766815,17.9423476051225));
#916=CARTESIAN_POINT('Ctrl Pts',(-1.36428591437268,16.9595264177758,18.0566351371813));
#917=CARTESIAN_POINT('Ctrl Pts',(-2.53407112050767,16.835148484875,18.2084437219357));
#918=CARTESIAN_POINT('Ctrl Pts',(-3.20353527360325,16.7254210454137,18.2982105797398));
#919=CARTESIAN_POINT('Ctrl Pts',(-3.44408879427425,16.6803129638317,18.3297955984977));
#920=CARTESIAN_POINT('Origin',(-0.0594945056452243,11.7654006980977,21.771254216604));
#921=CARTESIAN_POINT('Origin',(3.02327607393238E-14,11.7506102465846,21.781610602247));
#922=CARTESIAN_POINT('',(22.3499999999999,11.7506102468585,21.7816106020552));
#923=CARTESIAN_POINT('Origin',(19.9999999999999,11.7506102468585,21.7816106020552));
#924=CARTESIAN_POINT('Origin',(19.9999999999999,8.88272806510325,17.6858503806103));
#925=CARTESIAN_POINT('',(22.3499999999999,8.88272806510325,17.6858503806103));
#926=CARTESIAN_POINT('Origin',(19.9999999999999,8.88272806510325,17.6858503806103));
#927=CARTESIAN_POINT('',(22.3499999999999,8.88272806510325,17.6858503806103));
#928=CARTESIAN_POINT('Origin',(-20.0000000000001,8.88272806510316,17.6858503806103));
#929=CARTESIAN_POINT('',(-17.2500000000001,8.88272806510316,17.6858503806103));
#930=CARTESIAN_POINT('Origin',(-20.0000000000001,8.88272806510316,17.6858503806103));
#931=CARTESIAN_POINT('',(-17.2500000000001,8.88272806510316,17.6858503806103));
#932=CARTESIAN_POINT('Origin',(24.3921532523681,5.4165473414862,23.1648327239878));
#933=CARTESIAN_POINT('',(24.3921532523681,3.1634542063196,21.6905290496164));
#934=CARTESIAN_POINT('',(24.3921532523681,5.45775995172378,24.9671372267723));
#935=CARTESIAN_POINT('',(25.328641645831,3.69533079783412,21.3181050508406));
#936=CARTESIAN_POINT('Origin',(24.3921532523681,3.98260625060859,21.1169526132653));
#937=CARTESIAN_POINT('',(25.328641645831,5.9896365432383,24.5947132279966));
#938=CARTESIAN_POINT('Origin',(-25.0728624024803,3.16345420631953,21.6905290496164));
#939=CARTESIAN_POINT('',(-24.3946659328782,3.16345420631953,21.6905290496164));
#940=CARTESIAN_POINT('',(-24.3946659328782,4.59739529719715,23.7384091603388));
#941=CARTESIAN_POINT('',(-25.0728624024803,3.16345420631953,21.6905290496164));
#942=CARTESIAN_POINT('Origin',(-24.3946659328782,5.41654734148614,23.1648327239878));
#943=CARTESIAN_POINT('',(-25.3305356199567,3.6939810427593,21.3190501595187));
#944=CARTESIAN_POINT('',(-25.3305356199567,5.98828678816349,24.5956583366747));
#945=CARTESIAN_POINT('Origin',(-24.3946659328782,3.98260625060852,21.1169526132653));
#946=CARTESIAN_POINT('Ctrl Pts',(-25.3314706250863,14.1006933541144,14.032191751128));
#947=CARTESIAN_POINT('Ctrl Pts',(-25.3314706250863,16.8538602485996,17.9641215637153));
#948=CARTESIAN_POINT('Ctrl Pts',(-25.9380220292557,12.7790902293865,14.957588221584));
#949=CARTESIAN_POINT('Ctrl Pts',(-25.9380220292557,15.5322571238716,18.8895180341714));
#950=CARTESIAN_POINT('Ctrl Pts',(-26.3535900523851,11.3981159168484,15.9245568452971));
#951=CARTESIAN_POINT('Ctrl Pts',(-26.3535900523851,14.1512828113336,19.8564866578845));
#952=CARTESIAN_POINT('Ctrl Pts',(-26.569975083849,9.98398364805939,16.9147429199288));
#953=CARTESIAN_POINT('Ctrl Pts',(-26.569975083849,12.7371505425445,20.8466727325162));
#954=CARTESIAN_POINT('Ctrl Pts',(-26.5789775130222,8.56290665457848,17.9097917431406));
#955=CARTESIAN_POINT('Ctrl Pts',(-26.5789775130222,11.3160735490636,21.8417215557279));
#956=CARTESIAN_POINT('Ctrl Pts',(-26.2676675999012,6.4504207652394,19.3889702872174));
#957=CARTESIAN_POINT('Ctrl Pts',(-26.2676675999012,9.20358765972455,23.3209000998048));
#958=CARTESIAN_POINT('Ctrl Pts',(-26.1091032200799,5.7453395251799,19.8826734865574));
#959=CARTESIAN_POINT('Ctrl Pts',(-26.1091032200799,8.49850641966505,23.8146032991447));
#960=CARTESIAN_POINT('Ctrl Pts',(-25.8987176940152,5.04888527396254,20.3703360032779));
#961=CARTESIAN_POINT('Ctrl Pts',(-25.8987176940152,7.80205216844769,24.3022658158653));
#962=CARTESIAN_POINT('Ctrl Pts',(-25.6385241259074,4.36408883776357,20.8498356300436));
#963=CARTESIAN_POINT('Ctrl Pts',(-25.6385241259074,7.11725573224872,24.7817654426309));
#964=CARTESIAN_POINT('Ctrl Pts',(-25.3305356199567,3.69398104275921,21.3190501595188));
#965=CARTESIAN_POINT('Ctrl Pts',(-25.3305356199567,6.44714793724436,25.2509799721061));
#966=CARTESIAN_POINT('',(-25.3314706250865,14.1006933541141,14.0321917511283));
#967=CARTESIAN_POINT('',(-25.3314706250865,16.3949990995184,17.3087999282844));
#968=CARTESIAN_POINT('Ctrl Pts',(-25.3314706250865,14.100693354114,14.0321917511283));
#969=CARTESIAN_POINT('Ctrl Pts',(-26.3423896320354,11.8980214795676,15.5745192018882));
#970=CARTESIAN_POINT('Ctrl Pts',(-26.7166973688508,9.49744564565411,17.2554204968385));
#971=CARTESIAN_POINT('Ctrl Pts',(-26.3723977292791,7.16109816796483,18.8913486125938));
#972=CARTESIAN_POINT('Ctrl Pts',(-26.1978475136493,5.97663583008911,19.7207180702999));
#973=CARTESIAN_POINT('Ctrl Pts',(-25.8438497965412,4.81082736776648,20.5370259437269));
#974=CARTESIAN_POINT('Ctrl Pts',(-25.3305356199567,3.69398104275921,21.3190501595188));
#975=CARTESIAN_POINT('Origin',(-24.3954343863457,15.246371872954,16.2819154877752));
#976=CARTESIAN_POINT('',(-24.3954343863457,14.6315828263654,13.6604589407017));
#977=CARTESIAN_POINT('',(-24.3954343863458,16.9258885717696,16.9370671178576));
#978=CARTESIAN_POINT('Origin',(-24.3954343863457,13.8124307820764,14.2340353770527));
#979=CARTESIAN_POINT('Origin',(25.0706268834599,14.6315828263655,13.6604589407017));
#980=CARTESIAN_POINT('',(24.3912373062437,14.6315828263655,13.6604589407017));
#981=CARTESIAN_POINT('',(24.3912373062437,16.0655239172431,15.7083390514242));
#982=CARTESIAN_POINT('',(25.0706268834599,14.6315828263655,13.6604589407017));
#983=CARTESIAN_POINT('Origin',(24.3912373062437,15.2463718729541,16.2819154877752));
#984=CARTESIAN_POINT('',(25.3275487919036,14.1000929103932,14.032612186348));
#985=CARTESIAN_POINT('',(25.3275487919035,16.3943986557973,17.3092203635039));
#986=CARTESIAN_POINT('Origin',(24.3912373062437,13.8124307820765,14.2340353770527));
#987=CARTESIAN_POINT('Ctrl Pts',(25.3286416458308,3.69533079783351,21.318105050841));
#988=CARTESIAN_POINT('Ctrl Pts',(25.3286416458308,6.44849769231855,25.2500348634282));
#989=CARTESIAN_POINT('Ctrl Pts',(25.8400726985087,4.81404722150363,20.5347713778682));
#990=CARTESIAN_POINT('Ctrl Pts',(25.8400726985087,7.56721411598867,24.4667011904554));
#991=CARTESIAN_POINT('Ctrl Pts',(26.2189383260325,5.97351244244865,19.7229050898705));
#992=CARTESIAN_POINT('Ctrl Pts',(26.2189383260325,8.72667933693369,23.6548349024577));
#993=CARTESIAN_POINT('Ctrl Pts',(26.457432082416,7.15893393567449,18.892864024358));
#994=CARTESIAN_POINT('Ctrl Pts',(26.457432082416,9.91210083015952,22.8247938369451));
#995=CARTESIAN_POINT('Ctrl Pts',(26.5477475216731,8.35551917618709,18.0550060188406));
#996=CARTESIAN_POINT('Ctrl Pts',(26.5477475216731,11.1086860706721,21.9869358314277));
#997=CARTESIAN_POINT('Ctrl Pts',(26.4307144860803,10.4815547126529,16.5663399097055));
#998=CARTESIAN_POINT('Ctrl Pts',(26.4307144860803,13.2347216071379,20.4982697222927));
#999=CARTESIAN_POINT('Ctrl Pts',(26.2846348475949,11.4096159902792,15.916504407191));
#1000=CARTESIAN_POINT('Ctrl Pts',(26.2846348475949,14.1627828847642,19.8484342197782));
#1001=CARTESIAN_POINT('Ctrl Pts',(26.0487841243868,12.3262994582154,15.2746357327899));
#1002=CARTESIAN_POINT('Ctrl Pts',(26.0487841243868,15.0794663527004,19.206565545377));
#1003=CARTESIAN_POINT('Ctrl Pts',(25.7281071584813,13.2252451028054,14.6451872160072));
#1004=CARTESIAN_POINT('Ctrl Pts',(25.7281071584813,15.9784119972904,18.5771170285943));
#1005=CARTESIAN_POINT('Ctrl Pts',(25.3275487919035,14.1000929103932,14.0326121863479));
#1006=CARTESIAN_POINT('Ctrl Pts',(25.3275487919035,16.8532598048782,17.9645419989351));
#1007=CARTESIAN_POINT('Ctrl Pts',(25.3286416458311,3.69533079783417,21.3181050508406));
#1008=CARTESIAN_POINT('Ctrl Pts',(26.1810267336274,5.55985817061751,20.0125489292193));
#1009=CARTESIAN_POINT('Ctrl Pts',(26.59152707091,7.56021486765047,18.6118840908486));
#1010=CARTESIAN_POINT('Ctrl Pts',(26.4820781978177,9.54847563899237,17.2196889108283));
#1011=CARTESIAN_POINT('Ctrl Pts',(26.3964720115887,11.1036074284264,16.130773908957));
#1012=CARTESIAN_POINT('Ctrl Pts',(25.9951460695332,12.64201323108,15.0535705691135));
#1013=CARTESIAN_POINT('Ctrl Pts',(25.3275487919037,14.1000929103929,14.0326121863482));
#1014=CARTESIAN_POINT('Ctrl Pts',(-3.50643508416891,6.85048843233692,25.2127128346952));
#1015=CARTESIAN_POINT('Ctrl Pts',(-3.33747855394731,7.08661171000201,25.0474038580273));
#1016=CARTESIAN_POINT('Ctrl Pts',(-3.16848711416958,7.37606413673849,24.958152967696));
#1017=CARTESIAN_POINT('Ctrl Pts',(-3.01707157787885,7.69458582763583,24.9626933567322));
#1018=CARTESIAN_POINT('Ctrl Pts',(-2.90032969548439,8.00620950678352,25.0605123271632));
#1019=CARTESIAN_POINT('Ctrl Pts',(-2.82575607326326,8.28238264097146,25.2331238677636));
#1020=CARTESIAN_POINT('Ctrl Pts',(-3.32300731416543,6.81525839889722,25.2373811680611));
#1021=CARTESIAN_POINT('Ctrl Pts',(-3.16542066056452,7.05344571379643,25.0857744744387));
#1022=CARTESIAN_POINT('Ctrl Pts',(-3.00784594049948,7.33789740683423,25.0074326780164));
#1023=CARTESIAN_POINT('Ctrl Pts',(-2.8654208162658,7.64640494310469,25.0176044295572));
#1024=CARTESIAN_POINT('Ctrl Pts',(-2.75310761688997,7.94584765606955,25.1148546048626));
#1025=CARTESIAN_POINT('Ctrl Pts',(-2.67793567290235,8.21140507467524,25.2828227196372));
#1026=CARTESIAN_POINT('Ctrl Pts',(-2.64406433790129,6.68714204288698,25.3162050302452));
#1027=CARTESIAN_POINT('Ctrl Pts',(-2.52677978605105,6.92691466694819,25.2130987210589));
#1028=CARTESIAN_POINT('Ctrl Pts',(-2.40946736378722,7.19131891410732,25.1717339673016));
#1029=CARTESIAN_POINT('Ctrl Pts',(-2.29984131065416,7.46203680883862,25.1984313592152));
#1030=CARTESIAN_POINT('Ctrl Pts',(-2.20545504213462,7.72028795511279,25.2911901221939));
#1031=CARTESIAN_POINT('Ctrl Pts',(-2.13162668660045,7.94930105303868,25.4391419438845));
#1032=CARTESIAN_POINT('Ctrl Pts',(-1.51771857703555,6.50042407790696,25.3835701035148));
#1033=CARTESIAN_POINT('Ctrl Pts',(-1.45733372197709,6.71659297376063,25.342875872268));
#1034=CARTESIAN_POINT('Ctrl Pts',(-1.39694303665146,6.93729288907808,25.3404993850516));
#1035=CARTESIAN_POINT('Ctrl Pts',(-1.33798757490229,7.15569789316613,25.3776447092706));
#1036=CARTESIAN_POINT('Ctrl Pts',(-1.28183465801295,7.36162379602244,25.4521270584781));
#1037=CARTESIAN_POINT('Ctrl Pts',(-1.22982149814943,7.54916086142577,25.560876547073));
#1038=CARTESIAN_POINT('Ctrl Pts',(-0.0690667685701921,6.34973334302195,
25.3819235560296));
#1039=CARTESIAN_POINT('Ctrl Pts',(-0.0664548658117899,6.52251591907562,
25.3645522892781));
#1040=CARTESIAN_POINT('Ctrl Pts',(-0.0639083381116004,6.70008523628052,
25.371213104721));
#1041=CARTESIAN_POINT('Ctrl Pts',(-0.0612554400434167,6.87548733749685,
25.4027227790546));
#1042=CARTESIAN_POINT('Ctrl Pts',(-0.0587423812023478,7.04489249729125,
25.4588561657039));
#1043=CARTESIAN_POINT('Ctrl Pts',(-0.056199549160452,7.20202262749327,25.5360517989221));
#1044=CARTESIAN_POINT('Ctrl Pts',(1.39222903299133,6.48161712121159,25.3868902464646));
#1045=CARTESIAN_POINT('Ctrl Pts',(1.33748719136457,6.69385164486615,25.3508017786222));
#1046=CARTESIAN_POINT('Ctrl Pts',(1.28284678913295,6.90969908082719,25.3509671646529));
#1047=CARTESIAN_POINT('Ctrl Pts',(1.22906086241727,7.12272824928224,25.3882735402072));
#1048=CARTESIAN_POINT('Ctrl Pts',(1.17749538781132,7.32380277259543,25.4607253895203));
#1049=CARTESIAN_POINT('Ctrl Pts',(1.12889987785418,7.50735391314905,25.5655253609822));
#1050=CARTESIAN_POINT('Ctrl Pts',(2.58090636153637,6.67620688630486,25.3206638897813));
#1051=CARTESIAN_POINT('Ctrl Pts',(2.466937343669,6.9148763294894,25.2214716064455));
#1052=CARTESIAN_POINT('Ctrl Pts',(2.35287904184319,7.17676794318906,25.1825994549355));
#1053=CARTESIAN_POINT('Ctrl Pts',(2.24621052817805,7.44447444141726,25.2100531137763));
#1054=CARTESIAN_POINT('Ctrl Pts',(2.15385634847889,7.69954877704261,25.3017426846986));
#1055=CARTESIAN_POINT('Ctrl Pts',(2.08106356387918,7.92609601572016,25.4473986101058));
#1056=CARTESIAN_POINT('Ctrl Pts',(3.2618648075422,6.80351507179862,25.2456039358731));
#1057=CARTESIAN_POINT('Ctrl Pts',(3.10806278916489,7.0423486518312,25.0985785464192));
#1058=CARTESIAN_POINT('Ctrl Pts',(2.9543191366207,7.32528269937667,25.0239213032217));
#1059=CARTESIAN_POINT('Ctrl Pts',(2.81485811098488,7.63024619722096,25.035894361532));
#1060=CARTESIAN_POINT('Ctrl Pts',(2.70404937078915,7.92578482027239,25.1330185116539));
#1061=CARTESIAN_POINT('Ctrl Pts',(2.62866188546072,8.18774629645833,25.2993882076883));
#1062=CARTESIAN_POINT('Ctrl Pts',(3.50643508418021,6.85048843236379,25.2127128347103));
#1063=CARTESIAN_POINT('Ctrl Pts',(3.3374785539769,7.08661171000862,25.0474038580634));
#1064=CARTESIAN_POINT('Ctrl Pts',(3.16848711421747,7.37606413671591,24.9581529677435));
#1065=CARTESIAN_POINT('Ctrl Pts',(3.01707157794178,7.69458582757902,24.9626933567778));
#1066=CARTESIAN_POINT('Ctrl Pts',(2.90032969555598,8.00620950669433,25.060512327194));
#1067=CARTESIAN_POINT('Ctrl Pts',(2.82575607333646,8.28238264085654,25.2331238677705));
#1068=CARTESIAN_POINT('Origin',(3.50643508418021,7.71085308689036,26.4414409011438));
#1069=CARTESIAN_POINT('Origin',(-3.50643508416891,7.71085308694172,26.4414409011898));
#1070=CARTESIAN_POINT('Origin',(-5.22692999993524E-13,12.6109749011107,
23.0103386686808));
#1071=CARTESIAN_POINT('Origin',(-3.44408879427447,17.5406776183572,19.5585236649319));
#1072=CARTESIAN_POINT('Ctrl Pts',(3.44408739395998,16.6803128994781,18.3297953397838));
#1073=CARTESIAN_POINT('Ctrl Pts',(3.27813508601403,16.4427890809665,18.4961376600292));
#1074=CARTESIAN_POINT('Ctrl Pts',(3.11214848925833,16.2584965324612,18.7386065571627));
#1075=CARTESIAN_POINT('Ctrl Pts',(2.96342527504452,16.152544929631,19.0403662820895));
#1076=CARTESIAN_POINT('Ctrl Pts',(2.8487591751453,16.1368982608026,19.3673423165365));
#1077=CARTESIAN_POINT('Ctrl Pts',(2.7755115342589,16.2040141298243,19.6863372124323));
#1078=CARTESIAN_POINT('Ctrl Pts',(3.26363849102346,16.7141497260442,18.3061020301202));
#1079=CARTESIAN_POINT('Ctrl Pts',(3.10877510902582,16.4883993406556,18.4788250957942));
#1080=CARTESIAN_POINT('Ctrl Pts',(2.95395527558405,16.3156585258417,18.7204049437441));
#1081=CARTESIAN_POINT('Ctrl Pts',(2.81400700053786,16.2180891700916,19.0149031734268));
#1082=CARTESIAN_POINT('Ctrl Pts',(2.70378133484456,16.2058833002773,19.3307255271451));
#1083=CARTESIAN_POINT('Ctrl Pts',(2.63009192201026,16.2721851743551,19.6386022881604));
#1084=CARTESIAN_POINT('Ctrl Pts',(2.59555045658543,16.8275144912434,18.2167652548501));
#1085=CARTESIAN_POINT('Ctrl Pts',(2.48009370944454,16.6451932210174,18.4071523904476));
#1086=CARTESIAN_POINT('Ctrl Pts',(2.36455980243275,16.512604248782,18.6428525472184));
#1087=CARTESIAN_POINT('Ctrl Pts',(2.25683699569416,16.4424741529211,18.9088562071959));
#1088=CARTESIAN_POINT('Ctrl Pts',(2.16434633848761,16.4396681509427,19.1859632479834));
#1089=CARTESIAN_POINT('Ctrl Pts',(2.09246532981869,16.499693618589,19.4544047827774));
#1090=CARTESIAN_POINT('Ctrl Pts',(1.48937343813719,16.9502402913625,18.0720197775334));
#1091=CARTESIAN_POINT('Ctrl Pts',(1.42962142948752,16.8317734450198,18.2625681349372));
#1092=CARTESIAN_POINT('Ctrl Pts',(1.36994684531169,16.7488860887487,18.4725191697895));
#1093=CARTESIAN_POINT('Ctrl Pts',(1.31172601763714,16.7056872793552,18.694953847927));
#1094=CARTESIAN_POINT('Ctrl Pts',(1.25676373806685,16.7038793200369,18.9191726180478));
#1095=CARTESIAN_POINT('Ctrl Pts',(1.2062822877419,16.7423982594472,19.1374300755346));
#1096=CARTESIAN_POINT('Ctrl Pts',(0.0657689360723054,16.9996961766815,17.9423476051225));
#1097=CARTESIAN_POINT('Ctrl Pts',(0.0632896545308897,16.9166092545263,18.1045484526764));
#1098=CARTESIAN_POINT('Ctrl Pts',(0.060769699206078,16.8564752390446,18.2807851897825));
#1099=CARTESIAN_POINT('Ctrl Pts',(0.0583250145180735,16.8227770177976,18.4646695706263));
#1100=CARTESIAN_POINT('Ctrl Pts',(0.0558590060744826,16.8167931310097,18.6513143966996));
#1101=CARTESIAN_POINT('Ctrl Pts',(0.0534751419033351,16.8372911624231,18.8333779706667));
#1102=CARTESIAN_POINT('Ctrl Pts',(-1.36428591437268,16.9595264177758,18.0566351371813));
#1103=CARTESIAN_POINT('Ctrl Pts',(-1.31020976094468,16.8465029138766,18.2453899512687));
#1104=CARTESIAN_POINT('Ctrl Pts',(-1.25614616660685,16.767533827026,18.4519733411881));
#1105=CARTESIAN_POINT('Ctrl Pts',(-1.20323612065353,16.7262957059695,18.6697507243565));
#1106=CARTESIAN_POINT('Ctrl Pts',(-1.15271272530947,16.724284107398,18.8890217681565));
#1107=CARTESIAN_POINT('Ctrl Pts',(-1.10564813412679,16.7605900767642,19.1024863560849));
#1108=CARTESIAN_POINT('Ctrl Pts',(-2.53407112050767,16.835148484875,18.2084437219357));
#1109=CARTESIAN_POINT('Ctrl Pts',(-2.42180699142847,16.6566960709969,18.3991575284909));
#1110=CARTESIAN_POINT('Ctrl Pts',(-2.30950795509851,16.5271864033774,18.6334583847862));
#1111=CARTESIAN_POINT('Ctrl Pts',(-2.20456275122974,16.4587358855508,18.8969975691011));
#1112=CARTESIAN_POINT('Ctrl Pts',(-2.114115542356,16.4560301244389,19.1709104649973));
#1113=CARTESIAN_POINT('Ctrl Pts',(-2.04322475082635,16.5148089215604,19.4363800968751));
#1114=CARTESIAN_POINT('Ctrl Pts',(-3.20353527360325,16.7254210454137,18.2982105797398));
#1115=CARTESIAN_POINT('Ctrl Pts',(-3.0523825830134,16.5036206706132,18.4730363834001));
#1116=CARTESIAN_POINT('Ctrl Pts',(-2.90124835049268,16.3347173267432,18.7144436943791));
#1117=CARTESIAN_POINT('Ctrl Pts',(-2.76426676467377,16.2399475082432,19.0063466090172));
#1118=CARTESIAN_POINT('Ctrl Pts',(-2.65549122283535,16.2288865418103,19.3185898382118));
#1119=CARTESIAN_POINT('Ctrl Pts',(-2.58165583127958,16.2948925888907,19.6227037536831));
#1120=CARTESIAN_POINT('Ctrl Pts',(-3.44408879427425,16.6803129638317,18.3297955984977));
#1121=CARTESIAN_POINT('Ctrl Pts',(-3.27813640148135,16.4427890740622,18.496137938926));
#1122=CARTESIAN_POINT('Ctrl Pts',(-3.11214971984288,16.2584964690561,18.738606891001));
#1123=CARTESIAN_POINT('Ctrl Pts',(-2.96342643273033,16.1525448366735,19.0403667007413));
#1124=CARTESIAN_POINT('Ctrl Pts',(-2.8487602834092,16.1368981709011,19.3673428336801));
#1125=CARTESIAN_POINT('Ctrl Pts',(-2.77551262005064,16.2040140707226,19.6863378256593));
#1126=CARTESIAN_POINT('Origin',(3.44408739395998,17.5406774700534,19.5585230666789));
#1127=CARTESIAN_POINT('Origin',(-2.42472708578134E-13,12.6109749011113,
23.0103386686804));
#1128=CARTESIAN_POINT('Origin',(-0.0594945056452204,8.8975185163425,17.675493995159));
#1129=CARTESIAN_POINT('',(-1.55,8.8827280651032,17.6858503806103));
#1130=CARTESIAN_POINT('Origin',(-1.66533453693774E-16,8.88272806510321,
17.6858503806103));
#1131=CARTESIAN_POINT('Origin',(-8.43769498715119E-15,15.2494265085998,
26.7784380722181));
#1132=CARTESIAN_POINT('',(-1.55000000000001,14.9626382904243,26.3688620500736));
#1133=CARTESIAN_POINT('',(0.774999999999295,13.8630582465544,27.1387962856548));
#1134=CARTESIAN_POINT('Origin',(-8.0648835252209E-15,14.9626382904243,26.3688620500736));
#1135=CARTESIAN_POINT('Origin',(-8.0648835252209E-15,14.9626382904243,26.3688620500736));
#1136=CARTESIAN_POINT('',(-1.55000000000001,15.2494265085998,26.7784380722181));
#1137=CARTESIAN_POINT('Origin',(-3.00000000000001,15.2494265085998,26.7784380722181));
#1138=CARTESIAN_POINT('',(1.0250000000007,13.7951432247714,27.7967381902491));
#1139=CARTESIAN_POINT('Origin',(-8.88178419700125E-15,15.2494265085998,
26.7784380722181));
#1140=CARTESIAN_POINT('Origin',(-6.72761846232106E-13,587.650031165124,
844.251220670417));
#1141=CARTESIAN_POINT('',(499.999999999999,-121.756448751098,1340.98298556257));
#1142=UNCERTAINTY_MEASURE_WITH_UNIT(LENGTH_MEASURE(0.01),#1146,
'DISTANCE_ACCURACY_VALUE',
'Maximum model space distance between geometric entities at asserted c
onnectivities');
#1143=UNCERTAINTY_MEASURE_WITH_UNIT(LENGTH_MEASURE(0.01),#1146,
'DISTANCE_ACCURACY_VALUE',
'Maximum model space distance between geometric entities at asserted c
onnectivities');
#1144=(
GEOMETRIC_REPRESENTATION_CONTEXT(3)
GLOBAL_UNCERTAINTY_ASSIGNED_CONTEXT((#1142))
GLOBAL_UNIT_ASSIGNED_CONTEXT((#1146,#1148,#1149))
REPRESENTATION_CONTEXT('','3D')
);
#1145=(
GEOMETRIC_REPRESENTATION_CONTEXT(3)
GLOBAL_UNCERTAINTY_ASSIGNED_CONTEXT((#1143))
GLOBAL_UNIT_ASSIGNED_CONTEXT((#1146,#1148,#1149))
REPRESENTATION_CONTEXT('','3D')
);
#1146=(
LENGTH_UNIT()
NAMED_UNIT(*)
SI_UNIT(.MILLI.,.METRE.)
);
#1147=(
LENGTH_UNIT()
NAMED_UNIT(*)
SI_UNIT(.CENTI.,.METRE.)
);
#1148=(
NAMED_UNIT(*)
PLANE_ANGLE_UNIT()
SI_UNIT($,.RADIAN.)
);
#1149=(
NAMED_UNIT(*)
SI_UNIT($,.STERADIAN.)
SOLID_ANGLE_UNIT()
);
#1150=SHAPE_DEFINITION_REPRESENTATION(#1151,#1152);
#1151=PRODUCT_DEFINITION_SHAPE('',$,#1154);
#1152=SHAPE_REPRESENTATION('',(#502),#1144);
#1153=PRODUCT_DEFINITION_CONTEXT('part definition',#1158,'design');
#1154=PRODUCT_DEFINITION('TeachSpitze_new','TeachSpitze_new',#1155,#1153);
#1155=PRODUCT_DEFINITION_FORMATION('',$,#1160);
#1156=PRODUCT_RELATED_PRODUCT_CATEGORY('TeachSpitze_new',
'TeachSpitze_new',(#1160));
#1157=APPLICATION_PROTOCOL_DEFINITION('international standard',
'automotive_design',2009,#1158);
#1158=APPLICATION_CONTEXT(
'Core Data for Automotive Mechanical Design Process');
#1159=PRODUCT_CONTEXT('part definition',#1158,'mechanical');
#1160=PRODUCT('TeachSpitze_new','TeachSpitze_new',$,(#1159));
#1161=PRESENTATION_STYLE_ASSIGNMENT((#1163));
#1162=PRESENTATION_STYLE_ASSIGNMENT((#1164));
#1163=SURFACE_STYLE_USAGE(.BOTH.,#1169);
#1164=SURFACE_STYLE_USAGE(.BOTH.,#1170);
#1165=SURFACE_STYLE_RENDERING_WITH_PROPERTIES($,#1177,(#1167));
#1166=SURFACE_STYLE_RENDERING_WITH_PROPERTIES($,#1178,(#1168));
#1167=SURFACE_STYLE_TRANSPARENT(0.);
#1168=SURFACE_STYLE_TRANSPARENT(0.);
#1169=SURFACE_SIDE_STYLE('',(#1171,#1165));
#1170=SURFACE_SIDE_STYLE('',(#1172,#1166));
#1171=SURFACE_STYLE_FILL_AREA(#1173);
#1172=SURFACE_STYLE_FILL_AREA(#1174);
#1173=FILL_AREA_STYLE('',(#1175));
#1174=FILL_AREA_STYLE('',(#1176));
#1175=FILL_AREA_STYLE_COLOUR('',#1177);
#1176=FILL_AREA_STYLE_COLOUR('',#1178);
#1177=COLOUR_RGB('',0.749019607843137,0.749019607843137,0.749019607843137);
#1178=COLOUR_RGB('',0.823529411764706,0.823529411764706,1.);
ENDSEC;
END-ISO-10303-21;
