ISO-10303-21;
HEADER;
/* Generated by software containing ST-Developer
 * from STEP Tools, Inc. (www.steptools.com) 
 */

FILE_DESCRIPTION(
/* description */ (''),
/* implementation_level */ '2;1');

FILE_NAME(
/* name */ 'Gutteil_V1.stp',
/* time_stamp */ '2025-02-27T19:19:50+01:00',
/* author */ ('peter'),
/* organization */ (''),
/* preprocessor_version */ 'ST-DEVELOPER v20',
/* originating_system */ 'Autodesk Inventor 2025',
/* authorisation */ '');

FILE_SCHEMA (('AUTOMOTIVE_DESIGN { 1 0 10303 214 3 1 1 }'));
ENDSEC;

DATA;
#10=MECHANICAL_DESIGN_GEOMETRIC_PRESENTATION_REPRESENTATION('',(#13),#1725);
#11=SHAPE_REPRESENTATION_RELATIONSHIP('SRR','None',#1732,#12);
#12=ADVANCED_BREP_SHAPE_REPRESENTATION('',(#14),#1724);
#13=STYLED_ITEM('',(#1741),#14);
#14=MANIFOLD_SOLID_BREP('Solid2',#1052);
#15=FACE_BOUND('',#126,.T.);
#16=FACE_BOUND('',#127,.T.);
#17=FACE_BOUND('',#128,.T.);
#18=FACE_BOUND('',#129,.T.);
#19=FACE_BOUND('',#130,.T.);
#20=FACE_BOUND('',#131,.T.);
#21=FACE_BOUND('',#174,.T.);
#22=FACE_BOUND('',#175,.T.);
#23=FACE_BOUND('',#176,.T.);
#24=FACE_BOUND('',#177,.T.);
#25=FACE_BOUND('',#178,.T.);
#26=FACE_BOUND('',#179,.T.);
#27=PLANE('',#1078);
#28=PLANE('',#1082);
#29=PLANE('',#1086);
#30=PLANE('',#1090);
#31=PLANE('',#1091);
#32=PLANE('',#1102);
#33=PLANE('',#1107);
#34=PLANE('',#1118);
#35=PLANE('',#1119);
#36=PLANE('',#1120);
#37=PLANE('',#1121);
#38=PLANE('',#1122);
#39=PLANE('',#1123);
#40=PLANE('',#1124);
#41=PLANE('',#1125);
#42=PLANE('',#1126);
#43=PLANE('',#1127);
#44=PLANE('',#1128);
#45=PLANE('',#1129);
#46=PLANE('',#1130);
#47=PLANE('',#1131);
#48=PLANE('',#1132);
#49=PLANE('',#1133);
#50=PLANE('',#1134);
#51=PLANE('',#1135);
#52=PLANE('',#1136);
#53=PLANE('',#1137);
#54=PLANE('',#1138);
#55=PLANE('',#1139);
#56=PLANE('',#1140);
#57=PLANE('',#1141);
#58=PLANE('',#1142);
#59=PLANE('',#1143);
#60=PLANE('',#1144);
#61=PLANE('',#1145);
#62=PLANE('',#1146);
#63=PLANE('',#1147);
#64=PLANE('',#1148);
#65=PLANE('',#1149);
#66=FACE_OUTER_BOUND('',#117,.T.);
#67=FACE_OUTER_BOUND('',#118,.T.);
#68=FACE_OUTER_BOUND('',#119,.T.);
#69=FACE_OUTER_BOUND('',#120,.T.);
#70=FACE_OUTER_BOUND('',#121,.T.);
#71=FACE_OUTER_BOUND('',#122,.T.);
#72=FACE_OUTER_BOUND('',#123,.T.);
#73=FACE_OUTER_BOUND('',#124,.T.);
#74=FACE_OUTER_BOUND('',#125,.T.);
#75=FACE_OUTER_BOUND('',#132,.T.);
#76=FACE_OUTER_BOUND('',#133,.T.);
#77=FACE_OUTER_BOUND('',#134,.T.);
#78=FACE_OUTER_BOUND('',#135,.T.);
#79=FACE_OUTER_BOUND('',#136,.T.);
#80=FACE_OUTER_BOUND('',#137,.T.);
#81=FACE_OUTER_BOUND('',#138,.T.);
#82=FACE_OUTER_BOUND('',#139,.T.);
#83=FACE_OUTER_BOUND('',#140,.T.);
#84=FACE_OUTER_BOUND('',#141,.T.);
#85=FACE_OUTER_BOUND('',#142,.T.);
#86=FACE_OUTER_BOUND('',#143,.T.);
#87=FACE_OUTER_BOUND('',#144,.T.);
#88=FACE_OUTER_BOUND('',#145,.T.);
#89=FACE_OUTER_BOUND('',#146,.T.);
#90=FACE_OUTER_BOUND('',#147,.T.);
#91=FACE_OUTER_BOUND('',#148,.T.);
#92=FACE_OUTER_BOUND('',#149,.T.);
#93=FACE_OUTER_BOUND('',#150,.T.);
#94=FACE_OUTER_BOUND('',#151,.T.);
#95=FACE_OUTER_BOUND('',#152,.T.);
#96=FACE_OUTER_BOUND('',#153,.T.);
#97=FACE_OUTER_BOUND('',#154,.T.);
#98=FACE_OUTER_BOUND('',#155,.T.);
#99=FACE_OUTER_BOUND('',#156,.T.);
#100=FACE_OUTER_BOUND('',#157,.T.);
#101=FACE_OUTER_BOUND('',#158,.T.);
#102=FACE_OUTER_BOUND('',#159,.T.);
#103=FACE_OUTER_BOUND('',#160,.T.);
#104=FACE_OUTER_BOUND('',#161,.T.);
#105=FACE_OUTER_BOUND('',#162,.T.);
#106=FACE_OUTER_BOUND('',#163,.T.);
#107=FACE_OUTER_BOUND('',#164,.T.);
#108=FACE_OUTER_BOUND('',#165,.T.);
#109=FACE_OUTER_BOUND('',#166,.T.);
#110=FACE_OUTER_BOUND('',#167,.T.);
#111=FACE_OUTER_BOUND('',#168,.T.);
#112=FACE_OUTER_BOUND('',#169,.T.);
#113=FACE_OUTER_BOUND('',#170,.T.);
#114=FACE_OUTER_BOUND('',#171,.T.);
#115=FACE_OUTER_BOUND('',#172,.T.);
#116=FACE_OUTER_BOUND('',#173,.T.);
#117=EDGE_LOOP('',(#695,#696,#697,#698));
#118=EDGE_LOOP('',(#699,#700,#701,#702));
#119=EDGE_LOOP('',(#703,#704,#705,#706));
#120=EDGE_LOOP('',(#707,#708,#709,#710));
#121=EDGE_LOOP('',(#711,#712,#713,#714));
#122=EDGE_LOOP('',(#715,#716,#717,#718));
#123=EDGE_LOOP('',(#719,#720,#721,#722));
#124=EDGE_LOOP('',(#723,#724,#725,#726));
#125=EDGE_LOOP('',(#727,#728,#729,#730,#731,#732,#733,#734,#735,#736,#737,
#738,#739,#740,#741,#742,#743,#744,#745,#746,#747,#748,#749,#750,#751,#752,
#753,#754,#755,#756,#757,#758,#759,#760,#761,#762,#763,#764));
#126=EDGE_LOOP('',(#765));
#127=EDGE_LOOP('',(#766));
#128=EDGE_LOOP('',(#767));
#129=EDGE_LOOP('',(#768,#769,#770,#771,#772,#773));
#130=EDGE_LOOP('',(#774));
#131=EDGE_LOOP('',(#775));
#132=EDGE_LOOP('',(#776,#777,#778,#779));
#133=EDGE_LOOP('',(#780,#781,#782,#783));
#134=EDGE_LOOP('',(#784,#785,#786,#787));
#135=EDGE_LOOP('',(#788,#789,#790,#791));
#136=EDGE_LOOP('',(#792,#793,#794,#795));
#137=EDGE_LOOP('',(#796,#797,#798,#799));
#138=EDGE_LOOP('',(#800,#801,#802,#803));
#139=EDGE_LOOP('',(#804,#805,#806,#807));
#140=EDGE_LOOP('',(#808,#809,#810,#811));
#141=EDGE_LOOP('',(#812,#813,#814,#815));
#142=EDGE_LOOP('',(#816,#817,#818,#819));
#143=EDGE_LOOP('',(#820,#821,#822,#823));
#144=EDGE_LOOP('',(#824,#825,#826,#827));
#145=EDGE_LOOP('',(#828,#829,#830,#831));
#146=EDGE_LOOP('',(#832,#833,#834,#835));
#147=EDGE_LOOP('',(#836,#837,#838,#839));
#148=EDGE_LOOP('',(#840,#841,#842,#843));
#149=EDGE_LOOP('',(#844,#845,#846,#847));
#150=EDGE_LOOP('',(#848,#849,#850,#851));
#151=EDGE_LOOP('',(#852,#853,#854,#855));
#152=EDGE_LOOP('',(#856,#857,#858,#859));
#153=EDGE_LOOP('',(#860,#861,#862,#863));
#154=EDGE_LOOP('',(#864,#865,#866,#867));
#155=EDGE_LOOP('',(#868,#869,#870,#871));
#156=EDGE_LOOP('',(#872,#873,#874,#875));
#157=EDGE_LOOP('',(#876,#877,#878,#879));
#158=EDGE_LOOP('',(#880,#881,#882,#883));
#159=EDGE_LOOP('',(#884,#885,#886,#887));
#160=EDGE_LOOP('',(#888,#889,#890,#891));
#161=EDGE_LOOP('',(#892,#893,#894,#895));
#162=EDGE_LOOP('',(#896,#897,#898,#899));
#163=EDGE_LOOP('',(#900,#901,#902,#903));
#164=EDGE_LOOP('',(#904,#905,#906,#907));
#165=EDGE_LOOP('',(#908,#909,#910,#911));
#166=EDGE_LOOP('',(#912,#913,#914,#915));
#167=EDGE_LOOP('',(#916,#917,#918,#919));
#168=EDGE_LOOP('',(#920,#921,#922,#923));
#169=EDGE_LOOP('',(#924,#925,#926,#927));
#170=EDGE_LOOP('',(#928,#929,#930,#931));
#171=EDGE_LOOP('',(#932,#933,#934,#935));
#172=EDGE_LOOP('',(#936,#937,#938,#939));
#173=EDGE_LOOP('',(#940,#941,#942,#943,#944,#945,#946,#947,#948,#949,#950,
#951,#952,#953,#954,#955,#956,#957,#958,#959,#960,#961,#962,#963,#964,#965,
#966,#967,#968,#969,#970,#971,#972,#973,#974,#975,#976,#977));
#174=EDGE_LOOP('',(#978));
#175=EDGE_LOOP('',(#979));
#176=EDGE_LOOP('',(#980));
#177=EDGE_LOOP('',(#981,#982,#983,#984,#985,#986));
#178=EDGE_LOOP('',(#987));
#179=EDGE_LOOP('',(#988));
#180=LINE('',#1431,#303);
#181=LINE('',#1434,#304);
#182=LINE('',#1437,#305);
#183=LINE('',#1439,#306);
#184=LINE('',#1440,#307);
#185=LINE('',#1446,#308);
#186=LINE('',#1449,#309);
#187=LINE('',#1451,#310);
#188=LINE('',#1452,#311);
#189=LINE('',#1457,#312);
#190=LINE('',#1460,#313);
#191=LINE('',#1461,#314);
#192=LINE('',#1467,#315);
#193=LINE('',#1470,#316);
#194=LINE('',#1473,#317);
#195=LINE('',#1475,#318);
#196=LINE('',#1476,#319);
#197=LINE('',#1479,#320);
#198=LINE('',#1483,#321);
#199=LINE('',#1487,#322);
#200=LINE('',#1491,#323);
#201=LINE('',#1493,#324);
#202=LINE('',#1495,#325);
#203=LINE('',#1497,#326);
#204=LINE('',#1499,#327);
#205=LINE('',#1501,#328);
#206=LINE('',#1503,#329);
#207=LINE('',#1505,#330);
#208=LINE('',#1507,#331);
#209=LINE('',#1509,#332);
#210=LINE('',#1511,#333);
#211=LINE('',#1513,#334);
#212=LINE('',#1515,#335);
#213=LINE('',#1517,#336);
#214=LINE('',#1519,#337);
#215=LINE('',#1521,#338);
#216=LINE('',#1523,#339);
#217=LINE('',#1525,#340);
#218=LINE('',#1527,#341);
#219=LINE('',#1529,#342);
#220=LINE('',#1531,#343);
#221=LINE('',#1533,#344);
#222=LINE('',#1535,#345);
#223=LINE('',#1537,#346);
#224=LINE('',#1539,#347);
#225=LINE('',#1541,#348);
#226=LINE('',#1543,#349);
#227=LINE('',#1545,#350);
#228=LINE('',#1547,#351);
#229=LINE('',#1548,#352);
#230=LINE('',#1563,#353);
#231=LINE('',#1564,#354);
#232=LINE('',#1567,#355);
#233=LINE('',#1568,#356);
#234=LINE('',#1572,#357);
#235=LINE('',#1577,#358);
#236=LINE('',#1578,#359);
#237=LINE('',#1581,#360);
#238=LINE('',#1582,#361);
#239=LINE('',#1586,#362);
#240=LINE('',#1590,#363);
#241=LINE('',#1594,#364);
#242=LINE('',#1598,#365);
#243=LINE('',#1602,#366);
#244=LINE('',#1605,#367);
#245=LINE('',#1607,#368);
#246=LINE('',#1608,#369);
#247=LINE('',#1611,#370);
#248=LINE('',#1612,#371);
#249=LINE('',#1615,#372);
#250=LINE('',#1616,#373);
#251=LINE('',#1619,#374);
#252=LINE('',#1620,#375);
#253=LINE('',#1623,#376);
#254=LINE('',#1624,#377);
#255=LINE('',#1627,#378);
#256=LINE('',#1628,#379);
#257=LINE('',#1631,#380);
#258=LINE('',#1632,#381);
#259=LINE('',#1635,#382);
#260=LINE('',#1636,#383);
#261=LINE('',#1639,#384);
#262=LINE('',#1640,#385);
#263=LINE('',#1643,#386);
#264=LINE('',#1644,#387);
#265=LINE('',#1647,#388);
#266=LINE('',#1648,#389);
#267=LINE('',#1651,#390);
#268=LINE('',#1652,#391);
#269=LINE('',#1655,#392);
#270=LINE('',#1656,#393);
#271=LINE('',#1659,#394);
#272=LINE('',#1660,#395);
#273=LINE('',#1662,#396);
#274=LINE('',#1664,#397);
#275=LINE('',#1666,#398);
#276=LINE('',#1669,#399);
#277=LINE('',#1670,#400);
#278=LINE('',#1673,#401);
#279=LINE('',#1674,#402);
#280=LINE('',#1677,#403);
#281=LINE('',#1678,#404);
#282=LINE('',#1681,#405);
#283=LINE('',#1682,#406);
#284=LINE('',#1685,#407);
#285=LINE('',#1686,#408);
#286=LINE('',#1689,#409);
#287=LINE('',#1690,#410);
#288=LINE('',#1693,#411);
#289=LINE('',#1694,#412);
#290=LINE('',#1697,#413);
#291=LINE('',#1698,#414);
#292=LINE('',#1701,#415);
#293=LINE('',#1702,#416);
#294=LINE('',#1705,#417);
#295=LINE('',#1706,#418);
#296=LINE('',#1709,#419);
#297=LINE('',#1710,#420);
#298=LINE('',#1713,#421);
#299=LINE('',#1714,#422);
#300=LINE('',#1717,#423);
#301=LINE('',#1718,#424);
#302=LINE('',#1720,#425);
#303=VECTOR('',#1156,10.);
#304=VECTOR('',#1159,10.);
#305=VECTOR('',#1162,10.);
#306=VECTOR('',#1163,10.);
#307=VECTOR('',#1164,10.);
#308=VECTOR('',#1169,10.);
#309=VECTOR('',#1172,10.);
#310=VECTOR('',#1175,10.);
#311=VECTOR('',#1176,10.);
#312=VECTOR('',#1181,10.);
#313=VECTOR('',#1186,10.);
#314=VECTOR('',#1187,10.);
#315=VECTOR('',#1192,10.);
#316=VECTOR('',#1195,10.);
#317=VECTOR('',#1198,10.);
#318=VECTOR('',#1199,10.);
#319=VECTOR('',#1200,10.);
#320=VECTOR('',#1203,10.);
#321=VECTOR('',#1206,10.);
#322=VECTOR('',#1209,10.);
#323=VECTOR('',#1212,10.);
#324=VECTOR('',#1213,10.);
#325=VECTOR('',#1214,10.);
#326=VECTOR('',#1215,10.);
#327=VECTOR('',#1216,10.);
#328=VECTOR('',#1217,10.);
#329=VECTOR('',#1218,10.);
#330=VECTOR('',#1219,10.);
#331=VECTOR('',#1220,10.);
#332=VECTOR('',#1221,10.);
#333=VECTOR('',#1222,10.);
#334=VECTOR('',#1223,10.);
#335=VECTOR('',#1224,10.);
#336=VECTOR('',#1225,10.);
#337=VECTOR('',#1226,10.);
#338=VECTOR('',#1227,10.);
#339=VECTOR('',#1228,10.);
#340=VECTOR('',#1229,10.);
#341=VECTOR('',#1230,10.);
#342=VECTOR('',#1231,10.);
#343=VECTOR('',#1232,10.);
#344=VECTOR('',#1233,10.);
#345=VECTOR('',#1234,10.);
#346=VECTOR('',#1235,10.);
#347=VECTOR('',#1236,10.);
#348=VECTOR('',#1237,10.);
#349=VECTOR('',#1238,10.);
#350=VECTOR('',#1239,10.);
#351=VECTOR('',#1240,10.);
#352=VECTOR('',#1241,10.);
#353=VECTOR('',#1256,10.);
#354=VECTOR('',#1257,10.);
#355=VECTOR('',#1260,10.);
#356=VECTOR('',#1261,10.);
#357=VECTOR('',#1266,10.);
#358=VECTOR('',#1271,10.);
#359=VECTOR('',#1272,10.);
#360=VECTOR('',#1275,10.);
#361=VECTOR('',#1276,10.);
#362=VECTOR('',#1281,4.3);
#363=VECTOR('',#1286,2.);
#364=VECTOR('',#1291,4.3);
#365=VECTOR('',#1296,2.);
#366=VECTOR('',#1301,4.3);
#367=VECTOR('',#1304,10.);
#368=VECTOR('',#1305,10.);
#369=VECTOR('',#1306,10.);
#370=VECTOR('',#1309,10.);
#371=VECTOR('',#1310,10.);
#372=VECTOR('',#1313,10.);
#373=VECTOR('',#1314,10.);
#374=VECTOR('',#1317,10.);
#375=VECTOR('',#1318,10.);
#376=VECTOR('',#1321,10.);
#377=VECTOR('',#1322,10.);
#378=VECTOR('',#1325,10.);
#379=VECTOR('',#1326,10.);
#380=VECTOR('',#1329,10.);
#381=VECTOR('',#1330,10.);
#382=VECTOR('',#1333,10.);
#383=VECTOR('',#1334,10.);
#384=VECTOR('',#1337,10.);
#385=VECTOR('',#1338,10.);
#386=VECTOR('',#1341,10.);
#387=VECTOR('',#1342,10.);
#388=VECTOR('',#1345,10.);
#389=VECTOR('',#1346,10.);
#390=VECTOR('',#1349,10.);
#391=VECTOR('',#1350,10.);
#392=VECTOR('',#1353,10.);
#393=VECTOR('',#1354,10.);
#394=VECTOR('',#1357,10.);
#395=VECTOR('',#1358,10.);
#396=VECTOR('',#1361,10.);
#397=VECTOR('',#1364,10.);
#398=VECTOR('',#1367,10.);
#399=VECTOR('',#1370,10.);
#400=VECTOR('',#1371,10.);
#401=VECTOR('',#1374,10.);
#402=VECTOR('',#1375,10.);
#403=VECTOR('',#1378,10.);
#404=VECTOR('',#1379,10.);
#405=VECTOR('',#1382,10.);
#406=VECTOR('',#1383,10.);
#407=VECTOR('',#1386,10.);
#408=VECTOR('',#1387,10.);
#409=VECTOR('',#1390,10.);
#410=VECTOR('',#1391,10.);
#411=VECTOR('',#1394,10.);
#412=VECTOR('',#1395,10.);
#413=VECTOR('',#1398,10.);
#414=VECTOR('',#1399,10.);
#415=VECTOR('',#1402,10.);
#416=VECTOR('',#1403,10.);
#417=VECTOR('',#1406,10.);
#418=VECTOR('',#1407,10.);
#419=VECTOR('',#1410,10.);
#420=VECTOR('',#1411,10.);
#421=VECTOR('',#1414,10.);
#422=VECTOR('',#1415,10.);
#423=VECTOR('',#1418,10.);
#424=VECTOR('',#1419,10.);
#425=VECTOR('',#1422,10.);
#426=CIRCLE('',#1076,6.);
#427=CIRCLE('',#1077,6.);
#428=CIRCLE('',#1080,2.);
#429=CIRCLE('',#1081,2.);
#430=CIRCLE('',#1084,2.);
#431=CIRCLE('',#1085,2.);
#432=CIRCLE('',#1088,2.);
#433=CIRCLE('',#1089,2.);
#434=CIRCLE('',#1092,2.);
#435=CIRCLE('',#1093,2.);
#436=CIRCLE('',#1094,2.);
#437=CIRCLE('',#1095,4.3);
#438=CIRCLE('',#1096,2.);
#439=CIRCLE('',#1097,4.3);
#440=CIRCLE('',#1098,2.);
#441=CIRCLE('',#1099,4.3);
#442=CIRCLE('',#1101,2.);
#443=CIRCLE('',#1104,2.);
#444=CIRCLE('',#1106,2.);
#445=CIRCLE('',#1109,4.3);
#446=CIRCLE('',#1111,2.);
#447=CIRCLE('',#1113,4.3);
#448=CIRCLE('',#1115,2.);
#449=CIRCLE('',#1117,4.3);
#450=VERTEX_POINT('',#1427);
#451=VERTEX_POINT('',#1428);
#452=VERTEX_POINT('',#1430);
#453=VERTEX_POINT('',#1432);
#454=VERTEX_POINT('',#1436);
#455=VERTEX_POINT('',#1438);
#456=VERTEX_POINT('',#1442);
#457=VERTEX_POINT('',#1443);
#458=VERTEX_POINT('',#1445);
#459=VERTEX_POINT('',#1447);
#460=VERTEX_POINT('',#1454);
#461=VERTEX_POINT('',#1456);
#462=VERTEX_POINT('',#1463);
#463=VERTEX_POINT('',#1464);
#464=VERTEX_POINT('',#1466);
#465=VERTEX_POINT('',#1468);
#466=VERTEX_POINT('',#1472);
#467=VERTEX_POINT('',#1474);
#468=VERTEX_POINT('',#1478);
#469=VERTEX_POINT('',#1480);
#470=VERTEX_POINT('',#1482);
#471=VERTEX_POINT('',#1484);
#472=VERTEX_POINT('',#1486);
#473=VERTEX_POINT('',#1488);
#474=VERTEX_POINT('',#1490);
#475=VERTEX_POINT('',#1492);
#476=VERTEX_POINT('',#1494);
#477=VERTEX_POINT('',#1496);
#478=VERTEX_POINT('',#1498);
#479=VERTEX_POINT('',#1500);
#480=VERTEX_POINT('',#1502);
#481=VERTEX_POINT('',#1504);
#482=VERTEX_POINT('',#1506);
#483=VERTEX_POINT('',#1508);
#484=VERTEX_POINT('',#1510);
#485=VERTEX_POINT('',#1512);
#486=VERTEX_POINT('',#1514);
#487=VERTEX_POINT('',#1516);
#488=VERTEX_POINT('',#1518);
#489=VERTEX_POINT('',#1520);
#490=VERTEX_POINT('',#1522);
#491=VERTEX_POINT('',#1524);
#492=VERTEX_POINT('',#1526);
#493=VERTEX_POINT('',#1528);
#494=VERTEX_POINT('',#1530);
#495=VERTEX_POINT('',#1532);
#496=VERTEX_POINT('',#1534);
#497=VERTEX_POINT('',#1536);
#498=VERTEX_POINT('',#1538);
#499=VERTEX_POINT('',#1540);
#500=VERTEX_POINT('',#1542);
#501=VERTEX_POINT('',#1544);
#502=VERTEX_POINT('',#1546);
#503=VERTEX_POINT('',#1549);
#504=VERTEX_POINT('',#1551);
#505=VERTEX_POINT('',#1553);
#506=VERTEX_POINT('',#1555);
#507=VERTEX_POINT('',#1557);
#508=VERTEX_POINT('',#1560);
#509=VERTEX_POINT('',#1561);
#510=VERTEX_POINT('',#1566);
#511=VERTEX_POINT('',#1570);
#512=VERTEX_POINT('',#1574);
#513=VERTEX_POINT('',#1575);
#514=VERTEX_POINT('',#1580);
#515=VERTEX_POINT('',#1584);
#516=VERTEX_POINT('',#1588);
#517=VERTEX_POINT('',#1592);
#518=VERTEX_POINT('',#1596);
#519=VERTEX_POINT('',#1600);
#520=VERTEX_POINT('',#1604);
#521=VERTEX_POINT('',#1606);
#522=VERTEX_POINT('',#1610);
#523=VERTEX_POINT('',#1614);
#524=VERTEX_POINT('',#1618);
#525=VERTEX_POINT('',#1622);
#526=VERTEX_POINT('',#1626);
#527=VERTEX_POINT('',#1630);
#528=VERTEX_POINT('',#1634);
#529=VERTEX_POINT('',#1638);
#530=VERTEX_POINT('',#1642);
#531=VERTEX_POINT('',#1646);
#532=VERTEX_POINT('',#1650);
#533=VERTEX_POINT('',#1654);
#534=VERTEX_POINT('',#1658);
#535=VERTEX_POINT('',#1668);
#536=VERTEX_POINT('',#1672);
#537=VERTEX_POINT('',#1676);
#538=VERTEX_POINT('',#1680);
#539=VERTEX_POINT('',#1684);
#540=VERTEX_POINT('',#1688);
#541=VERTEX_POINT('',#1692);
#542=VERTEX_POINT('',#1696);
#543=VERTEX_POINT('',#1700);
#544=VERTEX_POINT('',#1704);
#545=VERTEX_POINT('',#1708);
#546=VERTEX_POINT('',#1712);
#547=VERTEX_POINT('',#1716);
#548=EDGE_CURVE('',#450,#451,#426,.T.);
#549=EDGE_CURVE('',#451,#452,#180,.T.);
#550=EDGE_CURVE('',#452,#453,#427,.T.);
#551=EDGE_CURVE('',#453,#450,#181,.T.);
#552=EDGE_CURVE('',#451,#454,#182,.T.);
#553=EDGE_CURVE('',#455,#454,#183,.T.);
#554=EDGE_CURVE('',#452,#455,#184,.T.);
#555=EDGE_CURVE('',#456,#457,#428,.T.);
#556=EDGE_CURVE('',#457,#458,#185,.T.);
#557=EDGE_CURVE('',#458,#459,#429,.T.);
#558=EDGE_CURVE('',#459,#456,#186,.T.);
#559=EDGE_CURVE('',#458,#453,#187,.T.);
#560=EDGE_CURVE('',#457,#450,#188,.T.);
#561=EDGE_CURVE('',#454,#460,#430,.T.);
#562=EDGE_CURVE('',#460,#461,#189,.T.);
#563=EDGE_CURVE('',#461,#455,#431,.T.);
#564=EDGE_CURVE('',#461,#459,#190,.T.);
#565=EDGE_CURVE('',#460,#456,#191,.T.);
#566=EDGE_CURVE('',#462,#463,#432,.T.);
#567=EDGE_CURVE('',#463,#464,#192,.T.);
#568=EDGE_CURVE('',#464,#465,#433,.T.);
#569=EDGE_CURVE('',#465,#462,#193,.T.);
#570=EDGE_CURVE('',#465,#466,#194,.T.);
#571=EDGE_CURVE('',#466,#467,#195,.T.);
#572=EDGE_CURVE('',#462,#467,#196,.T.);
#573=EDGE_CURVE('',#468,#464,#197,.T.);
#574=EDGE_CURVE('',#469,#468,#434,.T.);
#575=EDGE_CURVE('',#470,#469,#198,.T.);
#576=EDGE_CURVE('',#471,#470,#435,.T.);
#577=EDGE_CURVE('',#472,#471,#199,.T.);
#578=EDGE_CURVE('',#473,#472,#436,.T.);
#579=EDGE_CURVE('',#474,#473,#200,.T.);
#580=EDGE_CURVE('',#475,#474,#201,.T.);
#581=EDGE_CURVE('',#476,#475,#202,.T.);
#582=EDGE_CURVE('',#477,#476,#203,.T.);
#583=EDGE_CURVE('',#478,#477,#204,.T.);
#584=EDGE_CURVE('',#479,#478,#205,.T.);
#585=EDGE_CURVE('',#480,#479,#206,.T.);
#586=EDGE_CURVE('',#481,#480,#207,.T.);
#587=EDGE_CURVE('',#482,#481,#208,.T.);
#588=EDGE_CURVE('',#483,#482,#209,.T.);
#589=EDGE_CURVE('',#484,#483,#210,.T.);
#590=EDGE_CURVE('',#485,#484,#211,.T.);
#591=EDGE_CURVE('',#486,#485,#212,.T.);
#592=EDGE_CURVE('',#487,#486,#213,.T.);
#593=EDGE_CURVE('',#488,#487,#214,.T.);
#594=EDGE_CURVE('',#489,#488,#215,.T.);
#595=EDGE_CURVE('',#490,#489,#216,.T.);
#596=EDGE_CURVE('',#491,#490,#217,.T.);
#597=EDGE_CURVE('',#492,#491,#218,.T.);
#598=EDGE_CURVE('',#493,#492,#219,.T.);
#599=EDGE_CURVE('',#494,#493,#220,.T.);
#600=EDGE_CURVE('',#495,#494,#221,.T.);
#601=EDGE_CURVE('',#496,#495,#222,.T.);
#602=EDGE_CURVE('',#497,#496,#223,.T.);
#603=EDGE_CURVE('',#498,#497,#224,.T.);
#604=EDGE_CURVE('',#499,#498,#225,.T.);
#605=EDGE_CURVE('',#500,#499,#226,.T.);
#606=EDGE_CURVE('',#501,#500,#227,.T.);
#607=EDGE_CURVE('',#502,#501,#228,.T.);
#608=EDGE_CURVE('',#466,#502,#229,.T.);
#609=EDGE_CURVE('',#503,#503,#437,.T.);
#610=EDGE_CURVE('',#504,#504,#438,.T.);
#611=EDGE_CURVE('',#505,#505,#439,.T.);
#612=EDGE_CURVE('',#506,#506,#440,.T.);
#613=EDGE_CURVE('',#507,#507,#441,.T.);
#614=EDGE_CURVE('',#508,#509,#442,.T.);
#615=EDGE_CURVE('',#509,#469,#230,.T.);
#616=EDGE_CURVE('',#468,#508,#231,.T.);
#617=EDGE_CURVE('',#510,#509,#232,.T.);
#618=EDGE_CURVE('',#470,#510,#233,.T.);
#619=EDGE_CURVE('',#510,#511,#443,.T.);
#620=EDGE_CURVE('',#511,#471,#234,.T.);
#621=EDGE_CURVE('',#512,#513,#444,.T.);
#622=EDGE_CURVE('',#513,#473,#235,.T.);
#623=EDGE_CURVE('',#472,#512,#236,.T.);
#624=EDGE_CURVE('',#514,#513,#237,.T.);
#625=EDGE_CURVE('',#474,#514,#238,.T.);
#626=EDGE_CURVE('',#515,#515,#445,.T.);
#627=EDGE_CURVE('',#515,#507,#239,.T.);
#628=EDGE_CURVE('',#516,#516,#446,.T.);
#629=EDGE_CURVE('',#516,#506,#240,.T.);
#630=EDGE_CURVE('',#517,#517,#447,.T.);
#631=EDGE_CURVE('',#517,#505,#241,.T.);
#632=EDGE_CURVE('',#518,#518,#448,.T.);
#633=EDGE_CURVE('',#518,#504,#242,.T.);
#634=EDGE_CURVE('',#519,#519,#449,.T.);
#635=EDGE_CURVE('',#519,#503,#243,.T.);
#636=EDGE_CURVE('',#488,#520,#244,.T.);
#637=EDGE_CURVE('',#521,#520,#245,.T.);
#638=EDGE_CURVE('',#489,#521,#246,.T.);
#639=EDGE_CURVE('',#522,#521,#247,.T.);
#640=EDGE_CURVE('',#490,#522,#248,.T.);
#641=EDGE_CURVE('',#523,#522,#249,.T.);
#642=EDGE_CURVE('',#491,#523,#250,.T.);
#643=EDGE_CURVE('',#524,#523,#251,.T.);
#644=EDGE_CURVE('',#492,#524,#252,.T.);
#645=EDGE_CURVE('',#525,#524,#253,.T.);
#646=EDGE_CURVE('',#493,#525,#254,.T.);
#647=EDGE_CURVE('',#526,#525,#255,.T.);
#648=EDGE_CURVE('',#494,#526,#256,.T.);
#649=EDGE_CURVE('',#527,#526,#257,.T.);
#650=EDGE_CURVE('',#495,#527,#258,.T.);
#651=EDGE_CURVE('',#528,#527,#259,.T.);
#652=EDGE_CURVE('',#496,#528,#260,.T.);
#653=EDGE_CURVE('',#529,#528,#261,.T.);
#654=EDGE_CURVE('',#497,#529,#262,.T.);
#655=EDGE_CURVE('',#530,#529,#263,.T.);
#656=EDGE_CURVE('',#498,#530,#264,.T.);
#657=EDGE_CURVE('',#531,#530,#265,.T.);
#658=EDGE_CURVE('',#499,#531,#266,.T.);
#659=EDGE_CURVE('',#532,#531,#267,.T.);
#660=EDGE_CURVE('',#500,#532,#268,.T.);
#661=EDGE_CURVE('',#533,#532,#269,.T.);
#662=EDGE_CURVE('',#501,#533,#270,.T.);
#663=EDGE_CURVE('',#534,#533,#271,.T.);
#664=EDGE_CURVE('',#502,#534,#272,.T.);
#665=EDGE_CURVE('',#467,#534,#273,.T.);
#666=EDGE_CURVE('',#508,#463,#274,.T.);
#667=EDGE_CURVE('',#512,#511,#275,.T.);
#668=EDGE_CURVE('',#535,#514,#276,.T.);
#669=EDGE_CURVE('',#475,#535,#277,.T.);
#670=EDGE_CURVE('',#536,#535,#278,.T.);
#671=EDGE_CURVE('',#476,#536,#279,.T.);
#672=EDGE_CURVE('',#537,#536,#280,.T.);
#673=EDGE_CURVE('',#477,#537,#281,.T.);
#674=EDGE_CURVE('',#538,#537,#282,.T.);
#675=EDGE_CURVE('',#478,#538,#283,.T.);
#676=EDGE_CURVE('',#539,#538,#284,.T.);
#677=EDGE_CURVE('',#479,#539,#285,.T.);
#678=EDGE_CURVE('',#540,#539,#286,.T.);
#679=EDGE_CURVE('',#480,#540,#287,.T.);
#680=EDGE_CURVE('',#541,#540,#288,.T.);
#681=EDGE_CURVE('',#481,#541,#289,.T.);
#682=EDGE_CURVE('',#542,#541,#290,.T.);
#683=EDGE_CURVE('',#482,#542,#291,.T.);
#684=EDGE_CURVE('',#543,#542,#292,.T.);
#685=EDGE_CURVE('',#483,#543,#293,.T.);
#686=EDGE_CURVE('',#544,#543,#294,.T.);
#687=EDGE_CURVE('',#484,#544,#295,.T.);
#688=EDGE_CURVE('',#545,#544,#296,.T.);
#689=EDGE_CURVE('',#485,#545,#297,.T.);
#690=EDGE_CURVE('',#546,#545,#298,.T.);
#691=EDGE_CURVE('',#486,#546,#299,.T.);
#692=EDGE_CURVE('',#547,#546,#300,.T.);
#693=EDGE_CURVE('',#487,#547,#301,.T.);
#694=EDGE_CURVE('',#520,#547,#302,.T.);
#695=ORIENTED_EDGE('',*,*,#548,.T.);
#696=ORIENTED_EDGE('',*,*,#549,.T.);
#697=ORIENTED_EDGE('',*,*,#550,.T.);
#698=ORIENTED_EDGE('',*,*,#551,.T.);
#699=ORIENTED_EDGE('',*,*,#549,.F.);
#700=ORIENTED_EDGE('',*,*,#552,.T.);
#701=ORIENTED_EDGE('',*,*,#553,.F.);
#702=ORIENTED_EDGE('',*,*,#554,.F.);
#703=ORIENTED_EDGE('',*,*,#555,.T.);
#704=ORIENTED_EDGE('',*,*,#556,.T.);
#705=ORIENTED_EDGE('',*,*,#557,.T.);
#706=ORIENTED_EDGE('',*,*,#558,.T.);
#707=ORIENTED_EDGE('',*,*,#551,.F.);
#708=ORIENTED_EDGE('',*,*,#559,.F.);
#709=ORIENTED_EDGE('',*,*,#556,.F.);
#710=ORIENTED_EDGE('',*,*,#560,.T.);
#711=ORIENTED_EDGE('',*,*,#561,.T.);
#712=ORIENTED_EDGE('',*,*,#562,.T.);
#713=ORIENTED_EDGE('',*,*,#563,.T.);
#714=ORIENTED_EDGE('',*,*,#553,.T.);
#715=ORIENTED_EDGE('',*,*,#558,.F.);
#716=ORIENTED_EDGE('',*,*,#564,.F.);
#717=ORIENTED_EDGE('',*,*,#562,.F.);
#718=ORIENTED_EDGE('',*,*,#565,.T.);
#719=ORIENTED_EDGE('',*,*,#566,.T.);
#720=ORIENTED_EDGE('',*,*,#567,.T.);
#721=ORIENTED_EDGE('',*,*,#568,.T.);
#722=ORIENTED_EDGE('',*,*,#569,.T.);
#723=ORIENTED_EDGE('',*,*,#569,.F.);
#724=ORIENTED_EDGE('',*,*,#570,.T.);
#725=ORIENTED_EDGE('',*,*,#571,.T.);
#726=ORIENTED_EDGE('',*,*,#572,.F.);
#727=ORIENTED_EDGE('',*,*,#568,.F.);
#728=ORIENTED_EDGE('',*,*,#573,.F.);
#729=ORIENTED_EDGE('',*,*,#574,.F.);
#730=ORIENTED_EDGE('',*,*,#575,.F.);
#731=ORIENTED_EDGE('',*,*,#576,.F.);
#732=ORIENTED_EDGE('',*,*,#577,.F.);
#733=ORIENTED_EDGE('',*,*,#578,.F.);
#734=ORIENTED_EDGE('',*,*,#579,.F.);
#735=ORIENTED_EDGE('',*,*,#580,.F.);
#736=ORIENTED_EDGE('',*,*,#581,.F.);
#737=ORIENTED_EDGE('',*,*,#582,.F.);
#738=ORIENTED_EDGE('',*,*,#583,.F.);
#739=ORIENTED_EDGE('',*,*,#584,.F.);
#740=ORIENTED_EDGE('',*,*,#585,.F.);
#741=ORIENTED_EDGE('',*,*,#586,.F.);
#742=ORIENTED_EDGE('',*,*,#587,.F.);
#743=ORIENTED_EDGE('',*,*,#588,.F.);
#744=ORIENTED_EDGE('',*,*,#589,.F.);
#745=ORIENTED_EDGE('',*,*,#590,.F.);
#746=ORIENTED_EDGE('',*,*,#591,.F.);
#747=ORIENTED_EDGE('',*,*,#592,.F.);
#748=ORIENTED_EDGE('',*,*,#593,.F.);
#749=ORIENTED_EDGE('',*,*,#594,.F.);
#750=ORIENTED_EDGE('',*,*,#595,.F.);
#751=ORIENTED_EDGE('',*,*,#596,.F.);
#752=ORIENTED_EDGE('',*,*,#597,.F.);
#753=ORIENTED_EDGE('',*,*,#598,.F.);
#754=ORIENTED_EDGE('',*,*,#599,.F.);
#755=ORIENTED_EDGE('',*,*,#600,.F.);
#756=ORIENTED_EDGE('',*,*,#601,.F.);
#757=ORIENTED_EDGE('',*,*,#602,.F.);
#758=ORIENTED_EDGE('',*,*,#603,.F.);
#759=ORIENTED_EDGE('',*,*,#604,.F.);
#760=ORIENTED_EDGE('',*,*,#605,.F.);
#761=ORIENTED_EDGE('',*,*,#606,.F.);
#762=ORIENTED_EDGE('',*,*,#607,.F.);
#763=ORIENTED_EDGE('',*,*,#608,.F.);
#764=ORIENTED_EDGE('',*,*,#570,.F.);
#765=ORIENTED_EDGE('',*,*,#609,.F.);
#766=ORIENTED_EDGE('',*,*,#610,.F.);
#767=ORIENTED_EDGE('',*,*,#611,.F.);
#768=ORIENTED_EDGE('',*,*,#561,.F.);
#769=ORIENTED_EDGE('',*,*,#552,.F.);
#770=ORIENTED_EDGE('',*,*,#548,.F.);
#771=ORIENTED_EDGE('',*,*,#560,.F.);
#772=ORIENTED_EDGE('',*,*,#555,.F.);
#773=ORIENTED_EDGE('',*,*,#565,.F.);
#774=ORIENTED_EDGE('',*,*,#612,.F.);
#775=ORIENTED_EDGE('',*,*,#613,.F.);
#776=ORIENTED_EDGE('',*,*,#614,.T.);
#777=ORIENTED_EDGE('',*,*,#615,.T.);
#778=ORIENTED_EDGE('',*,*,#574,.T.);
#779=ORIENTED_EDGE('',*,*,#616,.T.);
#780=ORIENTED_EDGE('',*,*,#615,.F.);
#781=ORIENTED_EDGE('',*,*,#617,.F.);
#782=ORIENTED_EDGE('',*,*,#618,.F.);
#783=ORIENTED_EDGE('',*,*,#575,.T.);
#784=ORIENTED_EDGE('',*,*,#619,.T.);
#785=ORIENTED_EDGE('',*,*,#620,.T.);
#786=ORIENTED_EDGE('',*,*,#576,.T.);
#787=ORIENTED_EDGE('',*,*,#618,.T.);
#788=ORIENTED_EDGE('',*,*,#621,.T.);
#789=ORIENTED_EDGE('',*,*,#622,.T.);
#790=ORIENTED_EDGE('',*,*,#578,.T.);
#791=ORIENTED_EDGE('',*,*,#623,.T.);
#792=ORIENTED_EDGE('',*,*,#622,.F.);
#793=ORIENTED_EDGE('',*,*,#624,.F.);
#794=ORIENTED_EDGE('',*,*,#625,.F.);
#795=ORIENTED_EDGE('',*,*,#579,.T.);
#796=ORIENTED_EDGE('',*,*,#626,.F.);
#797=ORIENTED_EDGE('',*,*,#627,.T.);
#798=ORIENTED_EDGE('',*,*,#613,.T.);
#799=ORIENTED_EDGE('',*,*,#627,.F.);
#800=ORIENTED_EDGE('',*,*,#628,.F.);
#801=ORIENTED_EDGE('',*,*,#629,.T.);
#802=ORIENTED_EDGE('',*,*,#612,.T.);
#803=ORIENTED_EDGE('',*,*,#629,.F.);
#804=ORIENTED_EDGE('',*,*,#630,.F.);
#805=ORIENTED_EDGE('',*,*,#631,.T.);
#806=ORIENTED_EDGE('',*,*,#611,.T.);
#807=ORIENTED_EDGE('',*,*,#631,.F.);
#808=ORIENTED_EDGE('',*,*,#632,.F.);
#809=ORIENTED_EDGE('',*,*,#633,.T.);
#810=ORIENTED_EDGE('',*,*,#610,.T.);
#811=ORIENTED_EDGE('',*,*,#633,.F.);
#812=ORIENTED_EDGE('',*,*,#634,.F.);
#813=ORIENTED_EDGE('',*,*,#635,.T.);
#814=ORIENTED_EDGE('',*,*,#609,.T.);
#815=ORIENTED_EDGE('',*,*,#635,.F.);
#816=ORIENTED_EDGE('',*,*,#594,.T.);
#817=ORIENTED_EDGE('',*,*,#636,.T.);
#818=ORIENTED_EDGE('',*,*,#637,.F.);
#819=ORIENTED_EDGE('',*,*,#638,.F.);
#820=ORIENTED_EDGE('',*,*,#595,.T.);
#821=ORIENTED_EDGE('',*,*,#638,.T.);
#822=ORIENTED_EDGE('',*,*,#639,.F.);
#823=ORIENTED_EDGE('',*,*,#640,.F.);
#824=ORIENTED_EDGE('',*,*,#596,.T.);
#825=ORIENTED_EDGE('',*,*,#640,.T.);
#826=ORIENTED_EDGE('',*,*,#641,.F.);
#827=ORIENTED_EDGE('',*,*,#642,.F.);
#828=ORIENTED_EDGE('',*,*,#597,.T.);
#829=ORIENTED_EDGE('',*,*,#642,.T.);
#830=ORIENTED_EDGE('',*,*,#643,.F.);
#831=ORIENTED_EDGE('',*,*,#644,.F.);
#832=ORIENTED_EDGE('',*,*,#598,.T.);
#833=ORIENTED_EDGE('',*,*,#644,.T.);
#834=ORIENTED_EDGE('',*,*,#645,.F.);
#835=ORIENTED_EDGE('',*,*,#646,.F.);
#836=ORIENTED_EDGE('',*,*,#599,.T.);
#837=ORIENTED_EDGE('',*,*,#646,.T.);
#838=ORIENTED_EDGE('',*,*,#647,.F.);
#839=ORIENTED_EDGE('',*,*,#648,.F.);
#840=ORIENTED_EDGE('',*,*,#600,.T.);
#841=ORIENTED_EDGE('',*,*,#648,.T.);
#842=ORIENTED_EDGE('',*,*,#649,.F.);
#843=ORIENTED_EDGE('',*,*,#650,.F.);
#844=ORIENTED_EDGE('',*,*,#601,.T.);
#845=ORIENTED_EDGE('',*,*,#650,.T.);
#846=ORIENTED_EDGE('',*,*,#651,.F.);
#847=ORIENTED_EDGE('',*,*,#652,.F.);
#848=ORIENTED_EDGE('',*,*,#602,.T.);
#849=ORIENTED_EDGE('',*,*,#652,.T.);
#850=ORIENTED_EDGE('',*,*,#653,.F.);
#851=ORIENTED_EDGE('',*,*,#654,.F.);
#852=ORIENTED_EDGE('',*,*,#603,.T.);
#853=ORIENTED_EDGE('',*,*,#654,.T.);
#854=ORIENTED_EDGE('',*,*,#655,.F.);
#855=ORIENTED_EDGE('',*,*,#656,.F.);
#856=ORIENTED_EDGE('',*,*,#604,.T.);
#857=ORIENTED_EDGE('',*,*,#656,.T.);
#858=ORIENTED_EDGE('',*,*,#657,.F.);
#859=ORIENTED_EDGE('',*,*,#658,.F.);
#860=ORIENTED_EDGE('',*,*,#605,.T.);
#861=ORIENTED_EDGE('',*,*,#658,.T.);
#862=ORIENTED_EDGE('',*,*,#659,.F.);
#863=ORIENTED_EDGE('',*,*,#660,.F.);
#864=ORIENTED_EDGE('',*,*,#606,.T.);
#865=ORIENTED_EDGE('',*,*,#660,.T.);
#866=ORIENTED_EDGE('',*,*,#661,.F.);
#867=ORIENTED_EDGE('',*,*,#662,.F.);
#868=ORIENTED_EDGE('',*,*,#607,.T.);
#869=ORIENTED_EDGE('',*,*,#662,.T.);
#870=ORIENTED_EDGE('',*,*,#663,.F.);
#871=ORIENTED_EDGE('',*,*,#664,.F.);
#872=ORIENTED_EDGE('',*,*,#608,.T.);
#873=ORIENTED_EDGE('',*,*,#664,.T.);
#874=ORIENTED_EDGE('',*,*,#665,.F.);
#875=ORIENTED_EDGE('',*,*,#571,.F.);
#876=ORIENTED_EDGE('',*,*,#567,.F.);
#877=ORIENTED_EDGE('',*,*,#666,.F.);
#878=ORIENTED_EDGE('',*,*,#616,.F.);
#879=ORIENTED_EDGE('',*,*,#573,.T.);
#880=ORIENTED_EDGE('',*,*,#620,.F.);
#881=ORIENTED_EDGE('',*,*,#667,.F.);
#882=ORIENTED_EDGE('',*,*,#623,.F.);
#883=ORIENTED_EDGE('',*,*,#577,.T.);
#884=ORIENTED_EDGE('',*,*,#580,.T.);
#885=ORIENTED_EDGE('',*,*,#625,.T.);
#886=ORIENTED_EDGE('',*,*,#668,.F.);
#887=ORIENTED_EDGE('',*,*,#669,.F.);
#888=ORIENTED_EDGE('',*,*,#581,.T.);
#889=ORIENTED_EDGE('',*,*,#669,.T.);
#890=ORIENTED_EDGE('',*,*,#670,.F.);
#891=ORIENTED_EDGE('',*,*,#671,.F.);
#892=ORIENTED_EDGE('',*,*,#582,.T.);
#893=ORIENTED_EDGE('',*,*,#671,.T.);
#894=ORIENTED_EDGE('',*,*,#672,.F.);
#895=ORIENTED_EDGE('',*,*,#673,.F.);
#896=ORIENTED_EDGE('',*,*,#583,.T.);
#897=ORIENTED_EDGE('',*,*,#673,.T.);
#898=ORIENTED_EDGE('',*,*,#674,.F.);
#899=ORIENTED_EDGE('',*,*,#675,.F.);
#900=ORIENTED_EDGE('',*,*,#584,.T.);
#901=ORIENTED_EDGE('',*,*,#675,.T.);
#902=ORIENTED_EDGE('',*,*,#676,.F.);
#903=ORIENTED_EDGE('',*,*,#677,.F.);
#904=ORIENTED_EDGE('',*,*,#585,.T.);
#905=ORIENTED_EDGE('',*,*,#677,.T.);
#906=ORIENTED_EDGE('',*,*,#678,.F.);
#907=ORIENTED_EDGE('',*,*,#679,.F.);
#908=ORIENTED_EDGE('',*,*,#586,.T.);
#909=ORIENTED_EDGE('',*,*,#679,.T.);
#910=ORIENTED_EDGE('',*,*,#680,.F.);
#911=ORIENTED_EDGE('',*,*,#681,.F.);
#912=ORIENTED_EDGE('',*,*,#587,.T.);
#913=ORIENTED_EDGE('',*,*,#681,.T.);
#914=ORIENTED_EDGE('',*,*,#682,.F.);
#915=ORIENTED_EDGE('',*,*,#683,.F.);
#916=ORIENTED_EDGE('',*,*,#588,.T.);
#917=ORIENTED_EDGE('',*,*,#683,.T.);
#918=ORIENTED_EDGE('',*,*,#684,.F.);
#919=ORIENTED_EDGE('',*,*,#685,.F.);
#920=ORIENTED_EDGE('',*,*,#589,.T.);
#921=ORIENTED_EDGE('',*,*,#685,.T.);
#922=ORIENTED_EDGE('',*,*,#686,.F.);
#923=ORIENTED_EDGE('',*,*,#687,.F.);
#924=ORIENTED_EDGE('',*,*,#590,.T.);
#925=ORIENTED_EDGE('',*,*,#687,.T.);
#926=ORIENTED_EDGE('',*,*,#688,.F.);
#927=ORIENTED_EDGE('',*,*,#689,.F.);
#928=ORIENTED_EDGE('',*,*,#591,.T.);
#929=ORIENTED_EDGE('',*,*,#689,.T.);
#930=ORIENTED_EDGE('',*,*,#690,.F.);
#931=ORIENTED_EDGE('',*,*,#691,.F.);
#932=ORIENTED_EDGE('',*,*,#592,.T.);
#933=ORIENTED_EDGE('',*,*,#691,.T.);
#934=ORIENTED_EDGE('',*,*,#692,.F.);
#935=ORIENTED_EDGE('',*,*,#693,.F.);
#936=ORIENTED_EDGE('',*,*,#593,.T.);
#937=ORIENTED_EDGE('',*,*,#693,.T.);
#938=ORIENTED_EDGE('',*,*,#694,.F.);
#939=ORIENTED_EDGE('',*,*,#636,.F.);
#940=ORIENTED_EDGE('',*,*,#566,.F.);
#941=ORIENTED_EDGE('',*,*,#572,.T.);
#942=ORIENTED_EDGE('',*,*,#665,.T.);
#943=ORIENTED_EDGE('',*,*,#663,.T.);
#944=ORIENTED_EDGE('',*,*,#661,.T.);
#945=ORIENTED_EDGE('',*,*,#659,.T.);
#946=ORIENTED_EDGE('',*,*,#657,.T.);
#947=ORIENTED_EDGE('',*,*,#655,.T.);
#948=ORIENTED_EDGE('',*,*,#653,.T.);
#949=ORIENTED_EDGE('',*,*,#651,.T.);
#950=ORIENTED_EDGE('',*,*,#649,.T.);
#951=ORIENTED_EDGE('',*,*,#647,.T.);
#952=ORIENTED_EDGE('',*,*,#645,.T.);
#953=ORIENTED_EDGE('',*,*,#643,.T.);
#954=ORIENTED_EDGE('',*,*,#641,.T.);
#955=ORIENTED_EDGE('',*,*,#639,.T.);
#956=ORIENTED_EDGE('',*,*,#637,.T.);
#957=ORIENTED_EDGE('',*,*,#694,.T.);
#958=ORIENTED_EDGE('',*,*,#692,.T.);
#959=ORIENTED_EDGE('',*,*,#690,.T.);
#960=ORIENTED_EDGE('',*,*,#688,.T.);
#961=ORIENTED_EDGE('',*,*,#686,.T.);
#962=ORIENTED_EDGE('',*,*,#684,.T.);
#963=ORIENTED_EDGE('',*,*,#682,.T.);
#964=ORIENTED_EDGE('',*,*,#680,.T.);
#965=ORIENTED_EDGE('',*,*,#678,.T.);
#966=ORIENTED_EDGE('',*,*,#676,.T.);
#967=ORIENTED_EDGE('',*,*,#674,.T.);
#968=ORIENTED_EDGE('',*,*,#672,.T.);
#969=ORIENTED_EDGE('',*,*,#670,.T.);
#970=ORIENTED_EDGE('',*,*,#668,.T.);
#971=ORIENTED_EDGE('',*,*,#624,.T.);
#972=ORIENTED_EDGE('',*,*,#621,.F.);
#973=ORIENTED_EDGE('',*,*,#667,.T.);
#974=ORIENTED_EDGE('',*,*,#619,.F.);
#975=ORIENTED_EDGE('',*,*,#617,.T.);
#976=ORIENTED_EDGE('',*,*,#614,.F.);
#977=ORIENTED_EDGE('',*,*,#666,.T.);
#978=ORIENTED_EDGE('',*,*,#634,.T.);
#979=ORIENTED_EDGE('',*,*,#632,.T.);
#980=ORIENTED_EDGE('',*,*,#630,.T.);
#981=ORIENTED_EDGE('',*,*,#564,.T.);
#982=ORIENTED_EDGE('',*,*,#557,.F.);
#983=ORIENTED_EDGE('',*,*,#559,.T.);
#984=ORIENTED_EDGE('',*,*,#550,.F.);
#985=ORIENTED_EDGE('',*,*,#554,.T.);
#986=ORIENTED_EDGE('',*,*,#563,.F.);
#987=ORIENTED_EDGE('',*,*,#628,.T.);
#988=ORIENTED_EDGE('',*,*,#626,.T.);
#989=CYLINDRICAL_SURFACE('',#1075,6.);
#990=CYLINDRICAL_SURFACE('',#1079,2.);
#991=CYLINDRICAL_SURFACE('',#1083,2.);
#992=CYLINDRICAL_SURFACE('',#1087,2.);
#993=CYLINDRICAL_SURFACE('',#1100,2.);
#994=CYLINDRICAL_SURFACE('',#1103,2.);
#995=CYLINDRICAL_SURFACE('',#1105,2.);
#996=CYLINDRICAL_SURFACE('',#1108,4.3);
#997=CYLINDRICAL_SURFACE('',#1110,2.);
#998=CYLINDRICAL_SURFACE('',#1112,4.3);
#999=CYLINDRICAL_SURFACE('',#1114,2.);
#1000=CYLINDRICAL_SURFACE('',#1116,4.3);
#1001=ADVANCED_FACE('',(#66),#989,.F.);
#1002=ADVANCED_FACE('',(#67),#27,.T.);
#1003=ADVANCED_FACE('',(#68),#990,.F.);
#1004=ADVANCED_FACE('',(#69),#28,.T.);
#1005=ADVANCED_FACE('',(#70),#991,.F.);
#1006=ADVANCED_FACE('',(#71),#29,.T.);
#1007=ADVANCED_FACE('',(#72),#992,.T.);
#1008=ADVANCED_FACE('',(#73),#30,.T.);
#1009=ADVANCED_FACE('',(#74,#15,#16,#17,#18,#19,#20),#31,.F.);
#1010=ADVANCED_FACE('',(#75),#993,.T.);
#1011=ADVANCED_FACE('',(#76),#32,.T.);
#1012=ADVANCED_FACE('',(#77),#994,.T.);
#1013=ADVANCED_FACE('',(#78),#995,.T.);
#1014=ADVANCED_FACE('',(#79),#33,.T.);
#1015=ADVANCED_FACE('',(#80),#996,.F.);
#1016=ADVANCED_FACE('',(#81),#997,.F.);
#1017=ADVANCED_FACE('',(#82),#998,.F.);
#1018=ADVANCED_FACE('',(#83),#999,.F.);
#1019=ADVANCED_FACE('',(#84),#1000,.F.);
#1020=ADVANCED_FACE('',(#85),#34,.T.);
#1021=ADVANCED_FACE('',(#86),#35,.T.);
#1022=ADVANCED_FACE('',(#87),#36,.T.);
#1023=ADVANCED_FACE('',(#88),#37,.T.);
#1024=ADVANCED_FACE('',(#89),#38,.T.);
#1025=ADVANCED_FACE('',(#90),#39,.T.);
#1026=ADVANCED_FACE('',(#91),#40,.T.);
#1027=ADVANCED_FACE('',(#92),#41,.T.);
#1028=ADVANCED_FACE('',(#93),#42,.T.);
#1029=ADVANCED_FACE('',(#94),#43,.T.);
#1030=ADVANCED_FACE('',(#95),#44,.T.);
#1031=ADVANCED_FACE('',(#96),#45,.T.);
#1032=ADVANCED_FACE('',(#97),#46,.T.);
#1033=ADVANCED_FACE('',(#98),#47,.T.);
#1034=ADVANCED_FACE('',(#99),#48,.T.);
#1035=ADVANCED_FACE('',(#100),#49,.T.);
#1036=ADVANCED_FACE('',(#101),#50,.T.);
#1037=ADVANCED_FACE('',(#102),#51,.T.);
#1038=ADVANCED_FACE('',(#103),#52,.T.);
#1039=ADVANCED_FACE('',(#104),#53,.T.);
#1040=ADVANCED_FACE('',(#105),#54,.T.);
#1041=ADVANCED_FACE('',(#106),#55,.T.);
#1042=ADVANCED_FACE('',(#107),#56,.T.);
#1043=ADVANCED_FACE('',(#108),#57,.T.);
#1044=ADVANCED_FACE('',(#109),#58,.T.);
#1045=ADVANCED_FACE('',(#110),#59,.T.);
#1046=ADVANCED_FACE('',(#111),#60,.T.);
#1047=ADVANCED_FACE('',(#112),#61,.T.);
#1048=ADVANCED_FACE('',(#113),#62,.T.);
#1049=ADVANCED_FACE('',(#114),#63,.T.);
#1050=ADVANCED_FACE('',(#115),#64,.T.);
#1051=ADVANCED_FACE('',(#116,#21,#22,#23,#24,#25,#26),#65,.T.);
#1052=CLOSED_SHELL('',(#1001,#1002,#1003,#1004,#1005,#1006,#1007,#1008,
#1009,#1010,#1011,#1012,#1013,#1014,#1015,#1016,#1017,#1018,#1019,#1020,
#1021,#1022,#1023,#1024,#1025,#1026,#1027,#1028,#1029,#1030,#1031,#1032,
#1033,#1034,#1035,#1036,#1037,#1038,#1039,#1040,#1041,#1042,#1043,#1044,
#1045,#1046,#1047,#1048,#1049,#1050,#1051));
#1053=DERIVED_UNIT_ELEMENT(#1056,1.);
#1054=DERIVED_UNIT_ELEMENT(#1727,-3.);
#1055=DIMENSIONAL_EXPONENTS(0.,1.,0.,0.,0.,0.,0.);
#1056=(
CONVERSION_BASED_UNIT('gram',#1058)
MASS_UNIT()
NAMED_UNIT(#1055)
);
#1057=(
MASS_UNIT()
NAMED_UNIT(*)
SI_UNIT(.KILO.,.GRAM.)
);
#1058=MASS_MEASURE_WITH_UNIT(MASS_MEASURE(0.001),#1057);
#1059=DERIVED_UNIT((#1053,#1054));
#1060=MEASURE_REPRESENTATION_ITEM('density measure',
POSITIVE_RATIO_MEASURE(7.85),#1059);
#1061=PROPERTY_DEFINITION_REPRESENTATION(#1066,#1063);
#1062=PROPERTY_DEFINITION_REPRESENTATION(#1067,#1064);
#1063=REPRESENTATION('material name',(#1065),#1724);
#1064=REPRESENTATION('density',(#1060),#1724);
#1065=DESCRIPTIVE_REPRESENTATION_ITEM('Steel','Steel');
#1066=PROPERTY_DEFINITION('material property','material name',#1734);
#1067=PROPERTY_DEFINITION('material property','density of part',#1734);
#1068=DATE_TIME_ROLE('creation_date');
#1069=APPLIED_DATE_AND_TIME_ASSIGNMENT(#1070,#1068,(#1734));
#1070=DATE_AND_TIME(#1071,#1072);
#1071=CALENDAR_DATE(2024,25,11);
#1072=LOCAL_TIME(0,0,0.,#1073);
#1073=COORDINATED_UNIVERSAL_TIME_OFFSET(0,0,.BEHIND.);
#1074=AXIS2_PLACEMENT_3D('',#1425,#1150,#1151);
#1075=AXIS2_PLACEMENT_3D('',#1426,#1152,#1153);
#1076=AXIS2_PLACEMENT_3D('',#1429,#1154,#1155);
#1077=AXIS2_PLACEMENT_3D('',#1433,#1157,#1158);
#1078=AXIS2_PLACEMENT_3D('',#1435,#1160,#1161);
#1079=AXIS2_PLACEMENT_3D('',#1441,#1165,#1166);
#1080=AXIS2_PLACEMENT_3D('',#1444,#1167,#1168);
#1081=AXIS2_PLACEMENT_3D('',#1448,#1170,#1171);
#1082=AXIS2_PLACEMENT_3D('',#1450,#1173,#1174);
#1083=AXIS2_PLACEMENT_3D('',#1453,#1177,#1178);
#1084=AXIS2_PLACEMENT_3D('',#1455,#1179,#1180);
#1085=AXIS2_PLACEMENT_3D('',#1458,#1182,#1183);
#1086=AXIS2_PLACEMENT_3D('',#1459,#1184,#1185);
#1087=AXIS2_PLACEMENT_3D('',#1462,#1188,#1189);
#1088=AXIS2_PLACEMENT_3D('',#1465,#1190,#1191);
#1089=AXIS2_PLACEMENT_3D('',#1469,#1193,#1194);
#1090=AXIS2_PLACEMENT_3D('',#1471,#1196,#1197);
#1091=AXIS2_PLACEMENT_3D('',#1477,#1201,#1202);
#1092=AXIS2_PLACEMENT_3D('',#1481,#1204,#1205);
#1093=AXIS2_PLACEMENT_3D('',#1485,#1207,#1208);
#1094=AXIS2_PLACEMENT_3D('',#1489,#1210,#1211);
#1095=AXIS2_PLACEMENT_3D('',#1550,#1242,#1243);
#1096=AXIS2_PLACEMENT_3D('',#1552,#1244,#1245);
#1097=AXIS2_PLACEMENT_3D('',#1554,#1246,#1247);
#1098=AXIS2_PLACEMENT_3D('',#1556,#1248,#1249);
#1099=AXIS2_PLACEMENT_3D('',#1558,#1250,#1251);
#1100=AXIS2_PLACEMENT_3D('',#1559,#1252,#1253);
#1101=AXIS2_PLACEMENT_3D('',#1562,#1254,#1255);
#1102=AXIS2_PLACEMENT_3D('',#1565,#1258,#1259);
#1103=AXIS2_PLACEMENT_3D('',#1569,#1262,#1263);
#1104=AXIS2_PLACEMENT_3D('',#1571,#1264,#1265);
#1105=AXIS2_PLACEMENT_3D('',#1573,#1267,#1268);
#1106=AXIS2_PLACEMENT_3D('',#1576,#1269,#1270);
#1107=AXIS2_PLACEMENT_3D('',#1579,#1273,#1274);
#1108=AXIS2_PLACEMENT_3D('',#1583,#1277,#1278);
#1109=AXIS2_PLACEMENT_3D('',#1585,#1279,#1280);
#1110=AXIS2_PLACEMENT_3D('',#1587,#1282,#1283);
#1111=AXIS2_PLACEMENT_3D('',#1589,#1284,#1285);
#1112=AXIS2_PLACEMENT_3D('',#1591,#1287,#1288);
#1113=AXIS2_PLACEMENT_3D('',#1593,#1289,#1290);
#1114=AXIS2_PLACEMENT_3D('',#1595,#1292,#1293);
#1115=AXIS2_PLACEMENT_3D('',#1597,#1294,#1295);
#1116=AXIS2_PLACEMENT_3D('',#1599,#1297,#1298);
#1117=AXIS2_PLACEMENT_3D('',#1601,#1299,#1300);
#1118=AXIS2_PLACEMENT_3D('',#1603,#1302,#1303);
#1119=AXIS2_PLACEMENT_3D('',#1609,#1307,#1308);
#1120=AXIS2_PLACEMENT_3D('',#1613,#1311,#1312);
#1121=AXIS2_PLACEMENT_3D('',#1617,#1315,#1316);
#1122=AXIS2_PLACEMENT_3D('',#1621,#1319,#1320);
#1123=AXIS2_PLACEMENT_3D('',#1625,#1323,#1324);
#1124=AXIS2_PLACEMENT_3D('',#1629,#1327,#1328);
#1125=AXIS2_PLACEMENT_3D('',#1633,#1331,#1332);
#1126=AXIS2_PLACEMENT_3D('',#1637,#1335,#1336);
#1127=AXIS2_PLACEMENT_3D('',#1641,#1339,#1340);
#1128=AXIS2_PLACEMENT_3D('',#1645,#1343,#1344);
#1129=AXIS2_PLACEMENT_3D('',#1649,#1347,#1348);
#1130=AXIS2_PLACEMENT_3D('',#1653,#1351,#1352);
#1131=AXIS2_PLACEMENT_3D('',#1657,#1355,#1356);
#1132=AXIS2_PLACEMENT_3D('',#1661,#1359,#1360);
#1133=AXIS2_PLACEMENT_3D('',#1663,#1362,#1363);
#1134=AXIS2_PLACEMENT_3D('',#1665,#1365,#1366);
#1135=AXIS2_PLACEMENT_3D('',#1667,#1368,#1369);
#1136=AXIS2_PLACEMENT_3D('',#1671,#1372,#1373);
#1137=AXIS2_PLACEMENT_3D('',#1675,#1376,#1377);
#1138=AXIS2_PLACEMENT_3D('',#1679,#1380,#1381);
#1139=AXIS2_PLACEMENT_3D('',#1683,#1384,#1385);
#1140=AXIS2_PLACEMENT_3D('',#1687,#1388,#1389);
#1141=AXIS2_PLACEMENT_3D('',#1691,#1392,#1393);
#1142=AXIS2_PLACEMENT_3D('',#1695,#1396,#1397);
#1143=AXIS2_PLACEMENT_3D('',#1699,#1400,#1401);
#1144=AXIS2_PLACEMENT_3D('',#1703,#1404,#1405);
#1145=AXIS2_PLACEMENT_3D('',#1707,#1408,#1409);
#1146=AXIS2_PLACEMENT_3D('',#1711,#1412,#1413);
#1147=AXIS2_PLACEMENT_3D('',#1715,#1416,#1417);
#1148=AXIS2_PLACEMENT_3D('',#1719,#1420,#1421);
#1149=AXIS2_PLACEMENT_3D('',#1721,#1423,#1424);
#1150=DIRECTION('axis',(0.,0.,1.));
#1151=DIRECTION('refdir',(1.,0.,0.));
#1152=DIRECTION('center_axis',(0.,1.,0.));
#1153=DIRECTION('ref_axis',(0.707106781186547,0.,0.707106781186548));
#1154=DIRECTION('center_axis',(0.,-1.,0.));
#1155=DIRECTION('ref_axis',(0.707106781186548,0.,-0.707106781186547));
#1156=DIRECTION('',(0.,1.,0.));
#1157=DIRECTION('center_axis',(0.,1.,0.));
#1158=DIRECTION('ref_axis',(0.707106781186547,0.,0.707106781186548));
#1159=DIRECTION('',(0.,-1.,0.));
#1160=DIRECTION('center_axis',(-3.5527136788005E-16,0.,-1.));
#1161=DIRECTION('ref_axis',(-1.,0.,3.5527136788005E-16));
#1162=DIRECTION('',(-1.,0.,3.5527136788005E-16));
#1163=DIRECTION('',(0.,-1.,0.));
#1164=DIRECTION('',(-1.,0.,3.5527136788005E-16));
#1165=DIRECTION('center_axis',(0.,1.,0.));
#1166=DIRECTION('ref_axis',(-0.707106781186548,0.,-0.707106781186547));
#1167=DIRECTION('center_axis',(0.,-1.,0.));
#1168=DIRECTION('ref_axis',(-0.707106781186548,0.,-0.707106781186547));
#1169=DIRECTION('',(0.,1.,0.));
#1170=DIRECTION('center_axis',(0.,1.,0.));
#1171=DIRECTION('ref_axis',(-0.707106781186548,0.,-0.707106781186547));
#1172=DIRECTION('',(0.,-1.,0.));
#1173=DIRECTION('center_axis',(-3.5527136788005E-16,0.,1.));
#1174=DIRECTION('ref_axis',(1.,0.,3.5527136788005E-16));
#1175=DIRECTION('',(1.,0.,3.5527136788005E-16));
#1176=DIRECTION('',(1.,0.,3.5527136788005E-16));
#1177=DIRECTION('center_axis',(0.,1.,0.));
#1178=DIRECTION('ref_axis',(-0.707106781186548,0.,0.707106781186547));
#1179=DIRECTION('center_axis',(0.,-1.,0.));
#1180=DIRECTION('ref_axis',(-0.707106781186548,0.,0.707106781186547));
#1181=DIRECTION('',(0.,1.,0.));
#1182=DIRECTION('center_axis',(0.,1.,0.));
#1183=DIRECTION('ref_axis',(-0.707106781186548,0.,0.707106781186547));
#1184=DIRECTION('center_axis',(1.,0.,-7.40148683083437E-16));
#1185=DIRECTION('ref_axis',(-7.40148683083437E-16,0.,-1.));
#1186=DIRECTION('',(-7.40148683083437E-16,0.,-1.));
#1187=DIRECTION('',(-7.40148683083437E-16,0.,-1.));
#1188=DIRECTION('center_axis',(0.,1.,0.));
#1189=DIRECTION('ref_axis',(0.382683432365088,0.,-0.923879532511287));
#1190=DIRECTION('center_axis',(0.,-1.,0.));
#1191=DIRECTION('ref_axis',(0.382683432365088,0.,-0.923879532511287));
#1192=DIRECTION('',(0.,-1.,0.));
#1193=DIRECTION('center_axis',(0.,1.,0.));
#1194=DIRECTION('ref_axis',(0.382683432365088,0.,-0.923879532511287));
#1195=DIRECTION('',(0.,1.,0.));
#1196=DIRECTION('center_axis',(0.,0.,-1.));
#1197=DIRECTION('ref_axis',(-1.,0.,0.));
#1198=DIRECTION('',(-1.,0.,0.));
#1199=DIRECTION('',(0.,1.,0.));
#1200=DIRECTION('',(-1.,0.,0.));
#1201=DIRECTION('center_axis',(0.,1.,0.));
#1202=DIRECTION('ref_axis',(0.,0.,1.));
#1203=DIRECTION('',(-0.707106781186548,0.,-0.707106781186548));
#1204=DIRECTION('center_axis',(0.,1.,0.));
#1205=DIRECTION('ref_axis',(0.923879532511287,0.,-0.382683432365089));
#1206=DIRECTION('',(0.,0.,-1.));
#1207=DIRECTION('center_axis',(0.,1.,0.));
#1208=DIRECTION('ref_axis',(0.923879532511287,0.,0.38268343236509));
#1209=DIRECTION('',(0.707106781186548,0.,-0.707106781186548));
#1210=DIRECTION('center_axis',(0.,1.,0.));
#1211=DIRECTION('ref_axis',(0.382683432365089,0.,0.923879532511287));
#1212=DIRECTION('',(1.,0.,0.));
#1213=DIRECTION('',(0.,0.,1.));
#1214=DIRECTION('',(1.,0.,0.));
#1215=DIRECTION('',(0.,0.,1.));
#1216=DIRECTION('',(-1.,0.,0.));
#1217=DIRECTION('',(0.,0.,1.));
#1218=DIRECTION('',(1.,0.,-8.88178419700125E-16));
#1219=DIRECTION('',(0.,0.,1.));
#1220=DIRECTION('',(-1.,0.,0.));
#1221=DIRECTION('',(0.,0.,1.));
#1222=DIRECTION('',(1.,0.,-8.88178419700125E-16));
#1223=DIRECTION('',(0.,0.,1.));
#1224=DIRECTION('',(-1.,0.,2.22044604925031E-16));
#1225=DIRECTION('',(0.,0.,1.));
#1226=DIRECTION('',(1.,0.,-4.44089209850063E-16));
#1227=DIRECTION('',(0.,0.,1.));
#1228=DIRECTION('',(-1.,0.,-4.44089209850063E-16));
#1229=DIRECTION('',(0.,0.,1.));
#1230=DIRECTION('',(1.,0.,2.22044604925031E-16));
#1231=DIRECTION('',(0.,0.,1.));
#1232=DIRECTION('',(-1.,0.,-8.88178419700125E-16));
#1233=DIRECTION('',(0.,0.,1.));
#1234=DIRECTION('',(1.,0.,0.));
#1235=DIRECTION('',(0.,0.,1.));
#1236=DIRECTION('',(-1.,0.,-8.88178419700125E-16));
#1237=DIRECTION('',(0.,0.,1.));
#1238=DIRECTION('',(1.,0.,0.));
#1239=DIRECTION('',(0.,0.,1.));
#1240=DIRECTION('',(-1.,0.,0.));
#1241=DIRECTION('',(0.,0.,1.));
#1242=DIRECTION('center_axis',(0.,-1.,0.));
#1243=DIRECTION('ref_axis',(-1.,0.,-1.22464679914735E-16));
#1244=DIRECTION('center_axis',(0.,-1.,0.));
#1245=DIRECTION('ref_axis',(1.,0.,0.));
#1246=DIRECTION('center_axis',(0.,-1.,0.));
#1247=DIRECTION('ref_axis',(1.,0.,0.));
#1248=DIRECTION('center_axis',(0.,-1.,0.));
#1249=DIRECTION('ref_axis',(1.,0.,0.));
#1250=DIRECTION('center_axis',(0.,-1.,0.));
#1251=DIRECTION('ref_axis',(1.,0.,0.));
#1252=DIRECTION('center_axis',(0.,1.,0.));
#1253=DIRECTION('ref_axis',(0.923879532511287,0.,-0.382683432365089));
#1254=DIRECTION('center_axis',(0.,-1.,0.));
#1255=DIRECTION('ref_axis',(0.923879532511287,0.,-0.382683432365089));
#1256=DIRECTION('',(0.,-1.,0.));
#1257=DIRECTION('',(0.,1.,0.));
#1258=DIRECTION('center_axis',(1.,0.,0.));
#1259=DIRECTION('ref_axis',(0.,0.,-1.));
#1260=DIRECTION('',(0.,0.,-1.));
#1261=DIRECTION('',(0.,1.,0.));
#1262=DIRECTION('center_axis',(0.,1.,0.));
#1263=DIRECTION('ref_axis',(0.923879532511287,0.,0.38268343236509));
#1264=DIRECTION('center_axis',(0.,-1.,0.));
#1265=DIRECTION('ref_axis',(0.923879532511287,0.,0.38268343236509));
#1266=DIRECTION('',(0.,-1.,0.));
#1267=DIRECTION('center_axis',(0.,1.,0.));
#1268=DIRECTION('ref_axis',(0.382683432365089,0.,0.923879532511287));
#1269=DIRECTION('center_axis',(0.,-1.,0.));
#1270=DIRECTION('ref_axis',(0.382683432365089,0.,0.923879532511287));
#1271=DIRECTION('',(0.,-1.,0.));
#1272=DIRECTION('',(0.,1.,0.));
#1273=DIRECTION('center_axis',(0.,0.,1.));
#1274=DIRECTION('ref_axis',(1.,0.,0.));
#1275=DIRECTION('',(1.,0.,0.));
#1276=DIRECTION('',(0.,1.,0.));
#1277=DIRECTION('center_axis',(0.,1.,0.));
#1278=DIRECTION('ref_axis',(1.,0.,0.));
#1279=DIRECTION('center_axis',(0.,-1.,0.));
#1280=DIRECTION('ref_axis',(1.,0.,0.));
#1281=DIRECTION('',(0.,-1.,0.));
#1282=DIRECTION('center_axis',(0.,1.,0.));
#1283=DIRECTION('ref_axis',(1.,0.,0.));
#1284=DIRECTION('center_axis',(0.,-1.,0.));
#1285=DIRECTION('ref_axis',(1.,0.,0.));
#1286=DIRECTION('',(0.,-1.,0.));
#1287=DIRECTION('center_axis',(0.,1.,0.));
#1288=DIRECTION('ref_axis',(1.,0.,0.));
#1289=DIRECTION('center_axis',(0.,-1.,0.));
#1290=DIRECTION('ref_axis',(1.,0.,0.));
#1291=DIRECTION('',(0.,-1.,0.));
#1292=DIRECTION('center_axis',(0.,1.,0.));
#1293=DIRECTION('ref_axis',(1.,0.,0.));
#1294=DIRECTION('center_axis',(0.,-1.,0.));
#1295=DIRECTION('ref_axis',(1.,0.,0.));
#1296=DIRECTION('',(0.,-1.,0.));
#1297=DIRECTION('center_axis',(0.,1.,0.));
#1298=DIRECTION('ref_axis',(-1.,0.,-1.22464679914735E-16));
#1299=DIRECTION('center_axis',(0.,-1.,0.));
#1300=DIRECTION('ref_axis',(-1.,0.,-1.22464679914735E-16));
#1301=DIRECTION('',(0.,-1.,0.));
#1302=DIRECTION('center_axis',(-1.,0.,0.));
#1303=DIRECTION('ref_axis',(0.,0.,1.));
#1304=DIRECTION('',(0.,1.,0.));
#1305=DIRECTION('',(0.,0.,1.));
#1306=DIRECTION('',(0.,1.,0.));
#1307=DIRECTION('center_axis',(4.44089209850063E-16,0.,-1.));
#1308=DIRECTION('ref_axis',(-1.,0.,-4.44089209850063E-16));
#1309=DIRECTION('',(-1.,0.,-4.44089209850063E-16));
#1310=DIRECTION('',(0.,1.,0.));
#1311=DIRECTION('center_axis',(-1.,0.,0.));
#1312=DIRECTION('ref_axis',(0.,0.,1.));
#1313=DIRECTION('',(0.,0.,1.));
#1314=DIRECTION('',(0.,1.,0.));
#1315=DIRECTION('center_axis',(-2.22044604925031E-16,0.,1.));
#1316=DIRECTION('ref_axis',(1.,0.,2.22044604925031E-16));
#1317=DIRECTION('',(1.,0.,2.22044604925031E-16));
#1318=DIRECTION('',(0.,1.,0.));
#1319=DIRECTION('center_axis',(-1.,0.,0.));
#1320=DIRECTION('ref_axis',(0.,0.,1.));
#1321=DIRECTION('',(0.,0.,1.));
#1322=DIRECTION('',(0.,1.,0.));
#1323=DIRECTION('center_axis',(8.88178419700125E-16,0.,-1.));
#1324=DIRECTION('ref_axis',(-1.,0.,-8.88178419700125E-16));
#1325=DIRECTION('',(-1.,0.,-8.88178419700125E-16));
#1326=DIRECTION('',(0.,1.,0.));
#1327=DIRECTION('center_axis',(-1.,0.,0.));
#1328=DIRECTION('ref_axis',(0.,0.,1.));
#1329=DIRECTION('',(0.,0.,1.));
#1330=DIRECTION('',(0.,1.,0.));
#1331=DIRECTION('center_axis',(0.,0.,1.));
#1332=DIRECTION('ref_axis',(1.,0.,0.));
#1333=DIRECTION('',(1.,0.,0.));
#1334=DIRECTION('',(0.,1.,0.));
#1335=DIRECTION('center_axis',(-1.,0.,0.));
#1336=DIRECTION('ref_axis',(0.,0.,1.));
#1337=DIRECTION('',(0.,0.,1.));
#1338=DIRECTION('',(0.,1.,0.));
#1339=DIRECTION('center_axis',(8.88178419700125E-16,0.,-1.));
#1340=DIRECTION('ref_axis',(-1.,0.,-8.88178419700125E-16));
#1341=DIRECTION('',(-1.,0.,-8.88178419700125E-16));
#1342=DIRECTION('',(0.,1.,0.));
#1343=DIRECTION('center_axis',(-1.,0.,0.));
#1344=DIRECTION('ref_axis',(0.,0.,1.));
#1345=DIRECTION('',(0.,0.,1.));
#1346=DIRECTION('',(0.,1.,0.));
#1347=DIRECTION('center_axis',(0.,0.,1.));
#1348=DIRECTION('ref_axis',(1.,0.,0.));
#1349=DIRECTION('',(1.,0.,0.));
#1350=DIRECTION('',(0.,1.,0.));
#1351=DIRECTION('center_axis',(-1.,0.,0.));
#1352=DIRECTION('ref_axis',(0.,0.,1.));
#1353=DIRECTION('',(0.,0.,1.));
#1354=DIRECTION('',(0.,1.,0.));
#1355=DIRECTION('center_axis',(0.,0.,-1.));
#1356=DIRECTION('ref_axis',(-1.,0.,0.));
#1357=DIRECTION('',(-1.,0.,0.));
#1358=DIRECTION('',(0.,1.,0.));
#1359=DIRECTION('center_axis',(-1.,0.,0.));
#1360=DIRECTION('ref_axis',(0.,0.,1.));
#1361=DIRECTION('',(0.,0.,1.));
#1362=DIRECTION('center_axis',(0.707106781186548,0.,-0.707106781186548));
#1363=DIRECTION('ref_axis',(-0.707106781186548,0.,-0.707106781186548));
#1364=DIRECTION('',(-0.707106781186548,0.,-0.707106781186548));
#1365=DIRECTION('center_axis',(0.707106781186548,0.,0.707106781186548));
#1366=DIRECTION('ref_axis',(0.707106781186548,0.,-0.707106781186548));
#1367=DIRECTION('',(0.707106781186548,0.,-0.707106781186548));
#1368=DIRECTION('center_axis',(-1.,0.,0.));
#1369=DIRECTION('ref_axis',(0.,0.,1.));
#1370=DIRECTION('',(0.,0.,1.));
#1371=DIRECTION('',(0.,1.,0.));
#1372=DIRECTION('center_axis',(0.,0.,1.));
#1373=DIRECTION('ref_axis',(1.,0.,0.));
#1374=DIRECTION('',(1.,0.,0.));
#1375=DIRECTION('',(0.,1.,0.));
#1376=DIRECTION('center_axis',(-1.,0.,0.));
#1377=DIRECTION('ref_axis',(0.,0.,1.));
#1378=DIRECTION('',(0.,0.,1.));
#1379=DIRECTION('',(0.,1.,0.));
#1380=DIRECTION('center_axis',(0.,0.,-1.));
#1381=DIRECTION('ref_axis',(-1.,0.,0.));
#1382=DIRECTION('',(-1.,0.,0.));
#1383=DIRECTION('',(0.,1.,0.));
#1384=DIRECTION('center_axis',(-1.,0.,0.));
#1385=DIRECTION('ref_axis',(0.,0.,1.));
#1386=DIRECTION('',(0.,0.,1.));
#1387=DIRECTION('',(0.,1.,0.));
#1388=DIRECTION('center_axis',(8.88178419700125E-16,0.,1.));
#1389=DIRECTION('ref_axis',(1.,0.,-8.88178419700125E-16));
#1390=DIRECTION('',(1.,0.,-8.88178419700125E-16));
#1391=DIRECTION('',(0.,1.,0.));
#1392=DIRECTION('center_axis',(-1.,0.,0.));
#1393=DIRECTION('ref_axis',(0.,0.,1.));
#1394=DIRECTION('',(0.,0.,1.));
#1395=DIRECTION('',(0.,1.,0.));
#1396=DIRECTION('center_axis',(0.,0.,-1.));
#1397=DIRECTION('ref_axis',(-1.,0.,0.));
#1398=DIRECTION('',(-1.,0.,0.));
#1399=DIRECTION('',(0.,1.,0.));
#1400=DIRECTION('center_axis',(-1.,0.,0.));
#1401=DIRECTION('ref_axis',(0.,0.,1.));
#1402=DIRECTION('',(0.,0.,1.));
#1403=DIRECTION('',(0.,1.,0.));
#1404=DIRECTION('center_axis',(8.88178419700125E-16,0.,1.));
#1405=DIRECTION('ref_axis',(1.,0.,-8.88178419700125E-16));
#1406=DIRECTION('',(1.,0.,-8.88178419700125E-16));
#1407=DIRECTION('',(0.,1.,0.));
#1408=DIRECTION('center_axis',(-1.,0.,0.));
#1409=DIRECTION('ref_axis',(0.,0.,1.));
#1410=DIRECTION('',(0.,0.,1.));
#1411=DIRECTION('',(0.,1.,0.));
#1412=DIRECTION('center_axis',(-2.22044604925031E-16,0.,-1.));
#1413=DIRECTION('ref_axis',(-1.,0.,2.22044604925031E-16));
#1414=DIRECTION('',(-1.,0.,2.22044604925031E-16));
#1415=DIRECTION('',(0.,1.,0.));
#1416=DIRECTION('center_axis',(-1.,0.,0.));
#1417=DIRECTION('ref_axis',(0.,0.,1.));
#1418=DIRECTION('',(0.,0.,1.));
#1419=DIRECTION('',(0.,1.,0.));
#1420=DIRECTION('center_axis',(4.44089209850063E-16,0.,1.));
#1421=DIRECTION('ref_axis',(1.,0.,-4.44089209850063E-16));
#1422=DIRECTION('',(1.,0.,-4.44089209850063E-16));
#1423=DIRECTION('center_axis',(0.,1.,0.));
#1424=DIRECTION('ref_axis',(0.,0.,1.));
#1425=CARTESIAN_POINT('',(0.,0.,0.));
#1426=CARTESIAN_POINT('Origin',(-14.,0.,2.22044604925031E-15));
#1427=CARTESIAN_POINT('',(-14.,0.,-6.));
#1428=CARTESIAN_POINT('',(-14.,0.,6.));
#1429=CARTESIAN_POINT('Origin',(-14.,0.,-2.17603712826531E-15));
#1430=CARTESIAN_POINT('',(-14.,5.,6.));
#1431=CARTESIAN_POINT('',(-14.,0.,6.));
#1432=CARTESIAN_POINT('',(-14.,5.,-6.));
#1433=CARTESIAN_POINT('Origin',(-14.,5.,2.22044604925031E-15));
#1434=CARTESIAN_POINT('',(-14.,0.,-6.));
#1435=CARTESIAN_POINT('Origin',(-8.,0.,6.));
#1436=CARTESIAN_POINT('',(-31.,0.,6.00000000000001));
#1437=CARTESIAN_POINT('',(-8.,0.,6.));
#1438=CARTESIAN_POINT('',(-31.,5.,6.00000000000001));
#1439=CARTESIAN_POINT('',(-31.,0.,6.00000000000001));
#1440=CARTESIAN_POINT('',(-8.,5.,6.));
#1441=CARTESIAN_POINT('Origin',(-31.,0.,-4.00000000000001));
#1442=CARTESIAN_POINT('',(-33.,0.,-4.00000000000001));
#1443=CARTESIAN_POINT('',(-31.,0.,-6.00000000000001));
#1444=CARTESIAN_POINT('Origin',(-31.,0.,-4.00000000000001));
#1445=CARTESIAN_POINT('',(-31.,5.,-6.00000000000001));
#1446=CARTESIAN_POINT('',(-31.,0.,-6.00000000000001));
#1447=CARTESIAN_POINT('',(-33.,5.,-4.00000000000001));
#1448=CARTESIAN_POINT('Origin',(-31.,5.,-4.00000000000001));
#1449=CARTESIAN_POINT('',(-33.,0.,-4.00000000000001));
#1450=CARTESIAN_POINT('Origin',(-33.,0.,-6.00000000000001));
#1451=CARTESIAN_POINT('',(-33.,5.,-6.00000000000001));
#1452=CARTESIAN_POINT('',(-33.,0.,-6.00000000000001));
#1453=CARTESIAN_POINT('Origin',(-31.,0.,4.00000000000001));
#1454=CARTESIAN_POINT('',(-33.,0.,4.00000000000001));
#1455=CARTESIAN_POINT('Origin',(-31.,0.,4.00000000000001));
#1456=CARTESIAN_POINT('',(-33.,5.,4.00000000000001));
#1457=CARTESIAN_POINT('',(-33.,0.,4.00000000000001));
#1458=CARTESIAN_POINT('Origin',(-31.,5.,4.00000000000001));
#1459=CARTESIAN_POINT('Origin',(-33.,0.,6.00000000000001));
#1460=CARTESIAN_POINT('',(-33.,5.,6.00000000000001));
#1461=CARTESIAN_POINT('',(-33.,0.,6.00000000000001));
#1462=CARTESIAN_POINT('Origin',(-10.8284271247462,0.,-23.));
#1463=CARTESIAN_POINT('',(-10.8284271247462,5.,-25.));
#1464=CARTESIAN_POINT('',(-9.41421356237309,5.,-24.4142135623731));
#1465=CARTESIAN_POINT('Origin',(-10.8284271247462,5.,-23.));
#1466=CARTESIAN_POINT('',(-9.41421356237309,0.,-24.4142135623731));
#1467=CARTESIAN_POINT('',(-9.41421356237309,0.,-24.4142135623731));
#1468=CARTESIAN_POINT('',(-10.8284271247462,0.,-25.));
#1469=CARTESIAN_POINT('Origin',(-10.8284271247462,0.,-23.));
#1470=CARTESIAN_POINT('',(-10.8284271247462,0.,-25.));
#1471=CARTESIAN_POINT('Origin',(-10.,0.,-25.));
#1472=CARTESIAN_POINT('',(-47.5,0.,-25.));
#1473=CARTESIAN_POINT('',(0.,0.,-25.));
#1474=CARTESIAN_POINT('',(-47.5,5.,-25.));
#1475=CARTESIAN_POINT('',(-47.5,0.,-25.));
#1476=CARTESIAN_POINT('',(0.,5.,-25.));
#1477=CARTESIAN_POINT('Origin',(-25.,0.,0.));
#1478=CARTESIAN_POINT('',(-0.585786437626907,0.,-15.5857864376269));
#1479=CARTESIAN_POINT('',(0.,0.,-15.));
#1480=CARTESIAN_POINT('',(0.,0.,-14.1715728752538));
#1481=CARTESIAN_POINT('Origin',(-2.,0.,-14.1715728752538));
#1482=CARTESIAN_POINT('',(0.,0.,14.1715728752538));
#1483=CARTESIAN_POINT('',(0.,0.,25.));
#1484=CARTESIAN_POINT('',(-0.585786437626905,0.,15.5857864376269));
#1485=CARTESIAN_POINT('Origin',(-2.,0.,14.1715728752538));
#1486=CARTESIAN_POINT('',(-9.4142135623731,0.,24.4142135623731));
#1487=CARTESIAN_POINT('',(-10.,0.,25.));
#1488=CARTESIAN_POINT('',(-10.8284271247462,0.,25.));
#1489=CARTESIAN_POINT('Origin',(-10.8284271247462,0.,23.));
#1490=CARTESIAN_POINT('',(-47.5,0.,25.));
#1491=CARTESIAN_POINT('',(-50.,0.,25.));
#1492=CARTESIAN_POINT('',(-47.5,0.,21.5));
#1493=CARTESIAN_POINT('',(-47.5,0.,21.5));
#1494=CARTESIAN_POINT('',(-50.,0.,21.5));
#1495=CARTESIAN_POINT('',(-50.,0.,21.5));
#1496=CARTESIAN_POINT('',(-50.,0.,17.5));
#1497=CARTESIAN_POINT('',(-50.,0.,0.));
#1498=CARTESIAN_POINT('',(-47.5,0.,17.5));
#1499=CARTESIAN_POINT('',(-47.5,0.,17.5));
#1500=CARTESIAN_POINT('',(-47.5,0.,15.));
#1501=CARTESIAN_POINT('',(-47.5,0.,15.));
#1502=CARTESIAN_POINT('',(-50.,0.,15.));
#1503=CARTESIAN_POINT('',(-50.,0.,15.));
#1504=CARTESIAN_POINT('',(-50.,0.,11.));
#1505=CARTESIAN_POINT('',(-50.,0.,0.));
#1506=CARTESIAN_POINT('',(-47.5,0.,11.));
#1507=CARTESIAN_POINT('',(-47.5,0.,11.));
#1508=CARTESIAN_POINT('',(-47.5,0.,8.5));
#1509=CARTESIAN_POINT('',(-47.5,0.,8.5));
#1510=CARTESIAN_POINT('',(-50.,0.,8.5));
#1511=CARTESIAN_POINT('',(-50.,0.,8.5));
#1512=CARTESIAN_POINT('',(-50.,0.,4.5));
#1513=CARTESIAN_POINT('',(-50.,0.,0.));
#1514=CARTESIAN_POINT('',(-47.5,0.,4.5));
#1515=CARTESIAN_POINT('',(-47.5,0.,4.5));
#1516=CARTESIAN_POINT('',(-47.5,0.,2.));
#1517=CARTESIAN_POINT('',(-47.5,0.,2.));
#1518=CARTESIAN_POINT('',(-50.,0.,2.));
#1519=CARTESIAN_POINT('',(-50.,0.,2.));
#1520=CARTESIAN_POINT('',(-50.,0.,-2.));
#1521=CARTESIAN_POINT('',(-50.,0.,-25.));
#1522=CARTESIAN_POINT('',(-47.5,0.,-2.));
#1523=CARTESIAN_POINT('',(-47.5,0.,-2.));
#1524=CARTESIAN_POINT('',(-47.5,0.,-4.5));
#1525=CARTESIAN_POINT('',(-47.5,0.,-4.5));
#1526=CARTESIAN_POINT('',(-50.,0.,-4.5));
#1527=CARTESIAN_POINT('',(-50.,0.,-4.5));
#1528=CARTESIAN_POINT('',(-50.,0.,-8.5));
#1529=CARTESIAN_POINT('',(-50.,0.,-25.));
#1530=CARTESIAN_POINT('',(-47.5,0.,-8.5));
#1531=CARTESIAN_POINT('',(-47.5,0.,-8.5));
#1532=CARTESIAN_POINT('',(-47.5,0.,-11.));
#1533=CARTESIAN_POINT('',(-47.5,0.,-11.));
#1534=CARTESIAN_POINT('',(-50.,0.,-11.));
#1535=CARTESIAN_POINT('',(-50.,0.,-11.));
#1536=CARTESIAN_POINT('',(-50.,0.,-15.));
#1537=CARTESIAN_POINT('',(-50.,0.,-25.));
#1538=CARTESIAN_POINT('',(-47.5,0.,-15.));
#1539=CARTESIAN_POINT('',(-47.5,0.,-15.));
#1540=CARTESIAN_POINT('',(-47.5,0.,-17.5));
#1541=CARTESIAN_POINT('',(-47.5,0.,-17.5));
#1542=CARTESIAN_POINT('',(-50.,0.,-17.5));
#1543=CARTESIAN_POINT('',(-50.,0.,-17.5));
#1544=CARTESIAN_POINT('',(-50.,0.,-21.5));
#1545=CARTESIAN_POINT('',(-50.,0.,-25.));
#1546=CARTESIAN_POINT('',(-47.5,0.,-21.5));
#1547=CARTESIAN_POINT('',(-47.5,0.,-21.5));
#1548=CARTESIAN_POINT('',(-47.5,0.,-25.));
#1549=CARTESIAN_POINT('',(-36.7,0.,-2.46519032881566E-31));
#1550=CARTESIAN_POINT('Origin',(-41.,0.,0.));
#1551=CARTESIAN_POINT('',(-6.,0.,-12.));
#1552=CARTESIAN_POINT('Origin',(-4.,0.,-12.));
#1553=CARTESIAN_POINT('',(-45.3,0.,-15.));
#1554=CARTESIAN_POINT('Origin',(-41.,0.,-15.));
#1555=CARTESIAN_POINT('',(-6.,0.,12.));
#1556=CARTESIAN_POINT('Origin',(-4.,0.,12.));
#1557=CARTESIAN_POINT('',(-45.3,0.,15.));
#1558=CARTESIAN_POINT('Origin',(-41.,0.,15.));
#1559=CARTESIAN_POINT('Origin',(-2.,0.,-14.1715728752538));
#1560=CARTESIAN_POINT('',(-0.585786437626907,5.,-15.5857864376269));
#1561=CARTESIAN_POINT('',(0.,5.,-14.1715728752538));
#1562=CARTESIAN_POINT('Origin',(-2.,5.,-14.1715728752538));
#1563=CARTESIAN_POINT('',(0.,0.,-14.1715728752538));
#1564=CARTESIAN_POINT('',(-0.585786437626906,0.,-15.5857864376269));
#1565=CARTESIAN_POINT('Origin',(0.,0.,15.));
#1566=CARTESIAN_POINT('',(0.,5.,14.1715728752538));
#1567=CARTESIAN_POINT('',(0.,5.,25.));
#1568=CARTESIAN_POINT('',(0.,0.,14.1715728752538));
#1569=CARTESIAN_POINT('Origin',(-2.,0.,14.1715728752538));
#1570=CARTESIAN_POINT('',(-0.585786437626905,5.,15.5857864376269));
#1571=CARTESIAN_POINT('Origin',(-2.,5.,14.1715728752538));
#1572=CARTESIAN_POINT('',(-0.585786437626904,0.,15.5857864376269));
#1573=CARTESIAN_POINT('Origin',(-10.8284271247462,0.,23.));
#1574=CARTESIAN_POINT('',(-9.4142135623731,5.,24.4142135623731));
#1575=CARTESIAN_POINT('',(-10.8284271247462,5.,25.));
#1576=CARTESIAN_POINT('Origin',(-10.8284271247462,5.,23.));
#1577=CARTESIAN_POINT('',(-10.8284271247462,0.,25.));
#1578=CARTESIAN_POINT('',(-9.4142135623731,0.,24.4142135623731));
#1579=CARTESIAN_POINT('Origin',(-47.5,0.,25.));
#1580=CARTESIAN_POINT('',(-47.5,5.,25.));
#1581=CARTESIAN_POINT('',(-50.,5.,25.));
#1582=CARTESIAN_POINT('',(-47.5,0.,25.));
#1583=CARTESIAN_POINT('Origin',(-41.,0.,15.));
#1584=CARTESIAN_POINT('',(-45.3,5.,15.));
#1585=CARTESIAN_POINT('Origin',(-41.,5.,15.));
#1586=CARTESIAN_POINT('',(-45.3,0.,15.));
#1587=CARTESIAN_POINT('Origin',(-4.,0.,12.));
#1588=CARTESIAN_POINT('',(-6.,5.,12.));
#1589=CARTESIAN_POINT('Origin',(-4.,5.,12.));
#1590=CARTESIAN_POINT('',(-6.,0.,12.));
#1591=CARTESIAN_POINT('Origin',(-41.,0.,-15.));
#1592=CARTESIAN_POINT('',(-45.3,5.,-15.));
#1593=CARTESIAN_POINT('Origin',(-41.,5.,-15.));
#1594=CARTESIAN_POINT('',(-45.3,0.,-15.));
#1595=CARTESIAN_POINT('Origin',(-4.,0.,-12.));
#1596=CARTESIAN_POINT('',(-6.,5.,-12.));
#1597=CARTESIAN_POINT('Origin',(-4.,5.,-12.));
#1598=CARTESIAN_POINT('',(-6.,0.,-12.));
#1599=CARTESIAN_POINT('Origin',(-41.,0.,0.));
#1600=CARTESIAN_POINT('',(-36.7,5.,-2.46519032881566E-31));
#1601=CARTESIAN_POINT('Origin',(-41.,5.,0.));
#1602=CARTESIAN_POINT('',(-36.7,0.,-2.46519032881566E-31));
#1603=CARTESIAN_POINT('Origin',(-50.,0.,-2.));
#1604=CARTESIAN_POINT('',(-50.,5.,2.));
#1605=CARTESIAN_POINT('',(-50.,0.,2.));
#1606=CARTESIAN_POINT('',(-50.,5.,-2.));
#1607=CARTESIAN_POINT('',(-50.,5.,-25.));
#1608=CARTESIAN_POINT('',(-50.,0.,-2.));
#1609=CARTESIAN_POINT('Origin',(-47.5,0.,-2.));
#1610=CARTESIAN_POINT('',(-47.5,5.,-2.));
#1611=CARTESIAN_POINT('',(-47.5,5.,-2.));
#1612=CARTESIAN_POINT('',(-47.5,0.,-2.));
#1613=CARTESIAN_POINT('Origin',(-47.5,0.,-4.5));
#1614=CARTESIAN_POINT('',(-47.5,5.,-4.5));
#1615=CARTESIAN_POINT('',(-47.5,5.,-4.5));
#1616=CARTESIAN_POINT('',(-47.5,0.,-4.5));
#1617=CARTESIAN_POINT('Origin',(-50.,0.,-4.5));
#1618=CARTESIAN_POINT('',(-50.,5.,-4.5));
#1619=CARTESIAN_POINT('',(-50.,5.,-4.5));
#1620=CARTESIAN_POINT('',(-50.,0.,-4.5));
#1621=CARTESIAN_POINT('Origin',(-50.,0.,-8.5));
#1622=CARTESIAN_POINT('',(-50.,5.,-8.5));
#1623=CARTESIAN_POINT('',(-50.,5.,-25.));
#1624=CARTESIAN_POINT('',(-50.,0.,-8.5));
#1625=CARTESIAN_POINT('Origin',(-47.5,0.,-8.5));
#1626=CARTESIAN_POINT('',(-47.5,5.,-8.5));
#1627=CARTESIAN_POINT('',(-47.5,5.,-8.5));
#1628=CARTESIAN_POINT('',(-47.5,0.,-8.5));
#1629=CARTESIAN_POINT('Origin',(-47.5,0.,-11.));
#1630=CARTESIAN_POINT('',(-47.5,5.,-11.));
#1631=CARTESIAN_POINT('',(-47.5,5.,-11.));
#1632=CARTESIAN_POINT('',(-47.5,0.,-11.));
#1633=CARTESIAN_POINT('Origin',(-50.,0.,-11.));
#1634=CARTESIAN_POINT('',(-50.,5.,-11.));
#1635=CARTESIAN_POINT('',(-50.,5.,-11.));
#1636=CARTESIAN_POINT('',(-50.,0.,-11.));
#1637=CARTESIAN_POINT('Origin',(-50.,0.,-15.));
#1638=CARTESIAN_POINT('',(-50.,5.,-15.));
#1639=CARTESIAN_POINT('',(-50.,5.,-25.));
#1640=CARTESIAN_POINT('',(-50.,0.,-15.));
#1641=CARTESIAN_POINT('Origin',(-47.5,0.,-15.));
#1642=CARTESIAN_POINT('',(-47.5,5.,-15.));
#1643=CARTESIAN_POINT('',(-47.5,5.,-15.));
#1644=CARTESIAN_POINT('',(-47.5,0.,-15.));
#1645=CARTESIAN_POINT('Origin',(-47.5,0.,-17.5));
#1646=CARTESIAN_POINT('',(-47.5,5.,-17.5));
#1647=CARTESIAN_POINT('',(-47.5,5.,-17.5));
#1648=CARTESIAN_POINT('',(-47.5,0.,-17.5));
#1649=CARTESIAN_POINT('Origin',(-50.,0.,-17.5));
#1650=CARTESIAN_POINT('',(-50.,5.,-17.5));
#1651=CARTESIAN_POINT('',(-50.,5.,-17.5));
#1652=CARTESIAN_POINT('',(-50.,0.,-17.5));
#1653=CARTESIAN_POINT('Origin',(-50.,0.,-21.5));
#1654=CARTESIAN_POINT('',(-50.,5.,-21.5));
#1655=CARTESIAN_POINT('',(-50.,5.,-25.));
#1656=CARTESIAN_POINT('',(-50.,0.,-21.5));
#1657=CARTESIAN_POINT('Origin',(-47.5,0.,-21.5));
#1658=CARTESIAN_POINT('',(-47.5,5.,-21.5));
#1659=CARTESIAN_POINT('',(-47.5,5.,-21.5));
#1660=CARTESIAN_POINT('',(-47.5,0.,-21.5));
#1661=CARTESIAN_POINT('Origin',(-47.5,0.,-25.));
#1662=CARTESIAN_POINT('',(-47.5,5.,-25.));
#1663=CARTESIAN_POINT('Origin',(0.,0.,-15.));
#1664=CARTESIAN_POINT('',(0.,5.,-15.));
#1665=CARTESIAN_POINT('Origin',(-10.,0.,25.));
#1666=CARTESIAN_POINT('',(-10.,5.,25.));
#1667=CARTESIAN_POINT('Origin',(-47.5,0.,21.5));
#1668=CARTESIAN_POINT('',(-47.5,5.,21.5));
#1669=CARTESIAN_POINT('',(-47.5,5.,21.5));
#1670=CARTESIAN_POINT('',(-47.5,0.,21.5));
#1671=CARTESIAN_POINT('Origin',(-50.,0.,21.5));
#1672=CARTESIAN_POINT('',(-50.,5.,21.5));
#1673=CARTESIAN_POINT('',(-50.,5.,21.5));
#1674=CARTESIAN_POINT('',(-50.,0.,21.5));
#1675=CARTESIAN_POINT('Origin',(-50.,0.,17.5));
#1676=CARTESIAN_POINT('',(-50.,5.,17.5));
#1677=CARTESIAN_POINT('',(-50.,5.,0.));
#1678=CARTESIAN_POINT('',(-50.,0.,17.5));
#1679=CARTESIAN_POINT('Origin',(-47.5,0.,17.5));
#1680=CARTESIAN_POINT('',(-47.5,5.,17.5));
#1681=CARTESIAN_POINT('',(-47.5,5.,17.5));
#1682=CARTESIAN_POINT('',(-47.5,0.,17.5));
#1683=CARTESIAN_POINT('Origin',(-47.5,0.,15.));
#1684=CARTESIAN_POINT('',(-47.5,5.,15.));
#1685=CARTESIAN_POINT('',(-47.5,5.,15.));
#1686=CARTESIAN_POINT('',(-47.5,0.,15.));
#1687=CARTESIAN_POINT('Origin',(-50.,0.,15.));
#1688=CARTESIAN_POINT('',(-50.,5.,15.));
#1689=CARTESIAN_POINT('',(-50.,5.,15.));
#1690=CARTESIAN_POINT('',(-50.,0.,15.));
#1691=CARTESIAN_POINT('Origin',(-50.,0.,11.));
#1692=CARTESIAN_POINT('',(-50.,5.,11.));
#1693=CARTESIAN_POINT('',(-50.,5.,0.));
#1694=CARTESIAN_POINT('',(-50.,0.,11.));
#1695=CARTESIAN_POINT('Origin',(-47.5,0.,11.));
#1696=CARTESIAN_POINT('',(-47.5,5.,11.));
#1697=CARTESIAN_POINT('',(-47.5,5.,11.));
#1698=CARTESIAN_POINT('',(-47.5,0.,11.));
#1699=CARTESIAN_POINT('Origin',(-47.5,0.,8.5));
#1700=CARTESIAN_POINT('',(-47.5,5.,8.5));
#1701=CARTESIAN_POINT('',(-47.5,5.,8.5));
#1702=CARTESIAN_POINT('',(-47.5,0.,8.5));
#1703=CARTESIAN_POINT('Origin',(-50.,0.,8.5));
#1704=CARTESIAN_POINT('',(-50.,5.,8.5));
#1705=CARTESIAN_POINT('',(-50.,5.,8.5));
#1706=CARTESIAN_POINT('',(-50.,0.,8.5));
#1707=CARTESIAN_POINT('Origin',(-50.,0.,4.5));
#1708=CARTESIAN_POINT('',(-50.,5.,4.5));
#1709=CARTESIAN_POINT('',(-50.,5.,0.));
#1710=CARTESIAN_POINT('',(-50.,0.,4.5));
#1711=CARTESIAN_POINT('Origin',(-47.5,0.,4.5));
#1712=CARTESIAN_POINT('',(-47.5,5.,4.5));
#1713=CARTESIAN_POINT('',(-47.5,5.,4.5));
#1714=CARTESIAN_POINT('',(-47.5,0.,4.5));
#1715=CARTESIAN_POINT('Origin',(-47.5,0.,2.));
#1716=CARTESIAN_POINT('',(-47.5,5.,2.));
#1717=CARTESIAN_POINT('',(-47.5,5.,2.));
#1718=CARTESIAN_POINT('',(-47.5,0.,2.));
#1719=CARTESIAN_POINT('Origin',(-50.,0.,2.));
#1720=CARTESIAN_POINT('',(-50.,5.,2.));
#1721=CARTESIAN_POINT('Origin',(-25.,5.,0.));
#1722=UNCERTAINTY_MEASURE_WITH_UNIT(LENGTH_MEASURE(0.01),#1726,
'DISTANCE_ACCURACY_VALUE',
'Maximum model space distance between geometric entities at asserted c
onnectivities');
#1723=UNCERTAINTY_MEASURE_WITH_UNIT(LENGTH_MEASURE(0.01),#1726,
'DISTANCE_ACCURACY_VALUE',
'Maximum model space distance between geometric entities at asserted c
onnectivities');
#1724=(
GEOMETRIC_REPRESENTATION_CONTEXT(3)
GLOBAL_UNCERTAINTY_ASSIGNED_CONTEXT((#1722))
GLOBAL_UNIT_ASSIGNED_CONTEXT((#1726,#1728,#1729))
REPRESENTATION_CONTEXT('','3D')
);
#1725=(
GEOMETRIC_REPRESENTATION_CONTEXT(3)
GLOBAL_UNCERTAINTY_ASSIGNED_CONTEXT((#1723))
GLOBAL_UNIT_ASSIGNED_CONTEXT((#1726,#1728,#1729))
REPRESENTATION_CONTEXT('','3D')
);
#1726=(
LENGTH_UNIT()
NAMED_UNIT(*)
SI_UNIT(.MILLI.,.METRE.)
);
#1727=(
LENGTH_UNIT()
NAMED_UNIT(*)
SI_UNIT(.CENTI.,.METRE.)
);
#1728=(
NAMED_UNIT(*)
PLANE_ANGLE_UNIT()
SI_UNIT($,.RADIAN.)
);
#1729=(
NAMED_UNIT(*)
SI_UNIT($,.STERADIAN.)
SOLID_ANGLE_UNIT()
);
#1730=SHAPE_DEFINITION_REPRESENTATION(#1731,#1732);
#1731=PRODUCT_DEFINITION_SHAPE('',$,#1734);
#1732=SHAPE_REPRESENTATION('',(#1074),#1724);
#1733=PRODUCT_DEFINITION_CONTEXT('part definition',#1738,'design');
#1734=PRODUCT_DEFINITION('Gutteil_V1','Gutteil_V1',#1735,#1733);
#1735=PRODUCT_DEFINITION_FORMATION('',$,#1740);
#1736=PRODUCT_RELATED_PRODUCT_CATEGORY('Gutteil_V1','Gutteil_V1',(#1740));
#1737=APPLICATION_PROTOCOL_DEFINITION('international standard',
'automotive_design',2009,#1738);
#1738=APPLICATION_CONTEXT(
'Core Data for Automotive Mechanical Design Process');
#1739=PRODUCT_CONTEXT('part definition',#1738,'mechanical');
#1740=PRODUCT('Gutteil_V1','Gutteil_V1',$,(#1739));
#1741=PRESENTATION_STYLE_ASSIGNMENT((#1742));
#1742=SURFACE_STYLE_USAGE(.BOTH.,#1745);
#1743=SURFACE_STYLE_RENDERING_WITH_PROPERTIES($,#1749,(#1744));
#1744=SURFACE_STYLE_TRANSPARENT(0.);
#1745=SURFACE_SIDE_STYLE('',(#1746,#1743));
#1746=SURFACE_STYLE_FILL_AREA(#1747);
#1747=FILL_AREA_STYLE('',(#1748));
#1748=FILL_AREA_STYLE_COLOUR('',#1749);
#1749=COLOUR_RGB('',0.698039215686274,0.698039215686274,0.698039215686274);
ENDSEC;
END-ISO-10303-21;
