ISO-10303-21;
HEADER;
/* Generated by software containing ST-Developer
 * from STEP Tools, Inc. (www.steptools.com) 
 */

FILE_DESCRIPTION(
/* description */ (''),
/* implementation_level */ '2;1');

FILE_NAME(
/* name */ 'Schlechtteil_2.stp',
/* time_stamp */ '2025-02-27T19:22:58+01:00',
/* author */ ('peter'),
/* organization */ (''),
/* preprocessor_version */ 'ST-DEVELOPER v20',
/* originating_system */ 'Autodesk Inventor 2025',
/* authorisation */ '');

FILE_SCHEMA (('AUTOMOTIVE_DESIGN { 1 0 10303 214 3 1 1 }'));
ENDSEC;

DATA;
#10=MECHANICAL_DESIGN_GEOMETRIC_PRESENTATION_REPRESENTATION('',(#13),#2356);
#11=SHAPE_REPRESENTATION_RELATIONSHIP('SRR','None',#2363,#12);
#12=ADVANCED_BREP_SHAPE_REPRESENTATION('',(#14),#2355);
#13=STYLED_ITEM('',(#2372),#14);
#14=MANIFOLD_SOLID_BREP('Solid2',#1447);
#15=CYLINDRICAL_SURFACE('',#1513,6.);
#16=CYLINDRICAL_SURFACE('',#1518,6.);
#17=CYLINDRICAL_SURFACE('',#1519,6.);
#18=CYLINDRICAL_SURFACE('',#1526,2.);
#19=CYLINDRICAL_SURFACE('',#1528,2.);
#20=CYLINDRICAL_SURFACE('',#1530,2.);
#21=CYLINDRICAL_SURFACE('',#1532,2.);
#22=CYLINDRICAL_SURFACE('',#1534,2.);
#23=CYLINDRICAL_SURFACE('',#1535,2.);
#24=CYLINDRICAL_SURFACE('',#1537,4.3);
#25=CYLINDRICAL_SURFACE('',#1538,2.);
#26=CYLINDRICAL_SURFACE('',#1539,4.3);
#27=CYLINDRICAL_SURFACE('',#1540,2.);
#28=CYLINDRICAL_SURFACE('',#1541,4.3);
#29=FACE_BOUND('',#143,.T.);
#30=FACE_BOUND('',#144,.T.);
#31=FACE_BOUND('',#145,.T.);
#32=FACE_BOUND('',#146,.T.);
#33=FACE_BOUND('',#147,.T.);
#34=FACE_BOUND('',#148,.T.);
#35=FACE_BOUND('',#160,.T.);
#36=FACE_BOUND('',#161,.T.);
#37=FACE_BOUND('',#162,.T.);
#38=FACE_BOUND('',#163,.T.);
#39=FACE_BOUND('',#164,.T.);
#40=FACE_BOUND('',#165,.T.);
#41=CIRCLE('',#1474,2.);
#42=CIRCLE('',#1475,2.);
#43=CIRCLE('',#1476,2.);
#44=CIRCLE('',#1477,2.);
#45=CIRCLE('',#1478,4.3);
#46=CIRCLE('',#1479,2.);
#47=CIRCLE('',#1480,4.3);
#48=CIRCLE('',#1481,2.);
#49=CIRCLE('',#1482,4.3);
#50=CIRCLE('',#1483,6.);
#51=CIRCLE('',#1484,6.);
#52=CIRCLE('',#1485,6.);
#53=CIRCLE('',#1486,2.);
#54=CIRCLE('',#1487,2.);
#55=CIRCLE('',#1499,2.);
#56=CIRCLE('',#1500,2.);
#57=CIRCLE('',#1501,2.);
#58=CIRCLE('',#1502,2.);
#59=CIRCLE('',#1503,4.3);
#60=CIRCLE('',#1504,2.);
#61=CIRCLE('',#1505,4.3);
#62=CIRCLE('',#1506,2.);
#63=CIRCLE('',#1507,4.3);
#64=CIRCLE('',#1508,2.);
#65=CIRCLE('',#1509,2.);
#66=CIRCLE('',#1510,6.);
#67=CIRCLE('',#1511,6.);
#68=CIRCLE('',#1512,6.);
#69=FACE_OUTER_BOUND('',#139,.T.);
#70=FACE_OUTER_BOUND('',#140,.T.);
#71=FACE_OUTER_BOUND('',#141,.T.);
#72=FACE_OUTER_BOUND('',#142,.T.);
#73=FACE_OUTER_BOUND('',#149,.T.);
#74=FACE_OUTER_BOUND('',#150,.T.);
#75=FACE_OUTER_BOUND('',#151,.T.);
#76=FACE_OUTER_BOUND('',#152,.T.);
#77=FACE_OUTER_BOUND('',#153,.T.);
#78=FACE_OUTER_BOUND('',#154,.T.);
#79=FACE_OUTER_BOUND('',#155,.T.);
#80=FACE_OUTER_BOUND('',#156,.T.);
#81=FACE_OUTER_BOUND('',#157,.T.);
#82=FACE_OUTER_BOUND('',#158,.T.);
#83=FACE_OUTER_BOUND('',#159,.T.);
#84=FACE_OUTER_BOUND('',#166,.T.);
#85=FACE_OUTER_BOUND('',#167,.T.);
#86=FACE_OUTER_BOUND('',#168,.T.);
#87=FACE_OUTER_BOUND('',#169,.T.);
#88=FACE_OUTER_BOUND('',#170,.T.);
#89=FACE_OUTER_BOUND('',#171,.T.);
#90=FACE_OUTER_BOUND('',#172,.T.);
#91=FACE_OUTER_BOUND('',#173,.T.);
#92=FACE_OUTER_BOUND('',#174,.T.);
#93=FACE_OUTER_BOUND('',#175,.T.);
#94=FACE_OUTER_BOUND('',#176,.T.);
#95=FACE_OUTER_BOUND('',#177,.T.);
#96=FACE_OUTER_BOUND('',#178,.T.);
#97=FACE_OUTER_BOUND('',#179,.T.);
#98=FACE_OUTER_BOUND('',#180,.T.);
#99=FACE_OUTER_BOUND('',#181,.T.);
#100=FACE_OUTER_BOUND('',#182,.T.);
#101=FACE_OUTER_BOUND('',#183,.T.);
#102=FACE_OUTER_BOUND('',#184,.T.);
#103=FACE_OUTER_BOUND('',#185,.T.);
#104=FACE_OUTER_BOUND('',#186,.T.);
#105=FACE_OUTER_BOUND('',#187,.T.);
#106=FACE_OUTER_BOUND('',#188,.T.);
#107=FACE_OUTER_BOUND('',#189,.T.);
#108=FACE_OUTER_BOUND('',#190,.T.);
#109=FACE_OUTER_BOUND('',#191,.T.);
#110=FACE_OUTER_BOUND('',#192,.T.);
#111=FACE_OUTER_BOUND('',#193,.T.);
#112=FACE_OUTER_BOUND('',#194,.T.);
#113=FACE_OUTER_BOUND('',#195,.T.);
#114=FACE_OUTER_BOUND('',#196,.T.);
#115=FACE_OUTER_BOUND('',#197,.T.);
#116=FACE_OUTER_BOUND('',#198,.T.);
#117=FACE_OUTER_BOUND('',#199,.T.);
#118=FACE_OUTER_BOUND('',#200,.T.);
#119=FACE_OUTER_BOUND('',#201,.T.);
#120=FACE_OUTER_BOUND('',#202,.T.);
#121=FACE_OUTER_BOUND('',#203,.T.);
#122=FACE_OUTER_BOUND('',#204,.T.);
#123=FACE_OUTER_BOUND('',#205,.T.);
#124=FACE_OUTER_BOUND('',#206,.T.);
#125=FACE_OUTER_BOUND('',#207,.T.);
#126=FACE_OUTER_BOUND('',#208,.T.);
#127=FACE_OUTER_BOUND('',#209,.T.);
#128=FACE_OUTER_BOUND('',#210,.T.);
#129=FACE_OUTER_BOUND('',#211,.T.);
#130=FACE_OUTER_BOUND('',#212,.T.);
#131=FACE_OUTER_BOUND('',#213,.T.);
#132=FACE_OUTER_BOUND('',#214,.T.);
#133=FACE_OUTER_BOUND('',#215,.T.);
#134=FACE_OUTER_BOUND('',#216,.T.);
#135=FACE_OUTER_BOUND('',#217,.T.);
#136=FACE_OUTER_BOUND('',#218,.T.);
#137=FACE_OUTER_BOUND('',#219,.T.);
#138=FACE_OUTER_BOUND('',#220,.T.);
#139=EDGE_LOOP('',(#913,#914,#915,#916));
#140=EDGE_LOOP('',(#917,#918,#919,#920));
#141=EDGE_LOOP('',(#921,#922,#923,#924));
#142=EDGE_LOOP('',(#925,#926,#927,#928,#929,#930,#931,#932,#933,#934,#935,
#936,#937,#938,#939,#940,#941,#942,#943,#944,#945,#946,#947,#948,#949,#950,
#951,#952,#953,#954,#955,#956,#957,#958,#959,#960,#961,#962,#963,#964,#965,
#966));
#143=EDGE_LOOP('',(#967));
#144=EDGE_LOOP('',(#968));
#145=EDGE_LOOP('',(#969));
#146=EDGE_LOOP('',(#970));
#147=EDGE_LOOP('',(#971));
#148=EDGE_LOOP('',(#972,#973,#974,#975,#976,#977,#978,#979,#980,#981,#982,
#983,#984,#985,#986,#987,#988,#989,#990,#991,#992));
#149=EDGE_LOOP('',(#993,#994,#995,#996));
#150=EDGE_LOOP('',(#997,#998,#999,#1000));
#151=EDGE_LOOP('',(#1001,#1002,#1003,#1004));
#152=EDGE_LOOP('',(#1005,#1006,#1007,#1008));
#153=EDGE_LOOP('',(#1009,#1010,#1011,#1012));
#154=EDGE_LOOP('',(#1013,#1014,#1015,#1016));
#155=EDGE_LOOP('',(#1017,#1018,#1019,#1020));
#156=EDGE_LOOP('',(#1021,#1022,#1023,#1024));
#157=EDGE_LOOP('',(#1025,#1026,#1027,#1028));
#158=EDGE_LOOP('',(#1029,#1030,#1031,#1032));
#159=EDGE_LOOP('',(#1033,#1034,#1035,#1036,#1037,#1038,#1039,#1040,#1041,
#1042,#1043,#1044,#1045,#1046,#1047,#1048,#1049,#1050,#1051,#1052,#1053,
#1054,#1055,#1056,#1057,#1058,#1059,#1060,#1061,#1062,#1063,#1064,#1065,
#1066,#1067,#1068,#1069,#1070,#1071,#1072,#1073,#1074));
#160=EDGE_LOOP('',(#1075));
#161=EDGE_LOOP('',(#1076));
#162=EDGE_LOOP('',(#1077));
#163=EDGE_LOOP('',(#1078));
#164=EDGE_LOOP('',(#1079));
#165=EDGE_LOOP('',(#1080,#1081,#1082,#1083,#1084,#1085,#1086,#1087,#1088,
#1089,#1090,#1091,#1092,#1093,#1094,#1095,#1096,#1097,#1098,#1099,#1100));
#166=EDGE_LOOP('',(#1101,#1102,#1103,#1104));
#167=EDGE_LOOP('',(#1105,#1106,#1107,#1108));
#168=EDGE_LOOP('',(#1109,#1110,#1111,#1112));
#169=EDGE_LOOP('',(#1113,#1114,#1115,#1116));
#170=EDGE_LOOP('',(#1117,#1118,#1119,#1120));
#171=EDGE_LOOP('',(#1121,#1122,#1123,#1124));
#172=EDGE_LOOP('',(#1125,#1126,#1127,#1128));
#173=EDGE_LOOP('',(#1129,#1130,#1131,#1132));
#174=EDGE_LOOP('',(#1133,#1134,#1135,#1136));
#175=EDGE_LOOP('',(#1137,#1138,#1139,#1140));
#176=EDGE_LOOP('',(#1141,#1142,#1143,#1144));
#177=EDGE_LOOP('',(#1145,#1146,#1147,#1148));
#178=EDGE_LOOP('',(#1149,#1150,#1151,#1152));
#179=EDGE_LOOP('',(#1153,#1154,#1155,#1156));
#180=EDGE_LOOP('',(#1157,#1158,#1159,#1160));
#181=EDGE_LOOP('',(#1161,#1162,#1163,#1164));
#182=EDGE_LOOP('',(#1165,#1166,#1167,#1168));
#183=EDGE_LOOP('',(#1169,#1170,#1171,#1172));
#184=EDGE_LOOP('',(#1173,#1174,#1175,#1176));
#185=EDGE_LOOP('',(#1177,#1178,#1179,#1180));
#186=EDGE_LOOP('',(#1181,#1182,#1183,#1184));
#187=EDGE_LOOP('',(#1185,#1186,#1187,#1188));
#188=EDGE_LOOP('',(#1189,#1190,#1191,#1192));
#189=EDGE_LOOP('',(#1193,#1194,#1195,#1196));
#190=EDGE_LOOP('',(#1197,#1198,#1199,#1200));
#191=EDGE_LOOP('',(#1201,#1202,#1203,#1204));
#192=EDGE_LOOP('',(#1205,#1206,#1207,#1208));
#193=EDGE_LOOP('',(#1209,#1210,#1211,#1212));
#194=EDGE_LOOP('',(#1213,#1214,#1215,#1216));
#195=EDGE_LOOP('',(#1217,#1218,#1219,#1220));
#196=EDGE_LOOP('',(#1221,#1222,#1223,#1224));
#197=EDGE_LOOP('',(#1225,#1226,#1227,#1228));
#198=EDGE_LOOP('',(#1229,#1230,#1231,#1232));
#199=EDGE_LOOP('',(#1233,#1234,#1235,#1236));
#200=EDGE_LOOP('',(#1237,#1238,#1239,#1240));
#201=EDGE_LOOP('',(#1241,#1242,#1243,#1244));
#202=EDGE_LOOP('',(#1245,#1246,#1247,#1248));
#203=EDGE_LOOP('',(#1249,#1250,#1251,#1252));
#204=EDGE_LOOP('',(#1253,#1254,#1255,#1256));
#205=EDGE_LOOP('',(#1257,#1258,#1259,#1260));
#206=EDGE_LOOP('',(#1261,#1262,#1263,#1264));
#207=EDGE_LOOP('',(#1265,#1266,#1267,#1268));
#208=EDGE_LOOP('',(#1269,#1270,#1271,#1272));
#209=EDGE_LOOP('',(#1273,#1274,#1275,#1276));
#210=EDGE_LOOP('',(#1277,#1278,#1279,#1280));
#211=EDGE_LOOP('',(#1281,#1282,#1283,#1284));
#212=EDGE_LOOP('',(#1285,#1286,#1287,#1288));
#213=EDGE_LOOP('',(#1289,#1290,#1291,#1292));
#214=EDGE_LOOP('',(#1293,#1294,#1295,#1296));
#215=EDGE_LOOP('',(#1297,#1298,#1299,#1300));
#216=EDGE_LOOP('',(#1301,#1302,#1303,#1304));
#217=EDGE_LOOP('',(#1305,#1306,#1307,#1308));
#218=EDGE_LOOP('',(#1309,#1310,#1311,#1312));
#219=EDGE_LOOP('',(#1313,#1314,#1315,#1316));
#220=EDGE_LOOP('',(#1317,#1318,#1319,#1320));
#221=LINE('',#1946,#397);
#222=LINE('',#1948,#398);
#223=LINE('',#1950,#399);
#224=LINE('',#1951,#400);
#225=LINE('',#1954,#401);
#226=LINE('',#1956,#402);
#227=LINE('',#1957,#403);
#228=LINE('',#1960,#404);
#229=LINE('',#1962,#405);
#230=LINE('',#1963,#406);
#231=LINE('',#1966,#407);
#232=LINE('',#1968,#408);
#233=LINE('',#1970,#409);
#234=LINE('',#1972,#410);
#235=LINE('',#1974,#411);
#236=LINE('',#1976,#412);
#237=LINE('',#1978,#413);
#238=LINE('',#1980,#414);
#239=LINE('',#1982,#415);
#240=LINE('',#1984,#416);
#241=LINE('',#1986,#417);
#242=LINE('',#1988,#418);
#243=LINE('',#1990,#419);
#244=LINE('',#1992,#420);
#245=LINE('',#1994,#421);
#246=LINE('',#1996,#422);
#247=LINE('',#1998,#423);
#248=LINE('',#2000,#424);
#249=LINE('',#2002,#425);
#250=LINE('',#2004,#426);
#251=LINE('',#2006,#427);
#252=LINE('',#2008,#428);
#253=LINE('',#2010,#429);
#254=LINE('',#2012,#430);
#255=LINE('',#2016,#431);
#256=LINE('',#2020,#432);
#257=LINE('',#2024,#433);
#258=LINE('',#2028,#434);
#259=LINE('',#2030,#435);
#260=LINE('',#2032,#436);
#261=LINE('',#2034,#437);
#262=LINE('',#2036,#438);
#263=LINE('',#2038,#439);
#264=LINE('',#2040,#440);
#265=LINE('',#2041,#441);
#266=LINE('',#2054,#442);
#267=LINE('',#2058,#443);
#268=LINE('',#2060,#444);
#269=LINE('',#2062,#445);
#270=LINE('',#2064,#446);
#271=LINE('',#2066,#447);
#272=LINE('',#2068,#448);
#273=LINE('',#2070,#449);
#274=LINE('',#2074,#450);
#275=LINE('',#2076,#451);
#276=LINE('',#2080,#452);
#277=LINE('',#2084,#453);
#278=LINE('',#2088,#454);
#279=LINE('',#2090,#455);
#280=LINE('',#2092,#456);
#281=LINE('',#2093,#457);
#282=LINE('',#2096,#458);
#283=LINE('',#2097,#459);
#284=LINE('',#2100,#460);
#285=LINE('',#2102,#461);
#286=LINE('',#2103,#462);
#287=LINE('',#2106,#463);
#288=LINE('',#2108,#464);
#289=LINE('',#2109,#465);
#290=LINE('',#2112,#466);
#291=LINE('',#2114,#467);
#292=LINE('',#2115,#468);
#293=LINE('',#2118,#469);
#294=LINE('',#2119,#470);
#295=LINE('',#2122,#471);
#296=LINE('',#2124,#472);
#297=LINE('',#2125,#473);
#298=LINE('',#2127,#474);
#299=LINE('',#2130,#475);
#300=LINE('',#2132,#476);
#301=LINE('',#2133,#477);
#302=LINE('',#2136,#478);
#303=LINE('',#2138,#479);
#304=LINE('',#2139,#480);
#305=LINE('',#2142,#481);
#306=LINE('',#2143,#482);
#307=LINE('',#2146,#483);
#308=LINE('',#2148,#484);
#309=LINE('',#2150,#485);
#310=LINE('',#2152,#486);
#311=LINE('',#2154,#487);
#312=LINE('',#2156,#488);
#313=LINE('',#2158,#489);
#314=LINE('',#2160,#490);
#315=LINE('',#2164,#491);
#316=LINE('',#2168,#492);
#317=LINE('',#2172,#493);
#318=LINE('',#2176,#494);
#319=LINE('',#2178,#495);
#320=LINE('',#2180,#496);
#321=LINE('',#2182,#497);
#322=LINE('',#2184,#498);
#323=LINE('',#2186,#499);
#324=LINE('',#2188,#500);
#325=LINE('',#2190,#501);
#326=LINE('',#2192,#502);
#327=LINE('',#2194,#503);
#328=LINE('',#2196,#504);
#329=LINE('',#2198,#505);
#330=LINE('',#2200,#506);
#331=LINE('',#2202,#507);
#332=LINE('',#2204,#508);
#333=LINE('',#2206,#509);
#334=LINE('',#2208,#510);
#335=LINE('',#2210,#511);
#336=LINE('',#2212,#512);
#337=LINE('',#2214,#513);
#338=LINE('',#2216,#514);
#339=LINE('',#2218,#515);
#340=LINE('',#2219,#516);
#341=LINE('',#2231,#517);
#342=LINE('',#2232,#518);
#343=LINE('',#2234,#519);
#344=LINE('',#2238,#520);
#345=LINE('',#2242,#521);
#346=LINE('',#2246,#522);
#347=LINE('',#2247,#523);
#348=LINE('',#2250,#524);
#349=LINE('',#2252,#525);
#350=LINE('',#2255,#526);
#351=LINE('',#2260,#527);
#352=LINE('',#2261,#528);
#353=LINE('',#2263,#529);
#354=LINE('',#2265,#530);
#355=LINE('',#2266,#531);
#356=LINE('',#2268,#532);
#357=LINE('',#2270,#533);
#358=LINE('',#2271,#534);
#359=LINE('',#2273,#535);
#360=LINE('',#2275,#536);
#361=LINE('',#2276,#537);
#362=LINE('',#2279,#538);
#363=LINE('',#2282,#539);
#364=LINE('',#2283,#540);
#365=LINE('',#2286,#541);
#366=LINE('',#2287,#542);
#367=LINE('',#2289,#543);
#368=LINE('',#2291,#544);
#369=LINE('',#2293,#545);
#370=LINE('',#2294,#546);
#371=LINE('',#2296,#547);
#372=LINE('',#2298,#548);
#373=LINE('',#2300,#549);
#374=LINE('',#2302,#550);
#375=LINE('',#2304,#551);
#376=LINE('',#2306,#552);
#377=LINE('',#2308,#553);
#378=LINE('',#2309,#554);
#379=LINE('',#2311,#555);
#380=LINE('',#2314,#556);
#381=LINE('',#2316,#557);
#382=LINE('',#2319,#558);
#383=LINE('',#2321,#559);
#384=LINE('',#2323,#560);
#385=LINE('',#2325,#561);
#386=LINE('',#2331,#562);
#387=LINE('',#2333,#563);
#388=LINE('',#2335,#564);
#389=LINE('',#2337,#565);
#390=LINE('',#2339,#566);
#391=LINE('',#2341,#567);
#392=LINE('',#2343,#568);
#393=LINE('',#2345,#569);
#394=LINE('',#2347,#570);
#395=LINE('',#2349,#571);
#396=LINE('',#2351,#572);
#397=VECTOR('',#1572,10.);
#398=VECTOR('',#1573,10.);
#399=VECTOR('',#1574,10.);
#400=VECTOR('',#1575,10.);
#401=VECTOR('',#1578,10.);
#402=VECTOR('',#1579,10.);
#403=VECTOR('',#1580,10.);
#404=VECTOR('',#1583,10.);
#405=VECTOR('',#1584,10.);
#406=VECTOR('',#1585,10.);
#407=VECTOR('',#1588,10.);
#408=VECTOR('',#1589,10.);
#409=VECTOR('',#1590,10.);
#410=VECTOR('',#1591,10.);
#411=VECTOR('',#1592,10.);
#412=VECTOR('',#1593,10.);
#413=VECTOR('',#1594,10.);
#414=VECTOR('',#1595,10.);
#415=VECTOR('',#1596,10.);
#416=VECTOR('',#1597,10.);
#417=VECTOR('',#1598,10.);
#418=VECTOR('',#1599,10.);
#419=VECTOR('',#1600,10.);
#420=VECTOR('',#1601,10.);
#421=VECTOR('',#1602,10.);
#422=VECTOR('',#1603,10.);
#423=VECTOR('',#1604,10.);
#424=VECTOR('',#1605,10.);
#425=VECTOR('',#1606,10.);
#426=VECTOR('',#1607,10.);
#427=VECTOR('',#1608,10.);
#428=VECTOR('',#1609,10.);
#429=VECTOR('',#1610,10.);
#430=VECTOR('',#1611,10.);
#431=VECTOR('',#1614,10.);
#432=VECTOR('',#1617,10.);
#433=VECTOR('',#1620,10.);
#434=VECTOR('',#1623,10.);
#435=VECTOR('',#1624,10.);
#436=VECTOR('',#1625,10.);
#437=VECTOR('',#1626,10.);
#438=VECTOR('',#1627,10.);
#439=VECTOR('',#1628,10.);
#440=VECTOR('',#1629,10.);
#441=VECTOR('',#1630,10.);
#442=VECTOR('',#1641,10.);
#443=VECTOR('',#1644,10.);
#444=VECTOR('',#1645,10.);
#445=VECTOR('',#1646,10.);
#446=VECTOR('',#1647,10.);
#447=VECTOR('',#1648,10.);
#448=VECTOR('',#1649,10.);
#449=VECTOR('',#1650,10.);
#450=VECTOR('',#1653,10.);
#451=VECTOR('',#1654,10.);
#452=VECTOR('',#1657,10.);
#453=VECTOR('',#1660,10.);
#454=VECTOR('',#1663,10.);
#455=VECTOR('',#1664,10.);
#456=VECTOR('',#1665,10.);
#457=VECTOR('',#1666,10.);
#458=VECTOR('',#1669,10.);
#459=VECTOR('',#1670,10.);
#460=VECTOR('',#1673,10.);
#461=VECTOR('',#1674,10.);
#462=VECTOR('',#1675,10.);
#463=VECTOR('',#1678,10.);
#464=VECTOR('',#1679,10.);
#465=VECTOR('',#1680,10.);
#466=VECTOR('',#1683,10.);
#467=VECTOR('',#1684,10.);
#468=VECTOR('',#1685,10.);
#469=VECTOR('',#1688,10.);
#470=VECTOR('',#1689,10.);
#471=VECTOR('',#1692,10.);
#472=VECTOR('',#1693,10.);
#473=VECTOR('',#1694,10.);
#474=VECTOR('',#1697,10.);
#475=VECTOR('',#1700,10.);
#476=VECTOR('',#1701,10.);
#477=VECTOR('',#1702,10.);
#478=VECTOR('',#1705,10.);
#479=VECTOR('',#1706,10.);
#480=VECTOR('',#1707,10.);
#481=VECTOR('',#1710,10.);
#482=VECTOR('',#1711,10.);
#483=VECTOR('',#1714,10.);
#484=VECTOR('',#1715,10.);
#485=VECTOR('',#1716,10.);
#486=VECTOR('',#1717,10.);
#487=VECTOR('',#1718,10.);
#488=VECTOR('',#1719,10.);
#489=VECTOR('',#1720,10.);
#490=VECTOR('',#1721,10.);
#491=VECTOR('',#1724,10.);
#492=VECTOR('',#1727,10.);
#493=VECTOR('',#1730,10.);
#494=VECTOR('',#1733,10.);
#495=VECTOR('',#1734,10.);
#496=VECTOR('',#1735,10.);
#497=VECTOR('',#1736,10.);
#498=VECTOR('',#1737,10.);
#499=VECTOR('',#1738,10.);
#500=VECTOR('',#1739,10.);
#501=VECTOR('',#1740,10.);
#502=VECTOR('',#1741,10.);
#503=VECTOR('',#1742,10.);
#504=VECTOR('',#1743,10.);
#505=VECTOR('',#1744,10.);
#506=VECTOR('',#1745,10.);
#507=VECTOR('',#1746,10.);
#508=VECTOR('',#1747,10.);
#509=VECTOR('',#1748,10.);
#510=VECTOR('',#1749,10.);
#511=VECTOR('',#1750,10.);
#512=VECTOR('',#1751,10.);
#513=VECTOR('',#1752,10.);
#514=VECTOR('',#1753,10.);
#515=VECTOR('',#1754,10.);
#516=VECTOR('',#1755,10.);
#517=VECTOR('',#1766,10.);
#518=VECTOR('',#1767,10.);
#519=VECTOR('',#1768,10.);
#520=VECTOR('',#1771,10.);
#521=VECTOR('',#1774,10.);
#522=VECTOR('',#1779,10.);
#523=VECTOR('',#1780,10.);
#524=VECTOR('',#1785,10.);
#525=VECTOR('',#1788,10.);
#526=VECTOR('',#1793,10.);
#527=VECTOR('',#1802,10.);
#528=VECTOR('',#1803,10.);
#529=VECTOR('',#1806,10.);
#530=VECTOR('',#1809,10.);
#531=VECTOR('',#1810,10.);
#532=VECTOR('',#1813,10.);
#533=VECTOR('',#1816,10.);
#534=VECTOR('',#1817,10.);
#535=VECTOR('',#1820,10.);
#536=VECTOR('',#1823,10.);
#537=VECTOR('',#1824,10.);
#538=VECTOR('',#1829,10.);
#539=VECTOR('',#1834,10.);
#540=VECTOR('',#1835,10.);
#541=VECTOR('',#1840,10.);
#542=VECTOR('',#1841,10.);
#543=VECTOR('',#1844,10.);
#544=VECTOR('',#1847,10.);
#545=VECTOR('',#1850,10.);
#546=VECTOR('',#1851,10.);
#547=VECTOR('',#1854,10.);
#548=VECTOR('',#1857,4.3);
#549=VECTOR('',#1860,2.);
#550=VECTOR('',#1863,4.3);
#551=VECTOR('',#1866,2.);
#552=VECTOR('',#1869,4.3);
#553=VECTOR('',#1872,10.);
#554=VECTOR('',#1873,10.);
#555=VECTOR('',#1876,10.);
#556=VECTOR('',#1881,10.);
#557=VECTOR('',#1884,10.);
#558=VECTOR('',#1889,10.);
#559=VECTOR('',#1892,10.);
#560=VECTOR('',#1895,10.);
#561=VECTOR('',#1898,10.);
#562=VECTOR('',#1909,10.);
#563=VECTOR('',#1912,10.);
#564=VECTOR('',#1915,10.);
#565=VECTOR('',#1918,10.);
#566=VECTOR('',#1921,10.);
#567=VECTOR('',#1924,10.);
#568=VECTOR('',#1927,10.);
#569=VECTOR('',#1930,10.);
#570=VECTOR('',#1933,10.);
#571=VECTOR('',#1936,10.);
#572=VECTOR('',#1939,10.);
#573=VERTEX_POINT('',#1944);
#574=VERTEX_POINT('',#1945);
#575=VERTEX_POINT('',#1947);
#576=VERTEX_POINT('',#1949);
#577=VERTEX_POINT('',#1953);
#578=VERTEX_POINT('',#1955);
#579=VERTEX_POINT('',#1959);
#580=VERTEX_POINT('',#1961);
#581=VERTEX_POINT('',#1965);
#582=VERTEX_POINT('',#1967);
#583=VERTEX_POINT('',#1969);
#584=VERTEX_POINT('',#1971);
#585=VERTEX_POINT('',#1973);
#586=VERTEX_POINT('',#1975);
#587=VERTEX_POINT('',#1977);
#588=VERTEX_POINT('',#1979);
#589=VERTEX_POINT('',#1981);
#590=VERTEX_POINT('',#1983);
#591=VERTEX_POINT('',#1985);
#592=VERTEX_POINT('',#1987);
#593=VERTEX_POINT('',#1989);
#594=VERTEX_POINT('',#1991);
#595=VERTEX_POINT('',#1993);
#596=VERTEX_POINT('',#1995);
#597=VERTEX_POINT('',#1997);
#598=VERTEX_POINT('',#1999);
#599=VERTEX_POINT('',#2001);
#600=VERTEX_POINT('',#2003);
#601=VERTEX_POINT('',#2005);
#602=VERTEX_POINT('',#2007);
#603=VERTEX_POINT('',#2009);
#604=VERTEX_POINT('',#2011);
#605=VERTEX_POINT('',#2013);
#606=VERTEX_POINT('',#2015);
#607=VERTEX_POINT('',#2017);
#608=VERTEX_POINT('',#2019);
#609=VERTEX_POINT('',#2021);
#610=VERTEX_POINT('',#2023);
#611=VERTEX_POINT('',#2025);
#612=VERTEX_POINT('',#2027);
#613=VERTEX_POINT('',#2029);
#614=VERTEX_POINT('',#2031);
#615=VERTEX_POINT('',#2033);
#616=VERTEX_POINT('',#2035);
#617=VERTEX_POINT('',#2037);
#618=VERTEX_POINT('',#2039);
#619=VERTEX_POINT('',#2042);
#620=VERTEX_POINT('',#2044);
#621=VERTEX_POINT('',#2046);
#622=VERTEX_POINT('',#2048);
#623=VERTEX_POINT('',#2050);
#624=VERTEX_POINT('',#2052);
#625=VERTEX_POINT('',#2053);
#626=VERTEX_POINT('',#2055);
#627=VERTEX_POINT('',#2057);
#628=VERTEX_POINT('',#2059);
#629=VERTEX_POINT('',#2061);
#630=VERTEX_POINT('',#2063);
#631=VERTEX_POINT('',#2065);
#632=VERTEX_POINT('',#2067);
#633=VERTEX_POINT('',#2069);
#634=VERTEX_POINT('',#2071);
#635=VERTEX_POINT('',#2073);
#636=VERTEX_POINT('',#2075);
#637=VERTEX_POINT('',#2077);
#638=VERTEX_POINT('',#2079);
#639=VERTEX_POINT('',#2081);
#640=VERTEX_POINT('',#2083);
#641=VERTEX_POINT('',#2085);
#642=VERTEX_POINT('',#2087);
#643=VERTEX_POINT('',#2089);
#644=VERTEX_POINT('',#2091);
#645=VERTEX_POINT('',#2095);
#646=VERTEX_POINT('',#2099);
#647=VERTEX_POINT('',#2101);
#648=VERTEX_POINT('',#2105);
#649=VERTEX_POINT('',#2107);
#650=VERTEX_POINT('',#2111);
#651=VERTEX_POINT('',#2113);
#652=VERTEX_POINT('',#2117);
#653=VERTEX_POINT('',#2121);
#654=VERTEX_POINT('',#2123);
#655=VERTEX_POINT('',#2129);
#656=VERTEX_POINT('',#2131);
#657=VERTEX_POINT('',#2135);
#658=VERTEX_POINT('',#2137);
#659=VERTEX_POINT('',#2141);
#660=VERTEX_POINT('',#2145);
#661=VERTEX_POINT('',#2147);
#662=VERTEX_POINT('',#2149);
#663=VERTEX_POINT('',#2151);
#664=VERTEX_POINT('',#2153);
#665=VERTEX_POINT('',#2155);
#666=VERTEX_POINT('',#2157);
#667=VERTEX_POINT('',#2159);
#668=VERTEX_POINT('',#2161);
#669=VERTEX_POINT('',#2163);
#670=VERTEX_POINT('',#2165);
#671=VERTEX_POINT('',#2167);
#672=VERTEX_POINT('',#2169);
#673=VERTEX_POINT('',#2171);
#674=VERTEX_POINT('',#2173);
#675=VERTEX_POINT('',#2175);
#676=VERTEX_POINT('',#2177);
#677=VERTEX_POINT('',#2179);
#678=VERTEX_POINT('',#2181);
#679=VERTEX_POINT('',#2183);
#680=VERTEX_POINT('',#2185);
#681=VERTEX_POINT('',#2187);
#682=VERTEX_POINT('',#2189);
#683=VERTEX_POINT('',#2191);
#684=VERTEX_POINT('',#2193);
#685=VERTEX_POINT('',#2195);
#686=VERTEX_POINT('',#2197);
#687=VERTEX_POINT('',#2199);
#688=VERTEX_POINT('',#2201);
#689=VERTEX_POINT('',#2203);
#690=VERTEX_POINT('',#2205);
#691=VERTEX_POINT('',#2207);
#692=VERTEX_POINT('',#2209);
#693=VERTEX_POINT('',#2211);
#694=VERTEX_POINT('',#2213);
#695=VERTEX_POINT('',#2215);
#696=VERTEX_POINT('',#2217);
#697=VERTEX_POINT('',#2220);
#698=VERTEX_POINT('',#2222);
#699=VERTEX_POINT('',#2224);
#700=VERTEX_POINT('',#2226);
#701=VERTEX_POINT('',#2228);
#702=VERTEX_POINT('',#2230);
#703=VERTEX_POINT('',#2233);
#704=VERTEX_POINT('',#2235);
#705=VERTEX_POINT('',#2237);
#706=VERTEX_POINT('',#2239);
#707=VERTEX_POINT('',#2241);
#708=VERTEX_POINT('',#2245);
#709=EDGE_CURVE('',#573,#574,#221,.T.);
#710=EDGE_CURVE('',#575,#573,#222,.T.);
#711=EDGE_CURVE('',#576,#575,#223,.T.);
#712=EDGE_CURVE('',#576,#574,#224,.T.);
#713=EDGE_CURVE('',#574,#577,#225,.T.);
#714=EDGE_CURVE('',#578,#576,#226,.T.);
#715=EDGE_CURVE('',#577,#578,#227,.T.);
#716=EDGE_CURVE('',#579,#573,#228,.T.);
#717=EDGE_CURVE('',#580,#579,#229,.T.);
#718=EDGE_CURVE('',#575,#580,#230,.T.);
#719=EDGE_CURVE('',#577,#581,#231,.T.);
#720=EDGE_CURVE('',#581,#582,#232,.T.);
#721=EDGE_CURVE('',#582,#583,#233,.T.);
#722=EDGE_CURVE('',#583,#584,#234,.T.);
#723=EDGE_CURVE('',#585,#584,#235,.T.);
#724=EDGE_CURVE('',#585,#586,#236,.T.);
#725=EDGE_CURVE('',#586,#587,#237,.T.);
#726=EDGE_CURVE('',#587,#588,#238,.T.);
#727=EDGE_CURVE('',#588,#589,#239,.T.);
#728=EDGE_CURVE('',#589,#590,#240,.T.);
#729=EDGE_CURVE('',#590,#591,#241,.T.);
#730=EDGE_CURVE('',#591,#592,#242,.T.);
#731=EDGE_CURVE('',#592,#593,#243,.T.);
#732=EDGE_CURVE('',#593,#594,#244,.T.);
#733=EDGE_CURVE('',#594,#595,#245,.T.);
#734=EDGE_CURVE('',#595,#596,#246,.T.);
#735=EDGE_CURVE('',#596,#597,#247,.T.);
#736=EDGE_CURVE('',#597,#598,#248,.T.);
#737=EDGE_CURVE('',#598,#599,#249,.T.);
#738=EDGE_CURVE('',#599,#600,#250,.T.);
#739=EDGE_CURVE('',#600,#601,#251,.T.);
#740=EDGE_CURVE('',#602,#601,#252,.T.);
#741=EDGE_CURVE('',#602,#603,#253,.T.);
#742=EDGE_CURVE('',#603,#604,#254,.T.);
#743=EDGE_CURVE('',#605,#604,#41,.T.);
#744=EDGE_CURVE('',#605,#606,#255,.T.);
#745=EDGE_CURVE('',#607,#606,#42,.T.);
#746=EDGE_CURVE('',#607,#608,#256,.T.);
#747=EDGE_CURVE('',#609,#608,#43,.T.);
#748=EDGE_CURVE('',#609,#610,#257,.T.);
#749=EDGE_CURVE('',#611,#610,#44,.T.);
#750=EDGE_CURVE('',#611,#612,#258,.T.);
#751=EDGE_CURVE('',#613,#612,#259,.T.);
#752=EDGE_CURVE('',#613,#614,#260,.T.);
#753=EDGE_CURVE('',#614,#615,#261,.T.);
#754=EDGE_CURVE('',#615,#616,#262,.T.);
#755=EDGE_CURVE('',#616,#617,#263,.T.);
#756=EDGE_CURVE('',#617,#618,#264,.T.);
#757=EDGE_CURVE('',#618,#579,#265,.T.);
#758=EDGE_CURVE('',#619,#619,#45,.T.);
#759=EDGE_CURVE('',#620,#620,#46,.T.);
#760=EDGE_CURVE('',#621,#621,#47,.T.);
#761=EDGE_CURVE('',#622,#622,#48,.T.);
#762=EDGE_CURVE('',#623,#623,#49,.T.);
#763=EDGE_CURVE('',#624,#625,#266,.T.);
#764=EDGE_CURVE('',#626,#625,#50,.T.);
#765=EDGE_CURVE('',#626,#627,#267,.T.);
#766=EDGE_CURVE('',#627,#628,#268,.T.);
#767=EDGE_CURVE('',#628,#629,#269,.T.);
#768=EDGE_CURVE('',#629,#630,#270,.T.);
#769=EDGE_CURVE('',#631,#630,#271,.T.);
#770=EDGE_CURVE('',#631,#632,#272,.T.);
#771=EDGE_CURVE('',#632,#633,#273,.T.);
#772=EDGE_CURVE('',#634,#633,#51,.T.);
#773=EDGE_CURVE('',#634,#635,#274,.T.);
#774=EDGE_CURVE('',#635,#636,#275,.T.);
#775=EDGE_CURVE('',#637,#636,#52,.T.);
#776=EDGE_CURVE('',#637,#638,#276,.T.);
#777=EDGE_CURVE('',#639,#638,#53,.T.);
#778=EDGE_CURVE('',#639,#640,#277,.T.);
#779=EDGE_CURVE('',#641,#640,#54,.T.);
#780=EDGE_CURVE('',#641,#642,#278,.T.);
#781=EDGE_CURVE('',#642,#643,#279,.T.);
#782=EDGE_CURVE('',#643,#644,#280,.T.);
#783=EDGE_CURVE('',#644,#624,#281,.T.);
#784=EDGE_CURVE('',#578,#645,#282,.T.);
#785=EDGE_CURVE('',#645,#581,#283,.T.);
#786=EDGE_CURVE('',#646,#624,#284,.T.);
#787=EDGE_CURVE('',#647,#646,#285,.T.);
#788=EDGE_CURVE('',#625,#647,#286,.T.);
#789=EDGE_CURVE('',#648,#632,#287,.T.);
#790=EDGE_CURVE('',#649,#648,#288,.T.);
#791=EDGE_CURVE('',#633,#649,#289,.T.);
#792=EDGE_CURVE('',#650,#626,#290,.T.);
#793=EDGE_CURVE('',#651,#650,#291,.T.);
#794=EDGE_CURVE('',#651,#627,#292,.T.);
#795=EDGE_CURVE('',#652,#651,#293,.T.);
#796=EDGE_CURVE('',#628,#652,#294,.T.);
#797=EDGE_CURVE('',#653,#629,#295,.T.);
#798=EDGE_CURVE('',#654,#653,#296,.T.);
#799=EDGE_CURVE('',#630,#654,#297,.T.);
#800=EDGE_CURVE('',#653,#652,#298,.T.);
#801=EDGE_CURVE('',#642,#655,#299,.T.);
#802=EDGE_CURVE('',#656,#655,#300,.T.);
#803=EDGE_CURVE('',#656,#643,#301,.T.);
#804=EDGE_CURVE('',#657,#635,#302,.T.);
#805=EDGE_CURVE('',#658,#657,#303,.T.);
#806=EDGE_CURVE('',#636,#658,#304,.T.);
#807=EDGE_CURVE('',#659,#634,#305,.T.);
#808=EDGE_CURVE('',#657,#659,#306,.T.);
#809=EDGE_CURVE('',#660,#580,#307,.T.);
#810=EDGE_CURVE('',#661,#660,#308,.T.);
#811=EDGE_CURVE('',#662,#661,#309,.T.);
#812=EDGE_CURVE('',#663,#662,#310,.T.);
#813=EDGE_CURVE('',#664,#663,#311,.T.);
#814=EDGE_CURVE('',#665,#664,#312,.T.);
#815=EDGE_CURVE('',#666,#665,#313,.T.);
#816=EDGE_CURVE('',#667,#666,#314,.T.);
#817=EDGE_CURVE('',#668,#667,#55,.T.);
#818=EDGE_CURVE('',#669,#668,#315,.T.);
#819=EDGE_CURVE('',#670,#669,#56,.T.);
#820=EDGE_CURVE('',#671,#670,#316,.T.);
#821=EDGE_CURVE('',#672,#671,#57,.T.);
#822=EDGE_CURVE('',#673,#672,#317,.T.);
#823=EDGE_CURVE('',#674,#673,#58,.T.);
#824=EDGE_CURVE('',#675,#674,#318,.T.);
#825=EDGE_CURVE('',#676,#675,#319,.T.);
#826=EDGE_CURVE('',#677,#676,#320,.T.);
#827=EDGE_CURVE('',#678,#677,#321,.T.);
#828=EDGE_CURVE('',#679,#678,#322,.T.);
#829=EDGE_CURVE('',#680,#679,#323,.T.);
#830=EDGE_CURVE('',#681,#680,#324,.T.);
#831=EDGE_CURVE('',#682,#681,#325,.T.);
#832=EDGE_CURVE('',#683,#682,#326,.T.);
#833=EDGE_CURVE('',#684,#683,#327,.T.);
#834=EDGE_CURVE('',#685,#684,#328,.T.);
#835=EDGE_CURVE('',#686,#685,#329,.T.);
#836=EDGE_CURVE('',#687,#686,#330,.T.);
#837=EDGE_CURVE('',#688,#687,#331,.T.);
#838=EDGE_CURVE('',#689,#688,#332,.T.);
#839=EDGE_CURVE('',#690,#689,#333,.T.);
#840=EDGE_CURVE('',#691,#690,#334,.T.);
#841=EDGE_CURVE('',#692,#691,#335,.T.);
#842=EDGE_CURVE('',#693,#692,#336,.T.);
#843=EDGE_CURVE('',#694,#693,#337,.T.);
#844=EDGE_CURVE('',#695,#694,#338,.T.);
#845=EDGE_CURVE('',#696,#695,#339,.T.);
#846=EDGE_CURVE('',#645,#696,#340,.T.);
#847=EDGE_CURVE('',#697,#697,#59,.T.);
#848=EDGE_CURVE('',#698,#698,#60,.T.);
#849=EDGE_CURVE('',#699,#699,#61,.T.);
#850=EDGE_CURVE('',#700,#700,#62,.T.);
#851=EDGE_CURVE('',#701,#701,#63,.T.);
#852=EDGE_CURVE('',#646,#702,#341,.T.);
#853=EDGE_CURVE('',#702,#656,#342,.T.);
#854=EDGE_CURVE('',#703,#655,#343,.T.);
#855=EDGE_CURVE('',#704,#703,#64,.T.);
#856=EDGE_CURVE('',#705,#704,#344,.T.);
#857=EDGE_CURVE('',#706,#705,#65,.T.);
#858=EDGE_CURVE('',#707,#706,#345,.T.);
#859=EDGE_CURVE('',#658,#707,#66,.T.);
#860=EDGE_CURVE('',#649,#659,#67,.T.);
#861=EDGE_CURVE('',#648,#708,#346,.T.);
#862=EDGE_CURVE('',#708,#654,#347,.T.);
#863=EDGE_CURVE('',#647,#650,#68,.T.);
#864=EDGE_CURVE('',#707,#637,#348,.T.);
#865=EDGE_CURVE('',#702,#644,#349,.T.);
#866=EDGE_CURVE('',#708,#631,#350,.T.);
#867=EDGE_CURVE('',#584,#694,#351,.T.);
#868=EDGE_CURVE('',#693,#585,#352,.T.);
#869=EDGE_CURVE('',#692,#586,#353,.T.);
#870=EDGE_CURVE('',#612,#666,#354,.T.);
#871=EDGE_CURVE('',#665,#613,#355,.T.);
#872=EDGE_CURVE('',#664,#614,#356,.T.);
#873=EDGE_CURVE('',#601,#677,#357,.T.);
#874=EDGE_CURVE('',#676,#602,#358,.T.);
#875=EDGE_CURVE('',#638,#706,#359,.T.);
#876=EDGE_CURVE('',#703,#641,#360,.T.);
#877=EDGE_CURVE('',#640,#704,#361,.T.);
#878=EDGE_CURVE('',#705,#639,#362,.T.);
#879=EDGE_CURVE('',#610,#668,#363,.T.);
#880=EDGE_CURVE('',#667,#611,#364,.T.);
#881=EDGE_CURVE('',#608,#670,#365,.T.);
#882=EDGE_CURVE('',#669,#609,#366,.T.);
#883=EDGE_CURVE('',#671,#607,#367,.T.);
#884=EDGE_CURVE('',#606,#672,#368,.T.);
#885=EDGE_CURVE('',#604,#674,#369,.T.);
#886=EDGE_CURVE('',#673,#605,#370,.T.);
#887=EDGE_CURVE('',#675,#603,#371,.T.);
#888=EDGE_CURVE('',#619,#701,#372,.T.);
#889=EDGE_CURVE('',#620,#700,#373,.T.);
#890=EDGE_CURVE('',#621,#699,#374,.T.);
#891=EDGE_CURVE('',#622,#698,#375,.T.);
#892=EDGE_CURVE('',#623,#697,#376,.T.);
#893=EDGE_CURVE('',#689,#589,#377,.T.);
#894=EDGE_CURVE('',#690,#588,#378,.T.);
#895=EDGE_CURVE('',#691,#587,#379,.T.);
#896=EDGE_CURVE('',#695,#583,#380,.T.);
#897=EDGE_CURVE('',#696,#582,#381,.T.);
#898=EDGE_CURVE('',#660,#618,#382,.T.);
#899=EDGE_CURVE('',#661,#617,#383,.T.);
#900=EDGE_CURVE('',#662,#616,#384,.T.);
#901=EDGE_CURVE('',#663,#615,#385,.T.);
#902=EDGE_CURVE('',#678,#600,#386,.T.);
#903=EDGE_CURVE('',#679,#599,#387,.T.);
#904=EDGE_CURVE('',#680,#598,#388,.T.);
#905=EDGE_CURVE('',#681,#597,#389,.T.);
#906=EDGE_CURVE('',#682,#596,#390,.T.);
#907=EDGE_CURVE('',#683,#595,#391,.T.);
#908=EDGE_CURVE('',#684,#594,#392,.T.);
#909=EDGE_CURVE('',#685,#593,#393,.T.);
#910=EDGE_CURVE('',#686,#592,#394,.T.);
#911=EDGE_CURVE('',#687,#591,#395,.T.);
#912=EDGE_CURVE('',#688,#590,#396,.T.);
#913=ORIENTED_EDGE('',*,*,#709,.F.);
#914=ORIENTED_EDGE('',*,*,#710,.F.);
#915=ORIENTED_EDGE('',*,*,#711,.F.);
#916=ORIENTED_EDGE('',*,*,#712,.T.);
#917=ORIENTED_EDGE('',*,*,#713,.F.);
#918=ORIENTED_EDGE('',*,*,#712,.F.);
#919=ORIENTED_EDGE('',*,*,#714,.F.);
#920=ORIENTED_EDGE('',*,*,#715,.F.);
#921=ORIENTED_EDGE('',*,*,#716,.F.);
#922=ORIENTED_EDGE('',*,*,#717,.F.);
#923=ORIENTED_EDGE('',*,*,#718,.F.);
#924=ORIENTED_EDGE('',*,*,#710,.T.);
#925=ORIENTED_EDGE('',*,*,#716,.T.);
#926=ORIENTED_EDGE('',*,*,#709,.T.);
#927=ORIENTED_EDGE('',*,*,#713,.T.);
#928=ORIENTED_EDGE('',*,*,#719,.T.);
#929=ORIENTED_EDGE('',*,*,#720,.T.);
#930=ORIENTED_EDGE('',*,*,#721,.T.);
#931=ORIENTED_EDGE('',*,*,#722,.T.);
#932=ORIENTED_EDGE('',*,*,#723,.F.);
#933=ORIENTED_EDGE('',*,*,#724,.T.);
#934=ORIENTED_EDGE('',*,*,#725,.T.);
#935=ORIENTED_EDGE('',*,*,#726,.T.);
#936=ORIENTED_EDGE('',*,*,#727,.T.);
#937=ORIENTED_EDGE('',*,*,#728,.T.);
#938=ORIENTED_EDGE('',*,*,#729,.T.);
#939=ORIENTED_EDGE('',*,*,#730,.T.);
#940=ORIENTED_EDGE('',*,*,#731,.T.);
#941=ORIENTED_EDGE('',*,*,#732,.T.);
#942=ORIENTED_EDGE('',*,*,#733,.T.);
#943=ORIENTED_EDGE('',*,*,#734,.T.);
#944=ORIENTED_EDGE('',*,*,#735,.T.);
#945=ORIENTED_EDGE('',*,*,#736,.T.);
#946=ORIENTED_EDGE('',*,*,#737,.T.);
#947=ORIENTED_EDGE('',*,*,#738,.T.);
#948=ORIENTED_EDGE('',*,*,#739,.T.);
#949=ORIENTED_EDGE('',*,*,#740,.F.);
#950=ORIENTED_EDGE('',*,*,#741,.T.);
#951=ORIENTED_EDGE('',*,*,#742,.T.);
#952=ORIENTED_EDGE('',*,*,#743,.F.);
#953=ORIENTED_EDGE('',*,*,#744,.T.);
#954=ORIENTED_EDGE('',*,*,#745,.F.);
#955=ORIENTED_EDGE('',*,*,#746,.T.);
#956=ORIENTED_EDGE('',*,*,#747,.F.);
#957=ORIENTED_EDGE('',*,*,#748,.T.);
#958=ORIENTED_EDGE('',*,*,#749,.F.);
#959=ORIENTED_EDGE('',*,*,#750,.T.);
#960=ORIENTED_EDGE('',*,*,#751,.F.);
#961=ORIENTED_EDGE('',*,*,#752,.T.);
#962=ORIENTED_EDGE('',*,*,#753,.T.);
#963=ORIENTED_EDGE('',*,*,#754,.T.);
#964=ORIENTED_EDGE('',*,*,#755,.T.);
#965=ORIENTED_EDGE('',*,*,#756,.T.);
#966=ORIENTED_EDGE('',*,*,#757,.T.);
#967=ORIENTED_EDGE('',*,*,#758,.T.);
#968=ORIENTED_EDGE('',*,*,#759,.T.);
#969=ORIENTED_EDGE('',*,*,#760,.T.);
#970=ORIENTED_EDGE('',*,*,#761,.T.);
#971=ORIENTED_EDGE('',*,*,#762,.T.);
#972=ORIENTED_EDGE('',*,*,#763,.T.);
#973=ORIENTED_EDGE('',*,*,#764,.F.);
#974=ORIENTED_EDGE('',*,*,#765,.T.);
#975=ORIENTED_EDGE('',*,*,#766,.T.);
#976=ORIENTED_EDGE('',*,*,#767,.T.);
#977=ORIENTED_EDGE('',*,*,#768,.T.);
#978=ORIENTED_EDGE('',*,*,#769,.F.);
#979=ORIENTED_EDGE('',*,*,#770,.T.);
#980=ORIENTED_EDGE('',*,*,#771,.T.);
#981=ORIENTED_EDGE('',*,*,#772,.F.);
#982=ORIENTED_EDGE('',*,*,#773,.T.);
#983=ORIENTED_EDGE('',*,*,#774,.T.);
#984=ORIENTED_EDGE('',*,*,#775,.F.);
#985=ORIENTED_EDGE('',*,*,#776,.T.);
#986=ORIENTED_EDGE('',*,*,#777,.F.);
#987=ORIENTED_EDGE('',*,*,#778,.T.);
#988=ORIENTED_EDGE('',*,*,#779,.F.);
#989=ORIENTED_EDGE('',*,*,#780,.T.);
#990=ORIENTED_EDGE('',*,*,#781,.T.);
#991=ORIENTED_EDGE('',*,*,#782,.T.);
#992=ORIENTED_EDGE('',*,*,#783,.T.);
#993=ORIENTED_EDGE('',*,*,#715,.T.);
#994=ORIENTED_EDGE('',*,*,#784,.T.);
#995=ORIENTED_EDGE('',*,*,#785,.T.);
#996=ORIENTED_EDGE('',*,*,#719,.F.);
#997=ORIENTED_EDGE('',*,*,#763,.F.);
#998=ORIENTED_EDGE('',*,*,#786,.F.);
#999=ORIENTED_EDGE('',*,*,#787,.F.);
#1000=ORIENTED_EDGE('',*,*,#788,.F.);
#1001=ORIENTED_EDGE('',*,*,#771,.F.);
#1002=ORIENTED_EDGE('',*,*,#789,.F.);
#1003=ORIENTED_EDGE('',*,*,#790,.F.);
#1004=ORIENTED_EDGE('',*,*,#791,.F.);
#1005=ORIENTED_EDGE('',*,*,#765,.F.);
#1006=ORIENTED_EDGE('',*,*,#792,.F.);
#1007=ORIENTED_EDGE('',*,*,#793,.F.);
#1008=ORIENTED_EDGE('',*,*,#794,.T.);
#1009=ORIENTED_EDGE('',*,*,#766,.F.);
#1010=ORIENTED_EDGE('',*,*,#794,.F.);
#1011=ORIENTED_EDGE('',*,*,#795,.F.);
#1012=ORIENTED_EDGE('',*,*,#796,.F.);
#1013=ORIENTED_EDGE('',*,*,#768,.F.);
#1014=ORIENTED_EDGE('',*,*,#797,.F.);
#1015=ORIENTED_EDGE('',*,*,#798,.F.);
#1016=ORIENTED_EDGE('',*,*,#799,.F.);
#1017=ORIENTED_EDGE('',*,*,#767,.F.);
#1018=ORIENTED_EDGE('',*,*,#796,.T.);
#1019=ORIENTED_EDGE('',*,*,#800,.F.);
#1020=ORIENTED_EDGE('',*,*,#797,.T.);
#1021=ORIENTED_EDGE('',*,*,#781,.F.);
#1022=ORIENTED_EDGE('',*,*,#801,.T.);
#1023=ORIENTED_EDGE('',*,*,#802,.F.);
#1024=ORIENTED_EDGE('',*,*,#803,.T.);
#1025=ORIENTED_EDGE('',*,*,#774,.F.);
#1026=ORIENTED_EDGE('',*,*,#804,.F.);
#1027=ORIENTED_EDGE('',*,*,#805,.F.);
#1028=ORIENTED_EDGE('',*,*,#806,.F.);
#1029=ORIENTED_EDGE('',*,*,#773,.F.);
#1030=ORIENTED_EDGE('',*,*,#807,.F.);
#1031=ORIENTED_EDGE('',*,*,#808,.F.);
#1032=ORIENTED_EDGE('',*,*,#804,.T.);
#1033=ORIENTED_EDGE('',*,*,#718,.T.);
#1034=ORIENTED_EDGE('',*,*,#809,.F.);
#1035=ORIENTED_EDGE('',*,*,#810,.F.);
#1036=ORIENTED_EDGE('',*,*,#811,.F.);
#1037=ORIENTED_EDGE('',*,*,#812,.F.);
#1038=ORIENTED_EDGE('',*,*,#813,.F.);
#1039=ORIENTED_EDGE('',*,*,#814,.F.);
#1040=ORIENTED_EDGE('',*,*,#815,.F.);
#1041=ORIENTED_EDGE('',*,*,#816,.F.);
#1042=ORIENTED_EDGE('',*,*,#817,.F.);
#1043=ORIENTED_EDGE('',*,*,#818,.F.);
#1044=ORIENTED_EDGE('',*,*,#819,.F.);
#1045=ORIENTED_EDGE('',*,*,#820,.F.);
#1046=ORIENTED_EDGE('',*,*,#821,.F.);
#1047=ORIENTED_EDGE('',*,*,#822,.F.);
#1048=ORIENTED_EDGE('',*,*,#823,.F.);
#1049=ORIENTED_EDGE('',*,*,#824,.F.);
#1050=ORIENTED_EDGE('',*,*,#825,.F.);
#1051=ORIENTED_EDGE('',*,*,#826,.F.);
#1052=ORIENTED_EDGE('',*,*,#827,.F.);
#1053=ORIENTED_EDGE('',*,*,#828,.F.);
#1054=ORIENTED_EDGE('',*,*,#829,.F.);
#1055=ORIENTED_EDGE('',*,*,#830,.F.);
#1056=ORIENTED_EDGE('',*,*,#831,.F.);
#1057=ORIENTED_EDGE('',*,*,#832,.F.);
#1058=ORIENTED_EDGE('',*,*,#833,.F.);
#1059=ORIENTED_EDGE('',*,*,#834,.F.);
#1060=ORIENTED_EDGE('',*,*,#835,.F.);
#1061=ORIENTED_EDGE('',*,*,#836,.F.);
#1062=ORIENTED_EDGE('',*,*,#837,.F.);
#1063=ORIENTED_EDGE('',*,*,#838,.F.);
#1064=ORIENTED_EDGE('',*,*,#839,.F.);
#1065=ORIENTED_EDGE('',*,*,#840,.F.);
#1066=ORIENTED_EDGE('',*,*,#841,.F.);
#1067=ORIENTED_EDGE('',*,*,#842,.F.);
#1068=ORIENTED_EDGE('',*,*,#843,.F.);
#1069=ORIENTED_EDGE('',*,*,#844,.F.);
#1070=ORIENTED_EDGE('',*,*,#845,.F.);
#1071=ORIENTED_EDGE('',*,*,#846,.F.);
#1072=ORIENTED_EDGE('',*,*,#784,.F.);
#1073=ORIENTED_EDGE('',*,*,#714,.T.);
#1074=ORIENTED_EDGE('',*,*,#711,.T.);
#1075=ORIENTED_EDGE('',*,*,#847,.F.);
#1076=ORIENTED_EDGE('',*,*,#848,.F.);
#1077=ORIENTED_EDGE('',*,*,#849,.F.);
#1078=ORIENTED_EDGE('',*,*,#850,.F.);
#1079=ORIENTED_EDGE('',*,*,#851,.F.);
#1080=ORIENTED_EDGE('',*,*,#787,.T.);
#1081=ORIENTED_EDGE('',*,*,#852,.T.);
#1082=ORIENTED_EDGE('',*,*,#853,.T.);
#1083=ORIENTED_EDGE('',*,*,#802,.T.);
#1084=ORIENTED_EDGE('',*,*,#854,.F.);
#1085=ORIENTED_EDGE('',*,*,#855,.F.);
#1086=ORIENTED_EDGE('',*,*,#856,.F.);
#1087=ORIENTED_EDGE('',*,*,#857,.F.);
#1088=ORIENTED_EDGE('',*,*,#858,.F.);
#1089=ORIENTED_EDGE('',*,*,#859,.F.);
#1090=ORIENTED_EDGE('',*,*,#805,.T.);
#1091=ORIENTED_EDGE('',*,*,#808,.T.);
#1092=ORIENTED_EDGE('',*,*,#860,.F.);
#1093=ORIENTED_EDGE('',*,*,#790,.T.);
#1094=ORIENTED_EDGE('',*,*,#861,.T.);
#1095=ORIENTED_EDGE('',*,*,#862,.T.);
#1096=ORIENTED_EDGE('',*,*,#798,.T.);
#1097=ORIENTED_EDGE('',*,*,#800,.T.);
#1098=ORIENTED_EDGE('',*,*,#795,.T.);
#1099=ORIENTED_EDGE('',*,*,#793,.T.);
#1100=ORIENTED_EDGE('',*,*,#863,.F.);
#1101=ORIENTED_EDGE('',*,*,#806,.T.);
#1102=ORIENTED_EDGE('',*,*,#859,.T.);
#1103=ORIENTED_EDGE('',*,*,#864,.T.);
#1104=ORIENTED_EDGE('',*,*,#775,.T.);
#1105=ORIENTED_EDGE('',*,*,#783,.F.);
#1106=ORIENTED_EDGE('',*,*,#865,.F.);
#1107=ORIENTED_EDGE('',*,*,#852,.F.);
#1108=ORIENTED_EDGE('',*,*,#786,.T.);
#1109=ORIENTED_EDGE('',*,*,#782,.F.);
#1110=ORIENTED_EDGE('',*,*,#803,.F.);
#1111=ORIENTED_EDGE('',*,*,#853,.F.);
#1112=ORIENTED_EDGE('',*,*,#865,.T.);
#1113=ORIENTED_EDGE('',*,*,#770,.F.);
#1114=ORIENTED_EDGE('',*,*,#866,.F.);
#1115=ORIENTED_EDGE('',*,*,#861,.F.);
#1116=ORIENTED_EDGE('',*,*,#789,.T.);
#1117=ORIENTED_EDGE('',*,*,#769,.T.);
#1118=ORIENTED_EDGE('',*,*,#799,.T.);
#1119=ORIENTED_EDGE('',*,*,#862,.F.);
#1120=ORIENTED_EDGE('',*,*,#866,.T.);
#1121=ORIENTED_EDGE('',*,*,#791,.T.);
#1122=ORIENTED_EDGE('',*,*,#860,.T.);
#1123=ORIENTED_EDGE('',*,*,#807,.T.);
#1124=ORIENTED_EDGE('',*,*,#772,.T.);
#1125=ORIENTED_EDGE('',*,*,#788,.T.);
#1126=ORIENTED_EDGE('',*,*,#863,.T.);
#1127=ORIENTED_EDGE('',*,*,#792,.T.);
#1128=ORIENTED_EDGE('',*,*,#764,.T.);
#1129=ORIENTED_EDGE('',*,*,#723,.T.);
#1130=ORIENTED_EDGE('',*,*,#867,.T.);
#1131=ORIENTED_EDGE('',*,*,#843,.T.);
#1132=ORIENTED_EDGE('',*,*,#868,.T.);
#1133=ORIENTED_EDGE('',*,*,#868,.F.);
#1134=ORIENTED_EDGE('',*,*,#842,.T.);
#1135=ORIENTED_EDGE('',*,*,#869,.T.);
#1136=ORIENTED_EDGE('',*,*,#724,.F.);
#1137=ORIENTED_EDGE('',*,*,#751,.T.);
#1138=ORIENTED_EDGE('',*,*,#870,.T.);
#1139=ORIENTED_EDGE('',*,*,#815,.T.);
#1140=ORIENTED_EDGE('',*,*,#871,.T.);
#1141=ORIENTED_EDGE('',*,*,#871,.F.);
#1142=ORIENTED_EDGE('',*,*,#814,.T.);
#1143=ORIENTED_EDGE('',*,*,#872,.T.);
#1144=ORIENTED_EDGE('',*,*,#752,.F.);
#1145=ORIENTED_EDGE('',*,*,#740,.T.);
#1146=ORIENTED_EDGE('',*,*,#873,.T.);
#1147=ORIENTED_EDGE('',*,*,#826,.T.);
#1148=ORIENTED_EDGE('',*,*,#874,.T.);
#1149=ORIENTED_EDGE('',*,*,#864,.F.);
#1150=ORIENTED_EDGE('',*,*,#858,.T.);
#1151=ORIENTED_EDGE('',*,*,#875,.F.);
#1152=ORIENTED_EDGE('',*,*,#776,.F.);
#1153=ORIENTED_EDGE('',*,*,#855,.T.);
#1154=ORIENTED_EDGE('',*,*,#876,.T.);
#1155=ORIENTED_EDGE('',*,*,#779,.T.);
#1156=ORIENTED_EDGE('',*,*,#877,.T.);
#1157=ORIENTED_EDGE('',*,*,#801,.F.);
#1158=ORIENTED_EDGE('',*,*,#780,.F.);
#1159=ORIENTED_EDGE('',*,*,#876,.F.);
#1160=ORIENTED_EDGE('',*,*,#854,.T.);
#1161=ORIENTED_EDGE('',*,*,#857,.T.);
#1162=ORIENTED_EDGE('',*,*,#878,.T.);
#1163=ORIENTED_EDGE('',*,*,#777,.T.);
#1164=ORIENTED_EDGE('',*,*,#875,.T.);
#1165=ORIENTED_EDGE('',*,*,#877,.F.);
#1166=ORIENTED_EDGE('',*,*,#778,.F.);
#1167=ORIENTED_EDGE('',*,*,#878,.F.);
#1168=ORIENTED_EDGE('',*,*,#856,.T.);
#1169=ORIENTED_EDGE('',*,*,#749,.T.);
#1170=ORIENTED_EDGE('',*,*,#879,.T.);
#1171=ORIENTED_EDGE('',*,*,#817,.T.);
#1172=ORIENTED_EDGE('',*,*,#880,.T.);
#1173=ORIENTED_EDGE('',*,*,#870,.F.);
#1174=ORIENTED_EDGE('',*,*,#750,.F.);
#1175=ORIENTED_EDGE('',*,*,#880,.F.);
#1176=ORIENTED_EDGE('',*,*,#816,.T.);
#1177=ORIENTED_EDGE('',*,*,#747,.T.);
#1178=ORIENTED_EDGE('',*,*,#881,.T.);
#1179=ORIENTED_EDGE('',*,*,#819,.T.);
#1180=ORIENTED_EDGE('',*,*,#882,.T.);
#1181=ORIENTED_EDGE('',*,*,#881,.F.);
#1182=ORIENTED_EDGE('',*,*,#746,.F.);
#1183=ORIENTED_EDGE('',*,*,#883,.F.);
#1184=ORIENTED_EDGE('',*,*,#820,.T.);
#1185=ORIENTED_EDGE('',*,*,#745,.T.);
#1186=ORIENTED_EDGE('',*,*,#884,.T.);
#1187=ORIENTED_EDGE('',*,*,#821,.T.);
#1188=ORIENTED_EDGE('',*,*,#883,.T.);
#1189=ORIENTED_EDGE('',*,*,#743,.T.);
#1190=ORIENTED_EDGE('',*,*,#885,.T.);
#1191=ORIENTED_EDGE('',*,*,#823,.T.);
#1192=ORIENTED_EDGE('',*,*,#886,.T.);
#1193=ORIENTED_EDGE('',*,*,#885,.F.);
#1194=ORIENTED_EDGE('',*,*,#742,.F.);
#1195=ORIENTED_EDGE('',*,*,#887,.F.);
#1196=ORIENTED_EDGE('',*,*,#824,.T.);
#1197=ORIENTED_EDGE('',*,*,#758,.F.);
#1198=ORIENTED_EDGE('',*,*,#888,.T.);
#1199=ORIENTED_EDGE('',*,*,#851,.T.);
#1200=ORIENTED_EDGE('',*,*,#888,.F.);
#1201=ORIENTED_EDGE('',*,*,#759,.F.);
#1202=ORIENTED_EDGE('',*,*,#889,.T.);
#1203=ORIENTED_EDGE('',*,*,#850,.T.);
#1204=ORIENTED_EDGE('',*,*,#889,.F.);
#1205=ORIENTED_EDGE('',*,*,#760,.F.);
#1206=ORIENTED_EDGE('',*,*,#890,.T.);
#1207=ORIENTED_EDGE('',*,*,#849,.T.);
#1208=ORIENTED_EDGE('',*,*,#890,.F.);
#1209=ORIENTED_EDGE('',*,*,#761,.F.);
#1210=ORIENTED_EDGE('',*,*,#891,.T.);
#1211=ORIENTED_EDGE('',*,*,#848,.T.);
#1212=ORIENTED_EDGE('',*,*,#891,.F.);
#1213=ORIENTED_EDGE('',*,*,#762,.F.);
#1214=ORIENTED_EDGE('',*,*,#892,.T.);
#1215=ORIENTED_EDGE('',*,*,#847,.T.);
#1216=ORIENTED_EDGE('',*,*,#892,.F.);
#1217=ORIENTED_EDGE('',*,*,#839,.T.);
#1218=ORIENTED_EDGE('',*,*,#893,.T.);
#1219=ORIENTED_EDGE('',*,*,#727,.F.);
#1220=ORIENTED_EDGE('',*,*,#894,.F.);
#1221=ORIENTED_EDGE('',*,*,#840,.T.);
#1222=ORIENTED_EDGE('',*,*,#894,.T.);
#1223=ORIENTED_EDGE('',*,*,#726,.F.);
#1224=ORIENTED_EDGE('',*,*,#895,.F.);
#1225=ORIENTED_EDGE('',*,*,#841,.T.);
#1226=ORIENTED_EDGE('',*,*,#895,.T.);
#1227=ORIENTED_EDGE('',*,*,#725,.F.);
#1228=ORIENTED_EDGE('',*,*,#869,.F.);
#1229=ORIENTED_EDGE('',*,*,#867,.F.);
#1230=ORIENTED_EDGE('',*,*,#722,.F.);
#1231=ORIENTED_EDGE('',*,*,#896,.F.);
#1232=ORIENTED_EDGE('',*,*,#844,.T.);
#1233=ORIENTED_EDGE('',*,*,#845,.T.);
#1234=ORIENTED_EDGE('',*,*,#896,.T.);
#1235=ORIENTED_EDGE('',*,*,#721,.F.);
#1236=ORIENTED_EDGE('',*,*,#897,.F.);
#1237=ORIENTED_EDGE('',*,*,#846,.T.);
#1238=ORIENTED_EDGE('',*,*,#897,.T.);
#1239=ORIENTED_EDGE('',*,*,#720,.F.);
#1240=ORIENTED_EDGE('',*,*,#785,.F.);
#1241=ORIENTED_EDGE('',*,*,#809,.T.);
#1242=ORIENTED_EDGE('',*,*,#717,.T.);
#1243=ORIENTED_EDGE('',*,*,#757,.F.);
#1244=ORIENTED_EDGE('',*,*,#898,.F.);
#1245=ORIENTED_EDGE('',*,*,#810,.T.);
#1246=ORIENTED_EDGE('',*,*,#898,.T.);
#1247=ORIENTED_EDGE('',*,*,#756,.F.);
#1248=ORIENTED_EDGE('',*,*,#899,.F.);
#1249=ORIENTED_EDGE('',*,*,#811,.T.);
#1250=ORIENTED_EDGE('',*,*,#899,.T.);
#1251=ORIENTED_EDGE('',*,*,#755,.F.);
#1252=ORIENTED_EDGE('',*,*,#900,.F.);
#1253=ORIENTED_EDGE('',*,*,#812,.T.);
#1254=ORIENTED_EDGE('',*,*,#900,.T.);
#1255=ORIENTED_EDGE('',*,*,#754,.F.);
#1256=ORIENTED_EDGE('',*,*,#901,.F.);
#1257=ORIENTED_EDGE('',*,*,#813,.T.);
#1258=ORIENTED_EDGE('',*,*,#901,.T.);
#1259=ORIENTED_EDGE('',*,*,#753,.F.);
#1260=ORIENTED_EDGE('',*,*,#872,.F.);
#1261=ORIENTED_EDGE('',*,*,#879,.F.);
#1262=ORIENTED_EDGE('',*,*,#748,.F.);
#1263=ORIENTED_EDGE('',*,*,#882,.F.);
#1264=ORIENTED_EDGE('',*,*,#818,.T.);
#1265=ORIENTED_EDGE('',*,*,#884,.F.);
#1266=ORIENTED_EDGE('',*,*,#744,.F.);
#1267=ORIENTED_EDGE('',*,*,#886,.F.);
#1268=ORIENTED_EDGE('',*,*,#822,.T.);
#1269=ORIENTED_EDGE('',*,*,#825,.T.);
#1270=ORIENTED_EDGE('',*,*,#887,.T.);
#1271=ORIENTED_EDGE('',*,*,#741,.F.);
#1272=ORIENTED_EDGE('',*,*,#874,.F.);
#1273=ORIENTED_EDGE('',*,*,#873,.F.);
#1274=ORIENTED_EDGE('',*,*,#739,.F.);
#1275=ORIENTED_EDGE('',*,*,#902,.F.);
#1276=ORIENTED_EDGE('',*,*,#827,.T.);
#1277=ORIENTED_EDGE('',*,*,#828,.T.);
#1278=ORIENTED_EDGE('',*,*,#902,.T.);
#1279=ORIENTED_EDGE('',*,*,#738,.F.);
#1280=ORIENTED_EDGE('',*,*,#903,.F.);
#1281=ORIENTED_EDGE('',*,*,#829,.T.);
#1282=ORIENTED_EDGE('',*,*,#903,.T.);
#1283=ORIENTED_EDGE('',*,*,#737,.F.);
#1284=ORIENTED_EDGE('',*,*,#904,.F.);
#1285=ORIENTED_EDGE('',*,*,#830,.T.);
#1286=ORIENTED_EDGE('',*,*,#904,.T.);
#1287=ORIENTED_EDGE('',*,*,#736,.F.);
#1288=ORIENTED_EDGE('',*,*,#905,.F.);
#1289=ORIENTED_EDGE('',*,*,#831,.T.);
#1290=ORIENTED_EDGE('',*,*,#905,.T.);
#1291=ORIENTED_EDGE('',*,*,#735,.F.);
#1292=ORIENTED_EDGE('',*,*,#906,.F.);
#1293=ORIENTED_EDGE('',*,*,#832,.T.);
#1294=ORIENTED_EDGE('',*,*,#906,.T.);
#1295=ORIENTED_EDGE('',*,*,#734,.F.);
#1296=ORIENTED_EDGE('',*,*,#907,.F.);
#1297=ORIENTED_EDGE('',*,*,#833,.T.);
#1298=ORIENTED_EDGE('',*,*,#907,.T.);
#1299=ORIENTED_EDGE('',*,*,#733,.F.);
#1300=ORIENTED_EDGE('',*,*,#908,.F.);
#1301=ORIENTED_EDGE('',*,*,#834,.T.);
#1302=ORIENTED_EDGE('',*,*,#908,.T.);
#1303=ORIENTED_EDGE('',*,*,#732,.F.);
#1304=ORIENTED_EDGE('',*,*,#909,.F.);
#1305=ORIENTED_EDGE('',*,*,#835,.T.);
#1306=ORIENTED_EDGE('',*,*,#909,.T.);
#1307=ORIENTED_EDGE('',*,*,#731,.F.);
#1308=ORIENTED_EDGE('',*,*,#910,.F.);
#1309=ORIENTED_EDGE('',*,*,#836,.T.);
#1310=ORIENTED_EDGE('',*,*,#910,.T.);
#1311=ORIENTED_EDGE('',*,*,#730,.F.);
#1312=ORIENTED_EDGE('',*,*,#911,.F.);
#1313=ORIENTED_EDGE('',*,*,#837,.T.);
#1314=ORIENTED_EDGE('',*,*,#911,.T.);
#1315=ORIENTED_EDGE('',*,*,#729,.F.);
#1316=ORIENTED_EDGE('',*,*,#912,.F.);
#1317=ORIENTED_EDGE('',*,*,#838,.T.);
#1318=ORIENTED_EDGE('',*,*,#912,.T.);
#1319=ORIENTED_EDGE('',*,*,#728,.F.);
#1320=ORIENTED_EDGE('',*,*,#893,.F.);
#1321=PLANE('',#1470);
#1322=PLANE('',#1471);
#1323=PLANE('',#1472);
#1324=PLANE('',#1473);
#1325=PLANE('',#1488);
#1326=PLANE('',#1489);
#1327=PLANE('',#1490);
#1328=PLANE('',#1491);
#1329=PLANE('',#1492);
#1330=PLANE('',#1493);
#1331=PLANE('',#1494);
#1332=PLANE('',#1495);
#1333=PLANE('',#1496);
#1334=PLANE('',#1497);
#1335=PLANE('',#1498);
#1336=PLANE('',#1514);
#1337=PLANE('',#1515);
#1338=PLANE('',#1516);
#1339=PLANE('',#1517);
#1340=PLANE('',#1520);
#1341=PLANE('',#1521);
#1342=PLANE('',#1522);
#1343=PLANE('',#1523);
#1344=PLANE('',#1524);
#1345=PLANE('',#1525);
#1346=PLANE('',#1527);
#1347=PLANE('',#1529);
#1348=PLANE('',#1531);
#1349=PLANE('',#1533);
#1350=PLANE('',#1536);
#1351=PLANE('',#1542);
#1352=PLANE('',#1543);
#1353=PLANE('',#1544);
#1354=PLANE('',#1545);
#1355=PLANE('',#1546);
#1356=PLANE('',#1547);
#1357=PLANE('',#1548);
#1358=PLANE('',#1549);
#1359=PLANE('',#1550);
#1360=PLANE('',#1551);
#1361=PLANE('',#1552);
#1362=PLANE('',#1553);
#1363=PLANE('',#1554);
#1364=PLANE('',#1555);
#1365=PLANE('',#1556);
#1366=PLANE('',#1557);
#1367=PLANE('',#1558);
#1368=PLANE('',#1559);
#1369=PLANE('',#1560);
#1370=PLANE('',#1561);
#1371=PLANE('',#1562);
#1372=PLANE('',#1563);
#1373=PLANE('',#1564);
#1374=PLANE('',#1565);
#1375=PLANE('',#1566);
#1376=PLANE('',#1567);
#1377=ADVANCED_FACE('',(#69),#1321,.F.);
#1378=ADVANCED_FACE('',(#70),#1322,.F.);
#1379=ADVANCED_FACE('',(#71),#1323,.F.);
#1380=ADVANCED_FACE('',(#72,#29,#30,#31,#32,#33,#34),#1324,.T.);
#1381=ADVANCED_FACE('',(#73),#1325,.T.);
#1382=ADVANCED_FACE('',(#74),#1326,.F.);
#1383=ADVANCED_FACE('',(#75),#1327,.F.);
#1384=ADVANCED_FACE('',(#76),#1328,.F.);
#1385=ADVANCED_FACE('',(#77),#1329,.F.);
#1386=ADVANCED_FACE('',(#78),#1330,.F.);
#1387=ADVANCED_FACE('',(#79),#1331,.F.);
#1388=ADVANCED_FACE('',(#80),#1332,.F.);
#1389=ADVANCED_FACE('',(#81),#1333,.F.);
#1390=ADVANCED_FACE('',(#82),#1334,.F.);
#1391=ADVANCED_FACE('',(#83,#35,#36,#37,#38,#39,#40),#1335,.F.);
#1392=ADVANCED_FACE('',(#84),#15,.F.);
#1393=ADVANCED_FACE('',(#85),#1336,.T.);
#1394=ADVANCED_FACE('',(#86),#1337,.T.);
#1395=ADVANCED_FACE('',(#87),#1338,.T.);
#1396=ADVANCED_FACE('',(#88),#1339,.T.);
#1397=ADVANCED_FACE('',(#89),#16,.F.);
#1398=ADVANCED_FACE('',(#90),#17,.F.);
#1399=ADVANCED_FACE('',(#91),#1340,.T.);
#1400=ADVANCED_FACE('',(#92),#1341,.T.);
#1401=ADVANCED_FACE('',(#93),#1342,.T.);
#1402=ADVANCED_FACE('',(#94),#1343,.T.);
#1403=ADVANCED_FACE('',(#95),#1344,.T.);
#1404=ADVANCED_FACE('',(#96),#1345,.T.);
#1405=ADVANCED_FACE('',(#97),#18,.F.);
#1406=ADVANCED_FACE('',(#98),#1346,.T.);
#1407=ADVANCED_FACE('',(#99),#19,.F.);
#1408=ADVANCED_FACE('',(#100),#1347,.T.);
#1409=ADVANCED_FACE('',(#101),#20,.T.);
#1410=ADVANCED_FACE('',(#102),#1348,.T.);
#1411=ADVANCED_FACE('',(#103),#21,.T.);
#1412=ADVANCED_FACE('',(#104),#1349,.T.);
#1413=ADVANCED_FACE('',(#105),#22,.T.);
#1414=ADVANCED_FACE('',(#106),#23,.T.);
#1415=ADVANCED_FACE('',(#107),#1350,.T.);
#1416=ADVANCED_FACE('',(#108),#24,.F.);
#1417=ADVANCED_FACE('',(#109),#25,.F.);
#1418=ADVANCED_FACE('',(#110),#26,.F.);
#1419=ADVANCED_FACE('',(#111),#27,.F.);
#1420=ADVANCED_FACE('',(#112),#28,.F.);
#1421=ADVANCED_FACE('',(#113),#1351,.T.);
#1422=ADVANCED_FACE('',(#114),#1352,.T.);
#1423=ADVANCED_FACE('',(#115),#1353,.T.);
#1424=ADVANCED_FACE('',(#116),#1354,.T.);
#1425=ADVANCED_FACE('',(#117),#1355,.T.);
#1426=ADVANCED_FACE('',(#118),#1356,.T.);
#1427=ADVANCED_FACE('',(#119),#1357,.T.);
#1428=ADVANCED_FACE('',(#120),#1358,.T.);
#1429=ADVANCED_FACE('',(#121),#1359,.T.);
#1430=ADVANCED_FACE('',(#122),#1360,.T.);
#1431=ADVANCED_FACE('',(#123),#1361,.T.);
#1432=ADVANCED_FACE('',(#124),#1362,.T.);
#1433=ADVANCED_FACE('',(#125),#1363,.T.);
#1434=ADVANCED_FACE('',(#126),#1364,.T.);
#1435=ADVANCED_FACE('',(#127),#1365,.T.);
#1436=ADVANCED_FACE('',(#128),#1366,.T.);
#1437=ADVANCED_FACE('',(#129),#1367,.T.);
#1438=ADVANCED_FACE('',(#130),#1368,.T.);
#1439=ADVANCED_FACE('',(#131),#1369,.T.);
#1440=ADVANCED_FACE('',(#132),#1370,.T.);
#1441=ADVANCED_FACE('',(#133),#1371,.T.);
#1442=ADVANCED_FACE('',(#134),#1372,.T.);
#1443=ADVANCED_FACE('',(#135),#1373,.T.);
#1444=ADVANCED_FACE('',(#136),#1374,.T.);
#1445=ADVANCED_FACE('',(#137),#1375,.T.);
#1446=ADVANCED_FACE('',(#138),#1376,.T.);
#1447=CLOSED_SHELL('',(#1377,#1378,#1379,#1380,#1381,#1382,#1383,#1384,
#1385,#1386,#1387,#1388,#1389,#1390,#1391,#1392,#1393,#1394,#1395,#1396,
#1397,#1398,#1399,#1400,#1401,#1402,#1403,#1404,#1405,#1406,#1407,#1408,
#1409,#1410,#1411,#1412,#1413,#1414,#1415,#1416,#1417,#1418,#1419,#1420,
#1421,#1422,#1423,#1424,#1425,#1426,#1427,#1428,#1429,#1430,#1431,#1432,
#1433,#1434,#1435,#1436,#1437,#1438,#1439,#1440,#1441,#1442,#1443,#1444,
#1445,#1446));
#1448=DERIVED_UNIT_ELEMENT(#1451,1.);
#1449=DERIVED_UNIT_ELEMENT(#2358,-3.);
#1450=DIMENSIONAL_EXPONENTS(0.,1.,0.,0.,0.,0.,0.);
#1451=(
CONVERSION_BASED_UNIT('gram',#1453)
MASS_UNIT()
NAMED_UNIT(#1450)
);
#1452=(
MASS_UNIT()
NAMED_UNIT(*)
SI_UNIT(.KILO.,.GRAM.)
);
#1453=MASS_MEASURE_WITH_UNIT(MASS_MEASURE(0.001),#1452);
#1454=DERIVED_UNIT((#1448,#1449));
#1455=MEASURE_REPRESENTATION_ITEM('density measure',
POSITIVE_RATIO_MEASURE(7.85),#1454);
#1456=PROPERTY_DEFINITION_REPRESENTATION(#1461,#1458);
#1457=PROPERTY_DEFINITION_REPRESENTATION(#1462,#1459);
#1458=REPRESENTATION('material name',(#1460),#2355);
#1459=REPRESENTATION('density',(#1455),#2355);
#1460=DESCRIPTIVE_REPRESENTATION_ITEM('Steel','Steel');
#1461=PROPERTY_DEFINITION('material property','material name',#2365);
#1462=PROPERTY_DEFINITION('material property','density of part',#2365);
#1463=DATE_TIME_ROLE('creation_date');
#1464=APPLIED_DATE_AND_TIME_ASSIGNMENT(#1465,#1463,(#2365));
#1465=DATE_AND_TIME(#1466,#1467);
#1466=CALENDAR_DATE(2024,25,11);
#1467=LOCAL_TIME(0,0,0.,#1468);
#1468=COORDINATED_UNIVERSAL_TIME_OFFSET(0,0,.BEHIND.);
#1469=AXIS2_PLACEMENT_3D('',#1942,#1568,#1569);
#1470=AXIS2_PLACEMENT_3D('',#1943,#1570,#1571);
#1471=AXIS2_PLACEMENT_3D('',#1952,#1576,#1577);
#1472=AXIS2_PLACEMENT_3D('',#1958,#1581,#1582);
#1473=AXIS2_PLACEMENT_3D('',#1964,#1586,#1587);
#1474=AXIS2_PLACEMENT_3D('',#2014,#1612,#1613);
#1475=AXIS2_PLACEMENT_3D('',#2018,#1615,#1616);
#1476=AXIS2_PLACEMENT_3D('',#2022,#1618,#1619);
#1477=AXIS2_PLACEMENT_3D('',#2026,#1621,#1622);
#1478=AXIS2_PLACEMENT_3D('',#2043,#1631,#1632);
#1479=AXIS2_PLACEMENT_3D('',#2045,#1633,#1634);
#1480=AXIS2_PLACEMENT_3D('',#2047,#1635,#1636);
#1481=AXIS2_PLACEMENT_3D('',#2049,#1637,#1638);
#1482=AXIS2_PLACEMENT_3D('',#2051,#1639,#1640);
#1483=AXIS2_PLACEMENT_3D('',#2056,#1642,#1643);
#1484=AXIS2_PLACEMENT_3D('',#2072,#1651,#1652);
#1485=AXIS2_PLACEMENT_3D('',#2078,#1655,#1656);
#1486=AXIS2_PLACEMENT_3D('',#2082,#1658,#1659);
#1487=AXIS2_PLACEMENT_3D('',#2086,#1661,#1662);
#1488=AXIS2_PLACEMENT_3D('',#2094,#1667,#1668);
#1489=AXIS2_PLACEMENT_3D('',#2098,#1671,#1672);
#1490=AXIS2_PLACEMENT_3D('',#2104,#1676,#1677);
#1491=AXIS2_PLACEMENT_3D('',#2110,#1681,#1682);
#1492=AXIS2_PLACEMENT_3D('',#2116,#1686,#1687);
#1493=AXIS2_PLACEMENT_3D('',#2120,#1690,#1691);
#1494=AXIS2_PLACEMENT_3D('',#2126,#1695,#1696);
#1495=AXIS2_PLACEMENT_3D('',#2128,#1698,#1699);
#1496=AXIS2_PLACEMENT_3D('',#2134,#1703,#1704);
#1497=AXIS2_PLACEMENT_3D('',#2140,#1708,#1709);
#1498=AXIS2_PLACEMENT_3D('',#2144,#1712,#1713);
#1499=AXIS2_PLACEMENT_3D('',#2162,#1722,#1723);
#1500=AXIS2_PLACEMENT_3D('',#2166,#1725,#1726);
#1501=AXIS2_PLACEMENT_3D('',#2170,#1728,#1729);
#1502=AXIS2_PLACEMENT_3D('',#2174,#1731,#1732);
#1503=AXIS2_PLACEMENT_3D('',#2221,#1756,#1757);
#1504=AXIS2_PLACEMENT_3D('',#2223,#1758,#1759);
#1505=AXIS2_PLACEMENT_3D('',#2225,#1760,#1761);
#1506=AXIS2_PLACEMENT_3D('',#2227,#1762,#1763);
#1507=AXIS2_PLACEMENT_3D('',#2229,#1764,#1765);
#1508=AXIS2_PLACEMENT_3D('',#2236,#1769,#1770);
#1509=AXIS2_PLACEMENT_3D('',#2240,#1772,#1773);
#1510=AXIS2_PLACEMENT_3D('',#2243,#1775,#1776);
#1511=AXIS2_PLACEMENT_3D('',#2244,#1777,#1778);
#1512=AXIS2_PLACEMENT_3D('',#2248,#1781,#1782);
#1513=AXIS2_PLACEMENT_3D('',#2249,#1783,#1784);
#1514=AXIS2_PLACEMENT_3D('',#2251,#1786,#1787);
#1515=AXIS2_PLACEMENT_3D('',#2253,#1789,#1790);
#1516=AXIS2_PLACEMENT_3D('',#2254,#1791,#1792);
#1517=AXIS2_PLACEMENT_3D('',#2256,#1794,#1795);
#1518=AXIS2_PLACEMENT_3D('',#2257,#1796,#1797);
#1519=AXIS2_PLACEMENT_3D('',#2258,#1798,#1799);
#1520=AXIS2_PLACEMENT_3D('',#2259,#1800,#1801);
#1521=AXIS2_PLACEMENT_3D('',#2262,#1804,#1805);
#1522=AXIS2_PLACEMENT_3D('',#2264,#1807,#1808);
#1523=AXIS2_PLACEMENT_3D('',#2267,#1811,#1812);
#1524=AXIS2_PLACEMENT_3D('',#2269,#1814,#1815);
#1525=AXIS2_PLACEMENT_3D('',#2272,#1818,#1819);
#1526=AXIS2_PLACEMENT_3D('',#2274,#1821,#1822);
#1527=AXIS2_PLACEMENT_3D('',#2277,#1825,#1826);
#1528=AXIS2_PLACEMENT_3D('',#2278,#1827,#1828);
#1529=AXIS2_PLACEMENT_3D('',#2280,#1830,#1831);
#1530=AXIS2_PLACEMENT_3D('',#2281,#1832,#1833);
#1531=AXIS2_PLACEMENT_3D('',#2284,#1836,#1837);
#1532=AXIS2_PLACEMENT_3D('',#2285,#1838,#1839);
#1533=AXIS2_PLACEMENT_3D('',#2288,#1842,#1843);
#1534=AXIS2_PLACEMENT_3D('',#2290,#1845,#1846);
#1535=AXIS2_PLACEMENT_3D('',#2292,#1848,#1849);
#1536=AXIS2_PLACEMENT_3D('',#2295,#1852,#1853);
#1537=AXIS2_PLACEMENT_3D('',#2297,#1855,#1856);
#1538=AXIS2_PLACEMENT_3D('',#2299,#1858,#1859);
#1539=AXIS2_PLACEMENT_3D('',#2301,#1861,#1862);
#1540=AXIS2_PLACEMENT_3D('',#2303,#1864,#1865);
#1541=AXIS2_PLACEMENT_3D('',#2305,#1867,#1868);
#1542=AXIS2_PLACEMENT_3D('',#2307,#1870,#1871);
#1543=AXIS2_PLACEMENT_3D('',#2310,#1874,#1875);
#1544=AXIS2_PLACEMENT_3D('',#2312,#1877,#1878);
#1545=AXIS2_PLACEMENT_3D('',#2313,#1879,#1880);
#1546=AXIS2_PLACEMENT_3D('',#2315,#1882,#1883);
#1547=AXIS2_PLACEMENT_3D('',#2317,#1885,#1886);
#1548=AXIS2_PLACEMENT_3D('',#2318,#1887,#1888);
#1549=AXIS2_PLACEMENT_3D('',#2320,#1890,#1891);
#1550=AXIS2_PLACEMENT_3D('',#2322,#1893,#1894);
#1551=AXIS2_PLACEMENT_3D('',#2324,#1896,#1897);
#1552=AXIS2_PLACEMENT_3D('',#2326,#1899,#1900);
#1553=AXIS2_PLACEMENT_3D('',#2327,#1901,#1902);
#1554=AXIS2_PLACEMENT_3D('',#2328,#1903,#1904);
#1555=AXIS2_PLACEMENT_3D('',#2329,#1905,#1906);
#1556=AXIS2_PLACEMENT_3D('',#2330,#1907,#1908);
#1557=AXIS2_PLACEMENT_3D('',#2332,#1910,#1911);
#1558=AXIS2_PLACEMENT_3D('',#2334,#1913,#1914);
#1559=AXIS2_PLACEMENT_3D('',#2336,#1916,#1917);
#1560=AXIS2_PLACEMENT_3D('',#2338,#1919,#1920);
#1561=AXIS2_PLACEMENT_3D('',#2340,#1922,#1923);
#1562=AXIS2_PLACEMENT_3D('',#2342,#1925,#1926);
#1563=AXIS2_PLACEMENT_3D('',#2344,#1928,#1929);
#1564=AXIS2_PLACEMENT_3D('',#2346,#1931,#1932);
#1565=AXIS2_PLACEMENT_3D('',#2348,#1934,#1935);
#1566=AXIS2_PLACEMENT_3D('',#2350,#1937,#1938);
#1567=AXIS2_PLACEMENT_3D('',#2352,#1940,#1941);
#1568=DIRECTION('axis',(0.,0.,1.));
#1569=DIRECTION('refdir',(1.,0.,0.));
#1570=DIRECTION('center_axis',(0.994330877108503,0.,0.106330178353251));
#1571=DIRECTION('ref_axis',(0.106330178353251,0.,-0.994330877108503));
#1572=DIRECTION('',(-0.106330178353251,0.,0.994330877108503));
#1573=DIRECTION('',(0.,1.,0.));
#1574=DIRECTION('',(0.106330178353251,0.,-0.994330877108503));
#1575=DIRECTION('',(0.,1.,0.));
#1576=DIRECTION('center_axis',(0.952874754368306,0.,-0.303363976911465));
#1577=DIRECTION('ref_axis',(-0.303363976911465,0.,-0.952874754368306));
#1578=DIRECTION('',(0.303363976911465,0.,0.952874754368306));
#1579=DIRECTION('',(-0.303363976911465,0.,-0.952874754368306));
#1580=DIRECTION('',(0.,-1.,0.));
#1581=DIRECTION('center_axis',(0.982025874279079,0.,-0.18874634366369));
#1582=DIRECTION('ref_axis',(-0.18874634366369,0.,-0.982025874279078));
#1583=DIRECTION('',(0.18874634366369,0.,0.982025874279078));
#1584=DIRECTION('',(0.,1.,0.));
#1585=DIRECTION('',(-0.18874634366369,0.,-0.982025874279078));
#1586=DIRECTION('center_axis',(0.,1.,0.));
#1587=DIRECTION('ref_axis',(0.,0.,1.));
#1588=DIRECTION('',(1.,0.,0.));
#1589=DIRECTION('',(0.,0.,1.));
#1590=DIRECTION('',(-1.,0.,-8.88178419700125E-16));
#1591=DIRECTION('',(0.,0.,1.));
#1592=DIRECTION('',(-0.707106781186546,0.,-0.707106781186549));
#1593=DIRECTION('',(1.,0.,2.22044604925031E-16));
#1594=DIRECTION('',(0.,0.,1.));
#1595=DIRECTION('',(-1.,0.,-4.44089209850063E-16));
#1596=DIRECTION('',(0.,0.,1.));
#1597=DIRECTION('',(1.,0.,-4.44089209850063E-16));
#1598=DIRECTION('',(0.,0.,1.));
#1599=DIRECTION('',(-1.,0.,2.22044604925031E-16));
#1600=DIRECTION('',(0.,0.,1.));
#1601=DIRECTION('',(1.,0.,-8.88178419700125E-16));
#1602=DIRECTION('',(0.,0.,1.));
#1603=DIRECTION('',(-1.,0.,0.));
#1604=DIRECTION('',(0.,0.,1.));
#1605=DIRECTION('',(1.,0.,-8.88178419700125E-16));
#1606=DIRECTION('',(0.,0.,1.));
#1607=DIRECTION('',(-1.,0.,0.));
#1608=DIRECTION('',(0.,0.,1.));
#1609=DIRECTION('',(-0.707106781186548,0.,-0.707106781186548));
#1610=DIRECTION('',(0.,0.,1.));
#1611=DIRECTION('',(1.,0.,0.));
#1612=DIRECTION('center_axis',(0.,-1.,0.));
#1613=DIRECTION('ref_axis',(0.382683432365089,0.,0.923879532511287));
#1614=DIRECTION('',(0.707106781186548,0.,-0.707106781186548));
#1615=DIRECTION('center_axis',(0.,-1.,0.));
#1616=DIRECTION('ref_axis',(0.923879532511287,0.,0.38268343236509));
#1617=DIRECTION('',(0.,0.,-1.));
#1618=DIRECTION('center_axis',(0.,-1.,0.));
#1619=DIRECTION('ref_axis',(0.923879532511287,0.,-0.382683432365089));
#1620=DIRECTION('',(-0.707106781186548,0.,-0.707106781186548));
#1621=DIRECTION('center_axis',(0.,-1.,0.));
#1622=DIRECTION('ref_axis',(0.382683432365088,0.,-0.923879532511287));
#1623=DIRECTION('',(-1.,0.,0.));
#1624=DIRECTION('',(0.707106781186548,0.,-0.707106781186548));
#1625=DIRECTION('',(0.,0.,1.));
#1626=DIRECTION('',(-1.,0.,0.));
#1627=DIRECTION('',(0.,0.,1.));
#1628=DIRECTION('',(1.,0.,0.));
#1629=DIRECTION('',(0.,0.,1.));
#1630=DIRECTION('',(-1.,0.,-8.88178419700125E-16));
#1631=DIRECTION('center_axis',(0.,-1.,0.));
#1632=DIRECTION('ref_axis',(1.,0.,0.));
#1633=DIRECTION('center_axis',(0.,-1.,0.));
#1634=DIRECTION('ref_axis',(1.,0.,0.));
#1635=DIRECTION('center_axis',(0.,-1.,0.));
#1636=DIRECTION('ref_axis',(1.,0.,0.));
#1637=DIRECTION('center_axis',(0.,-1.,0.));
#1638=DIRECTION('ref_axis',(1.,0.,0.));
#1639=DIRECTION('center_axis',(0.,-1.,0.));
#1640=DIRECTION('ref_axis',(-1.,0.,-1.22464679914735E-16));
#1641=DIRECTION('',(0.425822162127768,0.,0.904806877869986));
#1642=DIRECTION('center_axis',(0.,1.,0.));
#1643=DIRECTION('ref_axis',(0.707106781186547,0.,0.707106781186548));
#1644=DIRECTION('',(0.855395316841287,0.,0.517975725228503));
#1645=DIRECTION('',(-0.182077909885489,0.,0.983284106823522));
#1646=DIRECTION('',(0.936587511533136,0.,0.350433778680321));
#1647=DIRECTION('',(-0.317628716406484,0.,0.948215164672011));
#1648=DIRECTION('',(0.593551669488378,0.,-0.804795884462364));
#1649=DIRECTION('',(7.92340014627527E-16,0.,1.));
#1650=DIRECTION('',(-0.818928564816357,0.,0.573895465854036));
#1651=DIRECTION('center_axis',(0.,1.,0.));
#1652=DIRECTION('ref_axis',(0.707106781186547,0.,0.707106781186548));
#1653=DIRECTION('',(-0.628854930310227,0.,0.777522653447808));
#1654=DIRECTION('',(-0.999311143247862,0.,0.0371111705642732));
#1655=DIRECTION('center_axis',(0.,1.,0.));
#1656=DIRECTION('ref_axis',(0.707106781186547,0.,0.707106781186548));
#1657=DIRECTION('',(-1.,0.,3.5527136788005E-16));
#1658=DIRECTION('center_axis',(0.,1.,0.));
#1659=DIRECTION('ref_axis',(-0.707106781186548,0.,0.707106781186547));
#1660=DIRECTION('',(-7.40148683083437E-16,0.,-1.));
#1661=DIRECTION('center_axis',(0.,1.,0.));
#1662=DIRECTION('ref_axis',(-0.707106781186548,0.,-0.707106781186547));
#1663=DIRECTION('',(1.,0.,3.5527136788005E-16));
#1664=DIRECTION('',(0.999794117786921,0.,-0.0202909348890696));
#1665=DIRECTION('',(0.425822162127768,0.,0.904806877869986));
#1666=DIRECTION('',(0.961191746525855,0.,0.27588118168983));
#1667=DIRECTION('center_axis',(0.,0.,1.));
#1668=DIRECTION('ref_axis',(1.,0.,0.));
#1669=DIRECTION('',(1.,0.,0.));
#1670=DIRECTION('',(0.,1.,0.));
#1671=DIRECTION('center_axis',(0.904806877869986,0.,-0.425822162127768));
#1672=DIRECTION('ref_axis',(-0.425822162127768,0.,-0.904806877869986));
#1673=DIRECTION('',(0.,1.,0.));
#1674=DIRECTION('',(-0.425822162127768,0.,-0.904806877869986));
#1675=DIRECTION('',(0.,-1.,0.));
#1676=DIRECTION('center_axis',(0.573895465854036,0.,0.818928564816357));
#1677=DIRECTION('ref_axis',(0.818928564816357,0.,-0.573895465854036));
#1678=DIRECTION('',(0.,1.,0.));
#1679=DIRECTION('',(0.818928564816357,0.,-0.573895465854036));
#1680=DIRECTION('',(0.,-1.,0.));
#1681=DIRECTION('center_axis',(0.517975725228503,0.,-0.855395316841287));
#1682=DIRECTION('ref_axis',(-0.855395316841287,0.,-0.517975725228503));
#1683=DIRECTION('',(0.,1.,0.));
#1684=DIRECTION('',(-0.855395316841287,0.,-0.517975725228503));
#1685=DIRECTION('',(0.,1.,0.));
#1686=DIRECTION('center_axis',(0.983284106823522,0.,0.182077909885489));
#1687=DIRECTION('ref_axis',(0.182077909885489,0.,-0.983284106823522));
#1688=DIRECTION('',(0.182077909885489,0.,-0.983284106823522));
#1689=DIRECTION('',(0.,-1.,0.));
#1690=DIRECTION('center_axis',(0.948215164672011,0.,0.317628716406484));
#1691=DIRECTION('ref_axis',(0.317628716406484,0.,-0.948215164672011));
#1692=DIRECTION('',(0.,1.,0.));
#1693=DIRECTION('',(0.317628716406484,0.,-0.948215164672011));
#1694=DIRECTION('',(0.,-1.,0.));
#1695=DIRECTION('center_axis',(0.350433778680321,0.,-0.936587511533136));
#1696=DIRECTION('ref_axis',(-0.936587511533136,0.,-0.350433778680321));
#1697=DIRECTION('',(-0.936587511533136,0.,-0.350433778680321));
#1698=DIRECTION('center_axis',(-0.0202909348890696,0.,-0.999794117786921));
#1699=DIRECTION('ref_axis',(-0.999794117786921,0.,0.0202909348890696));
#1700=DIRECTION('',(0.,-1.,0.));
#1701=DIRECTION('',(-0.999794117786921,0.,0.0202909348890696));
#1702=DIRECTION('',(0.,1.,0.));
#1703=DIRECTION('center_axis',(0.0371111705642732,0.,0.999311143247862));
#1704=DIRECTION('ref_axis',(0.999311143247862,0.,-0.0371111705642732));
#1705=DIRECTION('',(0.,1.,0.));
#1706=DIRECTION('',(0.999311143247862,0.,-0.0371111705642732));
#1707=DIRECTION('',(0.,-1.,0.));
#1708=DIRECTION('center_axis',(0.777522653447808,0.,0.628854930310227));
#1709=DIRECTION('ref_axis',(0.628854930310227,0.,-0.777522653447808));
#1710=DIRECTION('',(0.,1.,0.));
#1711=DIRECTION('',(0.628854930310227,0.,-0.777522653447808));
#1712=DIRECTION('center_axis',(0.,1.,0.));
#1713=DIRECTION('ref_axis',(0.,0.,1.));
#1714=DIRECTION('',(-1.,0.,-8.88178419700125E-16));
#1715=DIRECTION('',(0.,0.,1.));
#1716=DIRECTION('',(1.,0.,0.));
#1717=DIRECTION('',(0.,0.,1.));
#1718=DIRECTION('',(-1.,0.,0.));
#1719=DIRECTION('',(0.,0.,1.));
#1720=DIRECTION('',(-0.707106781186548,0.,0.707106781186548));
#1721=DIRECTION('',(-1.,0.,0.));
#1722=DIRECTION('center_axis',(0.,1.,0.));
#1723=DIRECTION('ref_axis',(0.382683432365088,0.,-0.923879532511287));
#1724=DIRECTION('',(-0.707106781186548,0.,-0.707106781186548));
#1725=DIRECTION('center_axis',(0.,1.,0.));
#1726=DIRECTION('ref_axis',(0.923879532511287,0.,-0.382683432365089));
#1727=DIRECTION('',(0.,0.,-1.));
#1728=DIRECTION('center_axis',(0.,1.,0.));
#1729=DIRECTION('ref_axis',(0.923879532511287,0.,0.38268343236509));
#1730=DIRECTION('',(0.707106781186548,0.,-0.707106781186548));
#1731=DIRECTION('center_axis',(0.,1.,0.));
#1732=DIRECTION('ref_axis',(0.382683432365089,0.,0.923879532511287));
#1733=DIRECTION('',(1.,0.,0.));
#1734=DIRECTION('',(0.,0.,1.));
#1735=DIRECTION('',(0.707106781186548,0.,0.707106781186548));
#1736=DIRECTION('',(0.,0.,1.));
#1737=DIRECTION('',(-1.,0.,0.));
#1738=DIRECTION('',(0.,0.,1.));
#1739=DIRECTION('',(1.,0.,-8.88178419700125E-16));
#1740=DIRECTION('',(0.,0.,1.));
#1741=DIRECTION('',(-1.,0.,0.));
#1742=DIRECTION('',(0.,0.,1.));
#1743=DIRECTION('',(1.,0.,-8.88178419700125E-16));
#1744=DIRECTION('',(0.,0.,1.));
#1745=DIRECTION('',(-1.,0.,2.22044604925031E-16));
#1746=DIRECTION('',(0.,0.,1.));
#1747=DIRECTION('',(1.,0.,-4.44089209850063E-16));
#1748=DIRECTION('',(0.,0.,1.));
#1749=DIRECTION('',(-1.,0.,-4.44089209850063E-16));
#1750=DIRECTION('',(0.,0.,1.));
#1751=DIRECTION('',(1.,0.,2.22044604925031E-16));
#1752=DIRECTION('',(0.707106781186546,0.,0.707106781186549));
#1753=DIRECTION('',(0.,0.,1.));
#1754=DIRECTION('',(-1.,0.,-8.88178419700125E-16));
#1755=DIRECTION('',(0.,0.,1.));
#1756=DIRECTION('center_axis',(0.,-1.,0.));
#1757=DIRECTION('ref_axis',(-1.,0.,-1.22464679914735E-16));
#1758=DIRECTION('center_axis',(0.,-1.,0.));
#1759=DIRECTION('ref_axis',(1.,0.,0.));
#1760=DIRECTION('center_axis',(0.,-1.,0.));
#1761=DIRECTION('ref_axis',(1.,0.,0.));
#1762=DIRECTION('center_axis',(0.,-1.,0.));
#1763=DIRECTION('ref_axis',(1.,0.,0.));
#1764=DIRECTION('center_axis',(0.,-1.,0.));
#1765=DIRECTION('ref_axis',(1.,0.,0.));
#1766=DIRECTION('',(-0.961191746525855,0.,-0.27588118168983));
#1767=DIRECTION('',(-0.425822162127768,0.,-0.904806877869986));
#1768=DIRECTION('',(1.,0.,3.5527136788005E-16));
#1769=DIRECTION('center_axis',(0.,-1.,0.));
#1770=DIRECTION('ref_axis',(-0.707106781186548,0.,-0.707106781186547));
#1771=DIRECTION('',(-7.40148683083437E-16,0.,-1.));
#1772=DIRECTION('center_axis',(0.,-1.,0.));
#1773=DIRECTION('ref_axis',(-0.707106781186548,0.,0.707106781186547));
#1774=DIRECTION('',(-1.,0.,3.5527136788005E-16));
#1775=DIRECTION('center_axis',(0.,-1.,0.));
#1776=DIRECTION('ref_axis',(0.707106781186548,0.,-0.707106781186547));
#1777=DIRECTION('center_axis',(0.,-1.,0.));
#1778=DIRECTION('ref_axis',(0.707106781186548,0.,-0.707106781186547));
#1779=DIRECTION('',(-7.92340014627527E-16,0.,-1.));
#1780=DIRECTION('',(0.593551669488378,0.,-0.804795884462364));
#1781=DIRECTION('center_axis',(0.,-1.,0.));
#1782=DIRECTION('ref_axis',(0.707106781186548,0.,-0.707106781186547));
#1783=DIRECTION('center_axis',(0.,1.,0.));
#1784=DIRECTION('ref_axis',(0.707106781186547,0.,0.707106781186548));
#1785=DIRECTION('',(0.,1.,0.));
#1786=DIRECTION('center_axis',(-0.27588118168983,0.,0.961191746525855));
#1787=DIRECTION('ref_axis',(0.961191746525855,0.,0.27588118168983));
#1788=DIRECTION('',(0.,1.,0.));
#1789=DIRECTION('center_axis',(-0.904806877869987,0.,0.425822162127768));
#1790=DIRECTION('ref_axis',(0.425822162127768,0.,0.904806877869986));
#1791=DIRECTION('center_axis',(-1.,0.,7.92340014627527E-16));
#1792=DIRECTION('ref_axis',(7.92340014627527E-16,0.,1.));
#1793=DIRECTION('',(0.,1.,0.));
#1794=DIRECTION('center_axis',(-0.804795884462364,0.,-0.593551669488378));
#1795=DIRECTION('ref_axis',(-0.593551669488378,0.,0.804795884462364));
#1796=DIRECTION('center_axis',(0.,1.,0.));
#1797=DIRECTION('ref_axis',(0.707106781186547,0.,0.707106781186548));
#1798=DIRECTION('center_axis',(0.,1.,0.));
#1799=DIRECTION('ref_axis',(0.707106781186547,0.,0.707106781186548));
#1800=DIRECTION('center_axis',(-0.707106781186549,0.,0.707106781186546));
#1801=DIRECTION('ref_axis',(0.707106781186546,0.,0.707106781186549));
#1802=DIRECTION('',(0.,-1.,0.));
#1803=DIRECTION('',(0.,1.,0.));
#1804=DIRECTION('center_axis',(-2.22044604925031E-16,0.,1.));
#1805=DIRECTION('ref_axis',(1.,0.,2.22044604925031E-16));
#1806=DIRECTION('',(0.,1.,0.));
#1807=DIRECTION('center_axis',(-0.707106781186548,0.,-0.707106781186548));
#1808=DIRECTION('ref_axis',(-0.707106781186548,0.,0.707106781186548));
#1809=DIRECTION('',(0.,-1.,0.));
#1810=DIRECTION('',(0.,1.,0.));
#1811=DIRECTION('center_axis',(-1.,0.,0.));
#1812=DIRECTION('ref_axis',(0.,0.,1.));
#1813=DIRECTION('',(0.,1.,0.));
#1814=DIRECTION('center_axis',(-0.707106781186548,0.,0.707106781186548));
#1815=DIRECTION('ref_axis',(0.707106781186548,0.,0.707106781186548));
#1816=DIRECTION('',(0.,-1.,0.));
#1817=DIRECTION('',(0.,1.,0.));
#1818=DIRECTION('center_axis',(-3.5527136788005E-16,0.,-1.));
#1819=DIRECTION('ref_axis',(-1.,0.,3.5527136788005E-16));
#1820=DIRECTION('',(0.,-1.,0.));
#1821=DIRECTION('center_axis',(0.,1.,0.));
#1822=DIRECTION('ref_axis',(-0.707106781186548,0.,-0.707106781186547));
#1823=DIRECTION('',(0.,1.,0.));
#1824=DIRECTION('',(0.,-1.,0.));
#1825=DIRECTION('center_axis',(-3.5527136788005E-16,0.,1.));
#1826=DIRECTION('ref_axis',(1.,0.,3.5527136788005E-16));
#1827=DIRECTION('center_axis',(0.,1.,0.));
#1828=DIRECTION('ref_axis',(-0.707106781186548,0.,0.707106781186547));
#1829=DIRECTION('',(0.,1.,0.));
#1830=DIRECTION('center_axis',(1.,0.,-7.40148683083437E-16));
#1831=DIRECTION('ref_axis',(-7.40148683083437E-16,0.,-1.));
#1832=DIRECTION('center_axis',(0.,1.,0.));
#1833=DIRECTION('ref_axis',(0.382683432365088,0.,-0.923879532511287));
#1834=DIRECTION('',(0.,-1.,0.));
#1835=DIRECTION('',(0.,1.,0.));
#1836=DIRECTION('center_axis',(0.,0.,-1.));
#1837=DIRECTION('ref_axis',(-1.,0.,0.));
#1838=DIRECTION('center_axis',(0.,1.,0.));
#1839=DIRECTION('ref_axis',(0.923879532511287,0.,-0.382683432365089));
#1840=DIRECTION('',(0.,-1.,0.));
#1841=DIRECTION('',(0.,1.,0.));
#1842=DIRECTION('center_axis',(1.,0.,0.));
#1843=DIRECTION('ref_axis',(0.,0.,-1.));
#1844=DIRECTION('',(0.,1.,0.));
#1845=DIRECTION('center_axis',(0.,1.,0.));
#1846=DIRECTION('ref_axis',(0.923879532511287,0.,0.38268343236509));
#1847=DIRECTION('',(0.,-1.,0.));
#1848=DIRECTION('center_axis',(0.,1.,0.));
#1849=DIRECTION('ref_axis',(0.382683432365089,0.,0.923879532511287));
#1850=DIRECTION('',(0.,-1.,0.));
#1851=DIRECTION('',(0.,1.,0.));
#1852=DIRECTION('center_axis',(0.,0.,1.));
#1853=DIRECTION('ref_axis',(1.,0.,0.));
#1854=DIRECTION('',(0.,1.,0.));
#1855=DIRECTION('center_axis',(0.,1.,0.));
#1856=DIRECTION('ref_axis',(1.,0.,0.));
#1857=DIRECTION('',(0.,-1.,0.));
#1858=DIRECTION('center_axis',(0.,1.,0.));
#1859=DIRECTION('ref_axis',(1.,0.,0.));
#1860=DIRECTION('',(0.,-1.,0.));
#1861=DIRECTION('center_axis',(0.,1.,0.));
#1862=DIRECTION('ref_axis',(1.,0.,0.));
#1863=DIRECTION('',(0.,-1.,0.));
#1864=DIRECTION('center_axis',(0.,1.,0.));
#1865=DIRECTION('ref_axis',(1.,0.,0.));
#1866=DIRECTION('',(0.,-1.,0.));
#1867=DIRECTION('center_axis',(0.,1.,0.));
#1868=DIRECTION('ref_axis',(-1.,0.,-1.22464679914735E-16));
#1869=DIRECTION('',(0.,-1.,0.));
#1870=DIRECTION('center_axis',(-1.,0.,0.));
#1871=DIRECTION('ref_axis',(0.,0.,1.));
#1872=DIRECTION('',(0.,1.,0.));
#1873=DIRECTION('',(0.,1.,0.));
#1874=DIRECTION('center_axis',(4.44089209850063E-16,0.,-1.));
#1875=DIRECTION('ref_axis',(-1.,0.,-4.44089209850063E-16));
#1876=DIRECTION('',(0.,1.,0.));
#1877=DIRECTION('center_axis',(-1.,0.,0.));
#1878=DIRECTION('ref_axis',(0.,0.,1.));
#1879=DIRECTION('center_axis',(-1.,0.,0.));
#1880=DIRECTION('ref_axis',(0.,0.,1.));
#1881=DIRECTION('',(0.,1.,0.));
#1882=DIRECTION('center_axis',(8.88178419700125E-16,0.,-1.));
#1883=DIRECTION('ref_axis',(-1.,0.,-8.88178419700125E-16));
#1884=DIRECTION('',(0.,1.,0.));
#1885=DIRECTION('center_axis',(-1.,0.,0.));
#1886=DIRECTION('ref_axis',(0.,0.,1.));
#1887=DIRECTION('center_axis',(8.88178419700125E-16,0.,-1.));
#1888=DIRECTION('ref_axis',(-1.,0.,-8.88178419700125E-16));
#1889=DIRECTION('',(0.,1.,0.));
#1890=DIRECTION('center_axis',(-1.,0.,0.));
#1891=DIRECTION('ref_axis',(0.,0.,1.));
#1892=DIRECTION('',(0.,1.,0.));
#1893=DIRECTION('center_axis',(0.,0.,1.));
#1894=DIRECTION('ref_axis',(1.,0.,0.));
#1895=DIRECTION('',(0.,1.,0.));
#1896=DIRECTION('center_axis',(-1.,0.,0.));
#1897=DIRECTION('ref_axis',(0.,0.,1.));
#1898=DIRECTION('',(0.,1.,0.));
#1899=DIRECTION('center_axis',(0.,0.,-1.));
#1900=DIRECTION('ref_axis',(-1.,0.,0.));
#1901=DIRECTION('center_axis',(0.707106781186548,0.,-0.707106781186548));
#1902=DIRECTION('ref_axis',(-0.707106781186548,0.,-0.707106781186548));
#1903=DIRECTION('center_axis',(0.707106781186548,0.,0.707106781186548));
#1904=DIRECTION('ref_axis',(0.707106781186548,0.,-0.707106781186548));
#1905=DIRECTION('center_axis',(-1.,0.,0.));
#1906=DIRECTION('ref_axis',(0.,0.,1.));
#1907=DIRECTION('center_axis',(-1.,0.,0.));
#1908=DIRECTION('ref_axis',(0.,0.,1.));
#1909=DIRECTION('',(0.,1.,0.));
#1910=DIRECTION('center_axis',(0.,0.,-1.));
#1911=DIRECTION('ref_axis',(-1.,0.,0.));
#1912=DIRECTION('',(0.,1.,0.));
#1913=DIRECTION('center_axis',(-1.,0.,0.));
#1914=DIRECTION('ref_axis',(0.,0.,1.));
#1915=DIRECTION('',(0.,1.,0.));
#1916=DIRECTION('center_axis',(8.88178419700125E-16,0.,1.));
#1917=DIRECTION('ref_axis',(1.,0.,-8.88178419700125E-16));
#1918=DIRECTION('',(0.,1.,0.));
#1919=DIRECTION('center_axis',(-1.,0.,0.));
#1920=DIRECTION('ref_axis',(0.,0.,1.));
#1921=DIRECTION('',(0.,1.,0.));
#1922=DIRECTION('center_axis',(0.,0.,-1.));
#1923=DIRECTION('ref_axis',(-1.,0.,0.));
#1924=DIRECTION('',(0.,1.,0.));
#1925=DIRECTION('center_axis',(-1.,0.,0.));
#1926=DIRECTION('ref_axis',(0.,0.,1.));
#1927=DIRECTION('',(0.,1.,0.));
#1928=DIRECTION('center_axis',(8.88178419700125E-16,0.,1.));
#1929=DIRECTION('ref_axis',(1.,0.,-8.88178419700125E-16));
#1930=DIRECTION('',(0.,1.,0.));
#1931=DIRECTION('center_axis',(-1.,0.,0.));
#1932=DIRECTION('ref_axis',(0.,0.,1.));
#1933=DIRECTION('',(0.,1.,0.));
#1934=DIRECTION('center_axis',(-2.22044604925031E-16,0.,-1.));
#1935=DIRECTION('ref_axis',(-1.,0.,2.22044604925031E-16));
#1936=DIRECTION('',(0.,1.,0.));
#1937=DIRECTION('center_axis',(-1.,0.,0.));
#1938=DIRECTION('ref_axis',(0.,0.,1.));
#1939=DIRECTION('',(0.,1.,0.));
#1940=DIRECTION('center_axis',(4.44089209850063E-16,0.,1.));
#1941=DIRECTION('ref_axis',(1.,0.,-4.44089209850063E-16));
#1942=CARTESIAN_POINT('',(0.,0.,0.));
#1943=CARTESIAN_POINT('Origin',(-49.9160564775519,0.,-11.9795658025432));
#1944=CARTESIAN_POINT('',(-49.7385352997069,5.,-13.6396287423934));
#1945=CARTESIAN_POINT('',(-49.9160564775519,5.,-11.9795658025432));
#1946=CARTESIAN_POINT('',(-50.408488729366,5.,-7.37465870611992));
#1947=CARTESIAN_POINT('',(-49.7385352997069,0.,-13.6396287423934));
#1948=CARTESIAN_POINT('',(-49.7385352997069,0.,-13.6396287423934));
#1949=CARTESIAN_POINT('',(-49.9160564775519,0.,-11.9795658025432));
#1950=CARTESIAN_POINT('',(-50.408488729366,0.,-7.37465870611992));
#1951=CARTESIAN_POINT('',(-49.9160564775519,0.,-11.9795658025432));
#1952=CARTESIAN_POINT('Origin',(-49.6041949489053,0.,-11.));
#1953=CARTESIAN_POINT('',(-49.6041949489053,5.,-11.));
#1954=CARTESIAN_POINT('',(-46.8821632659484,5.,-2.45002218889903));
#1955=CARTESIAN_POINT('',(-49.6041949489053,0.,-11.));
#1956=CARTESIAN_POINT('',(-46.8821632659484,0.,-2.45002218889903));
#1957=CARTESIAN_POINT('',(-49.6041949489053,0.,-11.));
#1958=CARTESIAN_POINT('Origin',(-49.7385352997069,0.,-13.6396287423934));
#1959=CARTESIAN_POINT('',(-50.,5.,-15.));
#1960=CARTESIAN_POINT('',(-48.0337994231235,5.,-4.77008082362835));
#1961=CARTESIAN_POINT('',(-50.,0.,-15.));
#1962=CARTESIAN_POINT('',(-50.,0.,-15.));
#1963=CARTESIAN_POINT('',(-48.0337994231235,0.,-4.77008082362835));
#1964=CARTESIAN_POINT('Origin',(-25.,5.,0.));
#1965=CARTESIAN_POINT('',(-47.5,5.,-11.));
#1966=CARTESIAN_POINT('',(-50.,5.,-11.));
#1967=CARTESIAN_POINT('',(-47.5,5.,-8.5));
#1968=CARTESIAN_POINT('',(-47.5,5.,-11.));
#1969=CARTESIAN_POINT('',(-50.,5.,-8.5));
#1970=CARTESIAN_POINT('',(-47.5,5.,-8.5));
#1971=CARTESIAN_POINT('',(-50.,5.,-5.5));
#1972=CARTESIAN_POINT('',(-50.,5.,-25.));
#1973=CARTESIAN_POINT('',(-49.,5.,-4.5));
#1974=CARTESIAN_POINT('',(-42.125,5.,2.37500000000001));
#1975=CARTESIAN_POINT('',(-47.5,5.,-4.5));
#1976=CARTESIAN_POINT('',(-50.,5.,-4.5));
#1977=CARTESIAN_POINT('',(-47.5,5.,-2.));
#1978=CARTESIAN_POINT('',(-47.5,5.,-4.5));
#1979=CARTESIAN_POINT('',(-50.,5.,-2.));
#1980=CARTESIAN_POINT('',(-47.5,5.,-2.));
#1981=CARTESIAN_POINT('',(-50.,5.,2.));
#1982=CARTESIAN_POINT('',(-50.,5.,-25.));
#1983=CARTESIAN_POINT('',(-47.5,5.,2.));
#1984=CARTESIAN_POINT('',(-50.,5.,2.));
#1985=CARTESIAN_POINT('',(-47.5,5.,4.5));
#1986=CARTESIAN_POINT('',(-47.5,5.,2.));
#1987=CARTESIAN_POINT('',(-50.,5.,4.5));
#1988=CARTESIAN_POINT('',(-47.5,5.,4.5));
#1989=CARTESIAN_POINT('',(-50.,5.,8.5));
#1990=CARTESIAN_POINT('',(-50.,5.,0.));
#1991=CARTESIAN_POINT('',(-47.5,5.,8.5));
#1992=CARTESIAN_POINT('',(-50.,5.,8.5));
#1993=CARTESIAN_POINT('',(-47.5,5.,11.));
#1994=CARTESIAN_POINT('',(-47.5,5.,8.5));
#1995=CARTESIAN_POINT('',(-50.,5.,11.));
#1996=CARTESIAN_POINT('',(-47.5,5.,11.));
#1997=CARTESIAN_POINT('',(-50.,5.,15.));
#1998=CARTESIAN_POINT('',(-50.,5.,0.));
#1999=CARTESIAN_POINT('',(-47.5,5.,15.));
#2000=CARTESIAN_POINT('',(-50.,5.,15.));
#2001=CARTESIAN_POINT('',(-47.5,5.,17.5));
#2002=CARTESIAN_POINT('',(-47.5,5.,15.));
#2003=CARTESIAN_POINT('',(-50.,5.,17.5));
#2004=CARTESIAN_POINT('',(-47.5,5.,17.5));
#2005=CARTESIAN_POINT('',(-50.,5.,19.));
#2006=CARTESIAN_POINT('',(-50.,5.,0.));
#2007=CARTESIAN_POINT('',(-47.5,5.,21.5));
#2008=CARTESIAN_POINT('',(-47.875,5.,21.125));
#2009=CARTESIAN_POINT('',(-47.5,5.,25.));
#2010=CARTESIAN_POINT('',(-47.5,5.,21.5));
#2011=CARTESIAN_POINT('',(-10.8284271247462,5.,25.));
#2012=CARTESIAN_POINT('',(-50.,5.,25.));
#2013=CARTESIAN_POINT('',(-9.4142135623731,5.,24.4142135623731));
#2014=CARTESIAN_POINT('Origin',(-10.8284271247462,5.,23.));
#2015=CARTESIAN_POINT('',(-0.585786437626905,5.,15.5857864376269));
#2016=CARTESIAN_POINT('',(-10.,5.,25.));
#2017=CARTESIAN_POINT('',(0.,5.,14.1715728752538));
#2018=CARTESIAN_POINT('Origin',(-2.,5.,14.1715728752538));
#2019=CARTESIAN_POINT('',(0.,5.,-14.1715728752538));
#2020=CARTESIAN_POINT('',(0.,5.,25.));
#2021=CARTESIAN_POINT('',(-0.585786437626907,5.,-15.5857864376269));
#2022=CARTESIAN_POINT('Origin',(-2.,5.,-14.1715728752538));
#2023=CARTESIAN_POINT('',(-9.41421356237309,5.,-24.4142135623731));
#2024=CARTESIAN_POINT('',(0.,5.,-15.));
#2025=CARTESIAN_POINT('',(-10.8284271247462,5.,-25.));
#2026=CARTESIAN_POINT('Origin',(-10.8284271247462,5.,-23.));
#2027=CARTESIAN_POINT('',(-46.5,5.,-25.));
#2028=CARTESIAN_POINT('',(0.,5.,-25.));
#2029=CARTESIAN_POINT('',(-47.5,5.,-24.));
#2030=CARTESIAN_POINT('',(-47.625,5.,-23.875));
#2031=CARTESIAN_POINT('',(-47.5,5.,-21.5));
#2032=CARTESIAN_POINT('',(-47.5,5.,-25.));
#2033=CARTESIAN_POINT('',(-50.,5.,-21.5));
#2034=CARTESIAN_POINT('',(-47.5,5.,-21.5));
#2035=CARTESIAN_POINT('',(-50.,5.,-17.5));
#2036=CARTESIAN_POINT('',(-50.,5.,-25.));
#2037=CARTESIAN_POINT('',(-47.5,5.,-17.5));
#2038=CARTESIAN_POINT('',(-50.,5.,-17.5));
#2039=CARTESIAN_POINT('',(-47.5,5.,-15.));
#2040=CARTESIAN_POINT('',(-47.5,5.,-17.5));
#2041=CARTESIAN_POINT('',(-47.5,5.,-15.));
#2042=CARTESIAN_POINT('',(-45.3,5.,15.));
#2043=CARTESIAN_POINT('Origin',(-41.,5.,15.));
#2044=CARTESIAN_POINT('',(-6.,5.,12.));
#2045=CARTESIAN_POINT('Origin',(-4.,5.,12.));
#2046=CARTESIAN_POINT('',(-45.3,5.,-15.));
#2047=CARTESIAN_POINT('Origin',(-41.,5.,-15.));
#2048=CARTESIAN_POINT('',(-6.,5.,-12.));
#2049=CARTESIAN_POINT('Origin',(-4.,5.,-12.));
#2050=CARTESIAN_POINT('',(-36.7,5.,-2.46519032881566E-31));
#2051=CARTESIAN_POINT('Origin',(-41.,5.,0.));
#2052=CARTESIAN_POINT('',(-9.61397936319384,5.,-4.72335336944167));
#2053=CARTESIAN_POINT('',(-8.79884722856625,5.,-2.99132242464885));
#2054=CARTESIAN_POINT('',(-9.69142174902205,5.,-4.8879065786638));
#2055=CARTESIAN_POINT('',(-8.38000600768776,5.,-2.10134897776984));
#2056=CARTESIAN_POINT('Origin',(-14.,5.,2.22044604925031E-15));
#2057=CARTESIAN_POINT('',(-7.79569518859819,5.,-1.74752564682806));
#2058=CARTESIAN_POINT('',(-13.7027583821495,5.,-5.32448624201685));
#2059=CARTESIAN_POINT('',(-8.02271156300017,5.,-0.521558185544259));
#2060=CARTESIAN_POINT('',(-8.35081860300348,5.,1.25033406637727));
#2061=CARTESIAN_POINT('',(-7.56378593252256,5.,-0.349846475916335));
#2062=CARTESIAN_POINT('',(-15.1538641155078,5.,-3.18975171209508));
#2063=CARTESIAN_POINT('',(-8.21885400311095,5.,1.60572443546635));
#2064=CARTESIAN_POINT('',(-8.82355580795773,5.,3.41093722588189));
#2065=CARTESIAN_POINT('',(-8.62498830654797,5.,2.15640137354461));
#2066=CARTESIAN_POINT('',(-7.79076698097898,5.,1.02528183659282));
#2067=CARTESIAN_POINT('',(-8.62498830654796,5.,3.55759657273831));
#2068=CARTESIAN_POINT('',(-8.62498830654797,5.,1.77879828636915));
#2069=CARTESIAN_POINT('',(-10.4344654929204,5.,4.82565681320428));
#2070=CARTESIAN_POINT('',(-14.1846299899813,5.,7.45372779953338));
#2071=CARTESIAN_POINT('',(-10.6809556071758,5.,4.99839417397853));
#2072=CARTESIAN_POINT('Origin',(-14.,5.,2.22044604925031E-15));
#2073=CARTESIAN_POINT('',(-11.4133551228585,5.,5.90394040947766));
#2074=CARTESIAN_POINT('',(-12.6564696392397,5.,7.44093988380693));
#2075=CARTESIAN_POINT('',(-13.5549727245943,5.,5.98347313223223));
#2076=CARTESIAN_POINT('',(-19.158654729052,5.,6.19157568373534));
#2077=CARTESIAN_POINT('',(-14.,5.,6.));
#2078=CARTESIAN_POINT('Origin',(-14.,5.,2.22044604925031E-15));
#2079=CARTESIAN_POINT('',(-31.,5.,6.00000000000001));
#2080=CARTESIAN_POINT('',(-8.,5.,6.));
#2081=CARTESIAN_POINT('',(-33.,5.,4.00000000000001));
#2082=CARTESIAN_POINT('Origin',(-31.,5.,4.00000000000001));
#2083=CARTESIAN_POINT('',(-33.,5.,-4.00000000000001));
#2084=CARTESIAN_POINT('',(-33.,5.,6.00000000000001));
#2085=CARTESIAN_POINT('',(-31.,5.,-6.00000000000001));
#2086=CARTESIAN_POINT('Origin',(-31.,5.,-4.00000000000001));
#2087=CARTESIAN_POINT('',(-14.,5.,-6.));
#2088=CARTESIAN_POINT('',(-33.,5.,-6.00000000000001));
#2089=CARTESIAN_POINT('',(-11.7638028085939,5.,-6.04538387534264));
#2090=CARTESIAN_POINT('',(-18.4404972051237,5.,-5.90987960614961));
#2091=CARTESIAN_POINT('',(-11.3802039307866,5.,-5.23029500996062));
#2092=CARTESIAN_POINT('',(-11.6581632596929,5.,-5.82091601311803));
#2093=CARTESIAN_POINT('',(-16.0952144444151,5.,-6.58359696753711));
#2094=CARTESIAN_POINT('Origin',(-50.,0.,-11.));
#2095=CARTESIAN_POINT('',(-47.5,0.,-11.));
#2096=CARTESIAN_POINT('',(-50.,0.,-11.));
#2097=CARTESIAN_POINT('',(-47.5,0.,-11.));
#2098=CARTESIAN_POINT('Origin',(-8.79884722856625,0.,-2.99132242464885));
#2099=CARTESIAN_POINT('',(-9.61397936319384,0.,-4.72335336944167));
#2100=CARTESIAN_POINT('',(-9.61397936319384,0.,-4.72335336944167));
#2101=CARTESIAN_POINT('',(-8.79884722856625,0.,-2.99132242464885));
#2102=CARTESIAN_POINT('',(-9.69142174902205,0.,-4.8879065786638));
#2103=CARTESIAN_POINT('',(-8.79884722856625,0.,-2.99132242464883));
#2104=CARTESIAN_POINT('Origin',(-10.4344654929204,0.,4.82565681320428));
#2105=CARTESIAN_POINT('',(-8.62498830654796,0.,3.55759657273831));
#2106=CARTESIAN_POINT('',(-8.62498830654796,0.,3.55759657273831));
#2107=CARTESIAN_POINT('',(-10.4344654929204,0.,4.82565681320428));
#2108=CARTESIAN_POINT('',(-14.1846299899813,0.,7.45372779953338));
#2109=CARTESIAN_POINT('',(-10.4344654929203,0.,4.82565681320422));
#2110=CARTESIAN_POINT('Origin',(-7.79569518859819,0.,-1.74752564682806));
#2111=CARTESIAN_POINT('',(-8.38000600768776,0.,-2.10134897776984));
#2112=CARTESIAN_POINT('',(-8.38000600768776,0.,-2.10134897776984));
#2113=CARTESIAN_POINT('',(-7.79569518859819,0.,-1.74752564682806));
#2114=CARTESIAN_POINT('',(-13.7027583821495,0.,-5.32448624201685));
#2115=CARTESIAN_POINT('',(-7.79569518859819,0.,-1.74752564682806));
#2116=CARTESIAN_POINT('Origin',(-8.02271156300017,0.,-0.521558185544259));
#2117=CARTESIAN_POINT('',(-8.02271156300017,0.,-0.521558185544259));
#2118=CARTESIAN_POINT('',(-8.35081860300348,0.,1.25033406637727));
#2119=CARTESIAN_POINT('',(-8.02271156300017,0.,-0.521558185544246));
#2120=CARTESIAN_POINT('Origin',(-8.21885400311096,0.,1.60572443546639));
#2121=CARTESIAN_POINT('',(-7.56378593252256,0.,-0.349846475916335));
#2122=CARTESIAN_POINT('',(-7.56378593252256,0.,-0.349846475916335));
#2123=CARTESIAN_POINT('',(-8.21885400311095,0.,1.60572443546635));
#2124=CARTESIAN_POINT('',(-8.82355580795773,0.,3.41093722588189));
#2125=CARTESIAN_POINT('',(-8.21885400311095,0.,1.60572443546634));
#2126=CARTESIAN_POINT('Origin',(-7.56378593252256,0.,-0.349846475916335));
#2127=CARTESIAN_POINT('',(-15.1538641155078,0.,-3.18975171209508));
#2128=CARTESIAN_POINT('Origin',(-11.7638028085939,0.,-6.04538387534264));
#2129=CARTESIAN_POINT('',(-14.,0.,-6.));
#2130=CARTESIAN_POINT('',(-14.,0.,-6.));
#2131=CARTESIAN_POINT('',(-11.7638028085939,0.,-6.04538387534264));
#2132=CARTESIAN_POINT('',(-18.4404972051237,0.,-5.90987960614961));
#2133=CARTESIAN_POINT('',(-11.7638028085939,0.,-6.04538387534264));
#2134=CARTESIAN_POINT('Origin',(-13.5549727245943,0.,5.98347313223222));
#2135=CARTESIAN_POINT('',(-11.4133551228585,0.,5.90394040947766));
#2136=CARTESIAN_POINT('',(-11.4133551228585,0.,5.90394040947766));
#2137=CARTESIAN_POINT('',(-13.5549727245943,0.,5.98347313223223));
#2138=CARTESIAN_POINT('',(-19.158654729052,0.,6.19157568373534));
#2139=CARTESIAN_POINT('',(-13.5549727245938,0.,5.9834731322322));
#2140=CARTESIAN_POINT('Origin',(-11.4133551228585,0.,5.90394040947766));
#2141=CARTESIAN_POINT('',(-10.6809556071758,0.,4.99839417397853));
#2142=CARTESIAN_POINT('',(-10.6809556071758,0.,4.99839417397854));
#2143=CARTESIAN_POINT('',(-12.6564696392397,0.,7.44093988380693));
#2144=CARTESIAN_POINT('Origin',(-25.,0.,0.));
#2145=CARTESIAN_POINT('',(-47.5,0.,-15.));
#2146=CARTESIAN_POINT('',(-47.5,0.,-15.));
#2147=CARTESIAN_POINT('',(-47.5,0.,-17.5));
#2148=CARTESIAN_POINT('',(-47.5,0.,-17.5));
#2149=CARTESIAN_POINT('',(-50.,0.,-17.5));
#2150=CARTESIAN_POINT('',(-50.,0.,-17.5));
#2151=CARTESIAN_POINT('',(-50.,0.,-21.5));
#2152=CARTESIAN_POINT('',(-50.,0.,-25.));
#2153=CARTESIAN_POINT('',(-47.5,0.,-21.5));
#2154=CARTESIAN_POINT('',(-47.5,0.,-21.5));
#2155=CARTESIAN_POINT('',(-47.5,0.,-24.));
#2156=CARTESIAN_POINT('',(-47.5,0.,-25.));
#2157=CARTESIAN_POINT('',(-46.5,0.,-25.));
#2158=CARTESIAN_POINT('',(-47.625,0.,-23.875));
#2159=CARTESIAN_POINT('',(-10.8284271247462,0.,-25.));
#2160=CARTESIAN_POINT('',(0.,0.,-25.));
#2161=CARTESIAN_POINT('',(-9.41421356237309,0.,-24.4142135623731));
#2162=CARTESIAN_POINT('Origin',(-10.8284271247462,0.,-23.));
#2163=CARTESIAN_POINT('',(-0.585786437626907,0.,-15.5857864376269));
#2164=CARTESIAN_POINT('',(0.,0.,-15.));
#2165=CARTESIAN_POINT('',(0.,0.,-14.1715728752538));
#2166=CARTESIAN_POINT('Origin',(-2.,0.,-14.1715728752538));
#2167=CARTESIAN_POINT('',(0.,0.,14.1715728752538));
#2168=CARTESIAN_POINT('',(0.,0.,25.));
#2169=CARTESIAN_POINT('',(-0.585786437626905,0.,15.5857864376269));
#2170=CARTESIAN_POINT('Origin',(-2.,0.,14.1715728752538));
#2171=CARTESIAN_POINT('',(-9.4142135623731,0.,24.4142135623731));
#2172=CARTESIAN_POINT('',(-10.,0.,25.));
#2173=CARTESIAN_POINT('',(-10.8284271247462,0.,25.));
#2174=CARTESIAN_POINT('Origin',(-10.8284271247462,0.,23.));
#2175=CARTESIAN_POINT('',(-47.5,0.,25.));
#2176=CARTESIAN_POINT('',(-50.,0.,25.));
#2177=CARTESIAN_POINT('',(-47.5,0.,21.5));
#2178=CARTESIAN_POINT('',(-47.5,0.,21.5));
#2179=CARTESIAN_POINT('',(-50.,0.,19.));
#2180=CARTESIAN_POINT('',(-47.875,0.,21.125));
#2181=CARTESIAN_POINT('',(-50.,0.,17.5));
#2182=CARTESIAN_POINT('',(-50.,0.,0.));
#2183=CARTESIAN_POINT('',(-47.5,0.,17.5));
#2184=CARTESIAN_POINT('',(-47.5,0.,17.5));
#2185=CARTESIAN_POINT('',(-47.5,0.,15.));
#2186=CARTESIAN_POINT('',(-47.5,0.,15.));
#2187=CARTESIAN_POINT('',(-50.,0.,15.));
#2188=CARTESIAN_POINT('',(-50.,0.,15.));
#2189=CARTESIAN_POINT('',(-50.,0.,11.));
#2190=CARTESIAN_POINT('',(-50.,0.,0.));
#2191=CARTESIAN_POINT('',(-47.5,0.,11.));
#2192=CARTESIAN_POINT('',(-47.5,0.,11.));
#2193=CARTESIAN_POINT('',(-47.5,0.,8.5));
#2194=CARTESIAN_POINT('',(-47.5,0.,8.5));
#2195=CARTESIAN_POINT('',(-50.,0.,8.5));
#2196=CARTESIAN_POINT('',(-50.,0.,8.5));
#2197=CARTESIAN_POINT('',(-50.,0.,4.5));
#2198=CARTESIAN_POINT('',(-50.,0.,0.));
#2199=CARTESIAN_POINT('',(-47.5,0.,4.5));
#2200=CARTESIAN_POINT('',(-47.5,0.,4.5));
#2201=CARTESIAN_POINT('',(-47.5,0.,2.));
#2202=CARTESIAN_POINT('',(-47.5,0.,2.));
#2203=CARTESIAN_POINT('',(-50.,0.,2.));
#2204=CARTESIAN_POINT('',(-50.,0.,2.));
#2205=CARTESIAN_POINT('',(-50.,0.,-2.));
#2206=CARTESIAN_POINT('',(-50.,0.,-25.));
#2207=CARTESIAN_POINT('',(-47.5,0.,-2.));
#2208=CARTESIAN_POINT('',(-47.5,0.,-2.));
#2209=CARTESIAN_POINT('',(-47.5,0.,-4.5));
#2210=CARTESIAN_POINT('',(-47.5,0.,-4.5));
#2211=CARTESIAN_POINT('',(-49.,0.,-4.5));
#2212=CARTESIAN_POINT('',(-50.,0.,-4.5));
#2213=CARTESIAN_POINT('',(-50.,0.,-5.5));
#2214=CARTESIAN_POINT('',(-42.125,0.,2.37500000000001));
#2215=CARTESIAN_POINT('',(-50.,0.,-8.5));
#2216=CARTESIAN_POINT('',(-50.,0.,-25.));
#2217=CARTESIAN_POINT('',(-47.5,0.,-8.5));
#2218=CARTESIAN_POINT('',(-47.5,0.,-8.5));
#2219=CARTESIAN_POINT('',(-47.5,0.,-11.));
#2220=CARTESIAN_POINT('',(-36.7,0.,-2.46519032881566E-31));
#2221=CARTESIAN_POINT('Origin',(-41.,0.,0.));
#2222=CARTESIAN_POINT('',(-6.,0.,-12.));
#2223=CARTESIAN_POINT('Origin',(-4.,0.,-12.));
#2224=CARTESIAN_POINT('',(-45.3,0.,-15.));
#2225=CARTESIAN_POINT('Origin',(-41.,0.,-15.));
#2226=CARTESIAN_POINT('',(-6.,0.,12.));
#2227=CARTESIAN_POINT('Origin',(-4.,0.,12.));
#2228=CARTESIAN_POINT('',(-45.3,0.,15.));
#2229=CARTESIAN_POINT('Origin',(-41.,0.,15.));
#2230=CARTESIAN_POINT('',(-11.3802039307866,0.,-5.23029500996062));
#2231=CARTESIAN_POINT('',(-16.0952144444151,0.,-6.58359696753711));
#2232=CARTESIAN_POINT('',(-11.6581632596929,0.,-5.82091601311803));
#2233=CARTESIAN_POINT('',(-31.,0.,-6.00000000000001));
#2234=CARTESIAN_POINT('',(-33.,0.,-6.00000000000001));
#2235=CARTESIAN_POINT('',(-33.,0.,-4.00000000000001));
#2236=CARTESIAN_POINT('Origin',(-31.,0.,-4.00000000000001));
#2237=CARTESIAN_POINT('',(-33.,0.,4.00000000000001));
#2238=CARTESIAN_POINT('',(-33.,0.,6.00000000000001));
#2239=CARTESIAN_POINT('',(-31.,0.,6.00000000000001));
#2240=CARTESIAN_POINT('Origin',(-31.,0.,4.00000000000001));
#2241=CARTESIAN_POINT('',(-14.,0.,6.));
#2242=CARTESIAN_POINT('',(-8.,0.,6.));
#2243=CARTESIAN_POINT('Origin',(-14.,0.,-2.17603712826531E-15));
#2244=CARTESIAN_POINT('Origin',(-14.,0.,-2.17603712826531E-15));
#2245=CARTESIAN_POINT('',(-8.62498830654797,0.,2.15640137354461));
#2246=CARTESIAN_POINT('',(-8.62498830654797,0.,1.77879828636915));
#2247=CARTESIAN_POINT('',(-8.62498830654797,0.,2.15640137354461));
#2248=CARTESIAN_POINT('Origin',(-14.,0.,-2.17603712826531E-15));
#2249=CARTESIAN_POINT('Origin',(-14.,0.,2.22044604925031E-15));
#2250=CARTESIAN_POINT('',(-14.,0.,6.));
#2251=CARTESIAN_POINT('Origin',(-11.3802039307866,0.,-5.23029500996062));
#2252=CARTESIAN_POINT('',(-11.3802039307866,0.,-5.23029500996062));
#2253=CARTESIAN_POINT('Origin',(-11.4816834263531,0.,-5.44592339598122));
#2254=CARTESIAN_POINT('Origin',(-8.62498830654797,0.,2.15640137354461));
#2255=CARTESIAN_POINT('',(-8.62498830654797,0.,2.15640137354461));
#2256=CARTESIAN_POINT('Origin',(-8.21885400311095,0.,1.60572443546635));
#2257=CARTESIAN_POINT('Origin',(-14.,0.,2.22044604925031E-15));
#2258=CARTESIAN_POINT('Origin',(-14.,0.,2.22044604925031E-15));
#2259=CARTESIAN_POINT('Origin',(-49.5,0.,-5.));
#2260=CARTESIAN_POINT('',(-50.,0.,-5.5));
#2261=CARTESIAN_POINT('',(-49.,0.,-4.5));
#2262=CARTESIAN_POINT('Origin',(-50.,0.,-4.5));
#2263=CARTESIAN_POINT('',(-47.5,0.,-4.5));
#2264=CARTESIAN_POINT('Origin',(-47.,0.,-24.5));
#2265=CARTESIAN_POINT('',(-46.5,0.,-25.));
#2266=CARTESIAN_POINT('',(-47.5,0.,-24.));
#2267=CARTESIAN_POINT('Origin',(-47.5,0.,-25.));
#2268=CARTESIAN_POINT('',(-47.5,0.,-21.5));
#2269=CARTESIAN_POINT('Origin',(-48.75,0.,20.25));
#2270=CARTESIAN_POINT('',(-50.,0.,19.));
#2271=CARTESIAN_POINT('',(-47.5,0.,21.5));
#2272=CARTESIAN_POINT('Origin',(-8.,0.,6.));
#2273=CARTESIAN_POINT('',(-31.,0.,6.00000000000001));
#2274=CARTESIAN_POINT('Origin',(-31.,0.,-4.00000000000001));
#2275=CARTESIAN_POINT('',(-31.,0.,-6.00000000000001));
#2276=CARTESIAN_POINT('',(-33.,0.,-4.00000000000001));
#2277=CARTESIAN_POINT('Origin',(-33.,0.,-6.00000000000001));
#2278=CARTESIAN_POINT('Origin',(-31.,0.,4.00000000000001));
#2279=CARTESIAN_POINT('',(-33.,0.,4.00000000000001));
#2280=CARTESIAN_POINT('Origin',(-33.,0.,6.00000000000001));
#2281=CARTESIAN_POINT('Origin',(-10.8284271247462,0.,-23.));
#2282=CARTESIAN_POINT('',(-9.41421356237309,0.,-24.4142135623731));
#2283=CARTESIAN_POINT('',(-10.8284271247462,0.,-25.));
#2284=CARTESIAN_POINT('Origin',(-10.,0.,-25.));
#2285=CARTESIAN_POINT('Origin',(-2.,0.,-14.1715728752538));
#2286=CARTESIAN_POINT('',(0.,0.,-14.1715728752538));
#2287=CARTESIAN_POINT('',(-0.585786437626906,0.,-15.5857864376269));
#2288=CARTESIAN_POINT('Origin',(0.,0.,15.));
#2289=CARTESIAN_POINT('',(0.,0.,14.1715728752538));
#2290=CARTESIAN_POINT('Origin',(-2.,0.,14.1715728752538));
#2291=CARTESIAN_POINT('',(-0.585786437626904,0.,15.5857864376269));
#2292=CARTESIAN_POINT('Origin',(-10.8284271247462,0.,23.));
#2293=CARTESIAN_POINT('',(-10.8284271247462,0.,25.));
#2294=CARTESIAN_POINT('',(-9.4142135623731,0.,24.4142135623731));
#2295=CARTESIAN_POINT('Origin',(-47.5,0.,25.));
#2296=CARTESIAN_POINT('',(-47.5,0.,25.));
#2297=CARTESIAN_POINT('Origin',(-41.,0.,15.));
#2298=CARTESIAN_POINT('',(-45.3,0.,15.));
#2299=CARTESIAN_POINT('Origin',(-4.,0.,12.));
#2300=CARTESIAN_POINT('',(-6.,0.,12.));
#2301=CARTESIAN_POINT('Origin',(-41.,0.,-15.));
#2302=CARTESIAN_POINT('',(-45.3,0.,-15.));
#2303=CARTESIAN_POINT('Origin',(-4.,0.,-12.));
#2304=CARTESIAN_POINT('',(-6.,0.,-12.));
#2305=CARTESIAN_POINT('Origin',(-41.,0.,0.));
#2306=CARTESIAN_POINT('',(-36.7,0.,-2.46519032881566E-31));
#2307=CARTESIAN_POINT('Origin',(-50.,0.,-2.));
#2308=CARTESIAN_POINT('',(-50.,0.,2.));
#2309=CARTESIAN_POINT('',(-50.,0.,-2.));
#2310=CARTESIAN_POINT('Origin',(-47.5,0.,-2.));
#2311=CARTESIAN_POINT('',(-47.5,0.,-2.));
#2312=CARTESIAN_POINT('Origin',(-47.5,0.,-4.5));
#2313=CARTESIAN_POINT('Origin',(-50.,0.,-8.5));
#2314=CARTESIAN_POINT('',(-50.,0.,-8.5));
#2315=CARTESIAN_POINT('Origin',(-47.5,0.,-8.5));
#2316=CARTESIAN_POINT('',(-47.5,0.,-8.5));
#2317=CARTESIAN_POINT('Origin',(-47.5,0.,-11.));
#2318=CARTESIAN_POINT('Origin',(-47.5,0.,-15.));
#2319=CARTESIAN_POINT('',(-47.5,0.,-15.));
#2320=CARTESIAN_POINT('Origin',(-47.5,0.,-17.5));
#2321=CARTESIAN_POINT('',(-47.5,0.,-17.5));
#2322=CARTESIAN_POINT('Origin',(-50.,0.,-17.5));
#2323=CARTESIAN_POINT('',(-50.,0.,-17.5));
#2324=CARTESIAN_POINT('Origin',(-50.,0.,-21.5));
#2325=CARTESIAN_POINT('',(-50.,0.,-21.5));
#2326=CARTESIAN_POINT('Origin',(-47.5,0.,-21.5));
#2327=CARTESIAN_POINT('Origin',(0.,0.,-15.));
#2328=CARTESIAN_POINT('Origin',(-10.,0.,25.));
#2329=CARTESIAN_POINT('Origin',(-47.5,0.,21.5));
#2330=CARTESIAN_POINT('Origin',(-50.,0.,17.5));
#2331=CARTESIAN_POINT('',(-50.,0.,17.5));
#2332=CARTESIAN_POINT('Origin',(-47.5,0.,17.5));
#2333=CARTESIAN_POINT('',(-47.5,0.,17.5));
#2334=CARTESIAN_POINT('Origin',(-47.5,0.,15.));
#2335=CARTESIAN_POINT('',(-47.5,0.,15.));
#2336=CARTESIAN_POINT('Origin',(-50.,0.,15.));
#2337=CARTESIAN_POINT('',(-50.,0.,15.));
#2338=CARTESIAN_POINT('Origin',(-50.,0.,11.));
#2339=CARTESIAN_POINT('',(-50.,0.,11.));
#2340=CARTESIAN_POINT('Origin',(-47.5,0.,11.));
#2341=CARTESIAN_POINT('',(-47.5,0.,11.));
#2342=CARTESIAN_POINT('Origin',(-47.5,0.,8.5));
#2343=CARTESIAN_POINT('',(-47.5,0.,8.5));
#2344=CARTESIAN_POINT('Origin',(-50.,0.,8.5));
#2345=CARTESIAN_POINT('',(-50.,0.,8.5));
#2346=CARTESIAN_POINT('Origin',(-50.,0.,4.5));
#2347=CARTESIAN_POINT('',(-50.,0.,4.5));
#2348=CARTESIAN_POINT('Origin',(-47.5,0.,4.5));
#2349=CARTESIAN_POINT('',(-47.5,0.,4.5));
#2350=CARTESIAN_POINT('Origin',(-47.5,0.,2.));
#2351=CARTESIAN_POINT('',(-47.5,0.,2.));
#2352=CARTESIAN_POINT('Origin',(-50.,0.,2.));
#2353=UNCERTAINTY_MEASURE_WITH_UNIT(LENGTH_MEASURE(0.01),#2357,
'DISTANCE_ACCURACY_VALUE',
'Maximum model space distance between geometric entities at asserted c
onnectivities');
#2354=UNCERTAINTY_MEASURE_WITH_UNIT(LENGTH_MEASURE(0.01),#2357,
'DISTANCE_ACCURACY_VALUE',
'Maximum model space distance between geometric entities at asserted c
onnectivities');
#2355=(
GEOMETRIC_REPRESENTATION_CONTEXT(3)
GLOBAL_UNCERTAINTY_ASSIGNED_CONTEXT((#2353))
GLOBAL_UNIT_ASSIGNED_CONTEXT((#2357,#2359,#2360))
REPRESENTATION_CONTEXT('','3D')
);
#2356=(
GEOMETRIC_REPRESENTATION_CONTEXT(3)
GLOBAL_UNCERTAINTY_ASSIGNED_CONTEXT((#2354))
GLOBAL_UNIT_ASSIGNED_CONTEXT((#2357,#2359,#2360))
REPRESENTATION_CONTEXT('','3D')
);
#2357=(
LENGTH_UNIT()
NAMED_UNIT(*)
SI_UNIT(.MILLI.,.METRE.)
);
#2358=(
LENGTH_UNIT()
NAMED_UNIT(*)
SI_UNIT(.CENTI.,.METRE.)
);
#2359=(
NAMED_UNIT(*)
PLANE_ANGLE_UNIT()
SI_UNIT($,.RADIAN.)
);
#2360=(
NAMED_UNIT(*)
SI_UNIT($,.STERADIAN.)
SOLID_ANGLE_UNIT()
);
#2361=SHAPE_DEFINITION_REPRESENTATION(#2362,#2363);
#2362=PRODUCT_DEFINITION_SHAPE('',$,#2365);
#2363=SHAPE_REPRESENTATION('',(#1469),#2355);
#2364=PRODUCT_DEFINITION_CONTEXT('part definition',#2369,'design');
#2365=PRODUCT_DEFINITION('Gutteil_V1','Fehler_2',#2366,#2364);
#2366=PRODUCT_DEFINITION_FORMATION('',$,#2371);
#2367=PRODUCT_RELATED_PRODUCT_CATEGORY('Fehler_2','Fehler_2',(#2371));
#2368=APPLICATION_PROTOCOL_DEFINITION('international standard',
'automotive_design',2009,#2369);
#2369=APPLICATION_CONTEXT(
'Core Data for Automotive Mechanical Design Process');
#2370=PRODUCT_CONTEXT('part definition',#2369,'mechanical');
#2371=PRODUCT('Gutteil_V1','Fehler_2',$,(#2370));
#2372=PRESENTATION_STYLE_ASSIGNMENT((#2373));
#2373=SURFACE_STYLE_USAGE(.BOTH.,#2376);
#2374=SURFACE_STYLE_RENDERING_WITH_PROPERTIES($,#2380,(#2375));
#2375=SURFACE_STYLE_TRANSPARENT(0.);
#2376=SURFACE_SIDE_STYLE('',(#2377,#2374));
#2377=SURFACE_STYLE_FILL_AREA(#2378);
#2378=FILL_AREA_STYLE('',(#2379));
#2379=FILL_AREA_STYLE_COLOUR('',#2380);
#2380=COLOUR_RGB('',0.698039215686274,0.698039215686274,0.698039215686274);
ENDSEC;
END-ISO-10303-21;
