ISO-10303-21;
HEADER;
/* Generated by software containing ST-Developer
 * from STEP Tools, Inc. (www.steptools.com) 
 */

FILE_DESCRIPTION(
/* description */ (''),
/* implementation_level */ '2;1');

FILE_NAME(
/* name */ 'Schlechtteil_3.stp',
/* time_stamp */ '2025-02-27T19:23:47+01:00',
/* author */ ('peter'),
/* organization */ (''),
/* preprocessor_version */ 'ST-DEVELOPER v20',
/* originating_system */ 'Autodesk Inventor 2025',
/* authorisation */ '');

FILE_SCHEMA (('AUTOMOTIVE_DESIGN { 1 0 10303 214 3 1 1 }'));
ENDSEC;

DATA;
#10=MECHANICAL_DESIGN_GEOMETRIC_PRESENTATION_REPRESENTATION('',(#13),#1593);
#11=SHAPE_REPRESENTATION_RELATIONSHIP('SRR','None',#1600,#12);
#12=ADVANCED_BREP_SHAPE_REPRESENTATION('',(#14),#1592);
#13=STYLED_ITEM('',(#1609),#14);
#14=MANIFOLD_SOLID_BREP('Solid2',#968);
#15=FACE_BOUND('',#119,.T.);
#16=FACE_BOUND('',#120,.T.);
#17=FACE_BOUND('',#121,.T.);
#18=FACE_BOUND('',#122,.T.);
#19=FACE_BOUND('',#123,.T.);
#20=FACE_BOUND('',#124,.T.);
#21=FACE_BOUND('',#162,.T.);
#22=FACE_BOUND('',#163,.T.);
#23=FACE_BOUND('',#164,.T.);
#24=FACE_BOUND('',#165,.T.);
#25=FACE_BOUND('',#166,.T.);
#26=FACE_BOUND('',#167,.T.);
#27=PLANE('',#997);
#28=PLANE('',#1001);
#29=PLANE('',#1005);
#30=PLANE('',#1009);
#31=PLANE('',#1010);
#32=PLANE('',#1020);
#33=PLANE('',#1025);
#34=PLANE('',#1034);
#35=PLANE('',#1035);
#36=PLANE('',#1036);
#37=PLANE('',#1037);
#38=PLANE('',#1038);
#39=PLANE('',#1039);
#40=PLANE('',#1040);
#41=PLANE('',#1041);
#42=PLANE('',#1042);
#43=PLANE('',#1043);
#44=PLANE('',#1044);
#45=PLANE('',#1045);
#46=PLANE('',#1046);
#47=PLANE('',#1047);
#48=PLANE('',#1048);
#49=PLANE('',#1049);
#50=PLANE('',#1050);
#51=PLANE('',#1051);
#52=PLANE('',#1052);
#53=PLANE('',#1053);
#54=PLANE('',#1054);
#55=PLANE('',#1055);
#56=PLANE('',#1056);
#57=PLANE('',#1057);
#58=PLANE('',#1058);
#59=PLANE('',#1059);
#60=PLANE('',#1060);
#61=PLANE('',#1061);
#62=FACE_OUTER_BOUND('',#109,.T.);
#63=FACE_OUTER_BOUND('',#110,.T.);
#64=FACE_OUTER_BOUND('',#111,.T.);
#65=FACE_OUTER_BOUND('',#112,.T.);
#66=FACE_OUTER_BOUND('',#113,.T.);
#67=FACE_OUTER_BOUND('',#114,.T.);
#68=FACE_OUTER_BOUND('',#115,.T.);
#69=FACE_OUTER_BOUND('',#116,.T.);
#70=FACE_OUTER_BOUND('',#117,.T.);
#71=FACE_OUTER_BOUND('',#118,.T.);
#72=FACE_OUTER_BOUND('',#125,.T.);
#73=FACE_OUTER_BOUND('',#126,.T.);
#74=FACE_OUTER_BOUND('',#127,.T.);
#75=FACE_OUTER_BOUND('',#128,.T.);
#76=FACE_OUTER_BOUND('',#129,.T.);
#77=FACE_OUTER_BOUND('',#130,.T.);
#78=FACE_OUTER_BOUND('',#131,.T.);
#79=FACE_OUTER_BOUND('',#132,.T.);
#80=FACE_OUTER_BOUND('',#133,.T.);
#81=FACE_OUTER_BOUND('',#134,.T.);
#82=FACE_OUTER_BOUND('',#135,.T.);
#83=FACE_OUTER_BOUND('',#136,.T.);
#84=FACE_OUTER_BOUND('',#137,.T.);
#85=FACE_OUTER_BOUND('',#138,.T.);
#86=FACE_OUTER_BOUND('',#139,.T.);
#87=FACE_OUTER_BOUND('',#140,.T.);
#88=FACE_OUTER_BOUND('',#141,.T.);
#89=FACE_OUTER_BOUND('',#142,.T.);
#90=FACE_OUTER_BOUND('',#143,.T.);
#91=FACE_OUTER_BOUND('',#144,.T.);
#92=FACE_OUTER_BOUND('',#145,.T.);
#93=FACE_OUTER_BOUND('',#146,.T.);
#94=FACE_OUTER_BOUND('',#147,.T.);
#95=FACE_OUTER_BOUND('',#148,.T.);
#96=FACE_OUTER_BOUND('',#149,.T.);
#97=FACE_OUTER_BOUND('',#150,.T.);
#98=FACE_OUTER_BOUND('',#151,.T.);
#99=FACE_OUTER_BOUND('',#152,.T.);
#100=FACE_OUTER_BOUND('',#153,.T.);
#101=FACE_OUTER_BOUND('',#154,.T.);
#102=FACE_OUTER_BOUND('',#155,.T.);
#103=FACE_OUTER_BOUND('',#156,.T.);
#104=FACE_OUTER_BOUND('',#157,.T.);
#105=FACE_OUTER_BOUND('',#158,.T.);
#106=FACE_OUTER_BOUND('',#159,.T.);
#107=FACE_OUTER_BOUND('',#160,.T.);
#108=FACE_OUTER_BOUND('',#161,.T.);
#109=EDGE_LOOP('',(#639,#640,#641,#642));
#110=EDGE_LOOP('',(#643,#644,#645,#646));
#111=EDGE_LOOP('',(#647,#648,#649,#650));
#112=EDGE_LOOP('',(#651,#652,#653,#654));
#113=EDGE_LOOP('',(#655,#656,#657,#658));
#114=EDGE_LOOP('',(#659,#660,#661,#662));
#115=EDGE_LOOP('',(#663,#664,#665,#666));
#116=EDGE_LOOP('',(#667,#668,#669,#670));
#117=EDGE_LOOP('',(#671,#672,#673,#674));
#118=EDGE_LOOP('',(#675,#676,#677,#678,#679,#680,#681,#682,#683,#684,#685,
#686,#687,#688,#689,#690,#691,#692,#693,#694,#695,#696,#697,#698,#699,#700,
#701,#702,#703,#704,#705,#706,#707,#708));
#119=EDGE_LOOP('',(#709));
#120=EDGE_LOOP('',(#710));
#121=EDGE_LOOP('',(#711));
#122=EDGE_LOOP('',(#712));
#123=EDGE_LOOP('',(#713,#714,#715,#716,#717,#718));
#124=EDGE_LOOP('',(#719));
#125=EDGE_LOOP('',(#720,#721,#722,#723));
#126=EDGE_LOOP('',(#724,#725,#726,#727));
#127=EDGE_LOOP('',(#728,#729,#730,#731));
#128=EDGE_LOOP('',(#732,#733,#734,#735));
#129=EDGE_LOOP('',(#736,#737,#738,#739));
#130=EDGE_LOOP('',(#740,#741,#742,#743));
#131=EDGE_LOOP('',(#744,#745,#746,#747));
#132=EDGE_LOOP('',(#748,#749,#750,#751));
#133=EDGE_LOOP('',(#752,#753,#754,#755));
#134=EDGE_LOOP('',(#756,#757,#758,#759));
#135=EDGE_LOOP('',(#760,#761,#762,#763));
#136=EDGE_LOOP('',(#764,#765,#766,#767));
#137=EDGE_LOOP('',(#768,#769,#770,#771));
#138=EDGE_LOOP('',(#772,#773,#774,#775));
#139=EDGE_LOOP('',(#776,#777,#778,#779));
#140=EDGE_LOOP('',(#780,#781,#782,#783));
#141=EDGE_LOOP('',(#784,#785,#786,#787));
#142=EDGE_LOOP('',(#788,#789,#790,#791));
#143=EDGE_LOOP('',(#792,#793,#794,#795));
#144=EDGE_LOOP('',(#796,#797,#798,#799));
#145=EDGE_LOOP('',(#800,#801,#802,#803));
#146=EDGE_LOOP('',(#804,#805,#806,#807));
#147=EDGE_LOOP('',(#808,#809,#810,#811));
#148=EDGE_LOOP('',(#812,#813,#814,#815));
#149=EDGE_LOOP('',(#816,#817,#818,#819));
#150=EDGE_LOOP('',(#820,#821,#822,#823));
#151=EDGE_LOOP('',(#824,#825,#826,#827));
#152=EDGE_LOOP('',(#828,#829,#830,#831));
#153=EDGE_LOOP('',(#832,#833,#834,#835));
#154=EDGE_LOOP('',(#836,#837,#838,#839));
#155=EDGE_LOOP('',(#840,#841,#842,#843));
#156=EDGE_LOOP('',(#844,#845,#846,#847));
#157=EDGE_LOOP('',(#848,#849,#850,#851));
#158=EDGE_LOOP('',(#852,#853,#854,#855));
#159=EDGE_LOOP('',(#856,#857,#858,#859));
#160=EDGE_LOOP('',(#860,#861,#862,#863));
#161=EDGE_LOOP('',(#864,#865,#866,#867,#868,#869,#870,#871,#872,#873,#874,
#875,#876,#877,#878,#879,#880,#881,#882,#883,#884,#885,#886,#887,#888,#889,
#890,#891,#892,#893,#894,#895,#896,#897));
#162=EDGE_LOOP('',(#898));
#163=EDGE_LOOP('',(#899));
#164=EDGE_LOOP('',(#900));
#165=EDGE_LOOP('',(#901));
#166=EDGE_LOOP('',(#902,#903,#904,#905,#906,#907));
#167=EDGE_LOOP('',(#908));
#168=LINE('',#1322,#279);
#169=LINE('',#1329,#280);
#170=LINE('',#1332,#281);
#171=LINE('',#1335,#282);
#172=LINE('',#1337,#283);
#173=LINE('',#1338,#284);
#174=LINE('',#1344,#285);
#175=LINE('',#1347,#286);
#176=LINE('',#1349,#287);
#177=LINE('',#1350,#288);
#178=LINE('',#1355,#289);
#179=LINE('',#1358,#290);
#180=LINE('',#1359,#291);
#181=LINE('',#1365,#292);
#182=LINE('',#1368,#293);
#183=LINE('',#1371,#294);
#184=LINE('',#1373,#295);
#185=LINE('',#1374,#296);
#186=LINE('',#1378,#297);
#187=LINE('',#1380,#298);
#188=LINE('',#1382,#299);
#189=LINE('',#1384,#300);
#190=LINE('',#1385,#301);
#191=LINE('',#1387,#302);
#192=LINE('',#1391,#303);
#193=LINE('',#1395,#304);
#194=LINE('',#1399,#305);
#195=LINE('',#1401,#306);
#196=LINE('',#1403,#307);
#197=LINE('',#1405,#308);
#198=LINE('',#1407,#309);
#199=LINE('',#1409,#310);
#200=LINE('',#1411,#311);
#201=LINE('',#1413,#312);
#202=LINE('',#1415,#313);
#203=LINE('',#1417,#314);
#204=LINE('',#1419,#315);
#205=LINE('',#1421,#316);
#206=LINE('',#1423,#317);
#207=LINE('',#1425,#318);
#208=LINE('',#1427,#319);
#209=LINE('',#1429,#320);
#210=LINE('',#1431,#321);
#211=LINE('',#1433,#322);
#212=LINE('',#1435,#323);
#213=LINE('',#1437,#324);
#214=LINE('',#1438,#325);
#215=LINE('',#1451,#326);
#216=LINE('',#1452,#327);
#217=LINE('',#1455,#328);
#218=LINE('',#1456,#329);
#219=LINE('',#1460,#330);
#220=LINE('',#1465,#331);
#221=LINE('',#1466,#332);
#222=LINE('',#1469,#333);
#223=LINE('',#1470,#334);
#224=LINE('',#1474,#335);
#225=LINE('',#1478,#336);
#226=LINE('',#1482,#337);
#227=LINE('',#1486,#338);
#228=LINE('',#1489,#339);
#229=LINE('',#1491,#340);
#230=LINE('',#1492,#341);
#231=LINE('',#1495,#342);
#232=LINE('',#1496,#343);
#233=LINE('',#1499,#344);
#234=LINE('',#1500,#345);
#235=LINE('',#1503,#346);
#236=LINE('',#1504,#347);
#237=LINE('',#1507,#348);
#238=LINE('',#1508,#349);
#239=LINE('',#1511,#350);
#240=LINE('',#1512,#351);
#241=LINE('',#1515,#352);
#242=LINE('',#1516,#353);
#243=LINE('',#1519,#354);
#244=LINE('',#1520,#355);
#245=LINE('',#1523,#356);
#246=LINE('',#1524,#357);
#247=LINE('',#1527,#358);
#248=LINE('',#1528,#359);
#249=LINE('',#1530,#360);
#250=LINE('',#1532,#361);
#251=LINE('',#1534,#362);
#252=LINE('',#1537,#363);
#253=LINE('',#1538,#364);
#254=LINE('',#1541,#365);
#255=LINE('',#1542,#366);
#256=LINE('',#1545,#367);
#257=LINE('',#1546,#368);
#258=LINE('',#1549,#369);
#259=LINE('',#1550,#370);
#260=LINE('',#1553,#371);
#261=LINE('',#1554,#372);
#262=LINE('',#1557,#373);
#263=LINE('',#1558,#374);
#264=LINE('',#1561,#375);
#265=LINE('',#1562,#376);
#266=LINE('',#1565,#377);
#267=LINE('',#1566,#378);
#268=LINE('',#1569,#379);
#269=LINE('',#1570,#380);
#270=LINE('',#1573,#381);
#271=LINE('',#1574,#382);
#272=LINE('',#1577,#383);
#273=LINE('',#1578,#384);
#274=LINE('',#1581,#385);
#275=LINE('',#1582,#386);
#276=LINE('',#1585,#387);
#277=LINE('',#1586,#388);
#278=LINE('',#1588,#389);
#279=VECTOR('',#1068,1.75);
#280=VECTOR('',#1075,10.);
#281=VECTOR('',#1078,10.);
#282=VECTOR('',#1081,10.);
#283=VECTOR('',#1082,10.);
#284=VECTOR('',#1083,10.);
#285=VECTOR('',#1088,10.);
#286=VECTOR('',#1091,10.);
#287=VECTOR('',#1094,10.);
#288=VECTOR('',#1095,10.);
#289=VECTOR('',#1100,10.);
#290=VECTOR('',#1105,10.);
#291=VECTOR('',#1106,10.);
#292=VECTOR('',#1111,10.);
#293=VECTOR('',#1114,10.);
#294=VECTOR('',#1117,10.);
#295=VECTOR('',#1118,10.);
#296=VECTOR('',#1119,10.);
#297=VECTOR('',#1122,10.);
#298=VECTOR('',#1123,10.);
#299=VECTOR('',#1124,10.);
#300=VECTOR('',#1125,10.);
#301=VECTOR('',#1126,10.);
#302=VECTOR('',#1127,10.);
#303=VECTOR('',#1130,10.);
#304=VECTOR('',#1133,10.);
#305=VECTOR('',#1136,10.);
#306=VECTOR('',#1137,10.);
#307=VECTOR('',#1138,10.);
#308=VECTOR('',#1139,10.);
#309=VECTOR('',#1140,10.);
#310=VECTOR('',#1141,10.);
#311=VECTOR('',#1142,10.);
#312=VECTOR('',#1143,10.);
#313=VECTOR('',#1144,10.);
#314=VECTOR('',#1145,10.);
#315=VECTOR('',#1146,10.);
#316=VECTOR('',#1147,10.);
#317=VECTOR('',#1148,10.);
#318=VECTOR('',#1149,10.);
#319=VECTOR('',#1150,10.);
#320=VECTOR('',#1151,10.);
#321=VECTOR('',#1152,10.);
#322=VECTOR('',#1153,10.);
#323=VECTOR('',#1154,10.);
#324=VECTOR('',#1155,10.);
#325=VECTOR('',#1156,10.);
#326=VECTOR('',#1169,10.);
#327=VECTOR('',#1170,10.);
#328=VECTOR('',#1173,10.);
#329=VECTOR('',#1174,10.);
#330=VECTOR('',#1179,10.);
#331=VECTOR('',#1184,10.);
#332=VECTOR('',#1185,10.);
#333=VECTOR('',#1188,10.);
#334=VECTOR('',#1189,10.);
#335=VECTOR('',#1194,4.3);
#336=VECTOR('',#1199,4.3);
#337=VECTOR('',#1204,2.);
#338=VECTOR('',#1209,4.3);
#339=VECTOR('',#1212,10.);
#340=VECTOR('',#1213,10.);
#341=VECTOR('',#1214,10.);
#342=VECTOR('',#1217,10.);
#343=VECTOR('',#1218,10.);
#344=VECTOR('',#1221,10.);
#345=VECTOR('',#1222,10.);
#346=VECTOR('',#1225,10.);
#347=VECTOR('',#1226,10.);
#348=VECTOR('',#1229,10.);
#349=VECTOR('',#1230,10.);
#350=VECTOR('',#1233,10.);
#351=VECTOR('',#1234,10.);
#352=VECTOR('',#1237,10.);
#353=VECTOR('',#1238,10.);
#354=VECTOR('',#1241,10.);
#355=VECTOR('',#1242,10.);
#356=VECTOR('',#1245,10.);
#357=VECTOR('',#1246,10.);
#358=VECTOR('',#1249,10.);
#359=VECTOR('',#1250,10.);
#360=VECTOR('',#1253,10.);
#361=VECTOR('',#1256,10.);
#362=VECTOR('',#1259,10.);
#363=VECTOR('',#1262,10.);
#364=VECTOR('',#1263,10.);
#365=VECTOR('',#1266,10.);
#366=VECTOR('',#1267,10.);
#367=VECTOR('',#1270,10.);
#368=VECTOR('',#1271,10.);
#369=VECTOR('',#1274,10.);
#370=VECTOR('',#1275,10.);
#371=VECTOR('',#1278,10.);
#372=VECTOR('',#1279,10.);
#373=VECTOR('',#1282,10.);
#374=VECTOR('',#1283,10.);
#375=VECTOR('',#1286,10.);
#376=VECTOR('',#1287,10.);
#377=VECTOR('',#1290,10.);
#378=VECTOR('',#1291,10.);
#379=VECTOR('',#1294,10.);
#380=VECTOR('',#1295,10.);
#381=VECTOR('',#1298,10.);
#382=VECTOR('',#1299,10.);
#383=VECTOR('',#1302,10.);
#384=VECTOR('',#1303,10.);
#385=VECTOR('',#1306,10.);
#386=VECTOR('',#1307,10.);
#387=VECTOR('',#1310,10.);
#388=VECTOR('',#1311,10.);
#389=VECTOR('',#1314,10.);
#390=CIRCLE('',#992,1.75);
#391=CIRCLE('',#993,1.75);
#392=CIRCLE('',#995,6.);
#393=CIRCLE('',#996,6.);
#394=CIRCLE('',#999,2.);
#395=CIRCLE('',#1000,2.);
#396=CIRCLE('',#1003,2.);
#397=CIRCLE('',#1004,2.);
#398=CIRCLE('',#1007,2.);
#399=CIRCLE('',#1008,2.);
#400=CIRCLE('',#1011,2.);
#401=CIRCLE('',#1012,2.);
#402=CIRCLE('',#1013,2.);
#403=CIRCLE('',#1014,4.3);
#404=CIRCLE('',#1015,2.);
#405=CIRCLE('',#1016,4.3);
#406=CIRCLE('',#1017,4.3);
#407=CIRCLE('',#1019,2.);
#408=CIRCLE('',#1022,2.);
#409=CIRCLE('',#1024,2.);
#410=CIRCLE('',#1027,4.3);
#411=CIRCLE('',#1029,4.3);
#412=CIRCLE('',#1031,2.);
#413=CIRCLE('',#1033,4.3);
#414=VERTEX_POINT('',#1319);
#415=VERTEX_POINT('',#1321);
#416=VERTEX_POINT('',#1325);
#417=VERTEX_POINT('',#1326);
#418=VERTEX_POINT('',#1328);
#419=VERTEX_POINT('',#1330);
#420=VERTEX_POINT('',#1334);
#421=VERTEX_POINT('',#1336);
#422=VERTEX_POINT('',#1340);
#423=VERTEX_POINT('',#1341);
#424=VERTEX_POINT('',#1343);
#425=VERTEX_POINT('',#1345);
#426=VERTEX_POINT('',#1352);
#427=VERTEX_POINT('',#1354);
#428=VERTEX_POINT('',#1361);
#429=VERTEX_POINT('',#1362);
#430=VERTEX_POINT('',#1364);
#431=VERTEX_POINT('',#1366);
#432=VERTEX_POINT('',#1370);
#433=VERTEX_POINT('',#1372);
#434=VERTEX_POINT('',#1376);
#435=VERTEX_POINT('',#1377);
#436=VERTEX_POINT('',#1379);
#437=VERTEX_POINT('',#1381);
#438=VERTEX_POINT('',#1383);
#439=VERTEX_POINT('',#1386);
#440=VERTEX_POINT('',#1388);
#441=VERTEX_POINT('',#1390);
#442=VERTEX_POINT('',#1392);
#443=VERTEX_POINT('',#1394);
#444=VERTEX_POINT('',#1396);
#445=VERTEX_POINT('',#1398);
#446=VERTEX_POINT('',#1400);
#447=VERTEX_POINT('',#1402);
#448=VERTEX_POINT('',#1404);
#449=VERTEX_POINT('',#1406);
#450=VERTEX_POINT('',#1408);
#451=VERTEX_POINT('',#1410);
#452=VERTEX_POINT('',#1412);
#453=VERTEX_POINT('',#1414);
#454=VERTEX_POINT('',#1416);
#455=VERTEX_POINT('',#1418);
#456=VERTEX_POINT('',#1420);
#457=VERTEX_POINT('',#1422);
#458=VERTEX_POINT('',#1424);
#459=VERTEX_POINT('',#1426);
#460=VERTEX_POINT('',#1428);
#461=VERTEX_POINT('',#1430);
#462=VERTEX_POINT('',#1432);
#463=VERTEX_POINT('',#1434);
#464=VERTEX_POINT('',#1436);
#465=VERTEX_POINT('',#1439);
#466=VERTEX_POINT('',#1441);
#467=VERTEX_POINT('',#1443);
#468=VERTEX_POINT('',#1445);
#469=VERTEX_POINT('',#1448);
#470=VERTEX_POINT('',#1449);
#471=VERTEX_POINT('',#1454);
#472=VERTEX_POINT('',#1458);
#473=VERTEX_POINT('',#1462);
#474=VERTEX_POINT('',#1463);
#475=VERTEX_POINT('',#1468);
#476=VERTEX_POINT('',#1472);
#477=VERTEX_POINT('',#1476);
#478=VERTEX_POINT('',#1480);
#479=VERTEX_POINT('',#1484);
#480=VERTEX_POINT('',#1488);
#481=VERTEX_POINT('',#1490);
#482=VERTEX_POINT('',#1494);
#483=VERTEX_POINT('',#1498);
#484=VERTEX_POINT('',#1502);
#485=VERTEX_POINT('',#1506);
#486=VERTEX_POINT('',#1510);
#487=VERTEX_POINT('',#1514);
#488=VERTEX_POINT('',#1518);
#489=VERTEX_POINT('',#1522);
#490=VERTEX_POINT('',#1526);
#491=VERTEX_POINT('',#1536);
#492=VERTEX_POINT('',#1540);
#493=VERTEX_POINT('',#1544);
#494=VERTEX_POINT('',#1548);
#495=VERTEX_POINT('',#1552);
#496=VERTEX_POINT('',#1556);
#497=VERTEX_POINT('',#1560);
#498=VERTEX_POINT('',#1564);
#499=VERTEX_POINT('',#1568);
#500=VERTEX_POINT('',#1572);
#501=VERTEX_POINT('',#1576);
#502=VERTEX_POINT('',#1580);
#503=VERTEX_POINT('',#1584);
#504=EDGE_CURVE('',#414,#414,#390,.T.);
#505=EDGE_CURVE('',#414,#415,#168,.T.);
#506=EDGE_CURVE('',#415,#415,#391,.T.);
#507=EDGE_CURVE('',#416,#417,#392,.T.);
#508=EDGE_CURVE('',#417,#418,#169,.T.);
#509=EDGE_CURVE('',#418,#419,#393,.T.);
#510=EDGE_CURVE('',#419,#416,#170,.T.);
#511=EDGE_CURVE('',#417,#420,#171,.T.);
#512=EDGE_CURVE('',#421,#420,#172,.T.);
#513=EDGE_CURVE('',#418,#421,#173,.T.);
#514=EDGE_CURVE('',#422,#423,#394,.T.);
#515=EDGE_CURVE('',#423,#424,#174,.T.);
#516=EDGE_CURVE('',#424,#425,#395,.T.);
#517=EDGE_CURVE('',#425,#422,#175,.T.);
#518=EDGE_CURVE('',#424,#419,#176,.T.);
#519=EDGE_CURVE('',#423,#416,#177,.T.);
#520=EDGE_CURVE('',#420,#426,#396,.T.);
#521=EDGE_CURVE('',#426,#427,#178,.T.);
#522=EDGE_CURVE('',#427,#421,#397,.T.);
#523=EDGE_CURVE('',#427,#425,#179,.T.);
#524=EDGE_CURVE('',#426,#422,#180,.T.);
#525=EDGE_CURVE('',#428,#429,#398,.T.);
#526=EDGE_CURVE('',#429,#430,#181,.T.);
#527=EDGE_CURVE('',#430,#431,#399,.T.);
#528=EDGE_CURVE('',#431,#428,#182,.T.);
#529=EDGE_CURVE('',#431,#432,#183,.T.);
#530=EDGE_CURVE('',#432,#433,#184,.T.);
#531=EDGE_CURVE('',#428,#433,#185,.T.);
#532=EDGE_CURVE('',#434,#435,#186,.T.);
#533=EDGE_CURVE('',#436,#434,#187,.T.);
#534=EDGE_CURVE('',#437,#436,#188,.T.);
#535=EDGE_CURVE('',#438,#437,#189,.T.);
#536=EDGE_CURVE('',#432,#438,#190,.T.);
#537=EDGE_CURVE('',#439,#430,#191,.T.);
#538=EDGE_CURVE('',#440,#439,#400,.T.);
#539=EDGE_CURVE('',#441,#440,#192,.T.);
#540=EDGE_CURVE('',#442,#441,#401,.T.);
#541=EDGE_CURVE('',#443,#442,#193,.T.);
#542=EDGE_CURVE('',#444,#443,#402,.T.);
#543=EDGE_CURVE('',#445,#444,#194,.T.);
#544=EDGE_CURVE('',#446,#445,#195,.T.);
#545=EDGE_CURVE('',#447,#446,#196,.T.);
#546=EDGE_CURVE('',#448,#447,#197,.T.);
#547=EDGE_CURVE('',#449,#448,#198,.T.);
#548=EDGE_CURVE('',#450,#449,#199,.T.);
#549=EDGE_CURVE('',#451,#450,#200,.T.);
#550=EDGE_CURVE('',#452,#451,#201,.T.);
#551=EDGE_CURVE('',#453,#452,#202,.T.);
#552=EDGE_CURVE('',#454,#453,#203,.T.);
#553=EDGE_CURVE('',#455,#454,#204,.T.);
#554=EDGE_CURVE('',#456,#455,#205,.T.);
#555=EDGE_CURVE('',#457,#456,#206,.T.);
#556=EDGE_CURVE('',#458,#457,#207,.T.);
#557=EDGE_CURVE('',#459,#458,#208,.T.);
#558=EDGE_CURVE('',#460,#459,#209,.T.);
#559=EDGE_CURVE('',#461,#460,#210,.T.);
#560=EDGE_CURVE('',#462,#461,#211,.T.);
#561=EDGE_CURVE('',#463,#462,#212,.T.);
#562=EDGE_CURVE('',#464,#463,#213,.T.);
#563=EDGE_CURVE('',#435,#464,#214,.T.);
#564=EDGE_CURVE('',#465,#465,#403,.T.);
#565=EDGE_CURVE('',#466,#466,#404,.T.);
#566=EDGE_CURVE('',#467,#467,#405,.T.);
#567=EDGE_CURVE('',#468,#468,#406,.T.);
#568=EDGE_CURVE('',#469,#470,#407,.T.);
#569=EDGE_CURVE('',#470,#440,#215,.T.);
#570=EDGE_CURVE('',#439,#469,#216,.T.);
#571=EDGE_CURVE('',#471,#470,#217,.T.);
#572=EDGE_CURVE('',#441,#471,#218,.T.);
#573=EDGE_CURVE('',#471,#472,#408,.T.);
#574=EDGE_CURVE('',#472,#442,#219,.T.);
#575=EDGE_CURVE('',#473,#474,#409,.T.);
#576=EDGE_CURVE('',#474,#444,#220,.T.);
#577=EDGE_CURVE('',#443,#473,#221,.T.);
#578=EDGE_CURVE('',#475,#474,#222,.T.);
#579=EDGE_CURVE('',#445,#475,#223,.T.);
#580=EDGE_CURVE('',#476,#476,#410,.T.);
#581=EDGE_CURVE('',#476,#468,#224,.T.);
#582=EDGE_CURVE('',#477,#477,#411,.T.);
#583=EDGE_CURVE('',#477,#467,#225,.T.);
#584=EDGE_CURVE('',#478,#478,#412,.T.);
#585=EDGE_CURVE('',#478,#466,#226,.T.);
#586=EDGE_CURVE('',#479,#479,#413,.T.);
#587=EDGE_CURVE('',#479,#465,#227,.T.);
#588=EDGE_CURVE('',#459,#480,#228,.T.);
#589=EDGE_CURVE('',#481,#480,#229,.T.);
#590=EDGE_CURVE('',#460,#481,#230,.T.);
#591=EDGE_CURVE('',#482,#481,#231,.T.);
#592=EDGE_CURVE('',#461,#482,#232,.T.);
#593=EDGE_CURVE('',#483,#482,#233,.T.);
#594=EDGE_CURVE('',#462,#483,#234,.T.);
#595=EDGE_CURVE('',#484,#483,#235,.T.);
#596=EDGE_CURVE('',#463,#484,#236,.T.);
#597=EDGE_CURVE('',#485,#484,#237,.T.);
#598=EDGE_CURVE('',#464,#485,#238,.T.);
#599=EDGE_CURVE('',#486,#485,#239,.T.);
#600=EDGE_CURVE('',#435,#486,#240,.T.);
#601=EDGE_CURVE('',#487,#486,#241,.T.);
#602=EDGE_CURVE('',#434,#487,#242,.T.);
#603=EDGE_CURVE('',#488,#487,#243,.T.);
#604=EDGE_CURVE('',#436,#488,#244,.T.);
#605=EDGE_CURVE('',#489,#488,#245,.T.);
#606=EDGE_CURVE('',#437,#489,#246,.T.);
#607=EDGE_CURVE('',#490,#489,#247,.T.);
#608=EDGE_CURVE('',#438,#490,#248,.T.);
#609=EDGE_CURVE('',#433,#490,#249,.T.);
#610=EDGE_CURVE('',#469,#429,#250,.T.);
#611=EDGE_CURVE('',#473,#472,#251,.T.);
#612=EDGE_CURVE('',#491,#475,#252,.T.);
#613=EDGE_CURVE('',#446,#491,#253,.T.);
#614=EDGE_CURVE('',#492,#491,#254,.T.);
#615=EDGE_CURVE('',#447,#492,#255,.T.);
#616=EDGE_CURVE('',#493,#492,#256,.T.);
#617=EDGE_CURVE('',#448,#493,#257,.T.);
#618=EDGE_CURVE('',#494,#493,#258,.T.);
#619=EDGE_CURVE('',#449,#494,#259,.T.);
#620=EDGE_CURVE('',#495,#494,#260,.T.);
#621=EDGE_CURVE('',#450,#495,#261,.T.);
#622=EDGE_CURVE('',#496,#495,#262,.T.);
#623=EDGE_CURVE('',#451,#496,#263,.T.);
#624=EDGE_CURVE('',#497,#496,#264,.T.);
#625=EDGE_CURVE('',#452,#497,#265,.T.);
#626=EDGE_CURVE('',#498,#497,#266,.T.);
#627=EDGE_CURVE('',#453,#498,#267,.T.);
#628=EDGE_CURVE('',#499,#498,#268,.T.);
#629=EDGE_CURVE('',#454,#499,#269,.T.);
#630=EDGE_CURVE('',#500,#499,#270,.T.);
#631=EDGE_CURVE('',#455,#500,#271,.T.);
#632=EDGE_CURVE('',#501,#500,#272,.T.);
#633=EDGE_CURVE('',#456,#501,#273,.T.);
#634=EDGE_CURVE('',#502,#501,#274,.T.);
#635=EDGE_CURVE('',#457,#502,#275,.T.);
#636=EDGE_CURVE('',#503,#502,#276,.T.);
#637=EDGE_CURVE('',#458,#503,#277,.T.);
#638=EDGE_CURVE('',#480,#503,#278,.T.);
#639=ORIENTED_EDGE('',*,*,#504,.T.);
#640=ORIENTED_EDGE('',*,*,#505,.T.);
#641=ORIENTED_EDGE('',*,*,#506,.F.);
#642=ORIENTED_EDGE('',*,*,#505,.F.);
#643=ORIENTED_EDGE('',*,*,#507,.T.);
#644=ORIENTED_EDGE('',*,*,#508,.T.);
#645=ORIENTED_EDGE('',*,*,#509,.T.);
#646=ORIENTED_EDGE('',*,*,#510,.T.);
#647=ORIENTED_EDGE('',*,*,#508,.F.);
#648=ORIENTED_EDGE('',*,*,#511,.T.);
#649=ORIENTED_EDGE('',*,*,#512,.F.);
#650=ORIENTED_EDGE('',*,*,#513,.F.);
#651=ORIENTED_EDGE('',*,*,#514,.T.);
#652=ORIENTED_EDGE('',*,*,#515,.T.);
#653=ORIENTED_EDGE('',*,*,#516,.T.);
#654=ORIENTED_EDGE('',*,*,#517,.T.);
#655=ORIENTED_EDGE('',*,*,#510,.F.);
#656=ORIENTED_EDGE('',*,*,#518,.F.);
#657=ORIENTED_EDGE('',*,*,#515,.F.);
#658=ORIENTED_EDGE('',*,*,#519,.T.);
#659=ORIENTED_EDGE('',*,*,#520,.T.);
#660=ORIENTED_EDGE('',*,*,#521,.T.);
#661=ORIENTED_EDGE('',*,*,#522,.T.);
#662=ORIENTED_EDGE('',*,*,#512,.T.);
#663=ORIENTED_EDGE('',*,*,#517,.F.);
#664=ORIENTED_EDGE('',*,*,#523,.F.);
#665=ORIENTED_EDGE('',*,*,#521,.F.);
#666=ORIENTED_EDGE('',*,*,#524,.T.);
#667=ORIENTED_EDGE('',*,*,#525,.T.);
#668=ORIENTED_EDGE('',*,*,#526,.T.);
#669=ORIENTED_EDGE('',*,*,#527,.T.);
#670=ORIENTED_EDGE('',*,*,#528,.T.);
#671=ORIENTED_EDGE('',*,*,#528,.F.);
#672=ORIENTED_EDGE('',*,*,#529,.T.);
#673=ORIENTED_EDGE('',*,*,#530,.T.);
#674=ORIENTED_EDGE('',*,*,#531,.F.);
#675=ORIENTED_EDGE('',*,*,#532,.F.);
#676=ORIENTED_EDGE('',*,*,#533,.F.);
#677=ORIENTED_EDGE('',*,*,#534,.F.);
#678=ORIENTED_EDGE('',*,*,#535,.F.);
#679=ORIENTED_EDGE('',*,*,#536,.F.);
#680=ORIENTED_EDGE('',*,*,#529,.F.);
#681=ORIENTED_EDGE('',*,*,#527,.F.);
#682=ORIENTED_EDGE('',*,*,#537,.F.);
#683=ORIENTED_EDGE('',*,*,#538,.F.);
#684=ORIENTED_EDGE('',*,*,#539,.F.);
#685=ORIENTED_EDGE('',*,*,#540,.F.);
#686=ORIENTED_EDGE('',*,*,#541,.F.);
#687=ORIENTED_EDGE('',*,*,#542,.F.);
#688=ORIENTED_EDGE('',*,*,#543,.F.);
#689=ORIENTED_EDGE('',*,*,#544,.F.);
#690=ORIENTED_EDGE('',*,*,#545,.F.);
#691=ORIENTED_EDGE('',*,*,#546,.F.);
#692=ORIENTED_EDGE('',*,*,#547,.F.);
#693=ORIENTED_EDGE('',*,*,#548,.F.);
#694=ORIENTED_EDGE('',*,*,#549,.F.);
#695=ORIENTED_EDGE('',*,*,#550,.F.);
#696=ORIENTED_EDGE('',*,*,#551,.F.);
#697=ORIENTED_EDGE('',*,*,#552,.F.);
#698=ORIENTED_EDGE('',*,*,#553,.F.);
#699=ORIENTED_EDGE('',*,*,#554,.F.);
#700=ORIENTED_EDGE('',*,*,#555,.F.);
#701=ORIENTED_EDGE('',*,*,#556,.F.);
#702=ORIENTED_EDGE('',*,*,#557,.F.);
#703=ORIENTED_EDGE('',*,*,#558,.F.);
#704=ORIENTED_EDGE('',*,*,#559,.F.);
#705=ORIENTED_EDGE('',*,*,#560,.F.);
#706=ORIENTED_EDGE('',*,*,#561,.F.);
#707=ORIENTED_EDGE('',*,*,#562,.F.);
#708=ORIENTED_EDGE('',*,*,#563,.F.);
#709=ORIENTED_EDGE('',*,*,#506,.T.);
#710=ORIENTED_EDGE('',*,*,#564,.F.);
#711=ORIENTED_EDGE('',*,*,#565,.F.);
#712=ORIENTED_EDGE('',*,*,#566,.F.);
#713=ORIENTED_EDGE('',*,*,#520,.F.);
#714=ORIENTED_EDGE('',*,*,#511,.F.);
#715=ORIENTED_EDGE('',*,*,#507,.F.);
#716=ORIENTED_EDGE('',*,*,#519,.F.);
#717=ORIENTED_EDGE('',*,*,#514,.F.);
#718=ORIENTED_EDGE('',*,*,#524,.F.);
#719=ORIENTED_EDGE('',*,*,#567,.F.);
#720=ORIENTED_EDGE('',*,*,#568,.T.);
#721=ORIENTED_EDGE('',*,*,#569,.T.);
#722=ORIENTED_EDGE('',*,*,#538,.T.);
#723=ORIENTED_EDGE('',*,*,#570,.T.);
#724=ORIENTED_EDGE('',*,*,#569,.F.);
#725=ORIENTED_EDGE('',*,*,#571,.F.);
#726=ORIENTED_EDGE('',*,*,#572,.F.);
#727=ORIENTED_EDGE('',*,*,#539,.T.);
#728=ORIENTED_EDGE('',*,*,#573,.T.);
#729=ORIENTED_EDGE('',*,*,#574,.T.);
#730=ORIENTED_EDGE('',*,*,#540,.T.);
#731=ORIENTED_EDGE('',*,*,#572,.T.);
#732=ORIENTED_EDGE('',*,*,#575,.T.);
#733=ORIENTED_EDGE('',*,*,#576,.T.);
#734=ORIENTED_EDGE('',*,*,#542,.T.);
#735=ORIENTED_EDGE('',*,*,#577,.T.);
#736=ORIENTED_EDGE('',*,*,#576,.F.);
#737=ORIENTED_EDGE('',*,*,#578,.F.);
#738=ORIENTED_EDGE('',*,*,#579,.F.);
#739=ORIENTED_EDGE('',*,*,#543,.T.);
#740=ORIENTED_EDGE('',*,*,#580,.F.);
#741=ORIENTED_EDGE('',*,*,#581,.T.);
#742=ORIENTED_EDGE('',*,*,#567,.T.);
#743=ORIENTED_EDGE('',*,*,#581,.F.);
#744=ORIENTED_EDGE('',*,*,#582,.F.);
#745=ORIENTED_EDGE('',*,*,#583,.T.);
#746=ORIENTED_EDGE('',*,*,#566,.T.);
#747=ORIENTED_EDGE('',*,*,#583,.F.);
#748=ORIENTED_EDGE('',*,*,#584,.F.);
#749=ORIENTED_EDGE('',*,*,#585,.T.);
#750=ORIENTED_EDGE('',*,*,#565,.T.);
#751=ORIENTED_EDGE('',*,*,#585,.F.);
#752=ORIENTED_EDGE('',*,*,#586,.F.);
#753=ORIENTED_EDGE('',*,*,#587,.T.);
#754=ORIENTED_EDGE('',*,*,#564,.T.);
#755=ORIENTED_EDGE('',*,*,#587,.F.);
#756=ORIENTED_EDGE('',*,*,#558,.T.);
#757=ORIENTED_EDGE('',*,*,#588,.T.);
#758=ORIENTED_EDGE('',*,*,#589,.F.);
#759=ORIENTED_EDGE('',*,*,#590,.F.);
#760=ORIENTED_EDGE('',*,*,#559,.T.);
#761=ORIENTED_EDGE('',*,*,#590,.T.);
#762=ORIENTED_EDGE('',*,*,#591,.F.);
#763=ORIENTED_EDGE('',*,*,#592,.F.);
#764=ORIENTED_EDGE('',*,*,#560,.T.);
#765=ORIENTED_EDGE('',*,*,#592,.T.);
#766=ORIENTED_EDGE('',*,*,#593,.F.);
#767=ORIENTED_EDGE('',*,*,#594,.F.);
#768=ORIENTED_EDGE('',*,*,#561,.T.);
#769=ORIENTED_EDGE('',*,*,#594,.T.);
#770=ORIENTED_EDGE('',*,*,#595,.F.);
#771=ORIENTED_EDGE('',*,*,#596,.F.);
#772=ORIENTED_EDGE('',*,*,#562,.T.);
#773=ORIENTED_EDGE('',*,*,#596,.T.);
#774=ORIENTED_EDGE('',*,*,#597,.F.);
#775=ORIENTED_EDGE('',*,*,#598,.F.);
#776=ORIENTED_EDGE('',*,*,#563,.T.);
#777=ORIENTED_EDGE('',*,*,#598,.T.);
#778=ORIENTED_EDGE('',*,*,#599,.F.);
#779=ORIENTED_EDGE('',*,*,#600,.F.);
#780=ORIENTED_EDGE('',*,*,#532,.T.);
#781=ORIENTED_EDGE('',*,*,#600,.T.);
#782=ORIENTED_EDGE('',*,*,#601,.F.);
#783=ORIENTED_EDGE('',*,*,#602,.F.);
#784=ORIENTED_EDGE('',*,*,#533,.T.);
#785=ORIENTED_EDGE('',*,*,#602,.T.);
#786=ORIENTED_EDGE('',*,*,#603,.F.);
#787=ORIENTED_EDGE('',*,*,#604,.F.);
#788=ORIENTED_EDGE('',*,*,#534,.T.);
#789=ORIENTED_EDGE('',*,*,#604,.T.);
#790=ORIENTED_EDGE('',*,*,#605,.F.);
#791=ORIENTED_EDGE('',*,*,#606,.F.);
#792=ORIENTED_EDGE('',*,*,#535,.T.);
#793=ORIENTED_EDGE('',*,*,#606,.T.);
#794=ORIENTED_EDGE('',*,*,#607,.F.);
#795=ORIENTED_EDGE('',*,*,#608,.F.);
#796=ORIENTED_EDGE('',*,*,#536,.T.);
#797=ORIENTED_EDGE('',*,*,#608,.T.);
#798=ORIENTED_EDGE('',*,*,#609,.F.);
#799=ORIENTED_EDGE('',*,*,#530,.F.);
#800=ORIENTED_EDGE('',*,*,#526,.F.);
#801=ORIENTED_EDGE('',*,*,#610,.F.);
#802=ORIENTED_EDGE('',*,*,#570,.F.);
#803=ORIENTED_EDGE('',*,*,#537,.T.);
#804=ORIENTED_EDGE('',*,*,#574,.F.);
#805=ORIENTED_EDGE('',*,*,#611,.F.);
#806=ORIENTED_EDGE('',*,*,#577,.F.);
#807=ORIENTED_EDGE('',*,*,#541,.T.);
#808=ORIENTED_EDGE('',*,*,#544,.T.);
#809=ORIENTED_EDGE('',*,*,#579,.T.);
#810=ORIENTED_EDGE('',*,*,#612,.F.);
#811=ORIENTED_EDGE('',*,*,#613,.F.);
#812=ORIENTED_EDGE('',*,*,#545,.T.);
#813=ORIENTED_EDGE('',*,*,#613,.T.);
#814=ORIENTED_EDGE('',*,*,#614,.F.);
#815=ORIENTED_EDGE('',*,*,#615,.F.);
#816=ORIENTED_EDGE('',*,*,#546,.T.);
#817=ORIENTED_EDGE('',*,*,#615,.T.);
#818=ORIENTED_EDGE('',*,*,#616,.F.);
#819=ORIENTED_EDGE('',*,*,#617,.F.);
#820=ORIENTED_EDGE('',*,*,#547,.T.);
#821=ORIENTED_EDGE('',*,*,#617,.T.);
#822=ORIENTED_EDGE('',*,*,#618,.F.);
#823=ORIENTED_EDGE('',*,*,#619,.F.);
#824=ORIENTED_EDGE('',*,*,#548,.T.);
#825=ORIENTED_EDGE('',*,*,#619,.T.);
#826=ORIENTED_EDGE('',*,*,#620,.F.);
#827=ORIENTED_EDGE('',*,*,#621,.F.);
#828=ORIENTED_EDGE('',*,*,#549,.T.);
#829=ORIENTED_EDGE('',*,*,#621,.T.);
#830=ORIENTED_EDGE('',*,*,#622,.F.);
#831=ORIENTED_EDGE('',*,*,#623,.F.);
#832=ORIENTED_EDGE('',*,*,#550,.T.);
#833=ORIENTED_EDGE('',*,*,#623,.T.);
#834=ORIENTED_EDGE('',*,*,#624,.F.);
#835=ORIENTED_EDGE('',*,*,#625,.F.);
#836=ORIENTED_EDGE('',*,*,#551,.T.);
#837=ORIENTED_EDGE('',*,*,#625,.T.);
#838=ORIENTED_EDGE('',*,*,#626,.F.);
#839=ORIENTED_EDGE('',*,*,#627,.F.);
#840=ORIENTED_EDGE('',*,*,#552,.T.);
#841=ORIENTED_EDGE('',*,*,#627,.T.);
#842=ORIENTED_EDGE('',*,*,#628,.F.);
#843=ORIENTED_EDGE('',*,*,#629,.F.);
#844=ORIENTED_EDGE('',*,*,#553,.T.);
#845=ORIENTED_EDGE('',*,*,#629,.T.);
#846=ORIENTED_EDGE('',*,*,#630,.F.);
#847=ORIENTED_EDGE('',*,*,#631,.F.);
#848=ORIENTED_EDGE('',*,*,#554,.T.);
#849=ORIENTED_EDGE('',*,*,#631,.T.);
#850=ORIENTED_EDGE('',*,*,#632,.F.);
#851=ORIENTED_EDGE('',*,*,#633,.F.);
#852=ORIENTED_EDGE('',*,*,#555,.T.);
#853=ORIENTED_EDGE('',*,*,#633,.T.);
#854=ORIENTED_EDGE('',*,*,#634,.F.);
#855=ORIENTED_EDGE('',*,*,#635,.F.);
#856=ORIENTED_EDGE('',*,*,#556,.T.);
#857=ORIENTED_EDGE('',*,*,#635,.T.);
#858=ORIENTED_EDGE('',*,*,#636,.F.);
#859=ORIENTED_EDGE('',*,*,#637,.F.);
#860=ORIENTED_EDGE('',*,*,#557,.T.);
#861=ORIENTED_EDGE('',*,*,#637,.T.);
#862=ORIENTED_EDGE('',*,*,#638,.F.);
#863=ORIENTED_EDGE('',*,*,#588,.F.);
#864=ORIENTED_EDGE('',*,*,#601,.T.);
#865=ORIENTED_EDGE('',*,*,#599,.T.);
#866=ORIENTED_EDGE('',*,*,#597,.T.);
#867=ORIENTED_EDGE('',*,*,#595,.T.);
#868=ORIENTED_EDGE('',*,*,#593,.T.);
#869=ORIENTED_EDGE('',*,*,#591,.T.);
#870=ORIENTED_EDGE('',*,*,#589,.T.);
#871=ORIENTED_EDGE('',*,*,#638,.T.);
#872=ORIENTED_EDGE('',*,*,#636,.T.);
#873=ORIENTED_EDGE('',*,*,#634,.T.);
#874=ORIENTED_EDGE('',*,*,#632,.T.);
#875=ORIENTED_EDGE('',*,*,#630,.T.);
#876=ORIENTED_EDGE('',*,*,#628,.T.);
#877=ORIENTED_EDGE('',*,*,#626,.T.);
#878=ORIENTED_EDGE('',*,*,#624,.T.);
#879=ORIENTED_EDGE('',*,*,#622,.T.);
#880=ORIENTED_EDGE('',*,*,#620,.T.);
#881=ORIENTED_EDGE('',*,*,#618,.T.);
#882=ORIENTED_EDGE('',*,*,#616,.T.);
#883=ORIENTED_EDGE('',*,*,#614,.T.);
#884=ORIENTED_EDGE('',*,*,#612,.T.);
#885=ORIENTED_EDGE('',*,*,#578,.T.);
#886=ORIENTED_EDGE('',*,*,#575,.F.);
#887=ORIENTED_EDGE('',*,*,#611,.T.);
#888=ORIENTED_EDGE('',*,*,#573,.F.);
#889=ORIENTED_EDGE('',*,*,#571,.T.);
#890=ORIENTED_EDGE('',*,*,#568,.F.);
#891=ORIENTED_EDGE('',*,*,#610,.T.);
#892=ORIENTED_EDGE('',*,*,#525,.F.);
#893=ORIENTED_EDGE('',*,*,#531,.T.);
#894=ORIENTED_EDGE('',*,*,#609,.T.);
#895=ORIENTED_EDGE('',*,*,#607,.T.);
#896=ORIENTED_EDGE('',*,*,#605,.T.);
#897=ORIENTED_EDGE('',*,*,#603,.T.);
#898=ORIENTED_EDGE('',*,*,#504,.F.);
#899=ORIENTED_EDGE('',*,*,#586,.T.);
#900=ORIENTED_EDGE('',*,*,#584,.T.);
#901=ORIENTED_EDGE('',*,*,#582,.T.);
#902=ORIENTED_EDGE('',*,*,#523,.T.);
#903=ORIENTED_EDGE('',*,*,#516,.F.);
#904=ORIENTED_EDGE('',*,*,#518,.T.);
#905=ORIENTED_EDGE('',*,*,#509,.F.);
#906=ORIENTED_EDGE('',*,*,#513,.T.);
#907=ORIENTED_EDGE('',*,*,#522,.F.);
#908=ORIENTED_EDGE('',*,*,#580,.T.);
#909=CYLINDRICAL_SURFACE('',#991,1.75);
#910=CYLINDRICAL_SURFACE('',#994,6.);
#911=CYLINDRICAL_SURFACE('',#998,2.);
#912=CYLINDRICAL_SURFACE('',#1002,2.);
#913=CYLINDRICAL_SURFACE('',#1006,2.);
#914=CYLINDRICAL_SURFACE('',#1018,2.);
#915=CYLINDRICAL_SURFACE('',#1021,2.);
#916=CYLINDRICAL_SURFACE('',#1023,2.);
#917=CYLINDRICAL_SURFACE('',#1026,4.3);
#918=CYLINDRICAL_SURFACE('',#1028,4.3);
#919=CYLINDRICAL_SURFACE('',#1030,2.);
#920=CYLINDRICAL_SURFACE('',#1032,4.3);
#921=ADVANCED_FACE('',(#62),#909,.F.);
#922=ADVANCED_FACE('',(#63),#910,.F.);
#923=ADVANCED_FACE('',(#64),#27,.T.);
#924=ADVANCED_FACE('',(#65),#911,.F.);
#925=ADVANCED_FACE('',(#66),#28,.T.);
#926=ADVANCED_FACE('',(#67),#912,.F.);
#927=ADVANCED_FACE('',(#68),#29,.T.);
#928=ADVANCED_FACE('',(#69),#913,.T.);
#929=ADVANCED_FACE('',(#70),#30,.T.);
#930=ADVANCED_FACE('',(#71,#15,#16,#17,#18,#19,#20),#31,.F.);
#931=ADVANCED_FACE('',(#72),#914,.T.);
#932=ADVANCED_FACE('',(#73),#32,.T.);
#933=ADVANCED_FACE('',(#74),#915,.T.);
#934=ADVANCED_FACE('',(#75),#916,.T.);
#935=ADVANCED_FACE('',(#76),#33,.T.);
#936=ADVANCED_FACE('',(#77),#917,.F.);
#937=ADVANCED_FACE('',(#78),#918,.F.);
#938=ADVANCED_FACE('',(#79),#919,.F.);
#939=ADVANCED_FACE('',(#80),#920,.F.);
#940=ADVANCED_FACE('',(#81),#34,.T.);
#941=ADVANCED_FACE('',(#82),#35,.T.);
#942=ADVANCED_FACE('',(#83),#36,.T.);
#943=ADVANCED_FACE('',(#84),#37,.T.);
#944=ADVANCED_FACE('',(#85),#38,.T.);
#945=ADVANCED_FACE('',(#86),#39,.T.);
#946=ADVANCED_FACE('',(#87),#40,.T.);
#947=ADVANCED_FACE('',(#88),#41,.T.);
#948=ADVANCED_FACE('',(#89),#42,.T.);
#949=ADVANCED_FACE('',(#90),#43,.T.);
#950=ADVANCED_FACE('',(#91),#44,.T.);
#951=ADVANCED_FACE('',(#92),#45,.T.);
#952=ADVANCED_FACE('',(#93),#46,.T.);
#953=ADVANCED_FACE('',(#94),#47,.T.);
#954=ADVANCED_FACE('',(#95),#48,.T.);
#955=ADVANCED_FACE('',(#96),#49,.T.);
#956=ADVANCED_FACE('',(#97),#50,.T.);
#957=ADVANCED_FACE('',(#98),#51,.T.);
#958=ADVANCED_FACE('',(#99),#52,.T.);
#959=ADVANCED_FACE('',(#100),#53,.T.);
#960=ADVANCED_FACE('',(#101),#54,.T.);
#961=ADVANCED_FACE('',(#102),#55,.T.);
#962=ADVANCED_FACE('',(#103),#56,.T.);
#963=ADVANCED_FACE('',(#104),#57,.T.);
#964=ADVANCED_FACE('',(#105),#58,.T.);
#965=ADVANCED_FACE('',(#106),#59,.T.);
#966=ADVANCED_FACE('',(#107),#60,.T.);
#967=ADVANCED_FACE('',(#108,#21,#22,#23,#24,#25,#26),#61,.T.);
#968=CLOSED_SHELL('',(#921,#922,#923,#924,#925,#926,#927,#928,#929,#930,
#931,#932,#933,#934,#935,#936,#937,#938,#939,#940,#941,#942,#943,#944,#945,
#946,#947,#948,#949,#950,#951,#952,#953,#954,#955,#956,#957,#958,#959,#960,
#961,#962,#963,#964,#965,#966,#967));
#969=DERIVED_UNIT_ELEMENT(#972,1.);
#970=DERIVED_UNIT_ELEMENT(#1595,-3.);
#971=DIMENSIONAL_EXPONENTS(0.,1.,0.,0.,0.,0.,0.);
#972=(
CONVERSION_BASED_UNIT('gram',#974)
MASS_UNIT()
NAMED_UNIT(#971)
);
#973=(
MASS_UNIT()
NAMED_UNIT(*)
SI_UNIT(.KILO.,.GRAM.)
);
#974=MASS_MEASURE_WITH_UNIT(MASS_MEASURE(0.001),#973);
#975=DERIVED_UNIT((#969,#970));
#976=MEASURE_REPRESENTATION_ITEM('density measure',
POSITIVE_RATIO_MEASURE(7.85),#975);
#977=PROPERTY_DEFINITION_REPRESENTATION(#982,#979);
#978=PROPERTY_DEFINITION_REPRESENTATION(#983,#980);
#979=REPRESENTATION('material name',(#981),#1592);
#980=REPRESENTATION('density',(#976),#1592);
#981=DESCRIPTIVE_REPRESENTATION_ITEM('Steel','Steel');
#982=PROPERTY_DEFINITION('material property','material name',#1602);
#983=PROPERTY_DEFINITION('material property','density of part',#1602);
#984=DATE_TIME_ROLE('creation_date');
#985=APPLIED_DATE_AND_TIME_ASSIGNMENT(#986,#984,(#1602));
#986=DATE_AND_TIME(#987,#988);
#987=CALENDAR_DATE(2024,25,11);
#988=LOCAL_TIME(0,0,0.,#989);
#989=COORDINATED_UNIVERSAL_TIME_OFFSET(0,0,.BEHIND.);
#990=AXIS2_PLACEMENT_3D('',#1317,#1062,#1063);
#991=AXIS2_PLACEMENT_3D('',#1318,#1064,#1065);
#992=AXIS2_PLACEMENT_3D('',#1320,#1066,#1067);
#993=AXIS2_PLACEMENT_3D('',#1323,#1069,#1070);
#994=AXIS2_PLACEMENT_3D('',#1324,#1071,#1072);
#995=AXIS2_PLACEMENT_3D('',#1327,#1073,#1074);
#996=AXIS2_PLACEMENT_3D('',#1331,#1076,#1077);
#997=AXIS2_PLACEMENT_3D('',#1333,#1079,#1080);
#998=AXIS2_PLACEMENT_3D('',#1339,#1084,#1085);
#999=AXIS2_PLACEMENT_3D('',#1342,#1086,#1087);
#1000=AXIS2_PLACEMENT_3D('',#1346,#1089,#1090);
#1001=AXIS2_PLACEMENT_3D('',#1348,#1092,#1093);
#1002=AXIS2_PLACEMENT_3D('',#1351,#1096,#1097);
#1003=AXIS2_PLACEMENT_3D('',#1353,#1098,#1099);
#1004=AXIS2_PLACEMENT_3D('',#1356,#1101,#1102);
#1005=AXIS2_PLACEMENT_3D('',#1357,#1103,#1104);
#1006=AXIS2_PLACEMENT_3D('',#1360,#1107,#1108);
#1007=AXIS2_PLACEMENT_3D('',#1363,#1109,#1110);
#1008=AXIS2_PLACEMENT_3D('',#1367,#1112,#1113);
#1009=AXIS2_PLACEMENT_3D('',#1369,#1115,#1116);
#1010=AXIS2_PLACEMENT_3D('',#1375,#1120,#1121);
#1011=AXIS2_PLACEMENT_3D('',#1389,#1128,#1129);
#1012=AXIS2_PLACEMENT_3D('',#1393,#1131,#1132);
#1013=AXIS2_PLACEMENT_3D('',#1397,#1134,#1135);
#1014=AXIS2_PLACEMENT_3D('',#1440,#1157,#1158);
#1015=AXIS2_PLACEMENT_3D('',#1442,#1159,#1160);
#1016=AXIS2_PLACEMENT_3D('',#1444,#1161,#1162);
#1017=AXIS2_PLACEMENT_3D('',#1446,#1163,#1164);
#1018=AXIS2_PLACEMENT_3D('',#1447,#1165,#1166);
#1019=AXIS2_PLACEMENT_3D('',#1450,#1167,#1168);
#1020=AXIS2_PLACEMENT_3D('',#1453,#1171,#1172);
#1021=AXIS2_PLACEMENT_3D('',#1457,#1175,#1176);
#1022=AXIS2_PLACEMENT_3D('',#1459,#1177,#1178);
#1023=AXIS2_PLACEMENT_3D('',#1461,#1180,#1181);
#1024=AXIS2_PLACEMENT_3D('',#1464,#1182,#1183);
#1025=AXIS2_PLACEMENT_3D('',#1467,#1186,#1187);
#1026=AXIS2_PLACEMENT_3D('',#1471,#1190,#1191);
#1027=AXIS2_PLACEMENT_3D('',#1473,#1192,#1193);
#1028=AXIS2_PLACEMENT_3D('',#1475,#1195,#1196);
#1029=AXIS2_PLACEMENT_3D('',#1477,#1197,#1198);
#1030=AXIS2_PLACEMENT_3D('',#1479,#1200,#1201);
#1031=AXIS2_PLACEMENT_3D('',#1481,#1202,#1203);
#1032=AXIS2_PLACEMENT_3D('',#1483,#1205,#1206);
#1033=AXIS2_PLACEMENT_3D('',#1485,#1207,#1208);
#1034=AXIS2_PLACEMENT_3D('',#1487,#1210,#1211);
#1035=AXIS2_PLACEMENT_3D('',#1493,#1215,#1216);
#1036=AXIS2_PLACEMENT_3D('',#1497,#1219,#1220);
#1037=AXIS2_PLACEMENT_3D('',#1501,#1223,#1224);
#1038=AXIS2_PLACEMENT_3D('',#1505,#1227,#1228);
#1039=AXIS2_PLACEMENT_3D('',#1509,#1231,#1232);
#1040=AXIS2_PLACEMENT_3D('',#1513,#1235,#1236);
#1041=AXIS2_PLACEMENT_3D('',#1517,#1239,#1240);
#1042=AXIS2_PLACEMENT_3D('',#1521,#1243,#1244);
#1043=AXIS2_PLACEMENT_3D('',#1525,#1247,#1248);
#1044=AXIS2_PLACEMENT_3D('',#1529,#1251,#1252);
#1045=AXIS2_PLACEMENT_3D('',#1531,#1254,#1255);
#1046=AXIS2_PLACEMENT_3D('',#1533,#1257,#1258);
#1047=AXIS2_PLACEMENT_3D('',#1535,#1260,#1261);
#1048=AXIS2_PLACEMENT_3D('',#1539,#1264,#1265);
#1049=AXIS2_PLACEMENT_3D('',#1543,#1268,#1269);
#1050=AXIS2_PLACEMENT_3D('',#1547,#1272,#1273);
#1051=AXIS2_PLACEMENT_3D('',#1551,#1276,#1277);
#1052=AXIS2_PLACEMENT_3D('',#1555,#1280,#1281);
#1053=AXIS2_PLACEMENT_3D('',#1559,#1284,#1285);
#1054=AXIS2_PLACEMENT_3D('',#1563,#1288,#1289);
#1055=AXIS2_PLACEMENT_3D('',#1567,#1292,#1293);
#1056=AXIS2_PLACEMENT_3D('',#1571,#1296,#1297);
#1057=AXIS2_PLACEMENT_3D('',#1575,#1300,#1301);
#1058=AXIS2_PLACEMENT_3D('',#1579,#1304,#1305);
#1059=AXIS2_PLACEMENT_3D('',#1583,#1308,#1309);
#1060=AXIS2_PLACEMENT_3D('',#1587,#1312,#1313);
#1061=AXIS2_PLACEMENT_3D('',#1589,#1315,#1316);
#1062=DIRECTION('axis',(0.,0.,1.));
#1063=DIRECTION('refdir',(1.,0.,0.));
#1064=DIRECTION('center_axis',(0.,1.,0.));
#1065=DIRECTION('ref_axis',(-1.,0.,0.));
#1066=DIRECTION('center_axis',(0.,1.,0.));
#1067=DIRECTION('ref_axis',(-1.,0.,0.));
#1068=DIRECTION('',(0.,-1.,0.));
#1069=DIRECTION('center_axis',(0.,1.,0.));
#1070=DIRECTION('ref_axis',(-1.,0.,0.));
#1071=DIRECTION('center_axis',(0.,1.,0.));
#1072=DIRECTION('ref_axis',(0.707106781186547,0.,0.707106781186548));
#1073=DIRECTION('center_axis',(0.,-1.,0.));
#1074=DIRECTION('ref_axis',(0.707106781186548,0.,-0.707106781186547));
#1075=DIRECTION('',(0.,1.,0.));
#1076=DIRECTION('center_axis',(0.,1.,0.));
#1077=DIRECTION('ref_axis',(0.707106781186547,0.,0.707106781186548));
#1078=DIRECTION('',(0.,-1.,0.));
#1079=DIRECTION('center_axis',(-3.5527136788005E-16,0.,-1.));
#1080=DIRECTION('ref_axis',(-1.,0.,3.5527136788005E-16));
#1081=DIRECTION('',(-1.,0.,3.5527136788005E-16));
#1082=DIRECTION('',(0.,-1.,0.));
#1083=DIRECTION('',(-1.,0.,3.5527136788005E-16));
#1084=DIRECTION('center_axis',(0.,1.,0.));
#1085=DIRECTION('ref_axis',(-0.707106781186548,0.,-0.707106781186547));
#1086=DIRECTION('center_axis',(0.,-1.,0.));
#1087=DIRECTION('ref_axis',(-0.707106781186548,0.,-0.707106781186547));
#1088=DIRECTION('',(0.,1.,0.));
#1089=DIRECTION('center_axis',(0.,1.,0.));
#1090=DIRECTION('ref_axis',(-0.707106781186548,0.,-0.707106781186547));
#1091=DIRECTION('',(0.,-1.,0.));
#1092=DIRECTION('center_axis',(-3.5527136788005E-16,0.,1.));
#1093=DIRECTION('ref_axis',(1.,0.,3.5527136788005E-16));
#1094=DIRECTION('',(1.,0.,3.5527136788005E-16));
#1095=DIRECTION('',(1.,0.,3.5527136788005E-16));
#1096=DIRECTION('center_axis',(0.,1.,0.));
#1097=DIRECTION('ref_axis',(-0.707106781186548,0.,0.707106781186547));
#1098=DIRECTION('center_axis',(0.,-1.,0.));
#1099=DIRECTION('ref_axis',(-0.707106781186548,0.,0.707106781186547));
#1100=DIRECTION('',(0.,1.,0.));
#1101=DIRECTION('center_axis',(0.,1.,0.));
#1102=DIRECTION('ref_axis',(-0.707106781186548,0.,0.707106781186547));
#1103=DIRECTION('center_axis',(1.,0.,-7.40148683083437E-16));
#1104=DIRECTION('ref_axis',(-7.40148683083437E-16,0.,-1.));
#1105=DIRECTION('',(-7.40148683083437E-16,0.,-1.));
#1106=DIRECTION('',(-7.40148683083437E-16,0.,-1.));
#1107=DIRECTION('center_axis',(0.,1.,0.));
#1108=DIRECTION('ref_axis',(0.382683432365088,0.,-0.923879532511287));
#1109=DIRECTION('center_axis',(0.,-1.,0.));
#1110=DIRECTION('ref_axis',(0.382683432365088,0.,-0.923879532511287));
#1111=DIRECTION('',(0.,-1.,0.));
#1112=DIRECTION('center_axis',(0.,1.,0.));
#1113=DIRECTION('ref_axis',(0.382683432365088,0.,-0.923879532511287));
#1114=DIRECTION('',(0.,1.,0.));
#1115=DIRECTION('center_axis',(0.,0.,-1.));
#1116=DIRECTION('ref_axis',(-1.,0.,0.));
#1117=DIRECTION('',(-1.,0.,0.));
#1118=DIRECTION('',(0.,1.,0.));
#1119=DIRECTION('',(-1.,0.,0.));
#1120=DIRECTION('center_axis',(0.,1.,0.));
#1121=DIRECTION('ref_axis',(0.,0.,1.));
#1122=DIRECTION('',(0.,0.,1.));
#1123=DIRECTION('',(1.,0.,0.));
#1124=DIRECTION('',(0.,0.,1.));
#1125=DIRECTION('',(-1.,0.,0.));
#1126=DIRECTION('',(0.,0.,1.));
#1127=DIRECTION('',(-0.707106781186548,0.,-0.707106781186548));
#1128=DIRECTION('center_axis',(0.,1.,0.));
#1129=DIRECTION('ref_axis',(0.923879532511287,0.,-0.382683432365089));
#1130=DIRECTION('',(0.,0.,-1.));
#1131=DIRECTION('center_axis',(0.,1.,0.));
#1132=DIRECTION('ref_axis',(0.923879532511287,0.,0.38268343236509));
#1133=DIRECTION('',(0.707106781186548,0.,-0.707106781186548));
#1134=DIRECTION('center_axis',(0.,1.,0.));
#1135=DIRECTION('ref_axis',(0.382683432365089,0.,0.923879532511287));
#1136=DIRECTION('',(1.,0.,0.));
#1137=DIRECTION('',(0.,0.,1.));
#1138=DIRECTION('',(1.,0.,0.));
#1139=DIRECTION('',(0.,0.,1.));
#1140=DIRECTION('',(-1.,0.,0.));
#1141=DIRECTION('',(0.,0.,1.));
#1142=DIRECTION('',(1.,0.,-8.88178419700125E-16));
#1143=DIRECTION('',(0.,0.,1.));
#1144=DIRECTION('',(-1.,0.,0.));
#1145=DIRECTION('',(0.,0.,1.));
#1146=DIRECTION('',(1.,0.,-8.88178419700125E-16));
#1147=DIRECTION('',(0.,0.,1.));
#1148=DIRECTION('',(-1.,0.,2.22044604925031E-16));
#1149=DIRECTION('',(0.,0.,1.));
#1150=DIRECTION('',(1.,0.,-4.44089209850063E-16));
#1151=DIRECTION('',(0.,0.,1.));
#1152=DIRECTION('',(-1.,0.,-4.44089209850063E-16));
#1153=DIRECTION('',(0.,0.,1.));
#1154=DIRECTION('',(1.,0.,2.22044604925031E-16));
#1155=DIRECTION('',(0.,0.,1.));
#1156=DIRECTION('',(-1.,0.,-8.88178419700125E-16));
#1157=DIRECTION('center_axis',(0.,-1.,0.));
#1158=DIRECTION('ref_axis',(-1.,0.,-1.22464679914735E-16));
#1159=DIRECTION('center_axis',(0.,-1.,0.));
#1160=DIRECTION('ref_axis',(1.,0.,0.));
#1161=DIRECTION('center_axis',(0.,-1.,0.));
#1162=DIRECTION('ref_axis',(1.,0.,0.));
#1163=DIRECTION('center_axis',(0.,-1.,0.));
#1164=DIRECTION('ref_axis',(1.,0.,0.));
#1165=DIRECTION('center_axis',(0.,1.,0.));
#1166=DIRECTION('ref_axis',(0.923879532511287,0.,-0.382683432365089));
#1167=DIRECTION('center_axis',(0.,-1.,0.));
#1168=DIRECTION('ref_axis',(0.923879532511287,0.,-0.382683432365089));
#1169=DIRECTION('',(0.,-1.,0.));
#1170=DIRECTION('',(0.,1.,0.));
#1171=DIRECTION('center_axis',(1.,0.,0.));
#1172=DIRECTION('ref_axis',(0.,0.,-1.));
#1173=DIRECTION('',(0.,0.,-1.));
#1174=DIRECTION('',(0.,1.,0.));
#1175=DIRECTION('center_axis',(0.,1.,0.));
#1176=DIRECTION('ref_axis',(0.923879532511287,0.,0.38268343236509));
#1177=DIRECTION('center_axis',(0.,-1.,0.));
#1178=DIRECTION('ref_axis',(0.923879532511287,0.,0.38268343236509));
#1179=DIRECTION('',(0.,-1.,0.));
#1180=DIRECTION('center_axis',(0.,1.,0.));
#1181=DIRECTION('ref_axis',(0.382683432365089,0.,0.923879532511287));
#1182=DIRECTION('center_axis',(0.,-1.,0.));
#1183=DIRECTION('ref_axis',(0.382683432365089,0.,0.923879532511287));
#1184=DIRECTION('',(0.,-1.,0.));
#1185=DIRECTION('',(0.,1.,0.));
#1186=DIRECTION('center_axis',(0.,0.,1.));
#1187=DIRECTION('ref_axis',(1.,0.,0.));
#1188=DIRECTION('',(1.,0.,0.));
#1189=DIRECTION('',(0.,1.,0.));
#1190=DIRECTION('center_axis',(0.,1.,0.));
#1191=DIRECTION('ref_axis',(1.,0.,0.));
#1192=DIRECTION('center_axis',(0.,-1.,0.));
#1193=DIRECTION('ref_axis',(1.,0.,0.));
#1194=DIRECTION('',(0.,-1.,0.));
#1195=DIRECTION('center_axis',(0.,1.,0.));
#1196=DIRECTION('ref_axis',(1.,0.,0.));
#1197=DIRECTION('center_axis',(0.,-1.,0.));
#1198=DIRECTION('ref_axis',(1.,0.,0.));
#1199=DIRECTION('',(0.,-1.,0.));
#1200=DIRECTION('center_axis',(0.,1.,0.));
#1201=DIRECTION('ref_axis',(1.,0.,0.));
#1202=DIRECTION('center_axis',(0.,-1.,0.));
#1203=DIRECTION('ref_axis',(1.,0.,0.));
#1204=DIRECTION('',(0.,-1.,0.));
#1205=DIRECTION('center_axis',(0.,1.,0.));
#1206=DIRECTION('ref_axis',(-1.,0.,-1.22464679914735E-16));
#1207=DIRECTION('center_axis',(0.,-1.,0.));
#1208=DIRECTION('ref_axis',(-1.,0.,-1.22464679914735E-16));
#1209=DIRECTION('',(0.,-1.,0.));
#1210=DIRECTION('center_axis',(-1.,0.,0.));
#1211=DIRECTION('ref_axis',(0.,0.,1.));
#1212=DIRECTION('',(0.,1.,0.));
#1213=DIRECTION('',(0.,0.,1.));
#1214=DIRECTION('',(0.,1.,0.));
#1215=DIRECTION('center_axis',(4.44089209850063E-16,0.,-1.));
#1216=DIRECTION('ref_axis',(-1.,0.,-4.44089209850063E-16));
#1217=DIRECTION('',(-1.,0.,-4.44089209850063E-16));
#1218=DIRECTION('',(0.,1.,0.));
#1219=DIRECTION('center_axis',(-1.,0.,0.));
#1220=DIRECTION('ref_axis',(0.,0.,1.));
#1221=DIRECTION('',(0.,0.,1.));
#1222=DIRECTION('',(0.,1.,0.));
#1223=DIRECTION('center_axis',(-2.22044604925031E-16,0.,1.));
#1224=DIRECTION('ref_axis',(1.,0.,2.22044604925031E-16));
#1225=DIRECTION('',(1.,0.,2.22044604925031E-16));
#1226=DIRECTION('',(0.,1.,0.));
#1227=DIRECTION('center_axis',(-1.,0.,0.));
#1228=DIRECTION('ref_axis',(0.,0.,1.));
#1229=DIRECTION('',(0.,0.,1.));
#1230=DIRECTION('',(0.,1.,0.));
#1231=DIRECTION('center_axis',(8.88178419700125E-16,0.,-1.));
#1232=DIRECTION('ref_axis',(-1.,0.,-8.88178419700125E-16));
#1233=DIRECTION('',(-1.,0.,-8.88178419700125E-16));
#1234=DIRECTION('',(0.,1.,0.));
#1235=DIRECTION('center_axis',(-1.,0.,0.));
#1236=DIRECTION('ref_axis',(0.,0.,1.));
#1237=DIRECTION('',(0.,0.,1.));
#1238=DIRECTION('',(0.,1.,0.));
#1239=DIRECTION('center_axis',(0.,0.,1.));
#1240=DIRECTION('ref_axis',(1.,0.,0.));
#1241=DIRECTION('',(1.,0.,0.));
#1242=DIRECTION('',(0.,1.,0.));
#1243=DIRECTION('center_axis',(-1.,0.,0.));
#1244=DIRECTION('ref_axis',(0.,0.,1.));
#1245=DIRECTION('',(0.,0.,1.));
#1246=DIRECTION('',(0.,1.,0.));
#1247=DIRECTION('center_axis',(0.,0.,-1.));
#1248=DIRECTION('ref_axis',(-1.,0.,0.));
#1249=DIRECTION('',(-1.,0.,0.));
#1250=DIRECTION('',(0.,1.,0.));
#1251=DIRECTION('center_axis',(-1.,0.,0.));
#1252=DIRECTION('ref_axis',(0.,0.,1.));
#1253=DIRECTION('',(0.,0.,1.));
#1254=DIRECTION('center_axis',(0.707106781186548,0.,-0.707106781186548));
#1255=DIRECTION('ref_axis',(-0.707106781186548,0.,-0.707106781186548));
#1256=DIRECTION('',(-0.707106781186548,0.,-0.707106781186548));
#1257=DIRECTION('center_axis',(0.707106781186548,0.,0.707106781186548));
#1258=DIRECTION('ref_axis',(0.707106781186548,0.,-0.707106781186548));
#1259=DIRECTION('',(0.707106781186548,0.,-0.707106781186548));
#1260=DIRECTION('center_axis',(-1.,0.,0.));
#1261=DIRECTION('ref_axis',(0.,0.,1.));
#1262=DIRECTION('',(0.,0.,1.));
#1263=DIRECTION('',(0.,1.,0.));
#1264=DIRECTION('center_axis',(0.,0.,1.));
#1265=DIRECTION('ref_axis',(1.,0.,0.));
#1266=DIRECTION('',(1.,0.,0.));
#1267=DIRECTION('',(0.,1.,0.));
#1268=DIRECTION('center_axis',(-1.,0.,0.));
#1269=DIRECTION('ref_axis',(0.,0.,1.));
#1270=DIRECTION('',(0.,0.,1.));
#1271=DIRECTION('',(0.,1.,0.));
#1272=DIRECTION('center_axis',(0.,0.,-1.));
#1273=DIRECTION('ref_axis',(-1.,0.,0.));
#1274=DIRECTION('',(-1.,0.,0.));
#1275=DIRECTION('',(0.,1.,0.));
#1276=DIRECTION('center_axis',(-1.,0.,0.));
#1277=DIRECTION('ref_axis',(0.,0.,1.));
#1278=DIRECTION('',(0.,0.,1.));
#1279=DIRECTION('',(0.,1.,0.));
#1280=DIRECTION('center_axis',(8.88178419700125E-16,0.,1.));
#1281=DIRECTION('ref_axis',(1.,0.,-8.88178419700125E-16));
#1282=DIRECTION('',(1.,0.,-8.88178419700125E-16));
#1283=DIRECTION('',(0.,1.,0.));
#1284=DIRECTION('center_axis',(-1.,0.,0.));
#1285=DIRECTION('ref_axis',(0.,0.,1.));
#1286=DIRECTION('',(0.,0.,1.));
#1287=DIRECTION('',(0.,1.,0.));
#1288=DIRECTION('center_axis',(0.,0.,-1.));
#1289=DIRECTION('ref_axis',(-1.,0.,0.));
#1290=DIRECTION('',(-1.,0.,0.));
#1291=DIRECTION('',(0.,1.,0.));
#1292=DIRECTION('center_axis',(-1.,0.,0.));
#1293=DIRECTION('ref_axis',(0.,0.,1.));
#1294=DIRECTION('',(0.,0.,1.));
#1295=DIRECTION('',(0.,1.,0.));
#1296=DIRECTION('center_axis',(8.88178419700125E-16,0.,1.));
#1297=DIRECTION('ref_axis',(1.,0.,-8.88178419700125E-16));
#1298=DIRECTION('',(1.,0.,-8.88178419700125E-16));
#1299=DIRECTION('',(0.,1.,0.));
#1300=DIRECTION('center_axis',(-1.,0.,0.));
#1301=DIRECTION('ref_axis',(0.,0.,1.));
#1302=DIRECTION('',(0.,0.,1.));
#1303=DIRECTION('',(0.,1.,0.));
#1304=DIRECTION('center_axis',(-2.22044604925031E-16,0.,-1.));
#1305=DIRECTION('ref_axis',(-1.,0.,2.22044604925031E-16));
#1306=DIRECTION('',(-1.,0.,2.22044604925031E-16));
#1307=DIRECTION('',(0.,1.,0.));
#1308=DIRECTION('center_axis',(-1.,0.,0.));
#1309=DIRECTION('ref_axis',(0.,0.,1.));
#1310=DIRECTION('',(0.,0.,1.));
#1311=DIRECTION('',(0.,1.,0.));
#1312=DIRECTION('center_axis',(4.44089209850063E-16,0.,1.));
#1313=DIRECTION('ref_axis',(1.,0.,-4.44089209850063E-16));
#1314=DIRECTION('',(1.,0.,-4.44089209850063E-16));
#1315=DIRECTION('center_axis',(0.,1.,0.));
#1316=DIRECTION('ref_axis',(0.,0.,1.));
#1317=CARTESIAN_POINT('',(0.,0.,0.));
#1318=CARTESIAN_POINT('Origin',(-4.,0.,12.));
#1319=CARTESIAN_POINT('',(-2.25,5.,12.));
#1320=CARTESIAN_POINT('Origin',(-4.,5.,12.));
#1321=CARTESIAN_POINT('',(-2.25,0.,12.));
#1322=CARTESIAN_POINT('',(-2.25,0.,12.));
#1323=CARTESIAN_POINT('Origin',(-4.,0.,12.));
#1324=CARTESIAN_POINT('Origin',(-14.,0.,2.22044604925031E-15));
#1325=CARTESIAN_POINT('',(-14.,0.,-6.));
#1326=CARTESIAN_POINT('',(-14.,0.,6.));
#1327=CARTESIAN_POINT('Origin',(-14.,0.,-2.17603712826531E-15));
#1328=CARTESIAN_POINT('',(-14.,5.,6.));
#1329=CARTESIAN_POINT('',(-14.,0.,6.));
#1330=CARTESIAN_POINT('',(-14.,5.,-6.));
#1331=CARTESIAN_POINT('Origin',(-14.,5.,2.22044604925031E-15));
#1332=CARTESIAN_POINT('',(-14.,0.,-6.));
#1333=CARTESIAN_POINT('Origin',(-8.,0.,6.));
#1334=CARTESIAN_POINT('',(-31.,0.,6.00000000000001));
#1335=CARTESIAN_POINT('',(-8.,0.,6.));
#1336=CARTESIAN_POINT('',(-31.,5.,6.00000000000001));
#1337=CARTESIAN_POINT('',(-31.,0.,6.00000000000001));
#1338=CARTESIAN_POINT('',(-8.,5.,6.));
#1339=CARTESIAN_POINT('Origin',(-31.,0.,-4.00000000000001));
#1340=CARTESIAN_POINT('',(-33.,0.,-4.00000000000001));
#1341=CARTESIAN_POINT('',(-31.,0.,-6.00000000000001));
#1342=CARTESIAN_POINT('Origin',(-31.,0.,-4.00000000000001));
#1343=CARTESIAN_POINT('',(-31.,5.,-6.00000000000001));
#1344=CARTESIAN_POINT('',(-31.,0.,-6.00000000000001));
#1345=CARTESIAN_POINT('',(-33.,5.,-4.00000000000001));
#1346=CARTESIAN_POINT('Origin',(-31.,5.,-4.00000000000001));
#1347=CARTESIAN_POINT('',(-33.,0.,-4.00000000000001));
#1348=CARTESIAN_POINT('Origin',(-33.,0.,-6.00000000000001));
#1349=CARTESIAN_POINT('',(-33.,5.,-6.00000000000001));
#1350=CARTESIAN_POINT('',(-33.,0.,-6.00000000000001));
#1351=CARTESIAN_POINT('Origin',(-31.,0.,4.00000000000001));
#1352=CARTESIAN_POINT('',(-33.,0.,4.00000000000001));
#1353=CARTESIAN_POINT('Origin',(-31.,0.,4.00000000000001));
#1354=CARTESIAN_POINT('',(-33.,5.,4.00000000000001));
#1355=CARTESIAN_POINT('',(-33.,0.,4.00000000000001));
#1356=CARTESIAN_POINT('Origin',(-31.,5.,4.00000000000001));
#1357=CARTESIAN_POINT('Origin',(-33.,0.,6.00000000000001));
#1358=CARTESIAN_POINT('',(-33.,5.,6.00000000000001));
#1359=CARTESIAN_POINT('',(-33.,0.,6.00000000000001));
#1360=CARTESIAN_POINT('Origin',(-10.8284271247462,0.,-23.));
#1361=CARTESIAN_POINT('',(-10.8284271247462,5.,-25.));
#1362=CARTESIAN_POINT('',(-9.41421356237309,5.,-24.4142135623731));
#1363=CARTESIAN_POINT('Origin',(-10.8284271247462,5.,-23.));
#1364=CARTESIAN_POINT('',(-9.41421356237309,0.,-24.4142135623731));
#1365=CARTESIAN_POINT('',(-9.41421356237309,0.,-24.4142135623731));
#1366=CARTESIAN_POINT('',(-10.8284271247462,0.,-25.));
#1367=CARTESIAN_POINT('Origin',(-10.8284271247462,0.,-23.));
#1368=CARTESIAN_POINT('',(-10.8284271247462,0.,-25.));
#1369=CARTESIAN_POINT('Origin',(-10.,0.,-25.));
#1370=CARTESIAN_POINT('',(-47.5,0.,-25.));
#1371=CARTESIAN_POINT('',(0.,0.,-25.));
#1372=CARTESIAN_POINT('',(-47.5,5.,-25.));
#1373=CARTESIAN_POINT('',(-47.5,0.,-25.));
#1374=CARTESIAN_POINT('',(0.,5.,-25.));
#1375=CARTESIAN_POINT('Origin',(-25.,0.,0.));
#1376=CARTESIAN_POINT('',(-47.5,0.,-17.5));
#1377=CARTESIAN_POINT('',(-47.5,0.,-8.5));
#1378=CARTESIAN_POINT('',(-47.5,0.,-17.5));
#1379=CARTESIAN_POINT('',(-50.,0.,-17.5));
#1380=CARTESIAN_POINT('',(-50.,0.,-17.5));
#1381=CARTESIAN_POINT('',(-50.,0.,-21.5));
#1382=CARTESIAN_POINT('',(-50.,0.,-25.));
#1383=CARTESIAN_POINT('',(-47.5,0.,-21.5));
#1384=CARTESIAN_POINT('',(-47.5,0.,-21.5));
#1385=CARTESIAN_POINT('',(-47.5,0.,-25.));
#1386=CARTESIAN_POINT('',(-0.585786437626907,0.,-15.5857864376269));
#1387=CARTESIAN_POINT('',(0.,0.,-15.));
#1388=CARTESIAN_POINT('',(0.,0.,-14.1715728752538));
#1389=CARTESIAN_POINT('Origin',(-2.,0.,-14.1715728752538));
#1390=CARTESIAN_POINT('',(0.,0.,14.1715728752538));
#1391=CARTESIAN_POINT('',(0.,0.,25.));
#1392=CARTESIAN_POINT('',(-0.585786437626905,0.,15.5857864376269));
#1393=CARTESIAN_POINT('Origin',(-2.,0.,14.1715728752538));
#1394=CARTESIAN_POINT('',(-9.4142135623731,0.,24.4142135623731));
#1395=CARTESIAN_POINT('',(-10.,0.,25.));
#1396=CARTESIAN_POINT('',(-10.8284271247462,0.,25.));
#1397=CARTESIAN_POINT('Origin',(-10.8284271247462,0.,23.));
#1398=CARTESIAN_POINT('',(-47.5,0.,25.));
#1399=CARTESIAN_POINT('',(-50.,0.,25.));
#1400=CARTESIAN_POINT('',(-47.5,0.,21.5));
#1401=CARTESIAN_POINT('',(-47.5,0.,21.5));
#1402=CARTESIAN_POINT('',(-50.,0.,21.5));
#1403=CARTESIAN_POINT('',(-50.,0.,21.5));
#1404=CARTESIAN_POINT('',(-50.,0.,17.5));
#1405=CARTESIAN_POINT('',(-50.,0.,0.));
#1406=CARTESIAN_POINT('',(-47.5,0.,17.5));
#1407=CARTESIAN_POINT('',(-47.5,0.,17.5));
#1408=CARTESIAN_POINT('',(-47.5,0.,15.));
#1409=CARTESIAN_POINT('',(-47.5,0.,15.));
#1410=CARTESIAN_POINT('',(-50.,0.,15.));
#1411=CARTESIAN_POINT('',(-50.,0.,15.));
#1412=CARTESIAN_POINT('',(-50.,0.,11.));
#1413=CARTESIAN_POINT('',(-50.,0.,0.));
#1414=CARTESIAN_POINT('',(-47.5,0.,11.));
#1415=CARTESIAN_POINT('',(-47.5,0.,11.));
#1416=CARTESIAN_POINT('',(-47.5,0.,8.5));
#1417=CARTESIAN_POINT('',(-47.5,0.,8.5));
#1418=CARTESIAN_POINT('',(-50.,0.,8.5));
#1419=CARTESIAN_POINT('',(-50.,0.,8.5));
#1420=CARTESIAN_POINT('',(-50.,0.,4.5));
#1421=CARTESIAN_POINT('',(-50.,0.,0.));
#1422=CARTESIAN_POINT('',(-47.5,0.,4.5));
#1423=CARTESIAN_POINT('',(-47.5,0.,4.5));
#1424=CARTESIAN_POINT('',(-47.5,0.,2.));
#1425=CARTESIAN_POINT('',(-47.5,0.,2.));
#1426=CARTESIAN_POINT('',(-50.,0.,2.));
#1427=CARTESIAN_POINT('',(-50.,0.,2.));
#1428=CARTESIAN_POINT('',(-50.,0.,-2.));
#1429=CARTESIAN_POINT('',(-50.,0.,-25.));
#1430=CARTESIAN_POINT('',(-47.5,0.,-2.));
#1431=CARTESIAN_POINT('',(-47.5,0.,-2.));
#1432=CARTESIAN_POINT('',(-47.5,0.,-4.5));
#1433=CARTESIAN_POINT('',(-47.5,0.,-4.5));
#1434=CARTESIAN_POINT('',(-50.,0.,-4.5));
#1435=CARTESIAN_POINT('',(-50.,0.,-4.5));
#1436=CARTESIAN_POINT('',(-50.,0.,-8.5));
#1437=CARTESIAN_POINT('',(-50.,0.,-25.));
#1438=CARTESIAN_POINT('',(-47.5,0.,-8.5));
#1439=CARTESIAN_POINT('',(-36.7,0.,-2.46519032881566E-31));
#1440=CARTESIAN_POINT('Origin',(-41.,0.,0.));
#1441=CARTESIAN_POINT('',(-6.,0.,-12.));
#1442=CARTESIAN_POINT('Origin',(-4.,0.,-12.));
#1443=CARTESIAN_POINT('',(-45.3,0.,-15.));
#1444=CARTESIAN_POINT('Origin',(-41.,0.,-15.));
#1445=CARTESIAN_POINT('',(-45.3,0.,15.));
#1446=CARTESIAN_POINT('Origin',(-41.,0.,15.));
#1447=CARTESIAN_POINT('Origin',(-2.,0.,-14.1715728752538));
#1448=CARTESIAN_POINT('',(-0.585786437626907,5.,-15.5857864376269));
#1449=CARTESIAN_POINT('',(0.,5.,-14.1715728752538));
#1450=CARTESIAN_POINT('Origin',(-2.,5.,-14.1715728752538));
#1451=CARTESIAN_POINT('',(0.,0.,-14.1715728752538));
#1452=CARTESIAN_POINT('',(-0.585786437626906,0.,-15.5857864376269));
#1453=CARTESIAN_POINT('Origin',(0.,0.,15.));
#1454=CARTESIAN_POINT('',(0.,5.,14.1715728752538));
#1455=CARTESIAN_POINT('',(0.,5.,25.));
#1456=CARTESIAN_POINT('',(0.,0.,14.1715728752538));
#1457=CARTESIAN_POINT('Origin',(-2.,0.,14.1715728752538));
#1458=CARTESIAN_POINT('',(-0.585786437626905,5.,15.5857864376269));
#1459=CARTESIAN_POINT('Origin',(-2.,5.,14.1715728752538));
#1460=CARTESIAN_POINT('',(-0.585786437626904,0.,15.5857864376269));
#1461=CARTESIAN_POINT('Origin',(-10.8284271247462,0.,23.));
#1462=CARTESIAN_POINT('',(-9.4142135623731,5.,24.4142135623731));
#1463=CARTESIAN_POINT('',(-10.8284271247462,5.,25.));
#1464=CARTESIAN_POINT('Origin',(-10.8284271247462,5.,23.));
#1465=CARTESIAN_POINT('',(-10.8284271247462,0.,25.));
#1466=CARTESIAN_POINT('',(-9.4142135623731,0.,24.4142135623731));
#1467=CARTESIAN_POINT('Origin',(-47.5,0.,25.));
#1468=CARTESIAN_POINT('',(-47.5,5.,25.));
#1469=CARTESIAN_POINT('',(-50.,5.,25.));
#1470=CARTESIAN_POINT('',(-47.5,0.,25.));
#1471=CARTESIAN_POINT('Origin',(-41.,0.,15.));
#1472=CARTESIAN_POINT('',(-45.3,5.,15.));
#1473=CARTESIAN_POINT('Origin',(-41.,5.,15.));
#1474=CARTESIAN_POINT('',(-45.3,0.,15.));
#1475=CARTESIAN_POINT('Origin',(-41.,0.,-15.));
#1476=CARTESIAN_POINT('',(-45.3,5.,-15.));
#1477=CARTESIAN_POINT('Origin',(-41.,5.,-15.));
#1478=CARTESIAN_POINT('',(-45.3,0.,-15.));
#1479=CARTESIAN_POINT('Origin',(-4.,0.,-12.));
#1480=CARTESIAN_POINT('',(-6.,5.,-12.));
#1481=CARTESIAN_POINT('Origin',(-4.,5.,-12.));
#1482=CARTESIAN_POINT('',(-6.,0.,-12.));
#1483=CARTESIAN_POINT('Origin',(-41.,0.,0.));
#1484=CARTESIAN_POINT('',(-36.7,5.,-2.46519032881566E-31));
#1485=CARTESIAN_POINT('Origin',(-41.,5.,0.));
#1486=CARTESIAN_POINT('',(-36.7,0.,-2.46519032881566E-31));
#1487=CARTESIAN_POINT('Origin',(-50.,0.,-2.));
#1488=CARTESIAN_POINT('',(-50.,5.,2.));
#1489=CARTESIAN_POINT('',(-50.,0.,2.));
#1490=CARTESIAN_POINT('',(-50.,5.,-2.));
#1491=CARTESIAN_POINT('',(-50.,5.,-25.));
#1492=CARTESIAN_POINT('',(-50.,0.,-2.));
#1493=CARTESIAN_POINT('Origin',(-47.5,0.,-2.));
#1494=CARTESIAN_POINT('',(-47.5,5.,-2.));
#1495=CARTESIAN_POINT('',(-47.5,5.,-2.));
#1496=CARTESIAN_POINT('',(-47.5,0.,-2.));
#1497=CARTESIAN_POINT('Origin',(-47.5,0.,-4.5));
#1498=CARTESIAN_POINT('',(-47.5,5.,-4.5));
#1499=CARTESIAN_POINT('',(-47.5,5.,-4.5));
#1500=CARTESIAN_POINT('',(-47.5,0.,-4.5));
#1501=CARTESIAN_POINT('Origin',(-50.,0.,-4.5));
#1502=CARTESIAN_POINT('',(-50.,5.,-4.5));
#1503=CARTESIAN_POINT('',(-50.,5.,-4.5));
#1504=CARTESIAN_POINT('',(-50.,0.,-4.5));
#1505=CARTESIAN_POINT('Origin',(-50.,0.,-8.5));
#1506=CARTESIAN_POINT('',(-50.,5.,-8.5));
#1507=CARTESIAN_POINT('',(-50.,5.,-25.));
#1508=CARTESIAN_POINT('',(-50.,0.,-8.5));
#1509=CARTESIAN_POINT('Origin',(-47.5,0.,-8.5));
#1510=CARTESIAN_POINT('',(-47.5,5.,-8.5));
#1511=CARTESIAN_POINT('',(-47.5,5.,-8.5));
#1512=CARTESIAN_POINT('',(-47.5,0.,-8.5));
#1513=CARTESIAN_POINT('Origin',(-47.5,0.,-17.5));
#1514=CARTESIAN_POINT('',(-47.5,5.,-17.5));
#1515=CARTESIAN_POINT('',(-47.5,5.,-17.5));
#1516=CARTESIAN_POINT('',(-47.5,0.,-17.5));
#1517=CARTESIAN_POINT('Origin',(-50.,0.,-17.5));
#1518=CARTESIAN_POINT('',(-50.,5.,-17.5));
#1519=CARTESIAN_POINT('',(-50.,5.,-17.5));
#1520=CARTESIAN_POINT('',(-50.,0.,-17.5));
#1521=CARTESIAN_POINT('Origin',(-50.,0.,-21.5));
#1522=CARTESIAN_POINT('',(-50.,5.,-21.5));
#1523=CARTESIAN_POINT('',(-50.,5.,-25.));
#1524=CARTESIAN_POINT('',(-50.,0.,-21.5));
#1525=CARTESIAN_POINT('Origin',(-47.5,0.,-21.5));
#1526=CARTESIAN_POINT('',(-47.5,5.,-21.5));
#1527=CARTESIAN_POINT('',(-47.5,5.,-21.5));
#1528=CARTESIAN_POINT('',(-47.5,0.,-21.5));
#1529=CARTESIAN_POINT('Origin',(-47.5,0.,-25.));
#1530=CARTESIAN_POINT('',(-47.5,5.,-25.));
#1531=CARTESIAN_POINT('Origin',(0.,0.,-15.));
#1532=CARTESIAN_POINT('',(0.,5.,-15.));
#1533=CARTESIAN_POINT('Origin',(-10.,0.,25.));
#1534=CARTESIAN_POINT('',(-10.,5.,25.));
#1535=CARTESIAN_POINT('Origin',(-47.5,0.,21.5));
#1536=CARTESIAN_POINT('',(-47.5,5.,21.5));
#1537=CARTESIAN_POINT('',(-47.5,5.,21.5));
#1538=CARTESIAN_POINT('',(-47.5,0.,21.5));
#1539=CARTESIAN_POINT('Origin',(-50.,0.,21.5));
#1540=CARTESIAN_POINT('',(-50.,5.,21.5));
#1541=CARTESIAN_POINT('',(-50.,5.,21.5));
#1542=CARTESIAN_POINT('',(-50.,0.,21.5));
#1543=CARTESIAN_POINT('Origin',(-50.,0.,17.5));
#1544=CARTESIAN_POINT('',(-50.,5.,17.5));
#1545=CARTESIAN_POINT('',(-50.,5.,0.));
#1546=CARTESIAN_POINT('',(-50.,0.,17.5));
#1547=CARTESIAN_POINT('Origin',(-47.5,0.,17.5));
#1548=CARTESIAN_POINT('',(-47.5,5.,17.5));
#1549=CARTESIAN_POINT('',(-47.5,5.,17.5));
#1550=CARTESIAN_POINT('',(-47.5,0.,17.5));
#1551=CARTESIAN_POINT('Origin',(-47.5,0.,15.));
#1552=CARTESIAN_POINT('',(-47.5,5.,15.));
#1553=CARTESIAN_POINT('',(-47.5,5.,15.));
#1554=CARTESIAN_POINT('',(-47.5,0.,15.));
#1555=CARTESIAN_POINT('Origin',(-50.,0.,15.));
#1556=CARTESIAN_POINT('',(-50.,5.,15.));
#1557=CARTESIAN_POINT('',(-50.,5.,15.));
#1558=CARTESIAN_POINT('',(-50.,0.,15.));
#1559=CARTESIAN_POINT('Origin',(-50.,0.,11.));
#1560=CARTESIAN_POINT('',(-50.,5.,11.));
#1561=CARTESIAN_POINT('',(-50.,5.,0.));
#1562=CARTESIAN_POINT('',(-50.,0.,11.));
#1563=CARTESIAN_POINT('Origin',(-47.5,0.,11.));
#1564=CARTESIAN_POINT('',(-47.5,5.,11.));
#1565=CARTESIAN_POINT('',(-47.5,5.,11.));
#1566=CARTESIAN_POINT('',(-47.5,0.,11.));
#1567=CARTESIAN_POINT('Origin',(-47.5,0.,8.5));
#1568=CARTESIAN_POINT('',(-47.5,5.,8.5));
#1569=CARTESIAN_POINT('',(-47.5,5.,8.5));
#1570=CARTESIAN_POINT('',(-47.5,0.,8.5));
#1571=CARTESIAN_POINT('Origin',(-50.,0.,8.5));
#1572=CARTESIAN_POINT('',(-50.,5.,8.5));
#1573=CARTESIAN_POINT('',(-50.,5.,8.5));
#1574=CARTESIAN_POINT('',(-50.,0.,8.5));
#1575=CARTESIAN_POINT('Origin',(-50.,0.,4.5));
#1576=CARTESIAN_POINT('',(-50.,5.,4.5));
#1577=CARTESIAN_POINT('',(-50.,5.,0.));
#1578=CARTESIAN_POINT('',(-50.,0.,4.5));
#1579=CARTESIAN_POINT('Origin',(-47.5,0.,4.5));
#1580=CARTESIAN_POINT('',(-47.5,5.,4.5));
#1581=CARTESIAN_POINT('',(-47.5,5.,4.5));
#1582=CARTESIAN_POINT('',(-47.5,0.,4.5));
#1583=CARTESIAN_POINT('Origin',(-47.5,0.,2.));
#1584=CARTESIAN_POINT('',(-47.5,5.,2.));
#1585=CARTESIAN_POINT('',(-47.5,5.,2.));
#1586=CARTESIAN_POINT('',(-47.5,0.,2.));
#1587=CARTESIAN_POINT('Origin',(-50.,0.,2.));
#1588=CARTESIAN_POINT('',(-50.,5.,2.));
#1589=CARTESIAN_POINT('Origin',(-25.,5.,0.));
#1590=UNCERTAINTY_MEASURE_WITH_UNIT(LENGTH_MEASURE(0.01),#1594,
'DISTANCE_ACCURACY_VALUE',
'Maximum model space distance between geometric entities at asserted c
onnectivities');
#1591=UNCERTAINTY_MEASURE_WITH_UNIT(LENGTH_MEASURE(0.01),#1594,
'DISTANCE_ACCURACY_VALUE',
'Maximum model space distance between geometric entities at asserted c
onnectivities');
#1592=(
GEOMETRIC_REPRESENTATION_CONTEXT(3)
GLOBAL_UNCERTAINTY_ASSIGNED_CONTEXT((#1590))
GLOBAL_UNIT_ASSIGNED_CONTEXT((#1594,#1596,#1597))
REPRESENTATION_CONTEXT('','3D')
);
#1593=(
GEOMETRIC_REPRESENTATION_CONTEXT(3)
GLOBAL_UNCERTAINTY_ASSIGNED_CONTEXT((#1591))
GLOBAL_UNIT_ASSIGNED_CONTEXT((#1594,#1596,#1597))
REPRESENTATION_CONTEXT('','3D')
);
#1594=(
LENGTH_UNIT()
NAMED_UNIT(*)
SI_UNIT(.MILLI.,.METRE.)
);
#1595=(
LENGTH_UNIT()
NAMED_UNIT(*)
SI_UNIT(.CENTI.,.METRE.)
);
#1596=(
NAMED_UNIT(*)
PLANE_ANGLE_UNIT()
SI_UNIT($,.RADIAN.)
);
#1597=(
NAMED_UNIT(*)
SI_UNIT($,.STERADIAN.)
SOLID_ANGLE_UNIT()
);
#1598=SHAPE_DEFINITION_REPRESENTATION(#1599,#1600);
#1599=PRODUCT_DEFINITION_SHAPE('',$,#1602);
#1600=SHAPE_REPRESENTATION('',(#990),#1592);
#1601=PRODUCT_DEFINITION_CONTEXT('part definition',#1606,'design');
#1602=PRODUCT_DEFINITION('Gutteil_V1','Fehler_3',#1603,#1601);
#1603=PRODUCT_DEFINITION_FORMATION('',$,#1608);
#1604=PRODUCT_RELATED_PRODUCT_CATEGORY('Fehler_3','Fehler_3',(#1608));
#1605=APPLICATION_PROTOCOL_DEFINITION('international standard',
'automotive_design',2009,#1606);
#1606=APPLICATION_CONTEXT(
'Core Data for Automotive Mechanical Design Process');
#1607=PRODUCT_CONTEXT('part definition',#1606,'mechanical');
#1608=PRODUCT('Gutteil_V1','Fehler_3',$,(#1607));
#1609=PRESENTATION_STYLE_ASSIGNMENT((#1610));
#1610=SURFACE_STYLE_USAGE(.BOTH.,#1613);
#1611=SURFACE_STYLE_RENDERING_WITH_PROPERTIES($,#1617,(#1612));
#1612=SURFACE_STYLE_TRANSPARENT(0.);
#1613=SURFACE_SIDE_STYLE('',(#1614,#1611));
#1614=SURFACE_STYLE_FILL_AREA(#1615);
#1615=FILL_AREA_STYLE('',(#1616));
#1616=FILL_AREA_STYLE_COLOUR('',#1617);
#1617=COLOUR_RGB('',0.698039215686274,0.698039215686274,0.698039215686274);
ENDSEC;
END-ISO-10303-21;
