ISO-10303-21;
HEADER;
/* Generated by software containing ST-Developer
 * from STEP Tools, Inc. (www.steptools.com) 
 */

FILE_DESCRIPTION(
/* description */ (''),
/* implementation_level */ '2;1');

FILE_NAME(
/* name */ 'Schlechtteil_4.stp',
/* time_stamp */ '2025-02-27T19:24:37+01:00',
/* author */ ('peter'),
/* organization */ (''),
/* preprocessor_version */ 'ST-DEVELOPER v20',
/* originating_system */ 'Autodesk Inventor 2025',
/* authorisation */ '');

FILE_SCHEMA (('AUTOMOTIVE_DESIGN { 1 0 10303 214 3 1 1 }'));
ENDSEC;

DATA;
#10=MECHANICAL_DESIGN_GEOMETRIC_PRESENTATION_REPRESENTATION('',(#13),#1793);
#11=SHAPE_REPRESENTATION_RELATIONSHIP('SRR','None',#1800,#12);
#12=ADVANCED_BREP_SHAPE_REPRESENTATION('',(#14),#1792);
#13=STYLED_ITEM('',(#1809),#14);
#14=MANIFOLD_SOLID_BREP('Solid2',#1092);
#15=FACE_BOUND('',#131,.T.);
#16=FACE_BOUND('',#132,.T.);
#17=FACE_BOUND('',#133,.T.);
#18=FACE_BOUND('',#134,.T.);
#19=FACE_BOUND('',#135,.T.);
#20=FACE_BOUND('',#136,.T.);
#21=FACE_BOUND('',#179,.T.);
#22=FACE_BOUND('',#180,.T.);
#23=FACE_BOUND('',#181,.T.);
#24=FACE_BOUND('',#182,.T.);
#25=FACE_BOUND('',#183,.T.);
#26=FACE_BOUND('',#184,.T.);
#27=PLANE('',#1118);
#28=PLANE('',#1122);
#29=PLANE('',#1126);
#30=PLANE('',#1130);
#31=PLANE('',#1134);
#32=PLANE('',#1135);
#33=PLANE('',#1146);
#34=PLANE('',#1151);
#35=PLANE('',#1162);
#36=PLANE('',#1163);
#37=PLANE('',#1164);
#38=PLANE('',#1165);
#39=PLANE('',#1166);
#40=PLANE('',#1167);
#41=PLANE('',#1168);
#42=PLANE('',#1169);
#43=PLANE('',#1170);
#44=PLANE('',#1171);
#45=PLANE('',#1172);
#46=PLANE('',#1173);
#47=PLANE('',#1174);
#48=PLANE('',#1175);
#49=PLANE('',#1176);
#50=PLANE('',#1177);
#51=PLANE('',#1178);
#52=PLANE('',#1179);
#53=PLANE('',#1180);
#54=PLANE('',#1181);
#55=PLANE('',#1182);
#56=PLANE('',#1183);
#57=PLANE('',#1184);
#58=PLANE('',#1185);
#59=PLANE('',#1186);
#60=PLANE('',#1187);
#61=PLANE('',#1188);
#62=PLANE('',#1189);
#63=PLANE('',#1190);
#64=PLANE('',#1191);
#65=PLANE('',#1192);
#66=PLANE('',#1193);
#67=FACE_OUTER_BOUND('',#120,.T.);
#68=FACE_OUTER_BOUND('',#121,.T.);
#69=FACE_OUTER_BOUND('',#122,.T.);
#70=FACE_OUTER_BOUND('',#123,.T.);
#71=FACE_OUTER_BOUND('',#124,.T.);
#72=FACE_OUTER_BOUND('',#125,.T.);
#73=FACE_OUTER_BOUND('',#126,.T.);
#74=FACE_OUTER_BOUND('',#127,.T.);
#75=FACE_OUTER_BOUND('',#128,.T.);
#76=FACE_OUTER_BOUND('',#129,.T.);
#77=FACE_OUTER_BOUND('',#130,.T.);
#78=FACE_OUTER_BOUND('',#137,.T.);
#79=FACE_OUTER_BOUND('',#138,.T.);
#80=FACE_OUTER_BOUND('',#139,.T.);
#81=FACE_OUTER_BOUND('',#140,.T.);
#82=FACE_OUTER_BOUND('',#141,.T.);
#83=FACE_OUTER_BOUND('',#142,.T.);
#84=FACE_OUTER_BOUND('',#143,.T.);
#85=FACE_OUTER_BOUND('',#144,.T.);
#86=FACE_OUTER_BOUND('',#145,.T.);
#87=FACE_OUTER_BOUND('',#146,.T.);
#88=FACE_OUTER_BOUND('',#147,.T.);
#89=FACE_OUTER_BOUND('',#148,.T.);
#90=FACE_OUTER_BOUND('',#149,.T.);
#91=FACE_OUTER_BOUND('',#150,.T.);
#92=FACE_OUTER_BOUND('',#151,.T.);
#93=FACE_OUTER_BOUND('',#152,.T.);
#94=FACE_OUTER_BOUND('',#153,.T.);
#95=FACE_OUTER_BOUND('',#154,.T.);
#96=FACE_OUTER_BOUND('',#155,.T.);
#97=FACE_OUTER_BOUND('',#156,.T.);
#98=FACE_OUTER_BOUND('',#157,.T.);
#99=FACE_OUTER_BOUND('',#158,.T.);
#100=FACE_OUTER_BOUND('',#159,.T.);
#101=FACE_OUTER_BOUND('',#160,.T.);
#102=FACE_OUTER_BOUND('',#161,.T.);
#103=FACE_OUTER_BOUND('',#162,.T.);
#104=FACE_OUTER_BOUND('',#163,.T.);
#105=FACE_OUTER_BOUND('',#164,.T.);
#106=FACE_OUTER_BOUND('',#165,.T.);
#107=FACE_OUTER_BOUND('',#166,.T.);
#108=FACE_OUTER_BOUND('',#167,.T.);
#109=FACE_OUTER_BOUND('',#168,.T.);
#110=FACE_OUTER_BOUND('',#169,.T.);
#111=FACE_OUTER_BOUND('',#170,.T.);
#112=FACE_OUTER_BOUND('',#171,.T.);
#113=FACE_OUTER_BOUND('',#172,.T.);
#114=FACE_OUTER_BOUND('',#173,.T.);
#115=FACE_OUTER_BOUND('',#174,.T.);
#116=FACE_OUTER_BOUND('',#175,.T.);
#117=FACE_OUTER_BOUND('',#176,.T.);
#118=FACE_OUTER_BOUND('',#177,.T.);
#119=FACE_OUTER_BOUND('',#178,.T.);
#120=EDGE_LOOP('',(#720,#721,#722,#723));
#121=EDGE_LOOP('',(#724,#725,#726,#727));
#122=EDGE_LOOP('',(#728,#729,#730,#731));
#123=EDGE_LOOP('',(#732,#733,#734,#735));
#124=EDGE_LOOP('',(#736,#737,#738,#739));
#125=EDGE_LOOP('',(#740,#741,#742,#743));
#126=EDGE_LOOP('',(#744,#745,#746,#747));
#127=EDGE_LOOP('',(#748,#749,#750,#751));
#128=EDGE_LOOP('',(#752,#753,#754,#755));
#129=EDGE_LOOP('',(#756,#757,#758,#759));
#130=EDGE_LOOP('',(#760,#761,#762,#763,#764,#765,#766,#767,#768,#769,#770,
#771,#772,#773,#774,#775,#776,#777,#778,#779,#780,#781,#782,#783,#784,#785,
#786,#787,#788,#789,#790,#791,#792,#793,#794,#795,#796,#797));
#131=EDGE_LOOP('',(#798));
#132=EDGE_LOOP('',(#799,#800,#801,#802,#803,#804,#805,#806));
#133=EDGE_LOOP('',(#807));
#134=EDGE_LOOP('',(#808));
#135=EDGE_LOOP('',(#809));
#136=EDGE_LOOP('',(#810));
#137=EDGE_LOOP('',(#811,#812,#813,#814));
#138=EDGE_LOOP('',(#815,#816,#817,#818));
#139=EDGE_LOOP('',(#819,#820,#821,#822));
#140=EDGE_LOOP('',(#823,#824,#825,#826));
#141=EDGE_LOOP('',(#827,#828,#829,#830));
#142=EDGE_LOOP('',(#831,#832,#833,#834));
#143=EDGE_LOOP('',(#835,#836,#837,#838));
#144=EDGE_LOOP('',(#839,#840,#841,#842));
#145=EDGE_LOOP('',(#843,#844,#845,#846));
#146=EDGE_LOOP('',(#847,#848,#849,#850));
#147=EDGE_LOOP('',(#851,#852,#853,#854));
#148=EDGE_LOOP('',(#855,#856,#857,#858));
#149=EDGE_LOOP('',(#859,#860,#861,#862));
#150=EDGE_LOOP('',(#863,#864,#865,#866));
#151=EDGE_LOOP('',(#867,#868,#869,#870));
#152=EDGE_LOOP('',(#871,#872,#873,#874));
#153=EDGE_LOOP('',(#875,#876,#877,#878));
#154=EDGE_LOOP('',(#879,#880,#881,#882));
#155=EDGE_LOOP('',(#883,#884,#885,#886));
#156=EDGE_LOOP('',(#887,#888,#889,#890));
#157=EDGE_LOOP('',(#891,#892,#893,#894));
#158=EDGE_LOOP('',(#895,#896,#897,#898));
#159=EDGE_LOOP('',(#899,#900,#901,#902));
#160=EDGE_LOOP('',(#903,#904,#905,#906));
#161=EDGE_LOOP('',(#907,#908,#909,#910));
#162=EDGE_LOOP('',(#911,#912,#913,#914));
#163=EDGE_LOOP('',(#915,#916,#917,#918));
#164=EDGE_LOOP('',(#919,#920,#921,#922));
#165=EDGE_LOOP('',(#923,#924,#925,#926));
#166=EDGE_LOOP('',(#927,#928,#929,#930));
#167=EDGE_LOOP('',(#931,#932,#933,#934));
#168=EDGE_LOOP('',(#935,#936,#937,#938));
#169=EDGE_LOOP('',(#939,#940,#941,#942));
#170=EDGE_LOOP('',(#943,#944,#945,#946));
#171=EDGE_LOOP('',(#947,#948,#949,#950));
#172=EDGE_LOOP('',(#951,#952,#953,#954));
#173=EDGE_LOOP('',(#955,#956,#957,#958));
#174=EDGE_LOOP('',(#959,#960,#961,#962));
#175=EDGE_LOOP('',(#963,#964,#965,#966));
#176=EDGE_LOOP('',(#967,#968,#969,#970));
#177=EDGE_LOOP('',(#971,#972,#973,#974));
#178=EDGE_LOOP('',(#975,#976,#977,#978,#979,#980,#981,#982,#983,#984,#985,
#986,#987,#988,#989,#990,#991,#992,#993,#994,#995,#996,#997,#998,#999,#1000,
#1001,#1002,#1003,#1004,#1005,#1006,#1007,#1008,#1009,#1010,#1011,#1012));
#179=EDGE_LOOP('',(#1013));
#180=EDGE_LOOP('',(#1014,#1015,#1016,#1017,#1018,#1019,#1020,#1021));
#181=EDGE_LOOP('',(#1022));
#182=EDGE_LOOP('',(#1023));
#183=EDGE_LOOP('',(#1024));
#184=EDGE_LOOP('',(#1025));
#185=LINE('',#1487,#312);
#186=LINE('',#1490,#313);
#187=LINE('',#1493,#314);
#188=LINE('',#1495,#315);
#189=LINE('',#1496,#316);
#190=LINE('',#1501,#317);
#191=LINE('',#1505,#318);
#192=LINE('',#1507,#319);
#193=LINE('',#1508,#320);
#194=LINE('',#1514,#321);
#195=LINE('',#1517,#322);
#196=LINE('',#1519,#323);
#197=LINE('',#1520,#324);
#198=LINE('',#1525,#325);
#199=LINE('',#1528,#326);
#200=LINE('',#1529,#327);
#201=LINE('',#1535,#328);
#202=LINE('',#1538,#329);
#203=LINE('',#1541,#330);
#204=LINE('',#1543,#331);
#205=LINE('',#1544,#332);
#206=LINE('',#1547,#333);
#207=LINE('',#1551,#334);
#208=LINE('',#1555,#335);
#209=LINE('',#1559,#336);
#210=LINE('',#1561,#337);
#211=LINE('',#1563,#338);
#212=LINE('',#1565,#339);
#213=LINE('',#1567,#340);
#214=LINE('',#1569,#341);
#215=LINE('',#1571,#342);
#216=LINE('',#1573,#343);
#217=LINE('',#1575,#344);
#218=LINE('',#1577,#345);
#219=LINE('',#1579,#346);
#220=LINE('',#1581,#347);
#221=LINE('',#1583,#348);
#222=LINE('',#1585,#349);
#223=LINE('',#1587,#350);
#224=LINE('',#1589,#351);
#225=LINE('',#1591,#352);
#226=LINE('',#1593,#353);
#227=LINE('',#1595,#354);
#228=LINE('',#1597,#355);
#229=LINE('',#1599,#356);
#230=LINE('',#1601,#357);
#231=LINE('',#1603,#358);
#232=LINE('',#1605,#359);
#233=LINE('',#1607,#360);
#234=LINE('',#1609,#361);
#235=LINE('',#1611,#362);
#236=LINE('',#1613,#363);
#237=LINE('',#1615,#364);
#238=LINE('',#1616,#365);
#239=LINE('',#1631,#366);
#240=LINE('',#1632,#367);
#241=LINE('',#1635,#368);
#242=LINE('',#1636,#369);
#243=LINE('',#1640,#370);
#244=LINE('',#1645,#371);
#245=LINE('',#1646,#372);
#246=LINE('',#1649,#373);
#247=LINE('',#1650,#374);
#248=LINE('',#1654,#375);
#249=LINE('',#1658,#376);
#250=LINE('',#1662,#377);
#251=LINE('',#1666,#378);
#252=LINE('',#1670,#379);
#253=LINE('',#1673,#380);
#254=LINE('',#1675,#381);
#255=LINE('',#1676,#382);
#256=LINE('',#1679,#383);
#257=LINE('',#1680,#384);
#258=LINE('',#1683,#385);
#259=LINE('',#1684,#386);
#260=LINE('',#1687,#387);
#261=LINE('',#1688,#388);
#262=LINE('',#1691,#389);
#263=LINE('',#1692,#390);
#264=LINE('',#1695,#391);
#265=LINE('',#1696,#392);
#266=LINE('',#1699,#393);
#267=LINE('',#1700,#394);
#268=LINE('',#1703,#395);
#269=LINE('',#1704,#396);
#270=LINE('',#1707,#397);
#271=LINE('',#1708,#398);
#272=LINE('',#1711,#399);
#273=LINE('',#1712,#400);
#274=LINE('',#1715,#401);
#275=LINE('',#1716,#402);
#276=LINE('',#1719,#403);
#277=LINE('',#1720,#404);
#278=LINE('',#1723,#405);
#279=LINE('',#1724,#406);
#280=LINE('',#1727,#407);
#281=LINE('',#1728,#408);
#282=LINE('',#1730,#409);
#283=LINE('',#1732,#410);
#284=LINE('',#1734,#411);
#285=LINE('',#1737,#412);
#286=LINE('',#1738,#413);
#287=LINE('',#1741,#414);
#288=LINE('',#1742,#415);
#289=LINE('',#1745,#416);
#290=LINE('',#1746,#417);
#291=LINE('',#1749,#418);
#292=LINE('',#1750,#419);
#293=LINE('',#1753,#420);
#294=LINE('',#1754,#421);
#295=LINE('',#1757,#422);
#296=LINE('',#1758,#423);
#297=LINE('',#1761,#424);
#298=LINE('',#1762,#425);
#299=LINE('',#1765,#426);
#300=LINE('',#1766,#427);
#301=LINE('',#1769,#428);
#302=LINE('',#1770,#429);
#303=LINE('',#1773,#430);
#304=LINE('',#1774,#431);
#305=LINE('',#1777,#432);
#306=LINE('',#1778,#433);
#307=LINE('',#1781,#434);
#308=LINE('',#1782,#435);
#309=LINE('',#1785,#436);
#310=LINE('',#1786,#437);
#311=LINE('',#1788,#438);
#312=VECTOR('',#1200,10.);
#313=VECTOR('',#1203,10.);
#314=VECTOR('',#1206,10.);
#315=VECTOR('',#1207,10.);
#316=VECTOR('',#1208,10.);
#317=VECTOR('',#1213,10.);
#318=VECTOR('',#1218,10.);
#319=VECTOR('',#1219,10.);
#320=VECTOR('',#1220,10.);
#321=VECTOR('',#1225,10.);
#322=VECTOR('',#1228,10.);
#323=VECTOR('',#1231,10.);
#324=VECTOR('',#1232,10.);
#325=VECTOR('',#1237,10.);
#326=VECTOR('',#1242,10.);
#327=VECTOR('',#1243,10.);
#328=VECTOR('',#1248,10.);
#329=VECTOR('',#1251,10.);
#330=VECTOR('',#1254,10.);
#331=VECTOR('',#1255,10.);
#332=VECTOR('',#1256,10.);
#333=VECTOR('',#1259,10.);
#334=VECTOR('',#1262,10.);
#335=VECTOR('',#1265,10.);
#336=VECTOR('',#1268,10.);
#337=VECTOR('',#1269,10.);
#338=VECTOR('',#1270,10.);
#339=VECTOR('',#1271,10.);
#340=VECTOR('',#1272,10.);
#341=VECTOR('',#1273,10.);
#342=VECTOR('',#1274,10.);
#343=VECTOR('',#1275,10.);
#344=VECTOR('',#1276,10.);
#345=VECTOR('',#1277,10.);
#346=VECTOR('',#1278,10.);
#347=VECTOR('',#1279,10.);
#348=VECTOR('',#1280,10.);
#349=VECTOR('',#1281,10.);
#350=VECTOR('',#1282,10.);
#351=VECTOR('',#1283,10.);
#352=VECTOR('',#1284,10.);
#353=VECTOR('',#1285,10.);
#354=VECTOR('',#1286,10.);
#355=VECTOR('',#1287,10.);
#356=VECTOR('',#1288,10.);
#357=VECTOR('',#1289,10.);
#358=VECTOR('',#1290,10.);
#359=VECTOR('',#1291,10.);
#360=VECTOR('',#1292,10.);
#361=VECTOR('',#1293,10.);
#362=VECTOR('',#1294,10.);
#363=VECTOR('',#1295,10.);
#364=VECTOR('',#1296,10.);
#365=VECTOR('',#1297,10.);
#366=VECTOR('',#1312,10.);
#367=VECTOR('',#1313,10.);
#368=VECTOR('',#1316,10.);
#369=VECTOR('',#1317,10.);
#370=VECTOR('',#1322,10.);
#371=VECTOR('',#1327,10.);
#372=VECTOR('',#1328,10.);
#373=VECTOR('',#1331,10.);
#374=VECTOR('',#1332,10.);
#375=VECTOR('',#1337,4.3);
#376=VECTOR('',#1342,2.);
#377=VECTOR('',#1347,4.3);
#378=VECTOR('',#1352,2.);
#379=VECTOR('',#1357,4.3);
#380=VECTOR('',#1360,10.);
#381=VECTOR('',#1361,10.);
#382=VECTOR('',#1362,10.);
#383=VECTOR('',#1365,10.);
#384=VECTOR('',#1366,10.);
#385=VECTOR('',#1369,10.);
#386=VECTOR('',#1370,10.);
#387=VECTOR('',#1373,10.);
#388=VECTOR('',#1374,10.);
#389=VECTOR('',#1377,10.);
#390=VECTOR('',#1378,10.);
#391=VECTOR('',#1381,10.);
#392=VECTOR('',#1382,10.);
#393=VECTOR('',#1385,10.);
#394=VECTOR('',#1386,10.);
#395=VECTOR('',#1389,10.);
#396=VECTOR('',#1390,10.);
#397=VECTOR('',#1393,10.);
#398=VECTOR('',#1394,10.);
#399=VECTOR('',#1397,10.);
#400=VECTOR('',#1398,10.);
#401=VECTOR('',#1401,10.);
#402=VECTOR('',#1402,10.);
#403=VECTOR('',#1405,10.);
#404=VECTOR('',#1406,10.);
#405=VECTOR('',#1409,10.);
#406=VECTOR('',#1410,10.);
#407=VECTOR('',#1413,10.);
#408=VECTOR('',#1414,10.);
#409=VECTOR('',#1417,10.);
#410=VECTOR('',#1420,10.);
#411=VECTOR('',#1423,10.);
#412=VECTOR('',#1426,10.);
#413=VECTOR('',#1427,10.);
#414=VECTOR('',#1430,10.);
#415=VECTOR('',#1431,10.);
#416=VECTOR('',#1434,10.);
#417=VECTOR('',#1435,10.);
#418=VECTOR('',#1438,10.);
#419=VECTOR('',#1439,10.);
#420=VECTOR('',#1442,10.);
#421=VECTOR('',#1443,10.);
#422=VECTOR('',#1446,10.);
#423=VECTOR('',#1447,10.);
#424=VECTOR('',#1450,10.);
#425=VECTOR('',#1451,10.);
#426=VECTOR('',#1454,10.);
#427=VECTOR('',#1455,10.);
#428=VECTOR('',#1458,10.);
#429=VECTOR('',#1459,10.);
#430=VECTOR('',#1462,10.);
#431=VECTOR('',#1463,10.);
#432=VECTOR('',#1466,10.);
#433=VECTOR('',#1467,10.);
#434=VECTOR('',#1470,10.);
#435=VECTOR('',#1471,10.);
#436=VECTOR('',#1474,10.);
#437=VECTOR('',#1475,10.);
#438=VECTOR('',#1478,10.);
#439=CIRCLE('',#1116,6.);
#440=CIRCLE('',#1117,6.);
#441=CIRCLE('',#1120,6.);
#442=CIRCLE('',#1121,6.);
#443=CIRCLE('',#1124,2.);
#444=CIRCLE('',#1125,2.);
#445=CIRCLE('',#1128,2.);
#446=CIRCLE('',#1129,2.);
#447=CIRCLE('',#1132,2.);
#448=CIRCLE('',#1133,2.);
#449=CIRCLE('',#1136,2.);
#450=CIRCLE('',#1137,2.);
#451=CIRCLE('',#1138,2.);
#452=CIRCLE('',#1139,4.3);
#453=CIRCLE('',#1140,2.);
#454=CIRCLE('',#1141,4.3);
#455=CIRCLE('',#1142,2.);
#456=CIRCLE('',#1143,4.3);
#457=CIRCLE('',#1145,2.);
#458=CIRCLE('',#1148,2.);
#459=CIRCLE('',#1150,2.);
#460=CIRCLE('',#1153,4.3);
#461=CIRCLE('',#1155,2.);
#462=CIRCLE('',#1157,4.3);
#463=CIRCLE('',#1159,2.);
#464=CIRCLE('',#1161,4.3);
#465=VERTEX_POINT('',#1483);
#466=VERTEX_POINT('',#1484);
#467=VERTEX_POINT('',#1486);
#468=VERTEX_POINT('',#1488);
#469=VERTEX_POINT('',#1492);
#470=VERTEX_POINT('',#1494);
#471=VERTEX_POINT('',#1498);
#472=VERTEX_POINT('',#1500);
#473=VERTEX_POINT('',#1504);
#474=VERTEX_POINT('',#1506);
#475=VERTEX_POINT('',#1510);
#476=VERTEX_POINT('',#1511);
#477=VERTEX_POINT('',#1513);
#478=VERTEX_POINT('',#1515);
#479=VERTEX_POINT('',#1522);
#480=VERTEX_POINT('',#1524);
#481=VERTEX_POINT('',#1531);
#482=VERTEX_POINT('',#1532);
#483=VERTEX_POINT('',#1534);
#484=VERTEX_POINT('',#1536);
#485=VERTEX_POINT('',#1540);
#486=VERTEX_POINT('',#1542);
#487=VERTEX_POINT('',#1546);
#488=VERTEX_POINT('',#1548);
#489=VERTEX_POINT('',#1550);
#490=VERTEX_POINT('',#1552);
#491=VERTEX_POINT('',#1554);
#492=VERTEX_POINT('',#1556);
#493=VERTEX_POINT('',#1558);
#494=VERTEX_POINT('',#1560);
#495=VERTEX_POINT('',#1562);
#496=VERTEX_POINT('',#1564);
#497=VERTEX_POINT('',#1566);
#498=VERTEX_POINT('',#1568);
#499=VERTEX_POINT('',#1570);
#500=VERTEX_POINT('',#1572);
#501=VERTEX_POINT('',#1574);
#502=VERTEX_POINT('',#1576);
#503=VERTEX_POINT('',#1578);
#504=VERTEX_POINT('',#1580);
#505=VERTEX_POINT('',#1582);
#506=VERTEX_POINT('',#1584);
#507=VERTEX_POINT('',#1586);
#508=VERTEX_POINT('',#1588);
#509=VERTEX_POINT('',#1590);
#510=VERTEX_POINT('',#1592);
#511=VERTEX_POINT('',#1594);
#512=VERTEX_POINT('',#1596);
#513=VERTEX_POINT('',#1598);
#514=VERTEX_POINT('',#1600);
#515=VERTEX_POINT('',#1602);
#516=VERTEX_POINT('',#1604);
#517=VERTEX_POINT('',#1606);
#518=VERTEX_POINT('',#1608);
#519=VERTEX_POINT('',#1610);
#520=VERTEX_POINT('',#1612);
#521=VERTEX_POINT('',#1614);
#522=VERTEX_POINT('',#1617);
#523=VERTEX_POINT('',#1619);
#524=VERTEX_POINT('',#1621);
#525=VERTEX_POINT('',#1623);
#526=VERTEX_POINT('',#1625);
#527=VERTEX_POINT('',#1628);
#528=VERTEX_POINT('',#1629);
#529=VERTEX_POINT('',#1634);
#530=VERTEX_POINT('',#1638);
#531=VERTEX_POINT('',#1642);
#532=VERTEX_POINT('',#1643);
#533=VERTEX_POINT('',#1648);
#534=VERTEX_POINT('',#1652);
#535=VERTEX_POINT('',#1656);
#536=VERTEX_POINT('',#1660);
#537=VERTEX_POINT('',#1664);
#538=VERTEX_POINT('',#1668);
#539=VERTEX_POINT('',#1672);
#540=VERTEX_POINT('',#1674);
#541=VERTEX_POINT('',#1678);
#542=VERTEX_POINT('',#1682);
#543=VERTEX_POINT('',#1686);
#544=VERTEX_POINT('',#1690);
#545=VERTEX_POINT('',#1694);
#546=VERTEX_POINT('',#1698);
#547=VERTEX_POINT('',#1702);
#548=VERTEX_POINT('',#1706);
#549=VERTEX_POINT('',#1710);
#550=VERTEX_POINT('',#1714);
#551=VERTEX_POINT('',#1718);
#552=VERTEX_POINT('',#1722);
#553=VERTEX_POINT('',#1726);
#554=VERTEX_POINT('',#1736);
#555=VERTEX_POINT('',#1740);
#556=VERTEX_POINT('',#1744);
#557=VERTEX_POINT('',#1748);
#558=VERTEX_POINT('',#1752);
#559=VERTEX_POINT('',#1756);
#560=VERTEX_POINT('',#1760);
#561=VERTEX_POINT('',#1764);
#562=VERTEX_POINT('',#1768);
#563=VERTEX_POINT('',#1772);
#564=VERTEX_POINT('',#1776);
#565=VERTEX_POINT('',#1780);
#566=VERTEX_POINT('',#1784);
#567=EDGE_CURVE('',#465,#466,#439,.T.);
#568=EDGE_CURVE('',#466,#467,#185,.T.);
#569=EDGE_CURVE('',#467,#468,#440,.T.);
#570=EDGE_CURVE('',#468,#465,#186,.T.);
#571=EDGE_CURVE('',#466,#469,#187,.T.);
#572=EDGE_CURVE('',#470,#469,#188,.T.);
#573=EDGE_CURVE('',#467,#470,#189,.T.);
#574=EDGE_CURVE('',#469,#471,#441,.T.);
#575=EDGE_CURVE('',#471,#472,#190,.T.);
#576=EDGE_CURVE('',#472,#470,#442,.T.);
#577=EDGE_CURVE('',#471,#473,#191,.T.);
#578=EDGE_CURVE('',#474,#473,#192,.T.);
#579=EDGE_CURVE('',#472,#474,#193,.T.);
#580=EDGE_CURVE('',#475,#476,#443,.T.);
#581=EDGE_CURVE('',#476,#477,#194,.T.);
#582=EDGE_CURVE('',#477,#478,#444,.T.);
#583=EDGE_CURVE('',#478,#475,#195,.T.);
#584=EDGE_CURVE('',#477,#468,#196,.T.);
#585=EDGE_CURVE('',#476,#465,#197,.T.);
#586=EDGE_CURVE('',#473,#479,#445,.T.);
#587=EDGE_CURVE('',#479,#480,#198,.T.);
#588=EDGE_CURVE('',#480,#474,#446,.T.);
#589=EDGE_CURVE('',#480,#478,#199,.T.);
#590=EDGE_CURVE('',#479,#475,#200,.T.);
#591=EDGE_CURVE('',#481,#482,#447,.T.);
#592=EDGE_CURVE('',#482,#483,#201,.T.);
#593=EDGE_CURVE('',#483,#484,#448,.T.);
#594=EDGE_CURVE('',#484,#481,#202,.T.);
#595=EDGE_CURVE('',#484,#485,#203,.T.);
#596=EDGE_CURVE('',#485,#486,#204,.T.);
#597=EDGE_CURVE('',#481,#486,#205,.T.);
#598=EDGE_CURVE('',#487,#483,#206,.T.);
#599=EDGE_CURVE('',#488,#487,#449,.T.);
#600=EDGE_CURVE('',#489,#488,#207,.T.);
#601=EDGE_CURVE('',#490,#489,#450,.T.);
#602=EDGE_CURVE('',#491,#490,#208,.T.);
#603=EDGE_CURVE('',#492,#491,#451,.T.);
#604=EDGE_CURVE('',#493,#492,#209,.T.);
#605=EDGE_CURVE('',#494,#493,#210,.T.);
#606=EDGE_CURVE('',#495,#494,#211,.T.);
#607=EDGE_CURVE('',#496,#495,#212,.T.);
#608=EDGE_CURVE('',#497,#496,#213,.T.);
#609=EDGE_CURVE('',#498,#497,#214,.T.);
#610=EDGE_CURVE('',#499,#498,#215,.T.);
#611=EDGE_CURVE('',#500,#499,#216,.T.);
#612=EDGE_CURVE('',#501,#500,#217,.T.);
#613=EDGE_CURVE('',#502,#501,#218,.T.);
#614=EDGE_CURVE('',#503,#502,#219,.T.);
#615=EDGE_CURVE('',#504,#503,#220,.T.);
#616=EDGE_CURVE('',#505,#504,#221,.T.);
#617=EDGE_CURVE('',#506,#505,#222,.T.);
#618=EDGE_CURVE('',#507,#506,#223,.T.);
#619=EDGE_CURVE('',#508,#507,#224,.T.);
#620=EDGE_CURVE('',#509,#508,#225,.T.);
#621=EDGE_CURVE('',#510,#509,#226,.T.);
#622=EDGE_CURVE('',#511,#510,#227,.T.);
#623=EDGE_CURVE('',#512,#511,#228,.T.);
#624=EDGE_CURVE('',#513,#512,#229,.T.);
#625=EDGE_CURVE('',#514,#513,#230,.T.);
#626=EDGE_CURVE('',#515,#514,#231,.T.);
#627=EDGE_CURVE('',#516,#515,#232,.T.);
#628=EDGE_CURVE('',#517,#516,#233,.T.);
#629=EDGE_CURVE('',#518,#517,#234,.T.);
#630=EDGE_CURVE('',#519,#518,#235,.T.);
#631=EDGE_CURVE('',#520,#519,#236,.T.);
#632=EDGE_CURVE('',#521,#520,#237,.T.);
#633=EDGE_CURVE('',#485,#521,#238,.T.);
#634=EDGE_CURVE('',#522,#522,#452,.T.);
#635=EDGE_CURVE('',#523,#523,#453,.T.);
#636=EDGE_CURVE('',#524,#524,#454,.T.);
#637=EDGE_CURVE('',#525,#525,#455,.T.);
#638=EDGE_CURVE('',#526,#526,#456,.T.);
#639=EDGE_CURVE('',#527,#528,#457,.T.);
#640=EDGE_CURVE('',#528,#488,#239,.T.);
#641=EDGE_CURVE('',#487,#527,#240,.T.);
#642=EDGE_CURVE('',#529,#528,#241,.T.);
#643=EDGE_CURVE('',#489,#529,#242,.T.);
#644=EDGE_CURVE('',#529,#530,#458,.T.);
#645=EDGE_CURVE('',#530,#490,#243,.T.);
#646=EDGE_CURVE('',#531,#532,#459,.T.);
#647=EDGE_CURVE('',#532,#492,#244,.T.);
#648=EDGE_CURVE('',#491,#531,#245,.T.);
#649=EDGE_CURVE('',#533,#532,#246,.T.);
#650=EDGE_CURVE('',#493,#533,#247,.T.);
#651=EDGE_CURVE('',#534,#534,#460,.T.);
#652=EDGE_CURVE('',#534,#526,#248,.T.);
#653=EDGE_CURVE('',#535,#535,#461,.T.);
#654=EDGE_CURVE('',#535,#525,#249,.T.);
#655=EDGE_CURVE('',#536,#536,#462,.T.);
#656=EDGE_CURVE('',#536,#524,#250,.T.);
#657=EDGE_CURVE('',#537,#537,#463,.T.);
#658=EDGE_CURVE('',#537,#523,#251,.T.);
#659=EDGE_CURVE('',#538,#538,#464,.T.);
#660=EDGE_CURVE('',#538,#522,#252,.T.);
#661=EDGE_CURVE('',#507,#539,#253,.T.);
#662=EDGE_CURVE('',#540,#539,#254,.T.);
#663=EDGE_CURVE('',#508,#540,#255,.T.);
#664=EDGE_CURVE('',#541,#540,#256,.T.);
#665=EDGE_CURVE('',#509,#541,#257,.T.);
#666=EDGE_CURVE('',#542,#541,#258,.T.);
#667=EDGE_CURVE('',#510,#542,#259,.T.);
#668=EDGE_CURVE('',#543,#542,#260,.T.);
#669=EDGE_CURVE('',#511,#543,#261,.T.);
#670=EDGE_CURVE('',#544,#543,#262,.T.);
#671=EDGE_CURVE('',#512,#544,#263,.T.);
#672=EDGE_CURVE('',#545,#544,#264,.T.);
#673=EDGE_CURVE('',#513,#545,#265,.T.);
#674=EDGE_CURVE('',#546,#545,#266,.T.);
#675=EDGE_CURVE('',#514,#546,#267,.T.);
#676=EDGE_CURVE('',#547,#546,#268,.T.);
#677=EDGE_CURVE('',#515,#547,#269,.T.);
#678=EDGE_CURVE('',#548,#547,#270,.T.);
#679=EDGE_CURVE('',#516,#548,#271,.T.);
#680=EDGE_CURVE('',#549,#548,#272,.T.);
#681=EDGE_CURVE('',#517,#549,#273,.T.);
#682=EDGE_CURVE('',#550,#549,#274,.T.);
#683=EDGE_CURVE('',#518,#550,#275,.T.);
#684=EDGE_CURVE('',#551,#550,#276,.T.);
#685=EDGE_CURVE('',#519,#551,#277,.T.);
#686=EDGE_CURVE('',#552,#551,#278,.T.);
#687=EDGE_CURVE('',#520,#552,#279,.T.);
#688=EDGE_CURVE('',#553,#552,#280,.T.);
#689=EDGE_CURVE('',#521,#553,#281,.T.);
#690=EDGE_CURVE('',#486,#553,#282,.T.);
#691=EDGE_CURVE('',#527,#482,#283,.T.);
#692=EDGE_CURVE('',#531,#530,#284,.T.);
#693=EDGE_CURVE('',#554,#533,#285,.T.);
#694=EDGE_CURVE('',#494,#554,#286,.T.);
#695=EDGE_CURVE('',#555,#554,#287,.T.);
#696=EDGE_CURVE('',#495,#555,#288,.T.);
#697=EDGE_CURVE('',#556,#555,#289,.T.);
#698=EDGE_CURVE('',#496,#556,#290,.T.);
#699=EDGE_CURVE('',#557,#556,#291,.T.);
#700=EDGE_CURVE('',#497,#557,#292,.T.);
#701=EDGE_CURVE('',#558,#557,#293,.T.);
#702=EDGE_CURVE('',#498,#558,#294,.T.);
#703=EDGE_CURVE('',#559,#558,#295,.T.);
#704=EDGE_CURVE('',#499,#559,#296,.T.);
#705=EDGE_CURVE('',#560,#559,#297,.T.);
#706=EDGE_CURVE('',#500,#560,#298,.T.);
#707=EDGE_CURVE('',#561,#560,#299,.T.);
#708=EDGE_CURVE('',#501,#561,#300,.T.);
#709=EDGE_CURVE('',#562,#561,#301,.T.);
#710=EDGE_CURVE('',#502,#562,#302,.T.);
#711=EDGE_CURVE('',#563,#562,#303,.T.);
#712=EDGE_CURVE('',#503,#563,#304,.T.);
#713=EDGE_CURVE('',#564,#563,#305,.T.);
#714=EDGE_CURVE('',#504,#564,#306,.T.);
#715=EDGE_CURVE('',#565,#564,#307,.T.);
#716=EDGE_CURVE('',#505,#565,#308,.T.);
#717=EDGE_CURVE('',#566,#565,#309,.T.);
#718=EDGE_CURVE('',#506,#566,#310,.T.);
#719=EDGE_CURVE('',#539,#566,#311,.T.);
#720=ORIENTED_EDGE('',*,*,#567,.T.);
#721=ORIENTED_EDGE('',*,*,#568,.T.);
#722=ORIENTED_EDGE('',*,*,#569,.T.);
#723=ORIENTED_EDGE('',*,*,#570,.T.);
#724=ORIENTED_EDGE('',*,*,#568,.F.);
#725=ORIENTED_EDGE('',*,*,#571,.T.);
#726=ORIENTED_EDGE('',*,*,#572,.F.);
#727=ORIENTED_EDGE('',*,*,#573,.F.);
#728=ORIENTED_EDGE('',*,*,#574,.T.);
#729=ORIENTED_EDGE('',*,*,#575,.T.);
#730=ORIENTED_EDGE('',*,*,#576,.T.);
#731=ORIENTED_EDGE('',*,*,#572,.T.);
#732=ORIENTED_EDGE('',*,*,#575,.F.);
#733=ORIENTED_EDGE('',*,*,#577,.T.);
#734=ORIENTED_EDGE('',*,*,#578,.F.);
#735=ORIENTED_EDGE('',*,*,#579,.F.);
#736=ORIENTED_EDGE('',*,*,#580,.T.);
#737=ORIENTED_EDGE('',*,*,#581,.T.);
#738=ORIENTED_EDGE('',*,*,#582,.T.);
#739=ORIENTED_EDGE('',*,*,#583,.T.);
#740=ORIENTED_EDGE('',*,*,#570,.F.);
#741=ORIENTED_EDGE('',*,*,#584,.F.);
#742=ORIENTED_EDGE('',*,*,#581,.F.);
#743=ORIENTED_EDGE('',*,*,#585,.T.);
#744=ORIENTED_EDGE('',*,*,#586,.T.);
#745=ORIENTED_EDGE('',*,*,#587,.T.);
#746=ORIENTED_EDGE('',*,*,#588,.T.);
#747=ORIENTED_EDGE('',*,*,#578,.T.);
#748=ORIENTED_EDGE('',*,*,#583,.F.);
#749=ORIENTED_EDGE('',*,*,#589,.F.);
#750=ORIENTED_EDGE('',*,*,#587,.F.);
#751=ORIENTED_EDGE('',*,*,#590,.T.);
#752=ORIENTED_EDGE('',*,*,#591,.T.);
#753=ORIENTED_EDGE('',*,*,#592,.T.);
#754=ORIENTED_EDGE('',*,*,#593,.T.);
#755=ORIENTED_EDGE('',*,*,#594,.T.);
#756=ORIENTED_EDGE('',*,*,#594,.F.);
#757=ORIENTED_EDGE('',*,*,#595,.T.);
#758=ORIENTED_EDGE('',*,*,#596,.T.);
#759=ORIENTED_EDGE('',*,*,#597,.F.);
#760=ORIENTED_EDGE('',*,*,#593,.F.);
#761=ORIENTED_EDGE('',*,*,#598,.F.);
#762=ORIENTED_EDGE('',*,*,#599,.F.);
#763=ORIENTED_EDGE('',*,*,#600,.F.);
#764=ORIENTED_EDGE('',*,*,#601,.F.);
#765=ORIENTED_EDGE('',*,*,#602,.F.);
#766=ORIENTED_EDGE('',*,*,#603,.F.);
#767=ORIENTED_EDGE('',*,*,#604,.F.);
#768=ORIENTED_EDGE('',*,*,#605,.F.);
#769=ORIENTED_EDGE('',*,*,#606,.F.);
#770=ORIENTED_EDGE('',*,*,#607,.F.);
#771=ORIENTED_EDGE('',*,*,#608,.F.);
#772=ORIENTED_EDGE('',*,*,#609,.F.);
#773=ORIENTED_EDGE('',*,*,#610,.F.);
#774=ORIENTED_EDGE('',*,*,#611,.F.);
#775=ORIENTED_EDGE('',*,*,#612,.F.);
#776=ORIENTED_EDGE('',*,*,#613,.F.);
#777=ORIENTED_EDGE('',*,*,#614,.F.);
#778=ORIENTED_EDGE('',*,*,#615,.F.);
#779=ORIENTED_EDGE('',*,*,#616,.F.);
#780=ORIENTED_EDGE('',*,*,#617,.F.);
#781=ORIENTED_EDGE('',*,*,#618,.F.);
#782=ORIENTED_EDGE('',*,*,#619,.F.);
#783=ORIENTED_EDGE('',*,*,#620,.F.);
#784=ORIENTED_EDGE('',*,*,#621,.F.);
#785=ORIENTED_EDGE('',*,*,#622,.F.);
#786=ORIENTED_EDGE('',*,*,#623,.F.);
#787=ORIENTED_EDGE('',*,*,#624,.F.);
#788=ORIENTED_EDGE('',*,*,#625,.F.);
#789=ORIENTED_EDGE('',*,*,#626,.F.);
#790=ORIENTED_EDGE('',*,*,#627,.F.);
#791=ORIENTED_EDGE('',*,*,#628,.F.);
#792=ORIENTED_EDGE('',*,*,#629,.F.);
#793=ORIENTED_EDGE('',*,*,#630,.F.);
#794=ORIENTED_EDGE('',*,*,#631,.F.);
#795=ORIENTED_EDGE('',*,*,#632,.F.);
#796=ORIENTED_EDGE('',*,*,#633,.F.);
#797=ORIENTED_EDGE('',*,*,#595,.F.);
#798=ORIENTED_EDGE('',*,*,#634,.F.);
#799=ORIENTED_EDGE('',*,*,#586,.F.);
#800=ORIENTED_EDGE('',*,*,#577,.F.);
#801=ORIENTED_EDGE('',*,*,#574,.F.);
#802=ORIENTED_EDGE('',*,*,#571,.F.);
#803=ORIENTED_EDGE('',*,*,#567,.F.);
#804=ORIENTED_EDGE('',*,*,#585,.F.);
#805=ORIENTED_EDGE('',*,*,#580,.F.);
#806=ORIENTED_EDGE('',*,*,#590,.F.);
#807=ORIENTED_EDGE('',*,*,#635,.F.);
#808=ORIENTED_EDGE('',*,*,#636,.F.);
#809=ORIENTED_EDGE('',*,*,#637,.F.);
#810=ORIENTED_EDGE('',*,*,#638,.F.);
#811=ORIENTED_EDGE('',*,*,#639,.T.);
#812=ORIENTED_EDGE('',*,*,#640,.T.);
#813=ORIENTED_EDGE('',*,*,#599,.T.);
#814=ORIENTED_EDGE('',*,*,#641,.T.);
#815=ORIENTED_EDGE('',*,*,#640,.F.);
#816=ORIENTED_EDGE('',*,*,#642,.F.);
#817=ORIENTED_EDGE('',*,*,#643,.F.);
#818=ORIENTED_EDGE('',*,*,#600,.T.);
#819=ORIENTED_EDGE('',*,*,#644,.T.);
#820=ORIENTED_EDGE('',*,*,#645,.T.);
#821=ORIENTED_EDGE('',*,*,#601,.T.);
#822=ORIENTED_EDGE('',*,*,#643,.T.);
#823=ORIENTED_EDGE('',*,*,#646,.T.);
#824=ORIENTED_EDGE('',*,*,#647,.T.);
#825=ORIENTED_EDGE('',*,*,#603,.T.);
#826=ORIENTED_EDGE('',*,*,#648,.T.);
#827=ORIENTED_EDGE('',*,*,#647,.F.);
#828=ORIENTED_EDGE('',*,*,#649,.F.);
#829=ORIENTED_EDGE('',*,*,#650,.F.);
#830=ORIENTED_EDGE('',*,*,#604,.T.);
#831=ORIENTED_EDGE('',*,*,#651,.F.);
#832=ORIENTED_EDGE('',*,*,#652,.T.);
#833=ORIENTED_EDGE('',*,*,#638,.T.);
#834=ORIENTED_EDGE('',*,*,#652,.F.);
#835=ORIENTED_EDGE('',*,*,#653,.F.);
#836=ORIENTED_EDGE('',*,*,#654,.T.);
#837=ORIENTED_EDGE('',*,*,#637,.T.);
#838=ORIENTED_EDGE('',*,*,#654,.F.);
#839=ORIENTED_EDGE('',*,*,#655,.F.);
#840=ORIENTED_EDGE('',*,*,#656,.T.);
#841=ORIENTED_EDGE('',*,*,#636,.T.);
#842=ORIENTED_EDGE('',*,*,#656,.F.);
#843=ORIENTED_EDGE('',*,*,#657,.F.);
#844=ORIENTED_EDGE('',*,*,#658,.T.);
#845=ORIENTED_EDGE('',*,*,#635,.T.);
#846=ORIENTED_EDGE('',*,*,#658,.F.);
#847=ORIENTED_EDGE('',*,*,#659,.F.);
#848=ORIENTED_EDGE('',*,*,#660,.T.);
#849=ORIENTED_EDGE('',*,*,#634,.T.);
#850=ORIENTED_EDGE('',*,*,#660,.F.);
#851=ORIENTED_EDGE('',*,*,#619,.T.);
#852=ORIENTED_EDGE('',*,*,#661,.T.);
#853=ORIENTED_EDGE('',*,*,#662,.F.);
#854=ORIENTED_EDGE('',*,*,#663,.F.);
#855=ORIENTED_EDGE('',*,*,#620,.T.);
#856=ORIENTED_EDGE('',*,*,#663,.T.);
#857=ORIENTED_EDGE('',*,*,#664,.F.);
#858=ORIENTED_EDGE('',*,*,#665,.F.);
#859=ORIENTED_EDGE('',*,*,#621,.T.);
#860=ORIENTED_EDGE('',*,*,#665,.T.);
#861=ORIENTED_EDGE('',*,*,#666,.F.);
#862=ORIENTED_EDGE('',*,*,#667,.F.);
#863=ORIENTED_EDGE('',*,*,#622,.T.);
#864=ORIENTED_EDGE('',*,*,#667,.T.);
#865=ORIENTED_EDGE('',*,*,#668,.F.);
#866=ORIENTED_EDGE('',*,*,#669,.F.);
#867=ORIENTED_EDGE('',*,*,#623,.T.);
#868=ORIENTED_EDGE('',*,*,#669,.T.);
#869=ORIENTED_EDGE('',*,*,#670,.F.);
#870=ORIENTED_EDGE('',*,*,#671,.F.);
#871=ORIENTED_EDGE('',*,*,#624,.T.);
#872=ORIENTED_EDGE('',*,*,#671,.T.);
#873=ORIENTED_EDGE('',*,*,#672,.F.);
#874=ORIENTED_EDGE('',*,*,#673,.F.);
#875=ORIENTED_EDGE('',*,*,#625,.T.);
#876=ORIENTED_EDGE('',*,*,#673,.T.);
#877=ORIENTED_EDGE('',*,*,#674,.F.);
#878=ORIENTED_EDGE('',*,*,#675,.F.);
#879=ORIENTED_EDGE('',*,*,#626,.T.);
#880=ORIENTED_EDGE('',*,*,#675,.T.);
#881=ORIENTED_EDGE('',*,*,#676,.F.);
#882=ORIENTED_EDGE('',*,*,#677,.F.);
#883=ORIENTED_EDGE('',*,*,#627,.T.);
#884=ORIENTED_EDGE('',*,*,#677,.T.);
#885=ORIENTED_EDGE('',*,*,#678,.F.);
#886=ORIENTED_EDGE('',*,*,#679,.F.);
#887=ORIENTED_EDGE('',*,*,#628,.T.);
#888=ORIENTED_EDGE('',*,*,#679,.T.);
#889=ORIENTED_EDGE('',*,*,#680,.F.);
#890=ORIENTED_EDGE('',*,*,#681,.F.);
#891=ORIENTED_EDGE('',*,*,#629,.T.);
#892=ORIENTED_EDGE('',*,*,#681,.T.);
#893=ORIENTED_EDGE('',*,*,#682,.F.);
#894=ORIENTED_EDGE('',*,*,#683,.F.);
#895=ORIENTED_EDGE('',*,*,#630,.T.);
#896=ORIENTED_EDGE('',*,*,#683,.T.);
#897=ORIENTED_EDGE('',*,*,#684,.F.);
#898=ORIENTED_EDGE('',*,*,#685,.F.);
#899=ORIENTED_EDGE('',*,*,#631,.T.);
#900=ORIENTED_EDGE('',*,*,#685,.T.);
#901=ORIENTED_EDGE('',*,*,#686,.F.);
#902=ORIENTED_EDGE('',*,*,#687,.F.);
#903=ORIENTED_EDGE('',*,*,#632,.T.);
#904=ORIENTED_EDGE('',*,*,#687,.T.);
#905=ORIENTED_EDGE('',*,*,#688,.F.);
#906=ORIENTED_EDGE('',*,*,#689,.F.);
#907=ORIENTED_EDGE('',*,*,#633,.T.);
#908=ORIENTED_EDGE('',*,*,#689,.T.);
#909=ORIENTED_EDGE('',*,*,#690,.F.);
#910=ORIENTED_EDGE('',*,*,#596,.F.);
#911=ORIENTED_EDGE('',*,*,#592,.F.);
#912=ORIENTED_EDGE('',*,*,#691,.F.);
#913=ORIENTED_EDGE('',*,*,#641,.F.);
#914=ORIENTED_EDGE('',*,*,#598,.T.);
#915=ORIENTED_EDGE('',*,*,#645,.F.);
#916=ORIENTED_EDGE('',*,*,#692,.F.);
#917=ORIENTED_EDGE('',*,*,#648,.F.);
#918=ORIENTED_EDGE('',*,*,#602,.T.);
#919=ORIENTED_EDGE('',*,*,#605,.T.);
#920=ORIENTED_EDGE('',*,*,#650,.T.);
#921=ORIENTED_EDGE('',*,*,#693,.F.);
#922=ORIENTED_EDGE('',*,*,#694,.F.);
#923=ORIENTED_EDGE('',*,*,#606,.T.);
#924=ORIENTED_EDGE('',*,*,#694,.T.);
#925=ORIENTED_EDGE('',*,*,#695,.F.);
#926=ORIENTED_EDGE('',*,*,#696,.F.);
#927=ORIENTED_EDGE('',*,*,#607,.T.);
#928=ORIENTED_EDGE('',*,*,#696,.T.);
#929=ORIENTED_EDGE('',*,*,#697,.F.);
#930=ORIENTED_EDGE('',*,*,#698,.F.);
#931=ORIENTED_EDGE('',*,*,#608,.T.);
#932=ORIENTED_EDGE('',*,*,#698,.T.);
#933=ORIENTED_EDGE('',*,*,#699,.F.);
#934=ORIENTED_EDGE('',*,*,#700,.F.);
#935=ORIENTED_EDGE('',*,*,#609,.T.);
#936=ORIENTED_EDGE('',*,*,#700,.T.);
#937=ORIENTED_EDGE('',*,*,#701,.F.);
#938=ORIENTED_EDGE('',*,*,#702,.F.);
#939=ORIENTED_EDGE('',*,*,#610,.T.);
#940=ORIENTED_EDGE('',*,*,#702,.T.);
#941=ORIENTED_EDGE('',*,*,#703,.F.);
#942=ORIENTED_EDGE('',*,*,#704,.F.);
#943=ORIENTED_EDGE('',*,*,#611,.T.);
#944=ORIENTED_EDGE('',*,*,#704,.T.);
#945=ORIENTED_EDGE('',*,*,#705,.F.);
#946=ORIENTED_EDGE('',*,*,#706,.F.);
#947=ORIENTED_EDGE('',*,*,#612,.T.);
#948=ORIENTED_EDGE('',*,*,#706,.T.);
#949=ORIENTED_EDGE('',*,*,#707,.F.);
#950=ORIENTED_EDGE('',*,*,#708,.F.);
#951=ORIENTED_EDGE('',*,*,#613,.T.);
#952=ORIENTED_EDGE('',*,*,#708,.T.);
#953=ORIENTED_EDGE('',*,*,#709,.F.);
#954=ORIENTED_EDGE('',*,*,#710,.F.);
#955=ORIENTED_EDGE('',*,*,#614,.T.);
#956=ORIENTED_EDGE('',*,*,#710,.T.);
#957=ORIENTED_EDGE('',*,*,#711,.F.);
#958=ORIENTED_EDGE('',*,*,#712,.F.);
#959=ORIENTED_EDGE('',*,*,#615,.T.);
#960=ORIENTED_EDGE('',*,*,#712,.T.);
#961=ORIENTED_EDGE('',*,*,#713,.F.);
#962=ORIENTED_EDGE('',*,*,#714,.F.);
#963=ORIENTED_EDGE('',*,*,#616,.T.);
#964=ORIENTED_EDGE('',*,*,#714,.T.);
#965=ORIENTED_EDGE('',*,*,#715,.F.);
#966=ORIENTED_EDGE('',*,*,#716,.F.);
#967=ORIENTED_EDGE('',*,*,#617,.T.);
#968=ORIENTED_EDGE('',*,*,#716,.T.);
#969=ORIENTED_EDGE('',*,*,#717,.F.);
#970=ORIENTED_EDGE('',*,*,#718,.F.);
#971=ORIENTED_EDGE('',*,*,#618,.T.);
#972=ORIENTED_EDGE('',*,*,#718,.T.);
#973=ORIENTED_EDGE('',*,*,#719,.F.);
#974=ORIENTED_EDGE('',*,*,#661,.F.);
#975=ORIENTED_EDGE('',*,*,#591,.F.);
#976=ORIENTED_EDGE('',*,*,#597,.T.);
#977=ORIENTED_EDGE('',*,*,#690,.T.);
#978=ORIENTED_EDGE('',*,*,#688,.T.);
#979=ORIENTED_EDGE('',*,*,#686,.T.);
#980=ORIENTED_EDGE('',*,*,#684,.T.);
#981=ORIENTED_EDGE('',*,*,#682,.T.);
#982=ORIENTED_EDGE('',*,*,#680,.T.);
#983=ORIENTED_EDGE('',*,*,#678,.T.);
#984=ORIENTED_EDGE('',*,*,#676,.T.);
#985=ORIENTED_EDGE('',*,*,#674,.T.);
#986=ORIENTED_EDGE('',*,*,#672,.T.);
#987=ORIENTED_EDGE('',*,*,#670,.T.);
#988=ORIENTED_EDGE('',*,*,#668,.T.);
#989=ORIENTED_EDGE('',*,*,#666,.T.);
#990=ORIENTED_EDGE('',*,*,#664,.T.);
#991=ORIENTED_EDGE('',*,*,#662,.T.);
#992=ORIENTED_EDGE('',*,*,#719,.T.);
#993=ORIENTED_EDGE('',*,*,#717,.T.);
#994=ORIENTED_EDGE('',*,*,#715,.T.);
#995=ORIENTED_EDGE('',*,*,#713,.T.);
#996=ORIENTED_EDGE('',*,*,#711,.T.);
#997=ORIENTED_EDGE('',*,*,#709,.T.);
#998=ORIENTED_EDGE('',*,*,#707,.T.);
#999=ORIENTED_EDGE('',*,*,#705,.T.);
#1000=ORIENTED_EDGE('',*,*,#703,.T.);
#1001=ORIENTED_EDGE('',*,*,#701,.T.);
#1002=ORIENTED_EDGE('',*,*,#699,.T.);
#1003=ORIENTED_EDGE('',*,*,#697,.T.);
#1004=ORIENTED_EDGE('',*,*,#695,.T.);
#1005=ORIENTED_EDGE('',*,*,#693,.T.);
#1006=ORIENTED_EDGE('',*,*,#649,.T.);
#1007=ORIENTED_EDGE('',*,*,#646,.F.);
#1008=ORIENTED_EDGE('',*,*,#692,.T.);
#1009=ORIENTED_EDGE('',*,*,#644,.F.);
#1010=ORIENTED_EDGE('',*,*,#642,.T.);
#1011=ORIENTED_EDGE('',*,*,#639,.F.);
#1012=ORIENTED_EDGE('',*,*,#691,.T.);
#1013=ORIENTED_EDGE('',*,*,#659,.T.);
#1014=ORIENTED_EDGE('',*,*,#589,.T.);
#1015=ORIENTED_EDGE('',*,*,#582,.F.);
#1016=ORIENTED_EDGE('',*,*,#584,.T.);
#1017=ORIENTED_EDGE('',*,*,#569,.F.);
#1018=ORIENTED_EDGE('',*,*,#573,.T.);
#1019=ORIENTED_EDGE('',*,*,#576,.F.);
#1020=ORIENTED_EDGE('',*,*,#579,.T.);
#1021=ORIENTED_EDGE('',*,*,#588,.F.);
#1022=ORIENTED_EDGE('',*,*,#657,.T.);
#1023=ORIENTED_EDGE('',*,*,#655,.T.);
#1024=ORIENTED_EDGE('',*,*,#653,.T.);
#1025=ORIENTED_EDGE('',*,*,#651,.T.);
#1026=CYLINDRICAL_SURFACE('',#1115,6.);
#1027=CYLINDRICAL_SURFACE('',#1119,6.);
#1028=CYLINDRICAL_SURFACE('',#1123,2.);
#1029=CYLINDRICAL_SURFACE('',#1127,2.);
#1030=CYLINDRICAL_SURFACE('',#1131,2.);
#1031=CYLINDRICAL_SURFACE('',#1144,2.);
#1032=CYLINDRICAL_SURFACE('',#1147,2.);
#1033=CYLINDRICAL_SURFACE('',#1149,2.);
#1034=CYLINDRICAL_SURFACE('',#1152,4.3);
#1035=CYLINDRICAL_SURFACE('',#1154,2.);
#1036=CYLINDRICAL_SURFACE('',#1156,4.3);
#1037=CYLINDRICAL_SURFACE('',#1158,2.);
#1038=CYLINDRICAL_SURFACE('',#1160,4.3);
#1039=ADVANCED_FACE('',(#67),#1026,.F.);
#1040=ADVANCED_FACE('',(#68),#27,.T.);
#1041=ADVANCED_FACE('',(#69),#1027,.F.);
#1042=ADVANCED_FACE('',(#70),#28,.T.);
#1043=ADVANCED_FACE('',(#71),#1028,.F.);
#1044=ADVANCED_FACE('',(#72),#29,.T.);
#1045=ADVANCED_FACE('',(#73),#1029,.F.);
#1046=ADVANCED_FACE('',(#74),#30,.T.);
#1047=ADVANCED_FACE('',(#75),#1030,.T.);
#1048=ADVANCED_FACE('',(#76),#31,.T.);
#1049=ADVANCED_FACE('',(#77,#15,#16,#17,#18,#19,#20),#32,.F.);
#1050=ADVANCED_FACE('',(#78),#1031,.T.);
#1051=ADVANCED_FACE('',(#79),#33,.T.);
#1052=ADVANCED_FACE('',(#80),#1032,.T.);
#1053=ADVANCED_FACE('',(#81),#1033,.T.);
#1054=ADVANCED_FACE('',(#82),#34,.T.);
#1055=ADVANCED_FACE('',(#83),#1034,.F.);
#1056=ADVANCED_FACE('',(#84),#1035,.F.);
#1057=ADVANCED_FACE('',(#85),#1036,.F.);
#1058=ADVANCED_FACE('',(#86),#1037,.F.);
#1059=ADVANCED_FACE('',(#87),#1038,.F.);
#1060=ADVANCED_FACE('',(#88),#35,.T.);
#1061=ADVANCED_FACE('',(#89),#36,.T.);
#1062=ADVANCED_FACE('',(#90),#37,.T.);
#1063=ADVANCED_FACE('',(#91),#38,.T.);
#1064=ADVANCED_FACE('',(#92),#39,.T.);
#1065=ADVANCED_FACE('',(#93),#40,.T.);
#1066=ADVANCED_FACE('',(#94),#41,.T.);
#1067=ADVANCED_FACE('',(#95),#42,.T.);
#1068=ADVANCED_FACE('',(#96),#43,.T.);
#1069=ADVANCED_FACE('',(#97),#44,.T.);
#1070=ADVANCED_FACE('',(#98),#45,.T.);
#1071=ADVANCED_FACE('',(#99),#46,.T.);
#1072=ADVANCED_FACE('',(#100),#47,.T.);
#1073=ADVANCED_FACE('',(#101),#48,.T.);
#1074=ADVANCED_FACE('',(#102),#49,.T.);
#1075=ADVANCED_FACE('',(#103),#50,.T.);
#1076=ADVANCED_FACE('',(#104),#51,.T.);
#1077=ADVANCED_FACE('',(#105),#52,.T.);
#1078=ADVANCED_FACE('',(#106),#53,.T.);
#1079=ADVANCED_FACE('',(#107),#54,.T.);
#1080=ADVANCED_FACE('',(#108),#55,.T.);
#1081=ADVANCED_FACE('',(#109),#56,.T.);
#1082=ADVANCED_FACE('',(#110),#57,.T.);
#1083=ADVANCED_FACE('',(#111),#58,.T.);
#1084=ADVANCED_FACE('',(#112),#59,.T.);
#1085=ADVANCED_FACE('',(#113),#60,.T.);
#1086=ADVANCED_FACE('',(#114),#61,.T.);
#1087=ADVANCED_FACE('',(#115),#62,.T.);
#1088=ADVANCED_FACE('',(#116),#63,.T.);
#1089=ADVANCED_FACE('',(#117),#64,.T.);
#1090=ADVANCED_FACE('',(#118),#65,.T.);
#1091=ADVANCED_FACE('',(#119,#21,#22,#23,#24,#25,#26),#66,.T.);
#1092=CLOSED_SHELL('',(#1039,#1040,#1041,#1042,#1043,#1044,#1045,#1046,
#1047,#1048,#1049,#1050,#1051,#1052,#1053,#1054,#1055,#1056,#1057,#1058,
#1059,#1060,#1061,#1062,#1063,#1064,#1065,#1066,#1067,#1068,#1069,#1070,
#1071,#1072,#1073,#1074,#1075,#1076,#1077,#1078,#1079,#1080,#1081,#1082,
#1083,#1084,#1085,#1086,#1087,#1088,#1089,#1090,#1091));
#1093=DERIVED_UNIT_ELEMENT(#1096,1.);
#1094=DERIVED_UNIT_ELEMENT(#1795,-3.);
#1095=DIMENSIONAL_EXPONENTS(0.,1.,0.,0.,0.,0.,0.);
#1096=(
CONVERSION_BASED_UNIT('gram',#1098)
MASS_UNIT()
NAMED_UNIT(#1095)
);
#1097=(
MASS_UNIT()
NAMED_UNIT(*)
SI_UNIT(.KILO.,.GRAM.)
);
#1098=MASS_MEASURE_WITH_UNIT(MASS_MEASURE(0.001),#1097);
#1099=DERIVED_UNIT((#1093,#1094));
#1100=MEASURE_REPRESENTATION_ITEM('density measure',
POSITIVE_RATIO_MEASURE(7.85),#1099);
#1101=PROPERTY_DEFINITION_REPRESENTATION(#1106,#1103);
#1102=PROPERTY_DEFINITION_REPRESENTATION(#1107,#1104);
#1103=REPRESENTATION('material name',(#1105),#1792);
#1104=REPRESENTATION('density',(#1100),#1792);
#1105=DESCRIPTIVE_REPRESENTATION_ITEM('Steel','Steel');
#1106=PROPERTY_DEFINITION('material property','material name',#1802);
#1107=PROPERTY_DEFINITION('material property','density of part',#1802);
#1108=DATE_TIME_ROLE('creation_date');
#1109=APPLIED_DATE_AND_TIME_ASSIGNMENT(#1110,#1108,(#1802));
#1110=DATE_AND_TIME(#1111,#1112);
#1111=CALENDAR_DATE(2024,25,11);
#1112=LOCAL_TIME(0,0,0.,#1113);
#1113=COORDINATED_UNIVERSAL_TIME_OFFSET(0,0,.BEHIND.);
#1114=AXIS2_PLACEMENT_3D('',#1481,#1194,#1195);
#1115=AXIS2_PLACEMENT_3D('',#1482,#1196,#1197);
#1116=AXIS2_PLACEMENT_3D('',#1485,#1198,#1199);
#1117=AXIS2_PLACEMENT_3D('',#1489,#1201,#1202);
#1118=AXIS2_PLACEMENT_3D('',#1491,#1204,#1205);
#1119=AXIS2_PLACEMENT_3D('',#1497,#1209,#1210);
#1120=AXIS2_PLACEMENT_3D('',#1499,#1211,#1212);
#1121=AXIS2_PLACEMENT_3D('',#1502,#1214,#1215);
#1122=AXIS2_PLACEMENT_3D('',#1503,#1216,#1217);
#1123=AXIS2_PLACEMENT_3D('',#1509,#1221,#1222);
#1124=AXIS2_PLACEMENT_3D('',#1512,#1223,#1224);
#1125=AXIS2_PLACEMENT_3D('',#1516,#1226,#1227);
#1126=AXIS2_PLACEMENT_3D('',#1518,#1229,#1230);
#1127=AXIS2_PLACEMENT_3D('',#1521,#1233,#1234);
#1128=AXIS2_PLACEMENT_3D('',#1523,#1235,#1236);
#1129=AXIS2_PLACEMENT_3D('',#1526,#1238,#1239);
#1130=AXIS2_PLACEMENT_3D('',#1527,#1240,#1241);
#1131=AXIS2_PLACEMENT_3D('',#1530,#1244,#1245);
#1132=AXIS2_PLACEMENT_3D('',#1533,#1246,#1247);
#1133=AXIS2_PLACEMENT_3D('',#1537,#1249,#1250);
#1134=AXIS2_PLACEMENT_3D('',#1539,#1252,#1253);
#1135=AXIS2_PLACEMENT_3D('',#1545,#1257,#1258);
#1136=AXIS2_PLACEMENT_3D('',#1549,#1260,#1261);
#1137=AXIS2_PLACEMENT_3D('',#1553,#1263,#1264);
#1138=AXIS2_PLACEMENT_3D('',#1557,#1266,#1267);
#1139=AXIS2_PLACEMENT_3D('',#1618,#1298,#1299);
#1140=AXIS2_PLACEMENT_3D('',#1620,#1300,#1301);
#1141=AXIS2_PLACEMENT_3D('',#1622,#1302,#1303);
#1142=AXIS2_PLACEMENT_3D('',#1624,#1304,#1305);
#1143=AXIS2_PLACEMENT_3D('',#1626,#1306,#1307);
#1144=AXIS2_PLACEMENT_3D('',#1627,#1308,#1309);
#1145=AXIS2_PLACEMENT_3D('',#1630,#1310,#1311);
#1146=AXIS2_PLACEMENT_3D('',#1633,#1314,#1315);
#1147=AXIS2_PLACEMENT_3D('',#1637,#1318,#1319);
#1148=AXIS2_PLACEMENT_3D('',#1639,#1320,#1321);
#1149=AXIS2_PLACEMENT_3D('',#1641,#1323,#1324);
#1150=AXIS2_PLACEMENT_3D('',#1644,#1325,#1326);
#1151=AXIS2_PLACEMENT_3D('',#1647,#1329,#1330);
#1152=AXIS2_PLACEMENT_3D('',#1651,#1333,#1334);
#1153=AXIS2_PLACEMENT_3D('',#1653,#1335,#1336);
#1154=AXIS2_PLACEMENT_3D('',#1655,#1338,#1339);
#1155=AXIS2_PLACEMENT_3D('',#1657,#1340,#1341);
#1156=AXIS2_PLACEMENT_3D('',#1659,#1343,#1344);
#1157=AXIS2_PLACEMENT_3D('',#1661,#1345,#1346);
#1158=AXIS2_PLACEMENT_3D('',#1663,#1348,#1349);
#1159=AXIS2_PLACEMENT_3D('',#1665,#1350,#1351);
#1160=AXIS2_PLACEMENT_3D('',#1667,#1353,#1354);
#1161=AXIS2_PLACEMENT_3D('',#1669,#1355,#1356);
#1162=AXIS2_PLACEMENT_3D('',#1671,#1358,#1359);
#1163=AXIS2_PLACEMENT_3D('',#1677,#1363,#1364);
#1164=AXIS2_PLACEMENT_3D('',#1681,#1367,#1368);
#1165=AXIS2_PLACEMENT_3D('',#1685,#1371,#1372);
#1166=AXIS2_PLACEMENT_3D('',#1689,#1375,#1376);
#1167=AXIS2_PLACEMENT_3D('',#1693,#1379,#1380);
#1168=AXIS2_PLACEMENT_3D('',#1697,#1383,#1384);
#1169=AXIS2_PLACEMENT_3D('',#1701,#1387,#1388);
#1170=AXIS2_PLACEMENT_3D('',#1705,#1391,#1392);
#1171=AXIS2_PLACEMENT_3D('',#1709,#1395,#1396);
#1172=AXIS2_PLACEMENT_3D('',#1713,#1399,#1400);
#1173=AXIS2_PLACEMENT_3D('',#1717,#1403,#1404);
#1174=AXIS2_PLACEMENT_3D('',#1721,#1407,#1408);
#1175=AXIS2_PLACEMENT_3D('',#1725,#1411,#1412);
#1176=AXIS2_PLACEMENT_3D('',#1729,#1415,#1416);
#1177=AXIS2_PLACEMENT_3D('',#1731,#1418,#1419);
#1178=AXIS2_PLACEMENT_3D('',#1733,#1421,#1422);
#1179=AXIS2_PLACEMENT_3D('',#1735,#1424,#1425);
#1180=AXIS2_PLACEMENT_3D('',#1739,#1428,#1429);
#1181=AXIS2_PLACEMENT_3D('',#1743,#1432,#1433);
#1182=AXIS2_PLACEMENT_3D('',#1747,#1436,#1437);
#1183=AXIS2_PLACEMENT_3D('',#1751,#1440,#1441);
#1184=AXIS2_PLACEMENT_3D('',#1755,#1444,#1445);
#1185=AXIS2_PLACEMENT_3D('',#1759,#1448,#1449);
#1186=AXIS2_PLACEMENT_3D('',#1763,#1452,#1453);
#1187=AXIS2_PLACEMENT_3D('',#1767,#1456,#1457);
#1188=AXIS2_PLACEMENT_3D('',#1771,#1460,#1461);
#1189=AXIS2_PLACEMENT_3D('',#1775,#1464,#1465);
#1190=AXIS2_PLACEMENT_3D('',#1779,#1468,#1469);
#1191=AXIS2_PLACEMENT_3D('',#1783,#1472,#1473);
#1192=AXIS2_PLACEMENT_3D('',#1787,#1476,#1477);
#1193=AXIS2_PLACEMENT_3D('',#1789,#1479,#1480);
#1194=DIRECTION('axis',(0.,0.,1.));
#1195=DIRECTION('refdir',(1.,0.,0.));
#1196=DIRECTION('center_axis',(0.,1.,0.));
#1197=DIRECTION('ref_axis',(0.714142842854285,0.,-0.7));
#1198=DIRECTION('center_axis',(0.,-1.,0.));
#1199=DIRECTION('ref_axis',(0.714142842854285,0.,-0.7));
#1200=DIRECTION('',(0.,1.,0.));
#1201=DIRECTION('center_axis',(0.,1.,0.));
#1202=DIRECTION('ref_axis',(0.714142842854285,0.,-0.7));
#1203=DIRECTION('',(0.,-1.,0.));
#1204=DIRECTION('center_axis',(-1.,0.,-1.85037170770859E-16));
#1205=DIRECTION('ref_axis',(-1.85037170770859E-16,0.,1.));
#1206=DIRECTION('',(-1.85037170770859E-16,0.,1.));
#1207=DIRECTION('',(0.,-1.,0.));
#1208=DIRECTION('',(-1.85037170770859E-16,0.,1.));
#1209=DIRECTION('center_axis',(0.,1.,0.));
#1210=DIRECTION('ref_axis',(0.714142842854285,0.,0.7));
#1211=DIRECTION('center_axis',(0.,-1.,0.));
#1212=DIRECTION('ref_axis',(0.714142842854285,0.,0.7));
#1213=DIRECTION('',(0.,1.,0.));
#1214=DIRECTION('center_axis',(0.,1.,0.));
#1215=DIRECTION('ref_axis',(0.714142842854285,0.,0.7));
#1216=DIRECTION('center_axis',(-0.0200000000000001,0.,-0.999799979995999));
#1217=DIRECTION('ref_axis',(-0.999799979995999,0.,0.0200000000000001));
#1218=DIRECTION('',(-0.999799979995999,0.,0.0200000000000001));
#1219=DIRECTION('',(0.,-1.,0.));
#1220=DIRECTION('',(-0.999799979995999,0.,0.0200000000000001));
#1221=DIRECTION('center_axis',(0.,1.,0.));
#1222=DIRECTION('ref_axis',(-0.700000000000001,0.,-0.714142842854284));
#1223=DIRECTION('center_axis',(0.,-1.,0.));
#1224=DIRECTION('ref_axis',(-0.700000000000001,0.,-0.714142842854284));
#1225=DIRECTION('',(0.,1.,0.));
#1226=DIRECTION('center_axis',(0.,1.,0.));
#1227=DIRECTION('ref_axis',(-0.700000000000001,0.,-0.714142842854284));
#1228=DIRECTION('',(0.,-1.,0.));
#1229=DIRECTION('center_axis',(-0.02,0.,0.999799979995999));
#1230=DIRECTION('ref_axis',(0.999799979995999,0.,0.02));
#1231=DIRECTION('',(0.999799979995999,0.,0.02));
#1232=DIRECTION('',(0.999799979995999,0.,0.02));
#1233=DIRECTION('center_axis',(0.,1.,0.));
#1234=DIRECTION('ref_axis',(-0.700000000000001,0.,0.714142842854284));
#1235=DIRECTION('center_axis',(0.,-1.,0.));
#1236=DIRECTION('ref_axis',(-0.700000000000001,0.,0.714142842854284));
#1237=DIRECTION('',(0.,1.,0.));
#1238=DIRECTION('center_axis',(0.,1.,0.));
#1239=DIRECTION('ref_axis',(-0.700000000000001,0.,0.714142842854284));
#1240=DIRECTION('center_axis',(1.,0.,0.));
#1241=DIRECTION('ref_axis',(0.,0.,-1.));
#1242=DIRECTION('',(0.,0.,-1.));
#1243=DIRECTION('',(0.,0.,-1.));
#1244=DIRECTION('center_axis',(0.,1.,0.));
#1245=DIRECTION('ref_axis',(0.382683432365088,0.,-0.923879532511287));
#1246=DIRECTION('center_axis',(0.,-1.,0.));
#1247=DIRECTION('ref_axis',(0.382683432365088,0.,-0.923879532511287));
#1248=DIRECTION('',(0.,-1.,0.));
#1249=DIRECTION('center_axis',(0.,1.,0.));
#1250=DIRECTION('ref_axis',(0.382683432365088,0.,-0.923879532511287));
#1251=DIRECTION('',(0.,1.,0.));
#1252=DIRECTION('center_axis',(0.,0.,-1.));
#1253=DIRECTION('ref_axis',(-1.,0.,0.));
#1254=DIRECTION('',(-1.,0.,0.));
#1255=DIRECTION('',(0.,1.,0.));
#1256=DIRECTION('',(-1.,0.,0.));
#1257=DIRECTION('center_axis',(0.,1.,0.));
#1258=DIRECTION('ref_axis',(0.,0.,1.));
#1259=DIRECTION('',(-0.707106781186548,0.,-0.707106781186548));
#1260=DIRECTION('center_axis',(0.,1.,0.));
#1261=DIRECTION('ref_axis',(0.923879532511287,0.,-0.382683432365089));
#1262=DIRECTION('',(0.,0.,-1.));
#1263=DIRECTION('center_axis',(0.,1.,0.));
#1264=DIRECTION('ref_axis',(0.923879532511287,0.,0.38268343236509));
#1265=DIRECTION('',(0.707106781186548,0.,-0.707106781186548));
#1266=DIRECTION('center_axis',(0.,1.,0.));
#1267=DIRECTION('ref_axis',(0.382683432365089,0.,0.923879532511287));
#1268=DIRECTION('',(1.,0.,0.));
#1269=DIRECTION('',(0.,0.,1.));
#1270=DIRECTION('',(1.,0.,0.));
#1271=DIRECTION('',(0.,0.,1.));
#1272=DIRECTION('',(-1.,0.,0.));
#1273=DIRECTION('',(0.,0.,1.));
#1274=DIRECTION('',(1.,0.,-8.88178419700125E-16));
#1275=DIRECTION('',(0.,0.,1.));
#1276=DIRECTION('',(-1.,0.,0.));
#1277=DIRECTION('',(0.,0.,1.));
#1278=DIRECTION('',(1.,0.,-8.88178419700125E-16));
#1279=DIRECTION('',(0.,0.,1.));
#1280=DIRECTION('',(-1.,0.,2.22044604925031E-16));
#1281=DIRECTION('',(0.,0.,1.));
#1282=DIRECTION('',(1.,0.,-4.44089209850063E-16));
#1283=DIRECTION('',(0.,0.,1.));
#1284=DIRECTION('',(-1.,0.,-4.44089209850063E-16));
#1285=DIRECTION('',(0.,0.,1.));
#1286=DIRECTION('',(1.,0.,2.22044604925031E-16));
#1287=DIRECTION('',(0.,0.,1.));
#1288=DIRECTION('',(-1.,0.,-8.88178419700125E-16));
#1289=DIRECTION('',(0.,0.,1.));
#1290=DIRECTION('',(1.,0.,0.));
#1291=DIRECTION('',(0.,0.,1.));
#1292=DIRECTION('',(-1.,0.,-8.88178419700125E-16));
#1293=DIRECTION('',(0.,0.,1.));
#1294=DIRECTION('',(1.,0.,0.));
#1295=DIRECTION('',(0.,0.,1.));
#1296=DIRECTION('',(-1.,0.,0.));
#1297=DIRECTION('',(0.,0.,1.));
#1298=DIRECTION('center_axis',(0.,-1.,0.));
#1299=DIRECTION('ref_axis',(1.,0.,0.));
#1300=DIRECTION('center_axis',(0.,-1.,0.));
#1301=DIRECTION('ref_axis',(1.,0.,0.));
#1302=DIRECTION('center_axis',(0.,-1.,0.));
#1303=DIRECTION('ref_axis',(1.,0.,0.));
#1304=DIRECTION('center_axis',(0.,-1.,0.));
#1305=DIRECTION('ref_axis',(1.,0.,0.));
#1306=DIRECTION('center_axis',(0.,-1.,0.));
#1307=DIRECTION('ref_axis',(1.,0.,0.));
#1308=DIRECTION('center_axis',(0.,1.,0.));
#1309=DIRECTION('ref_axis',(0.923879532511287,0.,-0.382683432365089));
#1310=DIRECTION('center_axis',(0.,-1.,0.));
#1311=DIRECTION('ref_axis',(0.923879532511287,0.,-0.382683432365089));
#1312=DIRECTION('',(0.,-1.,0.));
#1313=DIRECTION('',(0.,1.,0.));
#1314=DIRECTION('center_axis',(1.,0.,0.));
#1315=DIRECTION('ref_axis',(0.,0.,-1.));
#1316=DIRECTION('',(0.,0.,-1.));
#1317=DIRECTION('',(0.,1.,0.));
#1318=DIRECTION('center_axis',(0.,1.,0.));
#1319=DIRECTION('ref_axis',(0.923879532511287,0.,0.38268343236509));
#1320=DIRECTION('center_axis',(0.,-1.,0.));
#1321=DIRECTION('ref_axis',(0.923879532511287,0.,0.38268343236509));
#1322=DIRECTION('',(0.,-1.,0.));
#1323=DIRECTION('center_axis',(0.,1.,0.));
#1324=DIRECTION('ref_axis',(0.382683432365089,0.,0.923879532511287));
#1325=DIRECTION('center_axis',(0.,-1.,0.));
#1326=DIRECTION('ref_axis',(0.382683432365089,0.,0.923879532511287));
#1327=DIRECTION('',(0.,-1.,0.));
#1328=DIRECTION('',(0.,1.,0.));
#1329=DIRECTION('center_axis',(0.,0.,1.));
#1330=DIRECTION('ref_axis',(1.,0.,0.));
#1331=DIRECTION('',(1.,0.,0.));
#1332=DIRECTION('',(0.,1.,0.));
#1333=DIRECTION('center_axis',(0.,1.,0.));
#1334=DIRECTION('ref_axis',(1.,0.,0.));
#1335=DIRECTION('center_axis',(0.,-1.,0.));
#1336=DIRECTION('ref_axis',(1.,0.,0.));
#1337=DIRECTION('',(0.,-1.,0.));
#1338=DIRECTION('center_axis',(0.,1.,0.));
#1339=DIRECTION('ref_axis',(1.,0.,0.));
#1340=DIRECTION('center_axis',(0.,-1.,0.));
#1341=DIRECTION('ref_axis',(1.,0.,0.));
#1342=DIRECTION('',(0.,-1.,0.));
#1343=DIRECTION('center_axis',(0.,1.,0.));
#1344=DIRECTION('ref_axis',(1.,0.,0.));
#1345=DIRECTION('center_axis',(0.,-1.,0.));
#1346=DIRECTION('ref_axis',(1.,0.,0.));
#1347=DIRECTION('',(0.,-1.,0.));
#1348=DIRECTION('center_axis',(0.,1.,0.));
#1349=DIRECTION('ref_axis',(1.,0.,0.));
#1350=DIRECTION('center_axis',(0.,-1.,0.));
#1351=DIRECTION('ref_axis',(1.,0.,0.));
#1352=DIRECTION('',(0.,-1.,0.));
#1353=DIRECTION('center_axis',(0.,1.,0.));
#1354=DIRECTION('ref_axis',(1.,0.,0.));
#1355=DIRECTION('center_axis',(0.,-1.,0.));
#1356=DIRECTION('ref_axis',(1.,0.,0.));
#1357=DIRECTION('',(0.,-1.,0.));
#1358=DIRECTION('center_axis',(-1.,0.,0.));
#1359=DIRECTION('ref_axis',(0.,0.,1.));
#1360=DIRECTION('',(0.,1.,0.));
#1361=DIRECTION('',(0.,0.,1.));
#1362=DIRECTION('',(0.,1.,0.));
#1363=DIRECTION('center_axis',(4.44089209850063E-16,0.,-1.));
#1364=DIRECTION('ref_axis',(-1.,0.,-4.44089209850063E-16));
#1365=DIRECTION('',(-1.,0.,-4.44089209850063E-16));
#1366=DIRECTION('',(0.,1.,0.));
#1367=DIRECTION('center_axis',(-1.,0.,0.));
#1368=DIRECTION('ref_axis',(0.,0.,1.));
#1369=DIRECTION('',(0.,0.,1.));
#1370=DIRECTION('',(0.,1.,0.));
#1371=DIRECTION('center_axis',(-2.22044604925031E-16,0.,1.));
#1372=DIRECTION('ref_axis',(1.,0.,2.22044604925031E-16));
#1373=DIRECTION('',(1.,0.,2.22044604925031E-16));
#1374=DIRECTION('',(0.,1.,0.));
#1375=DIRECTION('center_axis',(-1.,0.,0.));
#1376=DIRECTION('ref_axis',(0.,0.,1.));
#1377=DIRECTION('',(0.,0.,1.));
#1378=DIRECTION('',(0.,1.,0.));
#1379=DIRECTION('center_axis',(8.88178419700125E-16,0.,-1.));
#1380=DIRECTION('ref_axis',(-1.,0.,-8.88178419700125E-16));
#1381=DIRECTION('',(-1.,0.,-8.88178419700125E-16));
#1382=DIRECTION('',(0.,1.,0.));
#1383=DIRECTION('center_axis',(-1.,0.,0.));
#1384=DIRECTION('ref_axis',(0.,0.,1.));
#1385=DIRECTION('',(0.,0.,1.));
#1386=DIRECTION('',(0.,1.,0.));
#1387=DIRECTION('center_axis',(0.,0.,1.));
#1388=DIRECTION('ref_axis',(1.,0.,0.));
#1389=DIRECTION('',(1.,0.,0.));
#1390=DIRECTION('',(0.,1.,0.));
#1391=DIRECTION('center_axis',(-1.,0.,0.));
#1392=DIRECTION('ref_axis',(0.,0.,1.));
#1393=DIRECTION('',(0.,0.,1.));
#1394=DIRECTION('',(0.,1.,0.));
#1395=DIRECTION('center_axis',(8.88178419700125E-16,0.,-1.));
#1396=DIRECTION('ref_axis',(-1.,0.,-8.88178419700125E-16));
#1397=DIRECTION('',(-1.,0.,-8.88178419700125E-16));
#1398=DIRECTION('',(0.,1.,0.));
#1399=DIRECTION('center_axis',(-1.,0.,0.));
#1400=DIRECTION('ref_axis',(0.,0.,1.));
#1401=DIRECTION('',(0.,0.,1.));
#1402=DIRECTION('',(0.,1.,0.));
#1403=DIRECTION('center_axis',(0.,0.,1.));
#1404=DIRECTION('ref_axis',(1.,0.,0.));
#1405=DIRECTION('',(1.,0.,0.));
#1406=DIRECTION('',(0.,1.,0.));
#1407=DIRECTION('center_axis',(-1.,0.,0.));
#1408=DIRECTION('ref_axis',(0.,0.,1.));
#1409=DIRECTION('',(0.,0.,1.));
#1410=DIRECTION('',(0.,1.,0.));
#1411=DIRECTION('center_axis',(0.,0.,-1.));
#1412=DIRECTION('ref_axis',(-1.,0.,0.));
#1413=DIRECTION('',(-1.,0.,0.));
#1414=DIRECTION('',(0.,1.,0.));
#1415=DIRECTION('center_axis',(-1.,0.,0.));
#1416=DIRECTION('ref_axis',(0.,0.,1.));
#1417=DIRECTION('',(0.,0.,1.));
#1418=DIRECTION('center_axis',(0.707106781186548,0.,-0.707106781186548));
#1419=DIRECTION('ref_axis',(-0.707106781186548,0.,-0.707106781186548));
#1420=DIRECTION('',(-0.707106781186548,0.,-0.707106781186548));
#1421=DIRECTION('center_axis',(0.707106781186548,0.,0.707106781186548));
#1422=DIRECTION('ref_axis',(0.707106781186548,0.,-0.707106781186548));
#1423=DIRECTION('',(0.707106781186548,0.,-0.707106781186548));
#1424=DIRECTION('center_axis',(-1.,0.,0.));
#1425=DIRECTION('ref_axis',(0.,0.,1.));
#1426=DIRECTION('',(0.,0.,1.));
#1427=DIRECTION('',(0.,1.,0.));
#1428=DIRECTION('center_axis',(0.,0.,1.));
#1429=DIRECTION('ref_axis',(1.,0.,0.));
#1430=DIRECTION('',(1.,0.,0.));
#1431=DIRECTION('',(0.,1.,0.));
#1432=DIRECTION('center_axis',(-1.,0.,0.));
#1433=DIRECTION('ref_axis',(0.,0.,1.));
#1434=DIRECTION('',(0.,0.,1.));
#1435=DIRECTION('',(0.,1.,0.));
#1436=DIRECTION('center_axis',(0.,0.,-1.));
#1437=DIRECTION('ref_axis',(-1.,0.,0.));
#1438=DIRECTION('',(-1.,0.,0.));
#1439=DIRECTION('',(0.,1.,0.));
#1440=DIRECTION('center_axis',(-1.,0.,0.));
#1441=DIRECTION('ref_axis',(0.,0.,1.));
#1442=DIRECTION('',(0.,0.,1.));
#1443=DIRECTION('',(0.,1.,0.));
#1444=DIRECTION('center_axis',(8.88178419700125E-16,0.,1.));
#1445=DIRECTION('ref_axis',(1.,0.,-8.88178419700125E-16));
#1446=DIRECTION('',(1.,0.,-8.88178419700125E-16));
#1447=DIRECTION('',(0.,1.,0.));
#1448=DIRECTION('center_axis',(-1.,0.,0.));
#1449=DIRECTION('ref_axis',(0.,0.,1.));
#1450=DIRECTION('',(0.,0.,1.));
#1451=DIRECTION('',(0.,1.,0.));
#1452=DIRECTION('center_axis',(0.,0.,-1.));
#1453=DIRECTION('ref_axis',(-1.,0.,0.));
#1454=DIRECTION('',(-1.,0.,0.));
#1455=DIRECTION('',(0.,1.,0.));
#1456=DIRECTION('center_axis',(-1.,0.,0.));
#1457=DIRECTION('ref_axis',(0.,0.,1.));
#1458=DIRECTION('',(0.,0.,1.));
#1459=DIRECTION('',(0.,1.,0.));
#1460=DIRECTION('center_axis',(8.88178419700125E-16,0.,1.));
#1461=DIRECTION('ref_axis',(1.,0.,-8.88178419700125E-16));
#1462=DIRECTION('',(1.,0.,-8.88178419700125E-16));
#1463=DIRECTION('',(0.,1.,0.));
#1464=DIRECTION('center_axis',(-1.,0.,0.));
#1465=DIRECTION('ref_axis',(0.,0.,1.));
#1466=DIRECTION('',(0.,0.,1.));
#1467=DIRECTION('',(0.,1.,0.));
#1468=DIRECTION('center_axis',(-2.22044604925031E-16,0.,-1.));
#1469=DIRECTION('ref_axis',(-1.,0.,2.22044604925031E-16));
#1470=DIRECTION('',(-1.,0.,2.22044604925031E-16));
#1471=DIRECTION('',(0.,1.,0.));
#1472=DIRECTION('center_axis',(-1.,0.,0.));
#1473=DIRECTION('ref_axis',(0.,0.,1.));
#1474=DIRECTION('',(0.,0.,1.));
#1475=DIRECTION('',(0.,1.,0.));
#1476=DIRECTION('center_axis',(4.44089209850063E-16,0.,1.));
#1477=DIRECTION('ref_axis',(1.,0.,-4.44089209850063E-16));
#1478=DIRECTION('',(1.,0.,-4.44089209850063E-16));
#1479=DIRECTION('center_axis',(0.,1.,0.));
#1480=DIRECTION('ref_axis',(0.,0.,1.));
#1481=CARTESIAN_POINT('',(0.,0.,0.));
#1482=CARTESIAN_POINT('Origin',(-14.,0.,-0.11882364708236));
#1483=CARTESIAN_POINT('',(-13.88,0.,-6.11762352705835));
#1484=CARTESIAN_POINT('',(-8.,0.,-0.118823647082359));
#1485=CARTESIAN_POINT('Origin',(-14.,0.,-0.11882364708236));
#1486=CARTESIAN_POINT('',(-8.,5.,-0.118823647082359));
#1487=CARTESIAN_POINT('',(-8.,0.,-0.118823647082359));
#1488=CARTESIAN_POINT('',(-13.88,5.,-6.11762352705835));
#1489=CARTESIAN_POINT('Origin',(-14.,5.,-0.11882364708236));
#1490=CARTESIAN_POINT('',(-13.88,0.,-6.11762352705835));
#1491=CARTESIAN_POINT('Origin',(-8.,0.,-6.));
#1492=CARTESIAN_POINT('',(-8.,0.,0.11882364708236));
#1493=CARTESIAN_POINT('',(-8.,0.,-6.));
#1494=CARTESIAN_POINT('',(-8.,5.,0.11882364708236));
#1495=CARTESIAN_POINT('',(-8.,0.,0.118823647082361));
#1496=CARTESIAN_POINT('',(-8.,5.,-6.));
#1497=CARTESIAN_POINT('Origin',(-14.,0.,0.118823647082359));
#1498=CARTESIAN_POINT('',(-13.88,0.,6.11762352705835));
#1499=CARTESIAN_POINT('Origin',(-14.,0.,0.118823647082359));
#1500=CARTESIAN_POINT('',(-13.88,5.,6.11762352705835));
#1501=CARTESIAN_POINT('',(-13.88,0.,6.11762352705835));
#1502=CARTESIAN_POINT('Origin',(-14.,5.,0.118823647082359));
#1503=CARTESIAN_POINT('Origin',(-8.,0.,6.));
#1504=CARTESIAN_POINT('',(-30.9549994999,0.,6.45919183755119));
#1505=CARTESIAN_POINT('',(-8.,0.,6.));
#1506=CARTESIAN_POINT('',(-30.9549994999,5.,6.45919183755119));
#1507=CARTESIAN_POINT('',(-30.9549994999,0.,6.45919183755119));
#1508=CARTESIAN_POINT('',(-8.,5.,6.));
#1509=CARTESIAN_POINT('Origin',(-30.9949994999,0.,-4.45959187755919));
#1510=CARTESIAN_POINT('',(-32.9949994999,0.,-4.45959187755919));
#1511=CARTESIAN_POINT('',(-30.9549994999,0.,-6.45919183755118));
#1512=CARTESIAN_POINT('Origin',(-30.9949994999,0.,-4.45959187755919));
#1513=CARTESIAN_POINT('',(-30.9549994999,5.,-6.45919183755118));
#1514=CARTESIAN_POINT('',(-30.9549994999,0.,-6.45919183755118));
#1515=CARTESIAN_POINT('',(-32.9949994999,5.,-4.45959187755919));
#1516=CARTESIAN_POINT('Origin',(-30.9949994999,5.,-4.45959187755919));
#1517=CARTESIAN_POINT('',(-32.9949994999,0.,-4.45959187755919));
#1518=CARTESIAN_POINT('Origin',(-32.9949994999,0.,-6.5));
#1519=CARTESIAN_POINT('',(-32.9949994999,5.,-6.5));
#1520=CARTESIAN_POINT('',(-32.9949994999,0.,-6.5));
#1521=CARTESIAN_POINT('Origin',(-30.9949994999,0.,4.45959187755919));
#1522=CARTESIAN_POINT('',(-32.9949994999,0.,4.45959187755919));
#1523=CARTESIAN_POINT('Origin',(-30.9949994999,0.,4.45959187755919));
#1524=CARTESIAN_POINT('',(-32.9949994999,5.,4.45959187755919));
#1525=CARTESIAN_POINT('',(-32.9949994999,0.,4.45959187755919));
#1526=CARTESIAN_POINT('Origin',(-30.9949994999,5.,4.45959187755919));
#1527=CARTESIAN_POINT('Origin',(-32.9949994999,0.,6.5));
#1528=CARTESIAN_POINT('',(-32.9949994999,5.,6.5));
#1529=CARTESIAN_POINT('',(-32.9949994999,0.,6.5));
#1530=CARTESIAN_POINT('Origin',(-10.8284271247462,0.,-23.));
#1531=CARTESIAN_POINT('',(-10.8284271247462,5.,-25.));
#1532=CARTESIAN_POINT('',(-9.41421356237309,5.,-24.4142135623731));
#1533=CARTESIAN_POINT('Origin',(-10.8284271247462,5.,-23.));
#1534=CARTESIAN_POINT('',(-9.41421356237309,0.,-24.4142135623731));
#1535=CARTESIAN_POINT('',(-9.41421356237309,0.,-24.4142135623731));
#1536=CARTESIAN_POINT('',(-10.8284271247462,0.,-25.));
#1537=CARTESIAN_POINT('Origin',(-10.8284271247462,0.,-23.));
#1538=CARTESIAN_POINT('',(-10.8284271247462,0.,-25.));
#1539=CARTESIAN_POINT('Origin',(-10.,0.,-25.));
#1540=CARTESIAN_POINT('',(-47.5,0.,-25.));
#1541=CARTESIAN_POINT('',(0.,0.,-25.));
#1542=CARTESIAN_POINT('',(-47.5,5.,-25.));
#1543=CARTESIAN_POINT('',(-47.5,0.,-25.));
#1544=CARTESIAN_POINT('',(0.,5.,-25.));
#1545=CARTESIAN_POINT('Origin',(-25.,0.,0.));
#1546=CARTESIAN_POINT('',(-0.585786437626907,0.,-15.5857864376269));
#1547=CARTESIAN_POINT('',(0.,0.,-15.));
#1548=CARTESIAN_POINT('',(0.,0.,-14.1715728752538));
#1549=CARTESIAN_POINT('Origin',(-2.,0.,-14.1715728752538));
#1550=CARTESIAN_POINT('',(0.,0.,14.1715728752538));
#1551=CARTESIAN_POINT('',(0.,0.,25.));
#1552=CARTESIAN_POINT('',(-0.585786437626905,0.,15.5857864376269));
#1553=CARTESIAN_POINT('Origin',(-2.,0.,14.1715728752538));
#1554=CARTESIAN_POINT('',(-9.4142135623731,0.,24.4142135623731));
#1555=CARTESIAN_POINT('',(-10.,0.,25.));
#1556=CARTESIAN_POINT('',(-10.8284271247462,0.,25.));
#1557=CARTESIAN_POINT('Origin',(-10.8284271247462,0.,23.));
#1558=CARTESIAN_POINT('',(-47.5,0.,25.));
#1559=CARTESIAN_POINT('',(-50.,0.,25.));
#1560=CARTESIAN_POINT('',(-47.5,0.,21.5));
#1561=CARTESIAN_POINT('',(-47.5,0.,21.5));
#1562=CARTESIAN_POINT('',(-50.,0.,21.5));
#1563=CARTESIAN_POINT('',(-50.,0.,21.5));
#1564=CARTESIAN_POINT('',(-50.,0.,17.5));
#1565=CARTESIAN_POINT('',(-50.,0.,0.));
#1566=CARTESIAN_POINT('',(-47.5,0.,17.5));
#1567=CARTESIAN_POINT('',(-47.5,0.,17.5));
#1568=CARTESIAN_POINT('',(-47.5,0.,15.));
#1569=CARTESIAN_POINT('',(-47.5,0.,15.));
#1570=CARTESIAN_POINT('',(-50.,0.,15.));
#1571=CARTESIAN_POINT('',(-50.,0.,15.));
#1572=CARTESIAN_POINT('',(-50.,0.,11.));
#1573=CARTESIAN_POINT('',(-50.,0.,0.));
#1574=CARTESIAN_POINT('',(-47.5,0.,11.));
#1575=CARTESIAN_POINT('',(-47.5,0.,11.));
#1576=CARTESIAN_POINT('',(-47.5,0.,8.5));
#1577=CARTESIAN_POINT('',(-47.5,0.,8.5));
#1578=CARTESIAN_POINT('',(-50.,0.,8.5));
#1579=CARTESIAN_POINT('',(-50.,0.,8.5));
#1580=CARTESIAN_POINT('',(-50.,0.,4.5));
#1581=CARTESIAN_POINT('',(-50.,0.,0.));
#1582=CARTESIAN_POINT('',(-47.5,0.,4.5));
#1583=CARTESIAN_POINT('',(-47.5,0.,4.5));
#1584=CARTESIAN_POINT('',(-47.5,0.,2.));
#1585=CARTESIAN_POINT('',(-47.5,0.,2.));
#1586=CARTESIAN_POINT('',(-50.,0.,2.));
#1587=CARTESIAN_POINT('',(-50.,0.,2.));
#1588=CARTESIAN_POINT('',(-50.,0.,-2.));
#1589=CARTESIAN_POINT('',(-50.,0.,-25.));
#1590=CARTESIAN_POINT('',(-47.5,0.,-2.));
#1591=CARTESIAN_POINT('',(-47.5,0.,-2.));
#1592=CARTESIAN_POINT('',(-47.5,0.,-4.5));
#1593=CARTESIAN_POINT('',(-47.5,0.,-4.5));
#1594=CARTESIAN_POINT('',(-50.,0.,-4.5));
#1595=CARTESIAN_POINT('',(-50.,0.,-4.5));
#1596=CARTESIAN_POINT('',(-50.,0.,-8.5));
#1597=CARTESIAN_POINT('',(-50.,0.,-25.));
#1598=CARTESIAN_POINT('',(-47.5,0.,-8.5));
#1599=CARTESIAN_POINT('',(-47.5,0.,-8.5));
#1600=CARTESIAN_POINT('',(-47.5,0.,-11.));
#1601=CARTESIAN_POINT('',(-47.5,0.,-11.));
#1602=CARTESIAN_POINT('',(-50.,0.,-11.));
#1603=CARTESIAN_POINT('',(-50.,0.,-11.));
#1604=CARTESIAN_POINT('',(-50.,0.,-15.));
#1605=CARTESIAN_POINT('',(-50.,0.,-25.));
#1606=CARTESIAN_POINT('',(-47.5,0.,-15.));
#1607=CARTESIAN_POINT('',(-47.5,0.,-15.));
#1608=CARTESIAN_POINT('',(-47.5,0.,-17.5));
#1609=CARTESIAN_POINT('',(-47.5,0.,-17.5));
#1610=CARTESIAN_POINT('',(-50.,0.,-17.5));
#1611=CARTESIAN_POINT('',(-50.,0.,-17.5));
#1612=CARTESIAN_POINT('',(-50.,0.,-21.5));
#1613=CARTESIAN_POINT('',(-50.,0.,-25.));
#1614=CARTESIAN_POINT('',(-47.5,0.,-21.5));
#1615=CARTESIAN_POINT('',(-47.5,0.,-21.5));
#1616=CARTESIAN_POINT('',(-47.5,0.,-25.));
#1617=CARTESIAN_POINT('',(-45.3,0.,5.26598123633362E-16));
#1618=CARTESIAN_POINT('Origin',(-41.,0.,0.));
#1619=CARTESIAN_POINT('',(-6.,0.,12.));
#1620=CARTESIAN_POINT('Origin',(-4.,0.,12.));
#1621=CARTESIAN_POINT('',(-45.3,0.,15.));
#1622=CARTESIAN_POINT('Origin',(-41.,0.,15.));
#1623=CARTESIAN_POINT('',(-6.,0.,-12.));
#1624=CARTESIAN_POINT('Origin',(-4.,0.,-12.));
#1625=CARTESIAN_POINT('',(-45.3,0.,-15.));
#1626=CARTESIAN_POINT('Origin',(-41.,0.,-15.));
#1627=CARTESIAN_POINT('Origin',(-2.,0.,-14.1715728752538));
#1628=CARTESIAN_POINT('',(-0.585786437626907,5.,-15.5857864376269));
#1629=CARTESIAN_POINT('',(0.,5.,-14.1715728752538));
#1630=CARTESIAN_POINT('Origin',(-2.,5.,-14.1715728752538));
#1631=CARTESIAN_POINT('',(0.,0.,-14.1715728752538));
#1632=CARTESIAN_POINT('',(-0.585786437626906,0.,-15.5857864376269));
#1633=CARTESIAN_POINT('Origin',(0.,0.,15.));
#1634=CARTESIAN_POINT('',(0.,5.,14.1715728752538));
#1635=CARTESIAN_POINT('',(0.,5.,25.));
#1636=CARTESIAN_POINT('',(0.,0.,14.1715728752538));
#1637=CARTESIAN_POINT('Origin',(-2.,0.,14.1715728752538));
#1638=CARTESIAN_POINT('',(-0.585786437626905,5.,15.5857864376269));
#1639=CARTESIAN_POINT('Origin',(-2.,5.,14.1715728752538));
#1640=CARTESIAN_POINT('',(-0.585786437626904,0.,15.5857864376269));
#1641=CARTESIAN_POINT('Origin',(-10.8284271247462,0.,23.));
#1642=CARTESIAN_POINT('',(-9.4142135623731,5.,24.4142135623731));
#1643=CARTESIAN_POINT('',(-10.8284271247462,5.,25.));
#1644=CARTESIAN_POINT('Origin',(-10.8284271247462,5.,23.));
#1645=CARTESIAN_POINT('',(-10.8284271247462,0.,25.));
#1646=CARTESIAN_POINT('',(-9.4142135623731,0.,24.4142135623731));
#1647=CARTESIAN_POINT('Origin',(-47.5,0.,25.));
#1648=CARTESIAN_POINT('',(-47.5,5.,25.));
#1649=CARTESIAN_POINT('',(-50.,5.,25.));
#1650=CARTESIAN_POINT('',(-47.5,0.,25.));
#1651=CARTESIAN_POINT('Origin',(-41.,0.,-15.));
#1652=CARTESIAN_POINT('',(-45.3,5.,-15.));
#1653=CARTESIAN_POINT('Origin',(-41.,5.,-15.));
#1654=CARTESIAN_POINT('',(-45.3,0.,-15.));
#1655=CARTESIAN_POINT('Origin',(-4.,0.,-12.));
#1656=CARTESIAN_POINT('',(-6.,5.,-12.));
#1657=CARTESIAN_POINT('Origin',(-4.,5.,-12.));
#1658=CARTESIAN_POINT('',(-6.,0.,-12.));
#1659=CARTESIAN_POINT('Origin',(-41.,0.,15.));
#1660=CARTESIAN_POINT('',(-45.3,5.,15.));
#1661=CARTESIAN_POINT('Origin',(-41.,5.,15.));
#1662=CARTESIAN_POINT('',(-45.3,0.,15.));
#1663=CARTESIAN_POINT('Origin',(-4.,0.,12.));
#1664=CARTESIAN_POINT('',(-6.,5.,12.));
#1665=CARTESIAN_POINT('Origin',(-4.,5.,12.));
#1666=CARTESIAN_POINT('',(-6.,0.,12.));
#1667=CARTESIAN_POINT('Origin',(-41.,0.,0.));
#1668=CARTESIAN_POINT('',(-45.3,5.,5.26598123633362E-16));
#1669=CARTESIAN_POINT('Origin',(-41.,5.,0.));
#1670=CARTESIAN_POINT('',(-45.3,0.,5.26598123633362E-16));
#1671=CARTESIAN_POINT('Origin',(-50.,0.,-2.));
#1672=CARTESIAN_POINT('',(-50.,5.,2.));
#1673=CARTESIAN_POINT('',(-50.,0.,2.));
#1674=CARTESIAN_POINT('',(-50.,5.,-2.));
#1675=CARTESIAN_POINT('',(-50.,5.,-25.));
#1676=CARTESIAN_POINT('',(-50.,0.,-2.));
#1677=CARTESIAN_POINT('Origin',(-47.5,0.,-2.));
#1678=CARTESIAN_POINT('',(-47.5,5.,-2.));
#1679=CARTESIAN_POINT('',(-47.5,5.,-2.));
#1680=CARTESIAN_POINT('',(-47.5,0.,-2.));
#1681=CARTESIAN_POINT('Origin',(-47.5,0.,-4.5));
#1682=CARTESIAN_POINT('',(-47.5,5.,-4.5));
#1683=CARTESIAN_POINT('',(-47.5,5.,-4.5));
#1684=CARTESIAN_POINT('',(-47.5,0.,-4.5));
#1685=CARTESIAN_POINT('Origin',(-50.,0.,-4.5));
#1686=CARTESIAN_POINT('',(-50.,5.,-4.5));
#1687=CARTESIAN_POINT('',(-50.,5.,-4.5));
#1688=CARTESIAN_POINT('',(-50.,0.,-4.5));
#1689=CARTESIAN_POINT('Origin',(-50.,0.,-8.5));
#1690=CARTESIAN_POINT('',(-50.,5.,-8.5));
#1691=CARTESIAN_POINT('',(-50.,5.,-25.));
#1692=CARTESIAN_POINT('',(-50.,0.,-8.5));
#1693=CARTESIAN_POINT('Origin',(-47.5,0.,-8.5));
#1694=CARTESIAN_POINT('',(-47.5,5.,-8.5));
#1695=CARTESIAN_POINT('',(-47.5,5.,-8.5));
#1696=CARTESIAN_POINT('',(-47.5,0.,-8.5));
#1697=CARTESIAN_POINT('Origin',(-47.5,0.,-11.));
#1698=CARTESIAN_POINT('',(-47.5,5.,-11.));
#1699=CARTESIAN_POINT('',(-47.5,5.,-11.));
#1700=CARTESIAN_POINT('',(-47.5,0.,-11.));
#1701=CARTESIAN_POINT('Origin',(-50.,0.,-11.));
#1702=CARTESIAN_POINT('',(-50.,5.,-11.));
#1703=CARTESIAN_POINT('',(-50.,5.,-11.));
#1704=CARTESIAN_POINT('',(-50.,0.,-11.));
#1705=CARTESIAN_POINT('Origin',(-50.,0.,-15.));
#1706=CARTESIAN_POINT('',(-50.,5.,-15.));
#1707=CARTESIAN_POINT('',(-50.,5.,-25.));
#1708=CARTESIAN_POINT('',(-50.,0.,-15.));
#1709=CARTESIAN_POINT('Origin',(-47.5,0.,-15.));
#1710=CARTESIAN_POINT('',(-47.5,5.,-15.));
#1711=CARTESIAN_POINT('',(-47.5,5.,-15.));
#1712=CARTESIAN_POINT('',(-47.5,0.,-15.));
#1713=CARTESIAN_POINT('Origin',(-47.5,0.,-17.5));
#1714=CARTESIAN_POINT('',(-47.5,5.,-17.5));
#1715=CARTESIAN_POINT('',(-47.5,5.,-17.5));
#1716=CARTESIAN_POINT('',(-47.5,0.,-17.5));
#1717=CARTESIAN_POINT('Origin',(-50.,0.,-17.5));
#1718=CARTESIAN_POINT('',(-50.,5.,-17.5));
#1719=CARTESIAN_POINT('',(-50.,5.,-17.5));
#1720=CARTESIAN_POINT('',(-50.,0.,-17.5));
#1721=CARTESIAN_POINT('Origin',(-50.,0.,-21.5));
#1722=CARTESIAN_POINT('',(-50.,5.,-21.5));
#1723=CARTESIAN_POINT('',(-50.,5.,-25.));
#1724=CARTESIAN_POINT('',(-50.,0.,-21.5));
#1725=CARTESIAN_POINT('Origin',(-47.5,0.,-21.5));
#1726=CARTESIAN_POINT('',(-47.5,5.,-21.5));
#1727=CARTESIAN_POINT('',(-47.5,5.,-21.5));
#1728=CARTESIAN_POINT('',(-47.5,0.,-21.5));
#1729=CARTESIAN_POINT('Origin',(-47.5,0.,-25.));
#1730=CARTESIAN_POINT('',(-47.5,5.,-25.));
#1731=CARTESIAN_POINT('Origin',(0.,0.,-15.));
#1732=CARTESIAN_POINT('',(0.,5.,-15.));
#1733=CARTESIAN_POINT('Origin',(-10.,0.,25.));
#1734=CARTESIAN_POINT('',(-10.,5.,25.));
#1735=CARTESIAN_POINT('Origin',(-47.5,0.,21.5));
#1736=CARTESIAN_POINT('',(-47.5,5.,21.5));
#1737=CARTESIAN_POINT('',(-47.5,5.,21.5));
#1738=CARTESIAN_POINT('',(-47.5,0.,21.5));
#1739=CARTESIAN_POINT('Origin',(-50.,0.,21.5));
#1740=CARTESIAN_POINT('',(-50.,5.,21.5));
#1741=CARTESIAN_POINT('',(-50.,5.,21.5));
#1742=CARTESIAN_POINT('',(-50.,0.,21.5));
#1743=CARTESIAN_POINT('Origin',(-50.,0.,17.5));
#1744=CARTESIAN_POINT('',(-50.,5.,17.5));
#1745=CARTESIAN_POINT('',(-50.,5.,0.));
#1746=CARTESIAN_POINT('',(-50.,0.,17.5));
#1747=CARTESIAN_POINT('Origin',(-47.5,0.,17.5));
#1748=CARTESIAN_POINT('',(-47.5,5.,17.5));
#1749=CARTESIAN_POINT('',(-47.5,5.,17.5));
#1750=CARTESIAN_POINT('',(-47.5,0.,17.5));
#1751=CARTESIAN_POINT('Origin',(-47.5,0.,15.));
#1752=CARTESIAN_POINT('',(-47.5,5.,15.));
#1753=CARTESIAN_POINT('',(-47.5,5.,15.));
#1754=CARTESIAN_POINT('',(-47.5,0.,15.));
#1755=CARTESIAN_POINT('Origin',(-50.,0.,15.));
#1756=CARTESIAN_POINT('',(-50.,5.,15.));
#1757=CARTESIAN_POINT('',(-50.,5.,15.));
#1758=CARTESIAN_POINT('',(-50.,0.,15.));
#1759=CARTESIAN_POINT('Origin',(-50.,0.,11.));
#1760=CARTESIAN_POINT('',(-50.,5.,11.));
#1761=CARTESIAN_POINT('',(-50.,5.,0.));
#1762=CARTESIAN_POINT('',(-50.,0.,11.));
#1763=CARTESIAN_POINT('Origin',(-47.5,0.,11.));
#1764=CARTESIAN_POINT('',(-47.5,5.,11.));
#1765=CARTESIAN_POINT('',(-47.5,5.,11.));
#1766=CARTESIAN_POINT('',(-47.5,0.,11.));
#1767=CARTESIAN_POINT('Origin',(-47.5,0.,8.5));
#1768=CARTESIAN_POINT('',(-47.5,5.,8.5));
#1769=CARTESIAN_POINT('',(-47.5,5.,8.5));
#1770=CARTESIAN_POINT('',(-47.5,0.,8.5));
#1771=CARTESIAN_POINT('Origin',(-50.,0.,8.5));
#1772=CARTESIAN_POINT('',(-50.,5.,8.5));
#1773=CARTESIAN_POINT('',(-50.,5.,8.5));
#1774=CARTESIAN_POINT('',(-50.,0.,8.5));
#1775=CARTESIAN_POINT('Origin',(-50.,0.,4.5));
#1776=CARTESIAN_POINT('',(-50.,5.,4.5));
#1777=CARTESIAN_POINT('',(-50.,5.,0.));
#1778=CARTESIAN_POINT('',(-50.,0.,4.5));
#1779=CARTESIAN_POINT('Origin',(-47.5,0.,4.5));
#1780=CARTESIAN_POINT('',(-47.5,5.,4.5));
#1781=CARTESIAN_POINT('',(-47.5,5.,4.5));
#1782=CARTESIAN_POINT('',(-47.5,0.,4.5));
#1783=CARTESIAN_POINT('Origin',(-47.5,0.,2.));
#1784=CARTESIAN_POINT('',(-47.5,5.,2.));
#1785=CARTESIAN_POINT('',(-47.5,5.,2.));
#1786=CARTESIAN_POINT('',(-47.5,0.,2.));
#1787=CARTESIAN_POINT('Origin',(-50.,0.,2.));
#1788=CARTESIAN_POINT('',(-50.,5.,2.));
#1789=CARTESIAN_POINT('Origin',(-25.,5.,0.));
#1790=UNCERTAINTY_MEASURE_WITH_UNIT(LENGTH_MEASURE(0.01),#1794,
'DISTANCE_ACCURACY_VALUE',
'Maximum model space distance between geometric entities at asserted c
onnectivities');
#1791=UNCERTAINTY_MEASURE_WITH_UNIT(LENGTH_MEASURE(0.01),#1794,
'DISTANCE_ACCURACY_VALUE',
'Maximum model space distance between geometric entities at asserted c
onnectivities');
#1792=(
GEOMETRIC_REPRESENTATION_CONTEXT(3)
GLOBAL_UNCERTAINTY_ASSIGNED_CONTEXT((#1790))
GLOBAL_UNIT_ASSIGNED_CONTEXT((#1794,#1796,#1797))
REPRESENTATION_CONTEXT('','3D')
);
#1793=(
GEOMETRIC_REPRESENTATION_CONTEXT(3)
GLOBAL_UNCERTAINTY_ASSIGNED_CONTEXT((#1791))
GLOBAL_UNIT_ASSIGNED_CONTEXT((#1794,#1796,#1797))
REPRESENTATION_CONTEXT('','3D')
);
#1794=(
LENGTH_UNIT()
NAMED_UNIT(*)
SI_UNIT(.MILLI.,.METRE.)
);
#1795=(
LENGTH_UNIT()
NAMED_UNIT(*)
SI_UNIT(.CENTI.,.METRE.)
);
#1796=(
NAMED_UNIT(*)
PLANE_ANGLE_UNIT()
SI_UNIT($,.RADIAN.)
);
#1797=(
NAMED_UNIT(*)
SI_UNIT($,.STERADIAN.)
SOLID_ANGLE_UNIT()
);
#1798=SHAPE_DEFINITION_REPRESENTATION(#1799,#1800);
#1799=PRODUCT_DEFINITION_SHAPE('',$,#1802);
#1800=SHAPE_REPRESENTATION('',(#1114),#1792);
#1801=PRODUCT_DEFINITION_CONTEXT('part definition',#1806,'design');
#1802=PRODUCT_DEFINITION('Gutteil_V1','Fehler_4',#1803,#1801);
#1803=PRODUCT_DEFINITION_FORMATION('',$,#1808);
#1804=PRODUCT_RELATED_PRODUCT_CATEGORY('Fehler_4','Fehler_4',(#1808));
#1805=APPLICATION_PROTOCOL_DEFINITION('international standard',
'automotive_design',2009,#1806);
#1806=APPLICATION_CONTEXT(
'Core Data for Automotive Mechanical Design Process');
#1807=PRODUCT_CONTEXT('part definition',#1806,'mechanical');
#1808=PRODUCT('Gutteil_V1','Fehler_4',$,(#1807));
#1809=PRESENTATION_STYLE_ASSIGNMENT((#1810));
#1810=SURFACE_STYLE_USAGE(.BOTH.,#1813);
#1811=SURFACE_STYLE_RENDERING_WITH_PROPERTIES($,#1817,(#1812));
#1812=SURFACE_STYLE_TRANSPARENT(0.);
#1813=SURFACE_SIDE_STYLE('',(#1814,#1811));
#1814=SURFACE_STYLE_FILL_AREA(#1815);
#1815=FILL_AREA_STYLE('',(#1816));
#1816=FILL_AREA_STYLE_COLOUR('',#1817);
#1817=COLOUR_RGB('',0.698039215686274,0.698039215686274,0.698039215686274);
ENDSEC;
END-ISO-10303-21;
